<svg width="25" height="28" viewBox="0 0 25 28" fill="none" xmlns="http://www.w3.org/2000/svg">
<path d="M17.9693 27.3774H2.7572C2.57972 27.3265 2.39591 27.2884 2.21844 27.2313C0.868359 26.8057 0 25.5924 0 24.1124C0 19.666 0 15.2195 0 10.7731C0 8.27037 0 5.76131 0 3.2586C0 2.12794 0.443688 1.22594 1.36275 0.558979C1.78109 0.25408 2.26914 0.114337 2.76354 0C7.83425 0 12.905 0 17.9757 0C18.2799 0.0952808 18.6032 0.152449 18.8821 0.292194C20.118 0.901991 20.7202 1.91832 20.7265 3.29672C20.7265 6.85387 20.7265 10.4047 20.7265 13.9618C20.7265 14.9591 20.7265 14.9718 21.69 15.2957C22.2794 15.499 22.8879 15.5943 23.4457 15.2703C23.9528 14.9781 24.5486 15.2449 24.5296 15.9564C24.4979 17.195 24.5296 18.4337 24.5169 19.6723C24.5169 19.92 24.5042 20.1741 24.4535 20.4155C24.0161 22.4609 22.8309 23.871 20.8977 24.6587C20.7962 24.6968 20.6885 24.8175 20.6568 24.9255C20.3462 26.0942 19.63 26.8692 18.4827 27.2503C18.3179 27.3075 18.1468 27.3392 17.9757 27.3901L17.9693 27.3774ZM19.3638 24.6968C19.0595 24.5507 18.7489 24.4236 18.4701 24.2585C16.8157 23.2676 15.8016 21.8257 15.6812 19.8756C15.5988 18.5289 15.6622 17.1696 15.6685 15.8103C15.6685 15.264 16.1249 14.9908 16.6319 15.2195C16.784 15.2894 16.9425 15.3593 17.101 15.3974C17.8743 15.5752 18.5525 15.2957 19.2117 14.94C19.3764 14.8511 19.4462 14.7431 19.4462 14.5462C19.4462 10.8048 19.4462 7.06348 19.4462 3.31577C19.4462 2.03266 18.6792 1.27676 17.4052 1.27676C12.7211 1.27676 8.03074 1.27676 3.34667 1.27676C2.05364 1.27676 1.29303 2.03901 1.29303 3.33483C1.29303 10.2332 1.29303 17.1315 1.29303 24.0298C1.29303 25.3256 2.05998 26.0942 3.34667 26.0942C8.03074 26.0942 12.7211 26.0942 17.4052 26.0942C17.5003 26.0942 17.6017 26.0942 17.6968 26.0942C18.4827 26.0498 19.2117 25.4527 19.3701 24.7031L19.3638 24.6968ZM23.1858 16.7059C22.1146 16.8584 21.1512 16.5407 20.2321 16.0199C20.1561 15.9754 20.023 15.9691 19.9532 16.0072C19.0342 16.5471 18.0581 16.852 16.9425 16.6995C16.9425 16.8139 16.9425 16.9092 16.9425 17.0044C16.9425 17.8175 16.9425 18.6242 16.9425 19.4373C16.9425 21.3238 18.1151 22.9309 19.9089 23.4963C20.0039 23.528 20.1244 23.5344 20.2195 23.5026C21.7597 23.0707 23.0464 21.6287 23.1858 20.028C23.2809 18.9418 23.2175 17.8366 23.2239 16.744C23.2239 16.7377 23.2175 16.7313 23.1922 16.6932L23.1858 16.7059Z" fill="#004E4E"/>
<path d="M10.3887 8.86757C12.5945 8.86757 14.8002 8.86757 17.006 8.86757C17.4623 8.86757 17.7159 9.1026 17.7095 9.51548C17.7095 9.86484 17.494 10.1062 17.1454 10.1443C17.0503 10.157 16.9489 10.1507 16.8539 10.1507C12.5247 10.1507 8.18928 10.1507 3.86016 10.1507C3.72705 10.1507 3.59395 10.1507 3.46084 10.1189C3.14392 10.0427 2.97912 9.77591 3.01082 9.42655C3.04251 9.1153 3.25167 8.89933 3.55592 8.86757C3.65099 8.86122 3.75241 8.86757 3.84748 8.86757C6.02789 8.86757 8.20829 8.86757 10.3824 8.86757H10.3887Z" fill="#004E4E"/>
<path d="M10.3694 13.0405C12.5752 13.0405 14.7809 13.0405 16.9867 13.0405C17.405 13.0405 17.6396 13.212 17.7029 13.536C17.779 13.9679 17.5318 14.2919 17.0881 14.3236C17.0057 14.3236 16.9297 14.3236 16.8473 14.3236C12.5245 14.3236 8.2017 14.3236 3.87892 14.3236C3.77116 14.3236 3.66341 14.3236 3.562 14.3173C3.20705 14.2728 2.99788 14.0124 3.01055 13.6503C3.02323 13.2946 3.25775 13.0469 3.62538 13.0469C4.55078 13.0405 5.47619 13.0469 6.40159 13.0469C7.72632 13.0469 9.05104 13.0469 10.3758 13.0469L10.3694 13.0405Z" fill="#004E4E"/>
<path d="M10.3696 4.6812C11.9606 4.6812 13.5515 4.6812 15.1425 4.6812C15.6622 4.6812 15.9411 5.01786 15.8333 5.48156C15.7763 5.72929 15.6242 5.89444 15.3706 5.93255C15.2502 5.95161 15.1234 5.95796 14.9967 5.95796C11.9035 5.95796 8.81041 5.95796 5.71727 5.95796C5.57783 5.95796 5.43205 5.95796 5.2926 5.91985C5.02005 5.85633 4.84257 5.58954 4.85525 5.29099C4.86793 4.97974 5.06442 4.73201 5.35598 4.68755C5.47008 4.66849 5.58417 4.67484 5.7046 4.67484C7.2575 4.67484 8.81674 4.67484 10.3696 4.67484V4.6812Z" fill="#004E4E"/>
<path d="M7.70116 22.6767C6.35742 22.6767 5.02002 22.6767 3.67629 22.6767C3.23894 22.6767 2.9854 22.4099 3.00442 21.997C3.02343 21.6858 3.21358 21.4634 3.52416 21.4063C3.59389 21.3936 3.66361 21.3936 3.73967 21.3936C6.38911 21.3936 9.03222 21.3936 11.6817 21.3936C12.2268 21.3936 12.531 21.7874 12.3662 22.2638C12.2711 22.5433 12.0746 22.6767 11.726 22.6767C10.5154 22.6767 9.31111 22.6767 8.10048 22.6767C7.96737 22.6767 7.83427 22.6767 7.70116 22.6767Z" fill="#004E4E"/>
<path d="M7.27029 18.5033C6.07233 18.5033 4.86804 18.5033 3.67009 18.5033C3.23908 18.5033 2.98554 18.2302 3.01089 17.811C3.02991 17.5061 3.21372 17.2964 3.51163 17.2393C3.58135 17.2266 3.65107 17.2266 3.72713 17.2266C6.09135 17.2266 8.46191 17.2266 10.8261 17.2266C11.0987 17.2266 11.3395 17.2901 11.479 17.5505C11.7198 18.0015 11.4283 18.5033 10.9022 18.5033C9.69155 18.5097 8.48092 18.5033 7.27029 18.5033Z" fill="#004E4E"/>
<path d="M19.44 19.9835C20.0992 19.3228 20.714 18.7003 21.3415 18.0778C21.6331 17.792 21.9627 17.7729 22.2415 18.0207C22.5141 18.262 22.5648 18.6368 22.3113 18.8973C21.519 19.7167 20.7203 20.5234 19.909 21.3237C19.6491 21.5842 19.2625 21.5588 18.99 21.2983C18.616 20.9299 18.2484 20.5551 17.8871 20.174C17.6272 19.8945 17.6462 19.5515 17.9061 19.2911C18.166 19.037 18.5082 19.0243 18.7871 19.2911C19.009 19.5007 19.2055 19.7294 19.44 19.9771V19.9835Z" fill="#004E4E"/>
</svg>
