<svg width="21" height="16" viewBox="0 0 21 16" fill="none" xmlns="http://www.w3.org/2000/svg">
<path d="M1.97789 2.59083C2.00053 2.60852 2.02609 2.6221 2.05341 2.63097C2.07992 2.64438 2.10843 2.6534 2.13783 2.65767C2.1657 2.66277 2.19393 2.66574 2.22225 2.66656C2.28077 2.66713 2.33882 2.65602 2.393 2.63389C2.44718 2.61176 2.4964 2.57904 2.53779 2.53766C2.57917 2.49627 2.61189 2.44705 2.63402 2.39287C2.65616 2.33869 2.66726 2.28064 2.6667 2.22212C2.66757 2.16428 2.65703 2.10683 2.63568 2.05306C2.60984 2.00003 2.57692 1.95075 2.53782 1.90658C2.45273 1.82729 2.34075 1.7832 2.22445 1.7832C2.10814 1.7832 1.99616 1.82729 1.91108 1.90658C1.86913 1.94844 1.83593 1.99824 1.81342 2.05306C1.79052 2.10651 1.77842 2.16397 1.77783 2.22212C1.77914 2.3407 1.827 2.45402 1.91108 2.53766C1.93037 2.55883 1.95293 2.57678 1.97789 2.59083Z" fill="white"/>
<path d="M4.0001 2.66655C4.02994 2.66573 4.05967 2.66276 4.08908 2.65766C4.11685 2.65268 4.14375 2.64369 4.16894 2.63096C4.19769 2.62215 4.22475 2.60858 4.24902 2.59082C4.27231 2.57451 4.29456 2.55675 4.31564 2.53765C4.39853 2.45358 4.44486 2.34018 4.44455 2.22211C4.44542 2.16427 4.43488 2.10682 4.41353 2.05306C4.38769 2.00002 4.35476 1.95074 4.31566 1.90657C4.22972 1.82725 4.11707 1.7832 4.00012 1.7832C3.88318 1.7832 3.77052 1.82725 3.68459 1.90657C3.64537 1.94973 3.61381 1.99927 3.59128 2.05306C3.56837 2.10651 3.55627 2.16396 3.55568 2.22211C3.55512 2.28064 3.56622 2.33869 3.58836 2.39287C3.61049 2.44705 3.64321 2.49627 3.68459 2.53765C3.72598 2.57903 3.7752 2.61175 3.82938 2.63388C3.88356 2.65602 3.94158 2.66712 4.0001 2.66655Z" fill="white"/>
<path d="M5.7778 2.66656C5.80763 2.66573 5.83737 2.66276 5.86678 2.65767C5.89586 2.65207 5.92419 2.64311 5.9512 2.63097C5.9781 2.62113 6.00351 2.60762 6.02671 2.59083C6.05001 2.57451 6.07226 2.55675 6.09334 2.53766C6.17623 2.45359 6.22256 2.34018 6.22224 2.22212C6.22312 2.16428 6.21258 2.10683 6.19123 2.05306C6.16538 2.00003 6.13246 1.95075 6.09336 1.90658C6.00827 1.82729 5.89629 1.7832 5.77999 1.7832C5.66369 1.7832 5.55171 1.82729 5.46662 1.90658C5.42467 1.94844 5.39147 1.99824 5.36896 2.05306C5.34605 2.10651 5.33396 2.16397 5.33337 2.22212C5.33418 2.33974 5.38127 2.45232 5.46444 2.53549C5.54761 2.61867 5.66017 2.66575 5.7778 2.66656Z" fill="white"/>
<path d="M8.89001 2.66672H13.7789C13.8374 2.66693 13.8954 2.65559 13.9495 2.63334C14.0036 2.6111 14.0528 2.5784 14.0942 2.53711C14.1356 2.49582 14.1685 2.44675 14.191 2.39273C14.2134 2.3387 14.2249 2.28078 14.2249 2.22228C14.2249 2.16378 14.2134 2.10586 14.191 2.05183C14.1685 1.9978 14.1356 1.94874 14.0942 1.90745C14.0528 1.86616 14.0036 1.83345 13.9495 1.81121C13.8954 1.78897 13.8374 1.77763 13.7789 1.77783H8.89001C8.77241 1.77825 8.65977 1.82526 8.57676 1.90857C8.49375 1.99187 8.44714 2.10468 8.44714 2.22228C8.44714 2.33988 8.49375 2.45268 8.57676 2.53599C8.65977 2.61929 8.77241 2.6663 8.89001 2.66672Z" fill="white"/>
<path d="M3.11217 7.55539H12.0011C12.0596 7.5556 12.1175 7.54426 12.1716 7.52202C12.2257 7.49978 12.2749 7.46707 12.3164 7.42578C12.3578 7.38449 12.3907 7.33542 12.4131 7.2814C12.4355 7.22737 12.4471 7.16945 12.4471 7.11095C12.4471 7.05245 12.4355 6.99453 12.4131 6.9405C12.3907 6.88648 12.3578 6.83741 12.3164 6.79612C12.2749 6.75483 12.2257 6.72212 12.1716 6.69988C12.1175 6.67764 12.0596 6.6663 12.0011 6.66651H3.11217C3.05367 6.6663 2.9957 6.67764 2.9416 6.69988C2.88749 6.72212 2.83831 6.75483 2.79687 6.79612C2.75543 6.83741 2.72255 6.88648 2.70012 6.9405C2.67769 6.99453 2.66614 7.05245 2.66614 7.11095C2.66614 7.16945 2.67769 7.22737 2.70012 7.2814C2.72255 7.33542 2.75543 7.38449 2.79687 7.42578C2.83831 7.46707 2.88749 7.49978 2.9416 7.52202C2.9957 7.54426 3.05367 7.5556 3.11217 7.55539Z" fill="#DAA232"/>
<path d="M3.11217 9.33322H10.2233C10.2818 9.33343 10.3397 9.32209 10.3938 9.29985C10.448 9.27761 10.4971 9.2449 10.5386 9.20361C10.58 9.16232 10.6129 9.11326 10.6353 9.05923C10.6578 9.0052 10.6693 8.94728 10.6693 8.88878C10.6693 8.83028 10.6578 8.77236 10.6353 8.71833C10.6129 8.66431 10.58 8.61524 10.5386 8.57395C10.4971 8.53266 10.448 8.49996 10.3938 8.47771C10.3397 8.45547 10.2818 8.44413 10.2233 8.44434H3.11217C3.05367 8.44413 2.9957 8.45547 2.9416 8.47771C2.88749 8.49996 2.83831 8.53266 2.79687 8.57395C2.75543 8.61524 2.72255 8.66431 2.70012 8.71833C2.67769 8.77236 2.66614 8.83028 2.66614 8.88878C2.66614 8.94728 2.67769 9.0052 2.70012 9.05923C2.72255 9.11326 2.75543 9.16232 2.79687 9.20361C2.83831 9.2449 2.88749 9.27761 2.9416 9.29985C2.9957 9.32209 3.05367 9.33343 3.11217 9.33322Z" fill="#DAA232"/>
<path d="M8.88995 10.2222H3.11217C2.9943 10.2222 2.88125 10.269 2.7979 10.3523C2.71455 10.4357 2.66772 10.5487 2.66772 10.6666C2.66772 10.7845 2.71455 10.8975 2.7979 10.9809C2.88125 11.0642 2.9943 11.1111 3.11217 11.1111H8.88995C9.00782 11.1111 9.12087 11.0642 9.20422 10.9809C9.28757 10.8975 9.33439 10.7845 9.33439 10.6666C9.33439 10.5487 9.28757 10.4357 9.20422 10.3523C9.12087 10.269 9.00782 10.2222 8.88995 10.2222Z" fill="#DAA232"/>
<path d="M8.88995 12H3.11217C2.9943 12 2.88125 12.0468 2.7979 12.1302C2.71455 12.2135 2.66772 12.3266 2.66772 12.4444C2.66772 12.5623 2.71455 12.6754 2.7979 12.7587C2.88125 12.8421 2.9943 12.8889 3.11217 12.8889H8.88995C9.00782 12.8889 9.12087 12.8421 9.20422 12.7587C9.28757 12.6754 9.33439 12.5623 9.33439 12.4444C9.33439 12.3266 9.28757 12.2135 9.20422 12.1302C9.12087 12.0468 9.00782 12 8.88995 12Z" fill="#DAA232"/>
<path d="M20.3023 4.58767C20.303 4.35412 20.2573 4.12277 20.1679 3.90701C20.0785 3.69125 19.9471 3.49537 19.7815 3.33073C19.4429 3.0073 18.9927 2.82682 18.5245 2.82682C18.0563 2.82682 17.6061 3.0073 17.2676 3.33073L16.6389 3.9592L16.6379 3.96077L16.6369 3.96137L16 4.59831V4.00537L16.0011 4L16 3.99463V0.44444C16 0.326568 15.9532 0.213526 15.8698 0.130178C15.7865 0.0468306 15.6734 4.48668e-06 15.5556 0H0.444446C0.326574 4.48668e-06 0.213531 0.0468306 0.130182 0.130178C0.0468336 0.213526 5.98235e-06 0.326568 0 0.44444V15.5556C5.98235e-06 15.6734 0.0468336 15.7865 0.130182 15.8698C0.213531 15.9532 0.326574 16 0.444446 16H15.5556C15.6734 16 15.7865 15.9532 15.8698 15.8698C15.9532 15.7865 16 15.6734 16 15.5556V9.627L17.8963 7.73244L17.8967 7.73179L19.1543 6.47418L19.1587 6.46764L19.7815 5.84484C19.9471 5.68015 20.0785 5.48424 20.1679 5.26844C20.2573 5.05264 20.303 4.82125 20.3023 4.58767ZM15.1111 0.888885V3.55555H0.888891V0.888885H15.1111ZM15.1111 15.1111H0.888891V4.44445H15.1111V5.48698L10.3524 10.2457C10.2691 10.329 10.2222 10.442 10.2222 10.5599V12.4444C10.2222 12.5623 10.2691 12.6754 10.3524 12.7587C10.4358 12.8421 10.5488 12.8889 10.6667 12.8889H12.5512C12.6691 12.8889 12.7821 12.842 12.8655 12.7587L15.1111 10.5151L15.1111 15.1111ZM15.2503 9.11925L15.2413 9.12587L12.3672 12H11.1111V10.7439L15.6975 6.15777L16.9538 7.41708L15.2503 9.11925ZM17.5827 6.78884L16.3262 5.52929L16.9516 4.90387L18.2112 6.16039L17.5827 6.78884ZM19.153 5.21636L18.8386 5.53076L17.58 4.27517L17.8961 3.9592C18.0653 3.79749 18.2904 3.70725 18.5245 3.70725C18.7586 3.70725 18.9837 3.79749 19.153 3.9592C19.2356 4.04174 19.3011 4.13973 19.3457 4.24758C19.3904 4.35544 19.4134 4.47104 19.4134 4.58778C19.4134 4.70452 19.3904 4.82012 19.3457 4.92798C19.3011 5.03583 19.2356 5.13382 19.153 5.21636Z" fill="white"/>
</svg>
