<svg width="67" height="66" viewBox="0 0 67 66" fill="none" xmlns="http://www.w3.org/2000/svg">
<g clip-path="url(#clip0_1330_590)">
<path d="M19.2893 0.353516C21.9206 0.353516 24.0465 2.16895 24.0465 4.41602V8.47852H43.0755V4.41602C43.0755 2.16895 45.2014 0.353516 47.8328 0.353516C50.4642 0.353516 52.5901 2.16895 52.5901 4.41602V8.47852H59.7259C63.6655 8.47852 66.8618 11.208 66.8618 14.5723V20.666H0.260254V14.5723C0.260254 11.208 3.45653 8.47852 7.39614 8.47852H14.532V4.41602C14.532 2.16895 16.6579 0.353516 19.2893 0.353516ZM0.260254 24.7285H66.8618V59.2598C66.8618 62.624 63.6655 65.3535 59.7259 65.3535H7.39614C3.45653 65.3535 0.260254 62.624 0.260254 59.2598V24.7285ZM9.77476 34.8848V38.9473C9.77476 40.0645 10.8451 40.9785 12.1534 40.9785H16.9106C18.2189 40.9785 19.2893 40.0645 19.2893 38.9473V34.8848C19.2893 33.7676 18.2189 32.8535 16.9106 32.8535H12.1534C10.8451 32.8535 9.77476 33.7676 9.77476 34.8848ZM28.8038 34.8848V38.9473C28.8038 40.0645 29.8742 40.9785 31.1824 40.9785H35.9397C37.2479 40.9785 38.3183 40.0645 38.3183 38.9473V34.8848C38.3183 33.7676 37.2479 32.8535 35.9397 32.8535H31.1824C29.8742 32.8535 28.8038 33.7676 28.8038 34.8848ZM50.2114 32.8535C48.9032 32.8535 47.8328 33.7676 47.8328 34.8848V38.9473C47.8328 40.0645 48.9032 40.9785 50.2114 40.9785H54.9687C56.2769 40.9785 57.3473 40.0645 57.3473 38.9473V34.8848C57.3473 33.7676 56.2769 32.8535 54.9687 32.8535H50.2114ZM9.77476 51.1348V55.1973C9.77476 56.3145 10.8451 57.2285 12.1534 57.2285H16.9106C18.2189 57.2285 19.2893 56.3145 19.2893 55.1973V51.1348C19.2893 50.0176 18.2189 49.1035 16.9106 49.1035H12.1534C10.8451 49.1035 9.77476 50.0176 9.77476 51.1348ZM31.1824 49.1035C29.8742 49.1035 28.8038 50.0176 28.8038 51.1348V55.1973C28.8038 56.3145 29.8742 57.2285 31.1824 57.2285H35.9397C37.2479 57.2285 38.3183 56.3145 38.3183 55.1973V51.1348C38.3183 50.0176 37.2479 49.1035 35.9397 49.1035H31.1824ZM47.8328 51.1348V55.1973C47.8328 56.3145 48.9032 57.2285 50.2114 57.2285H54.9687C56.2769 57.2285 57.3473 56.3145 57.3473 55.1973V51.1348C57.3473 50.0176 56.2769 49.1035 54.9687 49.1035H50.2114C48.9032 49.1035 47.8328 50.0176 47.8328 51.1348Z" fill="#004E4E"/>
</g>
<defs>
<clipPath id="clip0_1330_590">
<rect width="66.6016" height="65" fill="white" transform="translate(0.260254 0.353516)"/>
</clipPath>
</defs>
</svg>
