<svg width="18" height="18" viewBox="0 0 18 18" fill="none" xmlns="http://www.w3.org/2000/svg">
<path d="M5.40799 0H3C2.90169 0.000217 2.80382 0.00499133 2.70595 0.0147569C2.60829 0.0245226 2.51128 0.0390625 2.41493 0.0581597C2.31858 0.077474 2.22352 0.101345 2.12956 0.129991C2.03559 0.15842 1.94314 0.191623 1.85243 0.229167C1.76172 0.266927 1.67318 0.308811 1.58659 0.355252C1.49978 0.401476 1.4158 0.45204 1.33398 0.506727C1.25239 0.561198 1.17361 0.619792 1.09766 0.682075C1.02192 0.744358 0.949219 0.81033 0.879774 0.879774C0.810113 0.949219 0.744358 1.02192 0.682075 1.09766C0.619792 1.17361 0.561198 1.25239 0.506727 1.3342C0.45204 1.4158 0.401476 1.49978 0.355252 1.58659C0.308811 1.67318 0.266927 1.76172 0.229167 1.85243C0.191623 1.94314 0.15842 2.03559 0.129991 2.12956C0.101345 2.22352 0.077474 2.31858 0.0581597 2.41493C0.0390625 2.51128 0.0245226 2.60829 0.0147569 2.70616C0.00499133 2.80382 0.000217 2.90169 0 3V5.40799C0.000217 5.50608 0.00499133 5.60417 0.0147569 5.70182C0.0245226 5.79948 0.0390625 5.8967 0.0581597 5.99284C0.077474 6.08919 0.101345 6.18446 0.129991 6.27843C0.15842 6.3724 0.191623 6.46463 0.229167 6.55534C0.266927 6.64605 0.308811 6.73481 0.355252 6.8214C0.401476 6.90799 0.45204 6.99219 0.506727 7.07379C0.561198 7.15538 0.619792 7.23416 0.682075 7.31011C0.744358 7.38607 0.810113 7.45877 0.879774 7.52821C0.949219 7.59766 1.02192 7.66363 1.09766 7.72591C1.17361 7.7882 1.25239 7.84657 1.33398 7.90126C1.4158 7.95595 1.49978 8.00629 1.58659 8.05274C1.67318 8.09896 1.76172 8.14106 1.85243 8.1786C1.94314 8.21636 2.03559 8.24935 2.12956 8.278C2.22352 8.30642 2.31858 8.33051 2.41493 8.34961C2.51128 8.36892 2.60829 8.38346 2.70595 8.39323C2.80382 8.40278 2.90169 8.40777 3 8.40799H7.30273C7.33876 8.40777 7.375 8.40603 7.41103 8.40234C7.44683 8.39887 7.48264 8.39345 7.51823 8.3865C7.5536 8.37934 7.58876 8.37044 7.62326 8.36003C7.65799 8.34939 7.69206 8.33724 7.72548 8.32335C7.7589 8.30946 7.79145 8.29405 7.82335 8.27691C7.85525 8.25998 7.88629 8.24132 7.91645 8.22114C7.9464 8.20117 7.97548 8.17947 8.00347 8.15668C8.03147 8.13368 8.05816 8.10938 8.08377 8.08377C8.10938 8.05816 8.13368 8.03147 8.15668 8.00347C8.17947 7.97548 8.20117 7.9464 8.22114 7.91645C8.24132 7.88629 8.25998 7.85525 8.27691 7.82335C8.29405 7.79145 8.30946 7.7589 8.32335 7.72548C8.33724 7.69206 8.34939 7.65799 8.36003 7.62326C8.37044 7.58876 8.37934 7.5536 8.3865 7.51823C8.39345 7.48264 8.39887 7.44683 8.40234 7.41103C8.40603 7.375 8.40777 7.33876 8.40799 7.30273V3C8.40777 2.90169 8.40278 2.80382 8.39323 2.70616C8.38346 2.60829 8.36892 2.51128 8.34961 2.41493C8.33051 2.31858 8.30642 2.22352 8.278 2.12956C8.24935 2.03559 8.21636 1.94314 8.1786 1.85243C8.14106 1.76172 8.09896 1.67318 8.05274 1.58659C8.00629 1.49978 7.95595 1.4158 7.90126 1.3342C7.84657 1.25239 7.7882 1.17361 7.72591 1.09766C7.66363 1.02192 7.59766 0.949219 7.52821 0.879774C7.45877 0.81033 7.38607 0.744358 7.31011 0.682075C7.23416 0.619792 7.15538 0.561198 7.07379 0.506727C6.99219 0.45204 6.90799 0.401476 6.8214 0.355252C6.73481 0.308811 6.64605 0.266927 6.55534 0.229167C6.46463 0.191623 6.3724 0.15842 6.27843 0.129991C6.18446 0.101345 6.08919 0.077474 5.99284 0.0581597C5.8967 0.0390625 5.79948 0.0245226 5.70182 0.0147569C5.60417 0.00499133 5.50608 0.000217 5.40799 0ZM7.4605 7.30273C7.4605 7.32357 7.45638 7.34375 7.44835 7.36306C7.44032 7.38238 7.42904 7.39931 7.41428 7.41428C7.39931 7.42904 7.38238 7.44032 7.36306 7.44835C7.34375 7.45638 7.32357 7.4605 7.30273 7.4605H3C2.93273 7.4605 2.86567 7.45703 2.79883 7.45052C2.73199 7.44379 2.66558 7.43381 2.59961 7.42079C2.53385 7.40755 2.46875 7.39106 2.40451 7.37153C2.34006 7.352 2.27691 7.32943 2.21484 7.3036C2.15278 7.278 2.09201 7.24913 2.03277 7.21745C1.97352 7.18576 1.91602 7.15126 1.86024 7.11393C1.80425 7.07661 1.75043 7.03646 1.69857 6.99392C1.64648 6.95117 1.59679 6.90625 1.54926 6.85872C1.50174 6.8112 1.4566 6.76129 1.41406 6.70942C1.37131 6.65755 1.33138 6.60352 1.29405 6.54774C1.25673 6.49175 1.22222 6.43425 1.19054 6.375C1.15864 6.31576 1.12999 6.25521 1.10417 6.19314C1.07856 6.13086 1.05577 6.06771 1.03624 6.00347C1.01671 5.93924 1.00043 5.87413 0.987196 5.80816C0.973958 5.74219 0.964193 5.67578 0.957465 5.60894C0.950738 5.5421 0.947483 5.47504 0.947266 5.40799V3C0.947483 2.93273 0.950738 2.86567 0.957465 2.79883C0.964193 2.73199 0.973958 2.66558 0.987196 2.59961C1.00043 2.53385 1.01671 2.46875 1.03624 2.40451C1.05577 2.34006 1.07856 2.27691 1.10417 2.21484C1.12999 2.15278 1.15864 2.09201 1.19054 2.03277C1.22222 1.97352 1.25673 1.91602 1.29405 1.86024C1.33138 1.80425 1.37131 1.75043 1.41406 1.69857C1.4566 1.64648 1.50174 1.59679 1.54926 1.54926C1.59679 1.50174 1.64648 1.4566 1.69857 1.41406C1.75043 1.37131 1.80425 1.33138 1.86024 1.29405C1.91602 1.25673 1.97352 1.22222 2.03277 1.19054C2.09201 1.15864 2.15278 1.12999 2.21484 1.10417C2.27691 1.07856 2.34006 1.05577 2.40451 1.03624C2.46875 1.01671 2.53385 1.00043 2.59961 0.987196C2.66558 0.973958 2.73199 0.964193 2.79883 0.957465C2.86567 0.950738 2.93273 0.947483 3 0.947266H5.40799C5.47504 0.947483 5.5421 0.950738 5.60894 0.957465C5.67578 0.964193 5.74219 0.973958 5.80816 0.987196C5.87413 1.00043 5.93924 1.01671 6.00347 1.03624C6.06771 1.05577 6.13086 1.07856 6.19293 1.10417C6.25521 1.12999 6.31576 1.15864 6.375 1.19054C6.43425 1.22222 6.49175 1.25673 6.54774 1.29405C6.60352 1.33138 6.65755 1.37131 6.70942 1.41406C6.76129 1.4566 6.8112 1.50174 6.85872 1.54926C6.90625 1.59679 6.95117 1.64648 6.99392 1.69857C7.03646 1.75043 7.07661 1.80425 7.11393 1.86024C7.15126 1.91602 7.18576 1.97352 7.21745 2.03277C7.24913 2.09201 7.278 2.15278 7.3036 2.21484C7.32943 2.27691 7.352 2.34006 7.37153 2.40451C7.39106 2.46875 7.40755 2.53385 7.42079 2.59961C7.43381 2.66558 7.44379 2.73199 7.45052 2.79883C7.45703 2.86567 7.4605 2.93273 7.4605 3V7.30273Z" fill="#360909"/>
<path d="M14.9998 0H12.5918C12.4937 0.000217 12.3956 0.00499133 12.298 0.0147569C12.2003 0.0245226 12.1031 0.0390625 12.0069 0.0581597C11.9106 0.077474 11.8153 0.101345 11.7214 0.129991C11.6274 0.15842 11.5352 0.191623 11.4444 0.229167C11.3537 0.266927 11.265 0.308811 11.1784 0.355252C11.0918 0.401476 11.0076 0.45204 10.926 0.506727C10.8444 0.561198 10.7656 0.619792 10.6897 0.682075C10.6137 0.744358 10.541 0.81033 10.4716 0.879774C10.4021 0.949219 10.3362 1.02192 10.2739 1.09766C10.2116 1.17361 10.1532 1.25239 10.0985 1.3342C10.0438 1.4158 9.99349 1.49978 9.94705 1.58659C9.90082 1.67318 9.85872 1.76172 9.82118 1.85243C9.78342 1.94314 9.75043 2.03559 9.72179 2.12956C9.69314 2.22352 9.66927 2.31858 9.65017 2.41493C9.63086 2.51128 9.61632 2.60829 9.60655 2.70616C9.59701 2.80382 9.59201 2.90169 9.5918 3V7.30273C9.59201 7.33876 9.59375 7.375 9.59722 7.41103C9.60091 7.44683 9.60634 7.48264 9.61328 7.51823C9.62044 7.5536 9.62934 7.58876 9.63976 7.62326C9.65039 7.65799 9.66254 7.69206 9.67643 7.72548C9.69032 7.7589 9.70573 7.79145 9.72287 7.82335C9.7398 7.85525 9.75846 7.88629 9.77865 7.91645C9.79861 7.9464 9.82031 7.97548 9.8431 8.00347C9.8661 8.03147 9.89041 8.05816 9.91602 8.08377C9.94162 8.10938 9.96832 8.13368 9.99631 8.15668C10.0243 8.17947 10.0534 8.20117 10.0833 8.22114C10.1135 8.24132 10.1445 8.25998 10.1764 8.27691C10.2083 8.29405 10.2409 8.30946 10.2743 8.32335C10.3077 8.33724 10.3418 8.34939 10.3765 8.36003C10.411 8.37044 10.4462 8.37934 10.4816 8.3865C10.5171 8.39345 10.553 8.39887 10.5888 8.40234C10.6248 8.40603 10.661 8.40777 10.697 8.40799H14.9998C15.0981 8.40777 15.196 8.40278 15.2936 8.39323C15.3915 8.38346 15.4885 8.36892 15.5849 8.34961C15.6812 8.33051 15.7763 8.30642 15.8702 8.278C15.9642 8.24935 16.0566 8.21636 16.1474 8.1786C16.2381 8.14106 16.3266 8.09896 16.4132 8.05274C16.5 8.00629 16.584 7.95595 16.6656 7.90126C16.7474 7.84657 16.8262 7.7882 16.9021 7.72591C16.9779 7.66363 17.0506 7.59766 17.12 7.52821C17.1895 7.45877 17.2554 7.38607 17.3177 7.31011C17.38 7.23416 17.4386 7.15538 17.4931 7.07379C17.5477 6.99219 17.5983 6.90799 17.6445 6.8214C17.691 6.73481 17.7329 6.64605 17.7706 6.55534C17.8082 6.46463 17.8414 6.3724 17.8698 6.27843C17.8984 6.18446 17.9223 6.08919 17.9416 5.99284C17.9607 5.8967 17.9753 5.79948 17.985 5.70182C17.9948 5.60417 17.9996 5.50608 17.9998 5.40799V3C17.9996 2.90169 17.9948 2.80382 17.985 2.70616C17.9753 2.60829 17.9607 2.51128 17.9416 2.41493C17.9223 2.31858 17.8984 2.22352 17.8698 2.12956C17.8414 2.03559 17.8082 1.94314 17.7706 1.85243C17.7329 1.76172 17.691 1.67318 17.6445 1.58659C17.5983 1.49978 17.5477 1.4158 17.4931 1.3342C17.4386 1.25239 17.38 1.17361 17.3177 1.09766C17.2554 1.02192 17.1895 0.949219 17.12 0.879774C17.0506 0.81033 16.9779 0.744358 16.9021 0.682075C16.8262 0.619792 16.7474 0.561198 16.6656 0.506727C16.584 0.45204 16.5 0.401476 16.4132 0.355252C16.3266 0.308811 16.2381 0.266927 16.1474 0.229167C16.0566 0.191623 15.9642 0.15842 15.8702 0.129991C15.7763 0.101345 15.6812 0.077474 15.5849 0.0581597C15.4885 0.0390625 15.3915 0.0245226 15.2936 0.0147569C15.196 0.00499133 15.0981 0.000217 14.9998 0ZM17.0525 5.40799C17.0523 5.47504 17.049 5.5421 17.0423 5.60894C17.0356 5.67578 17.0258 5.74219 17.0126 5.80816C16.9993 5.87413 16.9831 5.93924 16.9635 6.00347C16.944 6.06771 16.9212 6.13086 16.8956 6.19314C16.8698 6.25521 16.8411 6.31576 16.8092 6.375C16.7776 6.43425 16.7431 6.49175 16.7057 6.54774C16.6684 6.60352 16.6285 6.65755 16.5857 6.70942C16.5432 6.76129 16.498 6.8112 16.4505 6.85872C16.403 6.90625 16.3533 6.95117 16.3012 6.99392C16.2493 7.03646 16.1955 7.07661 16.1395 7.11393C16.0838 7.15126 16.0263 7.18576 15.967 7.21745C15.9076 7.24913 15.847 7.278 15.7849 7.3036C15.7229 7.32943 15.6597 7.352 15.5953 7.37153C15.531 7.39106 15.4659 7.40755 15.4002 7.42079C15.3342 7.43381 15.2678 7.44379 15.201 7.45052C15.1341 7.45703 15.0671 7.4605 14.9998 7.4605H10.697C10.6762 7.4605 10.656 7.45638 10.6367 7.44835C10.6174 7.44032 10.6005 7.42904 10.5855 7.41428C10.5707 7.39931 10.5595 7.38238 10.5514 7.36306C10.5434 7.34375 10.5393 7.32357 10.5393 7.30273V3C10.5393 2.93273 10.5428 2.86567 10.5493 2.79883C10.556 2.73199 10.566 2.66558 10.579 2.59961C10.5922 2.53385 10.6087 2.46875 10.6283 2.40451C10.6478 2.34006 10.6704 2.27691 10.6962 2.21484C10.7218 2.15278 10.7507 2.09201 10.7823 2.03277C10.814 1.97352 10.8485 1.91602 10.8859 1.86024C10.9232 1.80425 10.9633 1.75043 11.0059 1.69857C11.0486 1.64648 11.0935 1.59679 11.1411 1.54926C11.1886 1.50174 11.2385 1.4566 11.2904 1.41406C11.3422 1.37131 11.3963 1.33138 11.452 1.29405C11.508 1.25673 11.5655 1.22222 11.6248 1.19054C11.684 1.15864 11.7446 1.12999 11.8066 1.10417C11.8689 1.07856 11.9321 1.05577 11.9963 1.03624C12.0605 1.01671 12.1257 1.00043 12.1916 0.987196C12.2576 0.973958 12.324 0.964193 12.3908 0.957465C12.4577 0.950738 12.5247 0.947483 12.5918 0.947266H14.9998C15.0671 0.947483 15.1341 0.950738 15.201 0.957465C15.2678 0.964193 15.3342 0.973958 15.4002 0.987196C15.4659 1.00043 15.531 1.01671 15.5953 1.03624C15.6597 1.05577 15.7229 1.07856 15.7849 1.10417C15.847 1.12999 15.9076 1.15864 15.967 1.19054C16.0263 1.22222 16.0838 1.25673 16.1395 1.29405C16.1955 1.33138 16.2493 1.37131 16.3012 1.41406C16.3533 1.4566 16.403 1.50174 16.4505 1.54926C16.498 1.59679 16.5432 1.64648 16.5857 1.69857C16.6285 1.75043 16.6684 1.80425 16.7057 1.86024C16.7431 1.91602 16.7776 1.97352 16.8092 2.03277C16.8411 2.09201 16.8698 2.15278 16.8956 2.21484C16.9212 2.27691 16.944 2.34006 16.9635 2.40451C16.9831 2.46875 16.9993 2.53385 17.0126 2.59961C17.0258 2.66558 17.0356 2.73199 17.0423 2.79883C17.049 2.86567 17.0523 2.93273 17.0525 3V5.40799Z" fill="#360909"/>
<path d="M7.30273 9.5918H3C2.90169 9.59201 2.80382 9.59701 2.70595 9.60655C2.60829 9.61632 2.51128 9.63086 2.41493 9.65017C2.31858 9.66927 2.22352 9.69336 2.12956 9.72179C2.03559 9.75043 1.94314 9.78342 1.85243 9.82118C1.76172 9.85872 1.67318 9.90082 1.58659 9.94705C1.49978 9.99349 1.4158 10.0438 1.33398 10.0985C1.25239 10.1532 1.17361 10.2116 1.09766 10.2739C1.02192 10.3362 0.949219 10.4021 0.879774 10.4716C0.810113 10.541 0.744358 10.6137 0.682075 10.6897C0.619792 10.7656 0.561198 10.8444 0.506727 10.926C0.45204 11.0076 0.401476 11.0918 0.355252 11.1784C0.308811 11.265 0.266927 11.3537 0.229167 11.4444C0.191623 11.5352 0.15842 11.6274 0.129991 11.7214C0.101345 11.8153 0.077474 11.9106 0.0581597 12.0069C0.0390625 12.1031 0.0245226 12.2003 0.0147569 12.298C0.00499133 12.3956 0.000217 12.4937 0 12.5918V14.9998C0.000217 15.0981 0.00499133 15.196 0.0147569 15.2936C0.0245226 15.3915 0.0390625 15.4885 0.0581597 15.5849C0.077474 15.6812 0.101345 15.7763 0.129991 15.8702C0.15842 15.9642 0.191623 16.0566 0.229167 16.1474C0.266927 16.2381 0.308811 16.3266 0.355252 16.4132C0.401476 16.5 0.45204 16.584 0.506727 16.6656C0.561198 16.7474 0.619792 16.8262 0.682075 16.9021C0.744358 16.9779 0.810113 17.0506 0.879774 17.12C0.949219 17.1895 1.02192 17.2554 1.09766 17.3177C1.17361 17.38 1.25239 17.4386 1.3342 17.4931C1.4158 17.5477 1.49978 17.5983 1.58659 17.6445C1.67318 17.691 1.76172 17.7329 1.85243 17.7706C1.94314 17.8082 2.03559 17.8414 2.12956 17.8698C2.22352 17.8984 2.31858 17.9223 2.41493 17.9416C2.51128 17.9607 2.60829 17.9753 2.70595 17.985C2.80382 17.9948 2.90169 17.9996 3 17.9998H5.40799C5.50608 17.9996 5.60417 17.9948 5.70182 17.985C5.79948 17.9753 5.8967 17.9607 5.99284 17.9416C6.08919 17.9223 6.18446 17.8984 6.27843 17.8698C6.3724 17.8414 6.46463 17.8082 6.55534 17.7706C6.64605 17.7329 6.73481 17.691 6.8214 17.6445C6.90799 17.5983 6.99219 17.5477 7.07379 17.4931C7.15538 17.4386 7.23416 17.38 7.31011 17.3177C7.38607 17.2554 7.45877 17.1895 7.52821 17.12C7.59766 17.0506 7.66363 16.9779 7.72591 16.9021C7.7882 16.8262 7.84657 16.7474 7.90126 16.6656C7.95595 16.584 8.00629 16.5 8.05274 16.4132C8.09896 16.3266 8.14106 16.2381 8.1786 16.1474C8.21636 16.0566 8.24935 15.9642 8.278 15.8702C8.30642 15.7763 8.33051 15.6812 8.34961 15.5849C8.36892 15.4885 8.38346 15.3915 8.39323 15.2936C8.40278 15.196 8.40777 15.0981 8.40799 14.9998V10.697C8.40777 10.661 8.40603 10.6248 8.40234 10.5888C8.39887 10.553 8.39345 10.5171 8.3865 10.4816C8.37934 10.4462 8.37044 10.411 8.36003 10.3765C8.34939 10.3418 8.33724 10.3077 8.32335 10.2743C8.30946 10.2409 8.29405 10.2083 8.27691 10.1764C8.25998 10.1445 8.24132 10.1135 8.22114 10.0833C8.20117 10.0534 8.17947 10.0243 8.15668 9.99631C8.13368 9.96832 8.10938 9.94162 8.08377 9.91602C8.05816 9.89041 8.03147 9.8661 8.00347 9.8431C7.97548 9.82031 7.9464 9.79861 7.91645 9.77865C7.88629 9.75846 7.85525 9.7398 7.82335 9.72287C7.79145 9.70573 7.7589 9.69032 7.72548 9.67643C7.69206 9.66254 7.65799 9.65039 7.62326 9.63976C7.58876 9.62934 7.5536 9.62044 7.51823 9.61328C7.48264 9.60634 7.44683 9.60091 7.41103 9.59744C7.375 9.59375 7.33876 9.59201 7.30273 9.5918ZM7.4605 14.9998C7.4605 15.0671 7.45703 15.1341 7.45052 15.201C7.44379 15.2678 7.43381 15.3342 7.42079 15.4002C7.40755 15.4659 7.39106 15.531 7.37153 15.5953C7.352 15.6597 7.32943 15.7229 7.3036 15.7849C7.278 15.847 7.24913 15.9078 7.21745 15.967C7.18576 16.0263 7.15126 16.0838 7.11393 16.1395C7.07661 16.1955 7.03646 16.2493 6.99392 16.3012C6.95117 16.3533 6.90625 16.403 6.85872 16.4505C6.8112 16.498 6.76129 16.5432 6.70942 16.5857C6.65755 16.6285 6.60352 16.6684 6.54774 16.7057C6.49175 16.7431 6.43425 16.7776 6.375 16.8092C6.31576 16.8411 6.25521 16.8698 6.19293 16.8956C6.13086 16.9212 6.06771 16.944 6.00347 16.9635C5.93924 16.9831 5.87413 16.9993 5.80816 17.0126C5.74219 17.0258 5.67578 17.0356 5.60894 17.0423C5.5421 17.049 5.47504 17.0523 5.40799 17.0525H3C2.93273 17.0523 2.86567 17.049 2.79883 17.0423C2.73199 17.0356 2.66558 17.0258 2.59961 17.0126C2.53385 16.9993 2.46875 16.9831 2.40451 16.9635C2.34006 16.944 2.27691 16.9212 2.21484 16.8956C2.15278 16.8698 2.09201 16.8411 2.03277 16.8092C1.97352 16.7776 1.91602 16.7431 1.86024 16.7057C1.80425 16.6684 1.75043 16.6285 1.69857 16.5857C1.64648 16.5432 1.59679 16.498 1.54926 16.4505C1.50174 16.403 1.4566 16.3533 1.41406 16.3012C1.37131 16.2493 1.33138 16.1955 1.29405 16.1395C1.25673 16.0838 1.22222 16.0263 1.19054 15.967C1.15864 15.9078 1.12999 15.847 1.10417 15.7849C1.07856 15.7229 1.05577 15.6597 1.03624 15.5953C1.01671 15.531 1.00043 15.4659 0.987196 15.4002C0.973958 15.3342 0.964193 15.2678 0.957465 15.201C0.950738 15.1341 0.947483 15.0671 0.947266 14.9998V12.5918C0.947483 12.5247 0.950738 12.4577 0.957465 12.3908C0.964193 12.324 0.973958 12.2576 0.987196 12.1916C1.00043 12.1257 1.01671 12.0605 1.03624 11.9963C1.05577 11.9321 1.07856 11.8689 1.10417 11.8069C1.12999 11.7446 1.15864 11.684 1.19054 11.6248C1.22222 11.5655 1.25673 11.508 1.29405 11.452C1.33138 11.3963 1.37131 11.3422 1.41406 11.2904C1.4566 11.2385 1.50174 11.1886 1.54926 11.1411C1.59679 11.0935 1.64648 11.0486 1.69857 11.0059C1.75043 10.9633 1.80425 10.9232 1.86024 10.8859C1.91602 10.8485 1.97352 10.814 2.03277 10.7823C2.09201 10.7507 2.15278 10.7218 2.21484 10.6962C2.27691 10.6704 2.34006 10.6478 2.40451 10.6283C2.46875 10.6087 2.53385 10.5922 2.59961 10.579C2.66558 10.566 2.73199 10.556 2.79883 10.5493C2.86567 10.5428 2.93273 10.5393 3 10.5393H7.30273C7.32357 10.5393 7.34375 10.5434 7.36306 10.5514C7.38238 10.5595 7.39931 10.5707 7.41428 10.5855C7.42904 10.6005 7.44032 10.6174 7.44835 10.6367C7.45638 10.656 7.4605 10.6762 7.4605 10.697V14.9998Z" fill="#360909"/>
<path d="M14.9998 9.5918H10.697C10.661 9.59201 10.6248 9.59375 10.5888 9.59744C10.553 9.60091 10.5171 9.60634 10.4816 9.61328C10.4462 9.62044 10.411 9.62934 10.3765 9.63976C10.3418 9.65039 10.3077 9.66254 10.2743 9.67643C10.2409 9.69032 10.2083 9.70573 10.1764 9.72287C10.1445 9.7398 10.1135 9.75846 10.0833 9.77865C10.0534 9.79861 10.0243 9.82031 9.99631 9.8431C9.96832 9.8661 9.94162 9.89041 9.91602 9.91602C9.89041 9.94162 9.8661 9.96832 9.8431 9.99631C9.82031 10.0243 9.79861 10.0534 9.77865 10.0833C9.75846 10.1135 9.7398 10.1445 9.72287 10.1764C9.70573 10.2083 9.69032 10.2409 9.67643 10.2743C9.66254 10.3077 9.65039 10.3418 9.63976 10.3765C9.62934 10.411 9.62044 10.4462 9.61328 10.4816C9.60634 10.5171 9.60091 10.553 9.59722 10.5888C9.59375 10.6248 9.59201 10.661 9.5918 10.697V14.9998C9.59201 15.0981 9.59701 15.196 9.60655 15.2936C9.61632 15.3915 9.63086 15.4885 9.65017 15.5849C9.66927 15.6812 9.69314 15.7763 9.72179 15.8702C9.75043 15.9642 9.78342 16.0566 9.82118 16.1474C9.85872 16.2381 9.90082 16.3266 9.94705 16.4132C9.99349 16.5 10.0438 16.584 10.0985 16.6656C10.1532 16.7474 10.2116 16.8262 10.2739 16.9021C10.3362 16.9779 10.4021 17.0506 10.4716 17.12C10.541 17.1895 10.6137 17.2554 10.6897 17.3177C10.7656 17.38 10.8444 17.4386 10.926 17.4931C11.0076 17.5477 11.0918 17.5983 11.1784 17.6445C11.265 17.691 11.3537 17.7329 11.4444 17.7706C11.5352 17.8082 11.6274 17.8414 11.7214 17.8698C11.8153 17.8984 11.9106 17.9223 12.0069 17.9416C12.1031 17.9607 12.2003 17.9753 12.298 17.985C12.3956 17.9948 12.4937 17.9996 12.5918 17.9998H14.9998C15.0981 17.9996 15.196 17.9948 15.2936 17.985C15.3915 17.9753 15.4885 17.9607 15.5849 17.9416C15.6812 17.9223 15.7763 17.8984 15.8702 17.8698C15.9642 17.8414 16.0566 17.8082 16.1474 17.7706C16.2381 17.7329 16.3266 17.691 16.4132 17.6445C16.5 17.5983 16.584 17.5477 16.6656 17.4931C16.7474 17.4386 16.8262 17.38 16.9021 17.3177C16.9779 17.2554 17.0506 17.1895 17.12 17.12C17.1895 17.0506 17.2554 16.9779 17.3177 16.9021C17.38 16.8262 17.4386 16.7474 17.4931 16.6656C17.5477 16.584 17.5981 16.5 17.6445 16.4132C17.691 16.3266 17.7329 16.2381 17.7706 16.1474C17.8082 16.0566 17.8414 15.9642 17.8698 15.8702C17.8984 15.7763 17.9223 15.6812 17.9416 15.5849C17.9607 15.4885 17.9753 15.3915 17.985 15.2936C17.9948 15.196 17.9996 15.0981 17.9998 14.9998V12.5918C17.9996 12.4937 17.9948 12.3956 17.985 12.298C17.9753 12.2003 17.9607 12.1031 17.9416 12.0069C17.9223 11.9106 17.8984 11.8153 17.8698 11.7214C17.8414 11.6274 17.8082 11.5352 17.7706 11.4444C17.7329 11.3537 17.691 11.265 17.6445 11.1784C17.5983 11.0918 17.5477 11.0076 17.4931 10.926C17.4386 10.8444 17.38 10.7656 17.3177 10.6897C17.2554 10.6137 17.1895 10.541 17.12 10.4716C17.0506 10.4021 16.9779 10.3362 16.9021 10.2739C16.8262 10.2116 16.7474 10.1532 16.6656 10.0985C16.584 10.0438 16.5 9.99349 16.4132 9.94705C16.3266 9.90082 16.2381 9.85872 16.1474 9.82118C16.0566 9.78342 15.9642 9.75043 15.8702 9.72179C15.7763 9.69336 15.6812 9.66927 15.5849 9.65017C15.4885 9.63086 15.3915 9.61632 15.2936 9.60655C15.196 9.59701 15.0981 9.59201 14.9998 9.5918ZM17.0525 14.9998C17.0523 15.0671 17.049 15.1341 17.0423 15.201C17.0356 15.2678 17.0258 15.3342 17.0126 15.4002C16.9993 15.4659 16.9831 15.531 16.9635 15.5953C16.944 15.6597 16.9212 15.7229 16.8956 15.7849C16.8698 15.847 16.8411 15.9078 16.8092 15.967C16.7776 16.0263 16.7431 16.0838 16.7057 16.1395C16.6684 16.1955 16.6285 16.2493 16.5857 16.3012C16.5432 16.3533 16.498 16.403 16.4505 16.4505C16.403 16.498 16.3533 16.5432 16.3012 16.5857C16.2493 16.6285 16.1955 16.6684 16.1395 16.7057C16.0838 16.7431 16.0263 16.7776 15.967 16.8092C15.9078 16.8411 15.847 16.8698 15.7849 16.8956C15.7229 16.9212 15.6597 16.944 15.5953 16.9635C15.531 16.9831 15.4659 16.9993 15.4002 17.0126C15.3342 17.0258 15.2678 17.0356 15.201 17.0423C15.1341 17.049 15.0671 17.0523 14.9998 17.0525H12.5918C12.5247 17.0523 12.4577 17.049 12.3908 17.0423C12.3238 17.0356 12.2576 17.0258 12.1916 17.0126C12.1257 16.9993 12.0605 16.9831 11.9963 16.9635C11.9321 16.944 11.8689 16.9212 11.8066 16.8956C11.7446 16.8698 11.684 16.8411 11.6248 16.8092C11.5655 16.7776 11.508 16.7431 11.452 16.7057C11.3963 16.6684 11.3422 16.6285 11.2904 16.5857C11.2385 16.5432 11.1886 16.498 11.1411 16.4505C11.0935 16.403 11.0486 16.3533 11.0059 16.3012C10.9633 16.2493 10.9232 16.1955 10.8859 16.1395C10.8485 16.0838 10.814 16.0263 10.7823 15.967C10.7507 15.9078 10.7218 15.847 10.6962 15.7849C10.6704 15.7229 10.6478 15.6597 10.6283 15.5953C10.6087 15.531 10.5922 15.4659 10.579 15.4002C10.566 15.3342 10.556 15.2678 10.5493 15.201C10.5428 15.1341 10.5393 15.0671 10.5393 14.9998V10.697C10.5393 10.6762 10.5434 10.656 10.5514 10.6367C10.5595 10.6174 10.5707 10.6005 10.5855 10.5855C10.6005 10.5707 10.6174 10.5595 10.6367 10.5514C10.656 10.5434 10.6762 10.5393 10.697 10.5393H14.9998C15.0671 10.5393 15.1341 10.5428 15.201 10.5493C15.2678 10.556 15.3342 10.566 15.4002 10.579C15.4659 10.5922 15.531 10.6087 15.5953 10.6283C15.6597 10.6478 15.7229 10.6704 15.7849 10.6962C15.847 10.7218 15.9076 10.7507 15.967 10.7823C16.0263 10.814 16.0838 10.8485 16.1395 10.8859C16.1955 10.9232 16.2493 10.9633 16.3012 11.0059C16.3533 11.0486 16.403 11.0935 16.4505 11.1411C16.498 11.1886 16.5432 11.2385 16.5857 11.2904C16.6285 11.3422 16.6684 11.3963 16.7057 11.452C16.7431 11.508 16.7776 11.5655 16.8092 11.6248C16.8411 11.684 16.8698 11.7446 16.8956 11.8069C16.9212 11.8689 16.944 11.9321 16.9635 11.9963C16.9831 12.0605 16.9993 12.1257 17.0126 12.1916C17.0258 12.2576 17.0356 12.324 17.0423 12.3908C17.049 12.4577 17.0523 12.5247 17.0525 12.5918V14.9998Z" fill="#FFBD4C"/>
</svg>
