<svg width="86" height="82" viewBox="0 0 86 82" fill="none" xmlns="http://www.w3.org/2000/svg">
<path d="M85.7528 70.1597L83.6324 64.0801V15.1826C83.6324 13.249 82.097 11.6873 80.196 11.6873H70.1243V2.27963C70.1243 1.51735 69.5211 0.903809 68.7717 0.903809H17.2436C16.4942 0.903809 15.891 1.51735 15.891 2.27963V11.6873H5.81934C3.91834 11.6873 2.38291 13.249 2.38291 15.1826V64.0801L0.280846 70.1597C0.226009 70.3085 0.207732 70.4572 0.189453 70.6245V76.1093C0.189453 78.8423 2.36464 81.0362 5.05163 81.0548H81.0185C83.7055 81.0548 85.8624 78.8423 85.8807 76.1093V70.6245C85.8807 70.4758 85.8441 70.3085 85.8076 70.1597H85.7528ZM4.66777 65.6976H81.3293L82.554 69.2487H3.4248L4.64949 65.6976H4.66777ZM70.1243 19.6076H75.8639V57.7773H70.1243V19.6076ZM67.4191 3.65546V57.7773H18.5963V3.65546H67.4191ZM15.891 57.7773H10.1514V19.6076H15.891V57.7773ZM5.08818 15.1826C5.08818 14.7736 5.4172 14.4389 5.81934 14.4389H15.891V16.8559H8.79879C8.04936 16.8559 7.44615 17.4695 7.44615 18.2317V59.1532C7.44615 59.9154 8.04936 60.529 8.79879 60.529H77.2165C77.966 60.529 78.5692 59.9154 78.5692 59.1532V18.2317C78.5692 17.4695 77.966 16.8559 77.2165 16.8559H70.1243V14.4389H80.196C80.5981 14.4389 80.9271 14.7736 80.9271 15.1826V62.946H5.0699V15.1826H5.08818ZM83.1572 76.0907C83.1572 77.2992 82.1884 78.2659 81.0185 78.2659H5.05163C3.8635 78.2659 2.913 77.2806 2.913 76.0907V71.9818H83.1572V76.0907ZM42.962 37.6234H43.0168C51.3702 37.5862 58.1151 30.6513 58.0786 22.1547C58.042 13.751 51.3519 6.92768 43.0899 6.83472H43.0168C34.6634 6.87191 27.9185 13.8068 27.955 22.3034C27.9916 30.7071 34.6816 37.5304 42.9437 37.6234H42.962ZM34.2795 13.249C36.6009 10.8878 39.7449 9.58637 43.0168 9.58637H43.0716C49.9262 9.66074 55.4281 15.3685 55.3733 22.3592C55.3002 29.2569 49.7982 34.816 43.0168 34.8718H42.962C36.1074 34.8346 30.5689 29.164 30.5872 22.1733C30.5872 18.8267 31.9215 15.6102 34.2612 13.249H34.2795ZM39.032 26.3007V30.6885C39.032 31.4508 39.6352 32.0643 40.3846 32.0643H45.6672C46.4167 32.0643 47.0199 31.4508 47.0199 30.6885V26.3007H51.3337C52.0831 26.3007 52.6863 25.6872 52.6863 24.9249V19.5518C52.6863 18.7895 52.0831 18.176 51.3337 18.176H47.0199V13.7882C47.0199 13.0259 46.4167 12.4124 45.6672 12.4124H40.3846C39.6352 12.4124 39.032 13.0259 39.032 13.7882V18.176H34.7182C33.9688 18.176 33.3656 18.7895 33.3656 19.5518V24.9249C33.3656 25.6872 33.9688 26.3007 34.7182 26.3007H39.032ZM36.0708 20.9276H40.3846C41.1341 20.9276 41.7373 20.3141 41.7373 19.5518V15.164H44.3146V19.5518C44.3146 20.3141 44.9178 20.9276 45.6672 20.9276H49.981V23.5491H45.6672C44.9178 23.5491 44.3146 24.1627 44.3146 24.9249V29.3127H41.7373V24.9249C41.7373 24.1627 41.1341 23.5491 40.3846 23.5491H36.0708V20.9276ZM46.636 41.5092L41.9018 53.1293C41.7007 53.6499 41.1889 53.9845 40.6405 53.9845C39.8911 53.9845 39.2879 53.371 39.2879 52.6087C39.2879 52.4228 39.3245 52.2555 39.3976 52.0881L44.1318 40.468C44.4243 39.7615 45.2103 39.4268 45.9049 39.7243C46.5995 40.0218 46.9285 40.8213 46.636 41.5278V41.5092ZM55.5195 47.533C55.5195 47.9607 55.3185 48.3697 54.9894 48.63L49.1768 53.1479C48.5736 53.5941 47.7145 53.4268 47.294 52.8132C46.8919 52.2183 47.0016 51.4188 47.55 50.954L51.9369 47.533L47.55 44.1121C46.965 43.6287 46.8736 42.7734 47.3306 42.1785C47.7876 41.6021 48.6101 41.4906 49.195 41.9182L55.0077 46.4361C55.3367 46.6964 55.5378 47.1054 55.5378 47.533H55.5195ZM37.6794 44.1121L33.2924 47.533L37.6794 50.954C38.2826 51.4188 38.3922 52.2741 37.9353 52.8876C37.4783 53.5011 36.6375 53.6127 36.0343 53.1479L30.2216 48.63C29.6184 48.1652 29.5087 47.3099 29.9657 46.6964C30.0388 46.6034 30.1302 46.5105 30.2216 46.4361L36.0343 41.9182C36.6192 41.4348 37.4783 41.5463 37.9353 42.1413C38.4105 42.7363 38.3009 43.6101 37.7159 44.0749C37.7159 44.0749 37.6794 44.0935 37.6611 44.1121H37.6794Z" fill="#004E4E"/>
</svg>
