<svg width="131" height="100" viewBox="0 0 131 100" fill="none" xmlns="http://www.w3.org/2000/svg">
<path d="M59.5587 64.3003C58.8711 63.6127 57.99 63.1928 56.6149 63.2299C55.5197 63.3287 54.5357 63.9051 53.914 64.7985C51.3902 68.4298 49.8298 71.3942 48.8746 73.5721C45.8362 72.4523 40.6774 69.949 35.3292 64.712C30.051 59.3268 27.5396 54.1598 26.4156 51.1131C28.5977 50.1579 31.562 48.5975 35.1851 46.0737C36.0909 45.4479 36.6632 44.4515 36.7537 43.3769C36.8526 42.2736 36.4614 41.2031 35.6833 40.4332L16.0568 20.7985C14.6694 19.4069 12.2238 19.4234 10.8692 20.7655C10.8075 20.8273 4.6235 26.8589 1.01687 35.1221C-5.03946 48.9722 17.7407 72.9299 22.3684 77.5905C22.3972 77.6193 22.4302 77.6481 22.459 77.6769C26.395 81.5759 45.7374 100 59.6039 100C61.5184 100 63.2888 99.6502 64.8574 98.9626C72.3836 95.673 78.0941 90.226 79.2057 89.1267C80.6179 87.6857 80.6096 85.3554 79.181 83.9227L59.5587 64.3003ZM63.2147 95.1954C62.1648 95.6524 60.9544 95.8871 59.6081 95.8871C47.0055 95.8871 27.4778 76.8576 25.2916 74.692C25.2793 74.6796 25.2669 74.6673 25.2504 74.655C15.6863 65.0085 0.662801 46.226 4.7923 36.7772C7.6002 30.3503 12.2608 25.2574 13.4507 24.0181L32.4143 42.9817C27.9677 46.0202 24.7193 47.4159 23.1548 47.984C22.1379 48.3546 21.582 49.4456 21.8744 50.4832C22.6484 53.1922 25.2216 60.2779 32.4184 67.6187C39.7099 74.7661 46.7914 77.3352 49.4963 78.1092C50.538 78.3933 51.629 77.8457 51.9954 76.8288C52.5636 75.2643 53.9593 72.0159 57.0019 67.5693L75.9696 86.5329C74.4833 87.9657 69.5427 92.4287 63.2147 95.1954Z" fill="#FFBD4C"/>
<path d="M120.645 0H35.7739C30.3351 0 25.9092 4.42594 25.9092 9.8647V24.8347L30.0263 28.9518V19.26L77.213 45.2022C77.5177 45.371 77.8594 45.4575 78.2011 45.4575C78.5428 45.4575 78.8846 45.371 79.1934 45.2022L126.384 19.26V71.3255C126.384 74.4958 123.807 77.0731 120.637 77.0731H78.1517L82.1001 81.0214C82.1536 81.075 82.1865 81.1367 82.2359 81.1902H120.645C126.084 81.1902 130.51 76.7643 130.51 71.3255V9.8647C130.51 4.43006 126.084 0 120.645 0ZM126.392 14.5665L78.2094 41.0521L30.0305 14.5665V9.8647C30.0305 6.69449 32.6078 4.11715 35.778 4.11715H120.649C123.819 4.11715 126.396 6.69449 126.396 9.8647L126.392 14.5665Z" fill="white"/>
</svg>
