<svg xmlns="http://www.w3.org/2000/svg" width="27" height="45" fill="none"><rect id="backgroundrect" width="100%" height="100%" x="0" y="0" fill="none" stroke="none"/>





























<defs>
<linearGradient id="paint0_linear_1330_1217" x1="0.4999147057533264" y1="-3.6950483322143555" x2="0.4999147057533264" y2="-3.6950483322143555">
<stop stop-color="#4D4D4D"/>
<stop offset="0.03" stop-color="#6A6A6A"/>
<stop offset="0.07" stop-color="#898989"/>
<stop offset="0.11" stop-color="#9F9F9F"/>
<stop offset="0.15" stop-color="#ACACAC"/>
<stop offset="0.18" stop-color="#B1B1B1"/>
<stop offset="0.28" stop-color="#636363"/>
<stop offset="0.32" stop-color="#545454"/>
<stop offset="0.38" stop-color="#2D2D2D"/>
<stop offset="0.41" stop-color="#151515"/>
<stop offset="0.67" stop-color="#333333"/>
<stop offset="0.75" stop-color="#2F2F2F"/>
<stop offset="0.82" stop-color="#252525"/>
<stop offset="0.88" stop-color="#151515"/>
<stop offset="0.93"/>
<stop offset="1"/>
</linearGradient>
<linearGradient id="paint1_linear_1330_1217" x1="0.499889612197876" y1="-3.6950483322143555" x2="0.499889612197876" y2="-3.6950483322143555">
<stop stop-color="#4D4D4D"/>
<stop offset="0.03" stop-color="#6A6A6A"/>
<stop offset="0.07" stop-color="#898989"/>
<stop offset="0.11" stop-color="#9F9F9F"/>
<stop offset="0.15" stop-color="#ACACAC"/>
<stop offset="0.18" stop-color="#B1B1B1"/>
<stop offset="0.28" stop-color="#636363"/>
<stop offset="0.32" stop-color="#545454"/>
<stop offset="0.38" stop-color="#2D2D2D"/>
<stop offset="0.41" stop-color="#151515"/>
<stop offset="0.67" stop-color="#333333"/>
<stop offset="0.75" stop-color="#2F2F2F"/>
<stop offset="0.82" stop-color="#252525"/>
<stop offset="0.88" stop-color="#151515"/>
<stop offset="0.93"/>
<stop offset="1"/>
</linearGradient>
<linearGradient id="paint2_linear_1330_1217" x1="0.5000005960464478" y1="0.00407129991799593" x2="0.5000005960464478" y2="0.9980440139770508">
<stop stop-color="#1F1F1F"/>
<stop offset="1" stop-color="#2E2E2E"/>
</linearGradient>
<linearGradient id="paint3_linear_1330_1217" x1="0.5000005960464478" y1="-1.1134411096572876" x2="0.5000005960464478" y2="-1.1134411096572876">
<stop stop-color="#1F1F1F"/>
<stop offset="1" stop-color="#2E2E2E"/>
</linearGradient>
</defs>
<g class="currentLayer" style=""><title>Layer 1</title><path d="M26.5492 0.712891H0.914062V44.814H26.5492V0.712891Z" fill="black" id="svg_1"/><path d="M26.5494 20.1353H23.6179V25.3917H26.5494V20.1353Z" fill="url(#paint0_linear_1330_1217)" id="svg_2"/><path d="M3.8458 20.1353H0.914307V25.3917H3.8458V20.1353Z" fill="url(#paint1_linear_1330_1217)" id="svg_3"/><path d="M26.5487 0.712891V19.7976H23.2819V22.5948H4.18168V19.7976H0.913574V0.712891H26.5487Z" fill="#333333" id="svg_4"/><path d="M4.84364 21.9302V19.133H1.57617V1.37695H25.8872V19.133H22.6197V21.9302H4.84364Z" fill="url(#paint2_linear_1330_1217)" id="svg_5"/><path d="M0.913574 0.712891L1.57597 1.37722H25.887L26.5487 0.712891H0.913574Z" fill="#3A3A3A" id="svg_6"/><path d="M25.887 1.37722V19.1333L26.5487 19.7976V0.712891L25.887 1.37722Z" fill="#1E1E1E" id="svg_7"/><path d="M1.57597 1.37722V19.1333L0.913574 19.7976V0.712891L1.57597 1.37722Z" fill="#1E1E1E" id="svg_8"/><path d="M4.18168 19.7974L4.84345 19.1331H1.57597L0.913574 19.7974H4.18168Z" fill="#111111" id="svg_9"/><path d="M4.84341 19.1331V21.9303L4.18164 22.5946V19.7974L4.84341 19.1331Z" fill="#1E1E1E" id="svg_10"/><path d="M22.6194 19.1331L23.2818 19.7974H26.5486L25.8869 19.1331H22.6194Z" fill="#111111" id="svg_11"/><path d="M22.6194 19.1331V21.9303L23.2818 22.5946V19.7974L22.6194 19.1331Z" fill="#1E1E1E" id="svg_12"/><path d="M4.84341,21.93039862675409 H22.6195 L23.2819,23.669969061944293 H4.18164 L4.84341,21.93039862675409 z" fill="#111111" id="svg_13" class=""/><path d="M141.68848547363282,-31.93467423339844 C137.5301954736328,-31.93467423339844 135.37373547363282,-29.460714233398438 135.37373547363282,-25.131714233398437 V-23.66321423339844 H139.3780854736328 V-25.40251423339844 C139.3780854736328,-27.33481423339844 140.2249854736328,-28.069414233398437 141.57268547363282,-28.069414233398437 C142.92038547363282,-28.069414233398437 143.7673854736328,-27.412114233398437 143.7673854736328,-24.97711423339844 V-23.46961423339844 C143.7673854736328,-21.30481423339844 142.8051854736328,-20.609214233398436 141.2265854736328,-20.609214233398436 H139.5708854736328 V-18.265514233398438 H146.0147854736328 C145.72458547363283,-18.484014233398437 145.40008547363283,-18.673014233398437 145.0380854736328,-18.831514233398437 V-18.908814233398438 C147.07868547363282,-19.75901423339844 148.00328547363281,-21.537314233398437 148.00328547363281,-24.43611423339844 V-25.131714233398437 C148.00328547363281,-29.460714233398438 145.84678547363282,-31.93467423339844 141.68848547363282,-31.93467423339844 z" fill="#E6E6E6" id="svg_14" class=""/><path d="M18.05769940190333,29.04611546801865 H16.45250951081532 V34.83342068392801 H17.826756719982804 C17.822646533107935,34.7724374888183 17.818511436009587,34.711454293708634 17.81440124913472,34.649599910097365 V33.97704238688766 C17.90457625814694,32.59620861190402 17.98540993335265,30.94966234394247 18.05769940190333,29.04611546801865 z" fill="#B3B3B3" id="svg_15" class=""/><path opacity="0.02" d="M22.825 0.712891L13.7996 22.5954H4.18168V19.7976H0.913574V0.712891H22.825Z" fill="white" id="svg_16" class=""/><path opacity="0" d="M102.93252725601197,-15.95377455404663 L93.90712725601196,5.928734445953371 H84.28920725601196 V3.1309344459533683 H81.02110125601196 V-15.95377455404663 H102.93252725601197 z" fill="white" class="" id="svg_30"/><path d="M26.5487 44.8135V25.7288H23.2819V22.9316H4.18168V25.7288H0.913574V44.8135H26.5487Z" fill="#333333" id="svg_17" class=""/><path d="M4.84364 23.5969V26.3935H1.57617V44.1495H25.8872V26.3935H22.6197V23.5969H4.84364Z" fill="url(#paint3_linear_1330_1217)" id="svg_18" class=""/><path d="M0.913574 44.814L1.57597 44.1497H25.887L26.5487 44.814H0.913574Z" fill="#111111" id="svg_19"/><path d="M25.887 44.1494V26.3933L26.5487 25.729V44.8137L25.887 44.1494Z" fill="#1E1E1E" id="svg_20"/><path d="M1.57597 44.1494V26.3933L0.913574 25.729V44.8137L1.57597 44.1494Z" fill="#1E1E1E" id="svg_21"/><path d="M4.18168 25.729L4.84345 26.3933H1.57597L0.913574 25.729H4.18168Z" fill="#3A3A3A" id="svg_22"/><path d="M4.84341 26.3932V23.5966L4.18164 22.9316V25.7288L4.84341 26.3932Z" fill="#1E1E1E" id="svg_23"/><path d="M22.6194 26.3933L23.2818 25.729H26.5486L25.8869 26.3933H22.6194Z" fill="#3A3A3A" id="svg_24"/><path d="M22.6194 26.3932V23.5966L23.2818 22.9316V25.7288L22.6194 26.3932Z" fill="#1E1E1E" id="svg_25"/><path d="M4.84341 23.5966H22.6195L23.2819 22.9316H4.18164L4.84341 23.5966Z" fill="#3A3A3A" id="svg_26"/><path opacity="0.02" d="M4.18168 22.9316H13.6564L4.63092 44.8135H0.913574V25.7288H4.18168V22.9316Z" fill="white" id="svg_29" class=""/></g></svg>