<svg width="82" height="100" viewBox="0 0 82 100" fill="none" xmlns="http://www.w3.org/2000/svg">
<path d="M30.9369 35.7313C30.9369 35.0556 31.512 34.4793 32.1863 34.4793H44.8783C45.5526 34.4793 46.1277 35.0556 46.1277 35.7313C46.1277 36.407 45.5526 36.9833 44.8783 36.9833H32.1863C31.4723 36.9833 30.9369 36.4467 30.9369 35.7313ZM32.1863 28.6566H50.4311C51.1054 28.6566 51.6805 28.0803 51.6805 27.4046C51.6805 26.7289 51.1054 26.1526 50.4311 26.1526H32.1863C31.512 26.1526 30.9369 26.7289 30.9369 27.4046C30.9369 28.0803 31.4723 28.6566 32.1863 28.6566ZM32.1863 57.9292H44.8783C45.5526 57.9292 46.1277 57.3529 46.1277 56.6773C46.1277 56.0016 45.5526 55.4253 44.8783 55.4253H32.1863C31.512 55.4253 30.9369 56.0016 30.9369 56.6773C30.9369 57.3529 31.4723 57.9292 32.1863 57.9292ZM32.1863 49.5827H50.4311C51.1054 49.5827 51.6805 49.0064 51.6805 48.3307C51.6805 47.655 51.1054 47.0787 50.4311 47.0787H32.1863C31.512 47.0787 30.9369 47.655 30.9369 48.3307C30.9369 49.0064 31.4723 49.5827 32.1863 49.5827ZM32.1863 78.8553H39.7817C40.4559 78.8553 41.031 78.279 41.031 77.6033C41.031 76.9277 40.4559 76.3513 39.7817 76.3513H32.1863C31.512 76.3513 30.9369 76.9277 30.9369 77.6033C30.9369 78.279 31.4723 78.8553 32.1863 78.8553ZM32.1863 70.5087H38.8099C39.4842 70.5087 40.0593 69.9324 40.0593 69.2568C40.0593 68.5811 39.4842 68.0048 38.8099 68.0048H32.1863C31.512 68.0048 30.9369 68.5811 30.9369 69.2568C30.9369 69.9324 31.4723 70.5087 32.1863 70.5087ZM15.0123 24.3442H22.925C24.7495 24.3442 26.1972 25.8148 26.1972 27.6232V35.5525C26.1972 37.3808 24.7297 38.8315 22.925 38.8315H15.0123C13.1878 38.8315 11.7402 37.3609 11.7402 35.5525V27.6232C11.7402 25.7949 13.2275 24.3442 15.0123 24.3442ZM14.2191 35.5127C14.2191 35.9499 14.576 36.3076 15.0322 36.3076H22.9449C23.3811 36.3076 23.7579 35.9499 23.7579 35.5127V27.5835C23.7579 27.1463 23.401 26.7886 22.9449 26.7886H14.9925C14.5562 26.7886 14.1794 27.1463 14.1794 27.5835V35.5127H14.2191ZM16.936 34.539C17.1938 34.7973 17.5111 34.8967 17.8284 34.8967C18.1457 34.8967 18.463 34.7973 18.7208 34.539L22.8854 30.3657C23.3811 29.8688 23.3811 29.0739 22.8854 28.6168C22.3896 28.12 21.5963 28.12 21.1402 28.6168L17.8284 31.9356L16.8963 31.0016C16.4005 30.5048 15.6073 30.5048 15.1511 31.0016C14.6554 31.4984 14.6554 32.2933 15.1511 32.7504L16.936 34.539ZM26.2369 48.5294V56.4587C26.2369 58.287 24.7693 59.7377 22.9647 59.7377H15.0123C13.1878 59.7377 11.7402 58.2671 11.7402 56.4587V48.5294C11.7402 46.7011 13.2077 45.2504 15.0123 45.2504H22.925C24.7495 45.2504 26.2369 46.721 26.2369 48.5294ZM23.7381 48.5294C23.7381 48.0922 23.3811 47.7345 22.925 47.7345H15.0123C14.576 47.7345 14.1992 48.0922 14.1992 48.5294V56.4587C14.1992 56.8959 14.5562 57.2536 15.0123 57.2536H22.925C23.3613 57.2536 23.7381 56.8959 23.7381 56.4587V48.5294ZM21.1005 49.523L17.7887 52.8418L16.8566 51.9078C16.3609 51.411 15.5676 51.411 15.1115 51.9078C14.6157 52.4046 14.6157 53.1995 15.1115 53.6566L16.936 55.4849C17.1938 55.7432 17.5111 55.8426 17.8284 55.8426C18.1457 55.8426 18.463 55.7432 18.7208 55.4849L22.8854 51.3116C23.3811 50.8148 23.3811 50.0199 22.8854 49.5628C22.3896 49.0262 21.5963 49.0262 21.1005 49.523ZM26.2369 69.4356V77.3649C26.2369 79.1932 24.7693 80.6439 22.9647 80.6439H15.0123C13.1878 80.6439 11.7402 79.1733 11.7402 77.3649V69.4356C11.7402 67.6073 13.2077 66.1566 15.0123 66.1566H22.925C24.7495 66.1566 26.2369 67.6471 26.2369 69.4356ZM23.7381 69.4356C23.7381 68.9984 23.3811 68.6407 22.925 68.6407H15.0123C14.576 68.6407 14.1992 68.9984 14.1992 69.4356V77.3649C14.1992 77.8021 14.5562 78.1598 15.0123 78.1598H22.925C23.3613 78.1598 23.7381 77.8021 23.7381 77.3649V69.4356ZM21.1005 70.4293L17.7887 73.748L16.8566 72.814C16.3609 72.3172 15.5676 72.3172 15.1115 72.814C14.6554 73.3108 14.6157 74.1057 15.1115 74.5628L16.936 76.3911C17.1938 76.6495 17.4714 76.7488 17.8284 76.7488C18.1457 76.7488 18.463 76.6097 18.7208 76.3911L22.8854 72.2178C23.3811 71.721 23.3811 70.9261 22.8854 70.469C22.3896 69.9324 21.5963 69.9324 21.1005 70.4293ZM81.7646 67.8657C81.8637 75.2186 80.1186 81.7568 76.5688 87.2814C73.4354 92.1304 68.7751 96.3434 62.7463 99.8211C62.5679 99.9205 62.3497 100 62.1316 100C61.9134 100 61.6953 99.9205 61.5168 99.8211C57.1737 97.3172 53.5446 94.4356 50.6492 91.1765H5.41395C2.41942 91.1765 0 88.752 0 85.7512V13.8514C0 10.8506 2.41942 8.42607 5.41395 8.42607H13.8621V6.75675C13.8621 6.08108 14.4372 5.50477 15.1115 5.50477H25.047C25.6617 2.36487 28.4381 0 31.7103 0C34.9825 0 37.7589 2.38474 38.3736 5.50477H48.3091C48.9834 5.50477 49.5585 6.08108 49.5585 6.75675V8.42607H58.0067C61.0012 8.42607 63.4206 10.8506 63.4206 13.8514V56.5183L81.1895 66.8323C81.5464 67.0111 81.7646 67.4483 81.7646 67.8657ZM49.5188 10.93V13.9308H56.5986C57.2729 13.9308 57.848 14.5072 57.848 15.1828V58.2671L60.8822 56.5183V13.8514C60.8822 12.2417 59.5733 10.93 57.967 10.93H49.5188ZM16.3212 17.349C16.3212 18.4221 17.1739 19.2766 18.2845 19.2766H45.1163C46.1872 19.2766 47.0796 18.4221 47.0796 17.349V7.98887H37.2432C36.569 7.98887 35.9939 7.4523 35.9939 6.73688C35.9939 4.37202 34.0306 2.44436 31.6905 2.44436C29.3504 2.44436 27.4069 4.37202 27.3871 6.73688C27.3871 7.41256 26.812 7.98887 26.1377 7.98887H16.3014V17.349H16.341H16.3212ZM13.8224 17.349V16.4149H7.9722V83.1677H45.4534C44.6998 81.5183 44.1049 79.8092 43.6289 78.0207C43.5893 77.9213 43.5496 77.8021 43.5496 77.7027C42.7564 74.6423 42.4192 71.3434 42.4391 67.8458C42.4391 67.4086 42.6969 67.031 43.0538 66.7727L55.3493 59.6781V16.4149H49.499V17.349C49.499 19.7735 47.496 21.7806 45.0766 21.7806H18.2448C15.7857 21.7806 13.7828 19.7735 13.7828 17.349H13.8224ZM48.6661 88.6725C48.3488 88.2154 47.9918 87.7385 47.6944 87.2814C47.3374 86.7448 47.0598 86.2083 46.7226 85.6717H6.72282C6.04855 85.6717 5.47344 85.0954 5.47344 84.4197V15.163C5.47344 14.4873 6.04855 13.911 6.72282 13.911H13.8026V10.9102H5.35446C3.74812 10.9102 2.43925 12.2218 2.43925 13.8315V85.7313C2.43925 87.341 3.74812 88.6526 5.35446 88.6526H48.6463L48.6661 88.6725ZM79.3055 68.6009L62.1316 58.6447L44.9576 68.6009C44.9576 71.562 45.2749 74.3839 45.9492 76.9873C46.0285 77.1661 46.088 77.345 46.088 77.5238C48.2695 85.6717 53.5644 92.1701 62.1117 97.2377C73.6139 90.4611 79.246 81.0612 79.2857 68.6009H79.3055ZM53.0885 77.8021C52.5927 77.3053 51.7994 77.3053 51.3433 77.8021C50.8475 78.2989 50.8475 79.0938 51.3433 79.5509L57.4712 85.6916C57.729 85.9499 58.0463 86.0493 58.3636 86.0493C58.6809 86.0493 58.9982 85.9499 59.256 85.6916L72.9991 71.9396C73.4949 71.4428 73.4949 70.6479 72.9991 70.1908C72.5034 69.7337 71.7101 69.694 71.254 70.1908L58.4033 83.0485L53.0885 77.8021Z" fill="white"/>
</svg>
