<svg width="85" height="104" viewBox="0 0 85 104" fill="none" xmlns="http://www.w3.org/2000/svg">
<path d="M32.0708 37.4026C32.0708 36.7063 32.6634 36.1124 33.3583 36.1124H46.4376C47.1324 36.1124 47.7251 36.7063 47.7251 37.4026C47.7251 38.0989 47.1324 38.6928 46.4376 38.6928H33.3583C32.6226 38.6928 32.0708 38.1399 32.0708 37.4026ZM33.3583 30.112H52.1598C52.8546 30.112 53.4473 29.5181 53.4473 28.8218C53.4473 28.1256 52.8546 27.5317 52.1598 27.5317H33.3583C32.6634 27.5317 32.0708 28.1256 32.0708 28.8218C32.0708 29.5181 32.6226 30.112 33.3583 30.112ZM33.3583 60.2779H46.4376C47.1324 60.2779 47.7251 59.684 47.7251 58.9877C47.7251 58.2914 47.1324 57.6975 46.4376 57.6975H33.3583C32.6634 57.6975 32.0708 58.2914 32.0708 58.9877C32.0708 59.684 32.6226 60.2779 33.3583 60.2779ZM33.3583 51.6766H52.1598C52.8546 51.6766 53.4473 51.0827 53.4473 50.3864C53.4473 49.6901 52.8546 49.0962 52.1598 49.0962H33.3583C32.6634 49.0962 32.0708 49.6901 32.0708 50.3864C32.0708 51.0827 32.6226 51.6766 33.3583 51.6766ZM33.3583 81.8424H41.1854C41.8803 81.8424 42.4729 81.2486 42.4729 80.5523C42.4729 79.856 41.8803 79.2621 41.1854 79.2621H33.3583C32.6634 79.2621 32.0708 79.856 32.0708 80.5523C32.0708 81.2486 32.6226 81.8424 33.3583 81.8424ZM33.3583 73.2412H40.184C40.8789 73.2412 41.4715 72.6473 41.4715 71.951C41.4715 71.2547 40.8789 70.6608 40.184 70.6608H33.3583C32.6634 70.6608 32.0708 71.2547 32.0708 71.951C32.0708 72.6473 32.6226 73.2412 33.3583 73.2412ZM15.6603 25.6681H23.8145C25.6946 25.6681 27.1865 27.1835 27.1865 29.0471V37.2183C27.1865 39.1024 25.6742 40.5974 23.8145 40.5974H15.6603C13.7802 40.5974 12.2883 39.0819 12.2883 37.2183V29.0471C12.2883 27.163 13.821 25.6681 15.6603 25.6681ZM14.8429 37.1773C14.8429 37.6279 15.2107 37.9965 15.6808 37.9965H23.8349C24.2845 37.9965 24.6728 37.6279 24.6728 37.1773V29.0062C24.6728 28.5556 24.3049 28.187 23.8349 28.187H15.6399C15.1903 28.187 14.802 28.5556 14.802 29.0062V37.1773H14.8429ZM17.6427 36.1739C17.9083 36.4401 18.2353 36.5425 18.5623 36.5425C18.8893 36.5425 19.2163 36.4401 19.4819 36.1739L23.7736 31.8732C24.2845 31.3613 24.2845 30.5421 23.7736 30.0711C23.2627 29.5591 22.4452 29.5591 21.9752 30.0711L18.5623 33.4911L17.6018 32.5286C17.0909 32.0166 16.2734 32.0166 15.8034 32.5286C15.2925 33.0406 15.2925 33.8597 15.8034 34.3307L17.6427 36.1739ZM27.2273 50.5912V58.7624C27.2273 60.6465 25.7151 62.1415 23.8553 62.1415H15.6603C13.7802 62.1415 12.2883 60.626 12.2883 58.7624V50.5912C12.2883 48.7071 13.8006 47.2122 15.6603 47.2122H23.8145C25.6946 47.2122 27.2273 48.7276 27.2273 50.5912ZM24.6524 50.5912C24.6524 50.1407 24.2845 49.772 23.8145 49.772H15.6603C15.2107 49.772 14.8224 50.1407 14.8224 50.5912V58.7624C14.8224 59.2129 15.1903 59.5816 15.6603 59.5816H23.8145C24.2641 59.5816 24.6524 59.2129 24.6524 58.7624V50.5912ZM21.9343 51.6152L18.5214 55.0352L17.5609 54.0727C17.05 53.5607 16.2325 53.5607 15.7625 54.0727C15.2516 54.5847 15.2516 55.4038 15.7625 55.8748L17.6427 57.7589C17.9083 58.0252 18.2353 58.1275 18.5623 58.1275C18.8893 58.1275 19.2163 58.0252 19.4819 57.7589L23.7736 53.4583C24.2845 52.9463 24.2845 52.1272 23.7736 51.6561C23.2627 51.1032 22.4452 51.1032 21.9343 51.6152ZM27.2273 72.1353V80.3065C27.2273 82.1906 25.7151 83.6856 23.8553 83.6856H15.6603C13.7802 83.6856 12.2883 82.1701 12.2883 80.3065V72.1353C12.2883 70.2512 13.8006 68.7562 15.6603 68.7562H23.8145C25.6946 68.7562 27.2273 70.2922 27.2273 72.1353ZM24.6524 72.1353C24.6524 71.6848 24.2845 71.3161 23.8145 71.3161H15.6603C15.2107 71.3161 14.8224 71.6848 14.8224 72.1353V80.3065C14.8224 80.757 15.1903 81.1257 15.6603 81.1257H23.8145C24.2641 81.1257 24.6524 80.757 24.6524 80.3065V72.1353ZM21.9343 73.1593L18.5214 76.5793L17.5609 75.6168C17.05 75.1048 16.2325 75.1048 15.7625 75.6168C15.2925 76.1288 15.2516 76.9479 15.7625 77.4189L17.6427 79.303C17.9083 79.5693 18.1944 79.6717 18.5623 79.6717C18.8893 79.6717 19.2163 79.5283 19.4819 79.303L23.7736 75.0024C24.2845 74.4904 24.2845 73.6712 23.7736 73.2002C23.2627 72.6473 22.4452 72.6473 21.9343 73.1593ZM84.4494 70.5175C84.5516 78.0948 82.7531 84.8324 79.095 90.5256C75.8661 95.5225 71.0635 99.8641 64.8508 103.448C64.6669 103.55 64.4421 103.632 64.2173 103.632C63.9925 103.632 63.7677 103.55 63.5838 103.448C59.1082 100.868 55.3683 97.8981 52.3846 94.5395H5.76909C2.68319 94.5395 0.189941 92.0411 0.189941 88.9487V14.855C0.189941 11.7627 2.68319 9.26422 5.76909 9.26422H14.475V7.54397C14.475 6.84768 15.0677 6.25379 15.7625 6.25379H26.0012C26.6347 3.01808 29.4958 0.581055 32.8678 0.581055C36.2398 0.581055 39.1009 3.03856 39.7344 6.25379H49.9731C50.6679 6.25379 51.2606 6.84768 51.2606 7.54397V9.26422H59.9665C63.0524 9.26422 65.5457 11.7627 65.5457 14.855V58.8238L83.8567 69.4525C84.2246 69.6368 84.4494 70.0874 84.4494 70.5175ZM51.2197 11.8446V14.937H58.5155C59.2104 14.937 59.803 15.5309 59.803 16.2271V60.626L62.9298 58.8238V14.855C62.9298 13.1962 61.581 11.8446 59.9256 11.8446H51.2197ZM17.0091 18.4594C17.0091 19.5653 17.8879 20.4459 19.0323 20.4459H46.6828C47.7864 20.4459 48.706 19.5653 48.706 18.4594V8.81369H38.5696C37.8747 8.81369 37.2821 8.26075 37.2821 7.5235C37.2821 5.08647 35.2589 3.09999 32.8474 3.09999C30.4359 3.09999 28.4331 5.08647 28.4127 7.5235C28.4127 8.21979 27.82 8.81369 27.1252 8.81369H16.9887V18.4594H17.0296H17.0091ZM14.4341 18.4594V17.4969H8.40539V86.2864H47.0303C46.2537 84.5867 45.6406 82.8254 45.1501 80.9823C45.1092 80.8799 45.0684 80.757 45.0684 80.6546C44.2509 77.5009 43.9035 74.1013 43.9239 70.497C43.9239 70.0464 44.1896 69.6573 44.5574 69.3911L57.228 62.08V17.4969H51.1993V18.4594C51.1993 20.9578 49.1352 23.0262 46.642 23.0262H18.9915C16.4573 23.0262 14.3933 20.9578 14.3933 18.4594H14.4341ZM50.341 91.9592C50.014 91.4881 49.6461 90.9966 49.3396 90.5256C48.9717 89.9727 48.6856 89.4197 48.3382 88.8668H7.11789C6.42305 88.8668 5.83039 88.2729 5.83039 87.5766V16.2067C5.83039 15.5104 6.42305 14.9165 7.11789 14.9165H14.4137V11.8241H5.70778C4.05243 11.8241 2.70362 13.1757 2.70362 14.8346V88.9282C2.70362 90.5871 4.05243 91.9387 5.70778 91.9387H50.3205L50.341 91.9592ZM81.9153 71.2752L64.2173 61.0151L46.5193 71.2752C46.5193 74.3266 46.8463 77.2346 47.5412 79.9174C47.6229 80.1017 47.6842 80.286 47.6842 80.4703C49.9322 88.8668 55.3888 95.5635 64.1969 100.786C76.05 93.8023 81.8539 84.1156 81.8948 71.2752H81.9153ZM54.8983 80.757C54.3874 80.2451 53.5699 80.2451 53.0999 80.757C52.589 81.269 52.589 82.0882 53.0999 82.5592L59.4147 88.8873C59.6804 89.1535 60.0074 89.2559 60.3344 89.2559C60.6614 89.2559 60.9883 89.1535 61.254 88.8873L75.4165 74.7157C75.9274 74.2037 75.9274 73.3845 75.4165 72.9135C74.9056 72.4425 74.0881 72.4015 73.618 72.9135L60.3753 86.1636L54.8983 80.757Z" fill="#004E4E"/>
</svg>
