<svg width="26" height="29" viewBox="0 0 26 29" fill="none" xmlns="http://www.w3.org/2000/svg">
<path d="M12.5682 20.1099C12.1157 20.1099 11.7484 20.4779 11.7484 20.9314V25.9328L10.686 24.8747C10.345 24.5789 9.82693 24.6184 9.53182 24.9667C9.2695 25.2756 9.2695 25.7291 9.53182 26.038L11.9911 28.5025C12.3124 28.818 12.8305 28.818 13.1453 28.5025L15.6046 26.038C15.8997 25.6962 15.8603 25.177 15.5127 24.8813C15.2045 24.6184 14.752 24.6184 14.4438 24.8813L13.3814 25.9394V20.938C13.3814 20.4845 13.0141 20.1164 12.5616 20.1164L12.5682 20.1099Z" fill="#004E4E"/>
<path d="M18.3131 25.1968H18.4246C19.3559 25.0719 20.2937 24.9076 21.2183 24.717C22.7595 24.4081 23.9662 23.1988 24.2744 21.6544C25.4417 15.9366 25.4417 10.0479 24.2744 4.33015C23.9596 2.78569 22.7595 1.58298 21.2183 1.26752C15.5129 0.0976756 9.63689 0.0976756 3.93141 1.26752C2.39028 1.57641 1.1836 2.78569 0.875373 4.33015C-0.291954 10.0479 -0.291954 15.9366 0.875373 21.6544C1.19016 23.1988 2.39028 24.4015 3.93141 24.717C4.85609 24.9076 5.79389 25.0653 6.72513 25.1968C7.17763 25.2559 7.59734 24.9404 7.65636 24.487C7.71539 24.0335 7.4006 23.6129 6.9481 23.5537C6.05621 23.4289 5.1512 23.2711 4.25931 23.0937C3.37398 22.9162 2.67227 22.2261 2.48209 21.3389C1.36066 15.838 1.36066 10.1728 2.48209 4.6719C2.66571 3.77809 3.36086 3.07487 4.25931 2.89084C9.74837 1.76701 15.4079 1.76701 20.897 2.89084C21.7889 3.07487 22.4906 3.77151 22.6742 4.6719C23.7957 10.1728 23.7957 15.838 22.6742 21.3389C22.4906 22.2327 21.7955 22.9359 20.897 23.12C20.0051 23.304 19.1001 23.4551 18.2082 23.58C17.7557 23.6129 17.4147 24.0006 17.4409 24.4541C17.4672 24.9076 17.8606 25.2493 18.3131 25.2231V25.1968Z" fill="#004E4E"/>
<path d="M6.42339 13.8135H18.7197C19.1722 13.8135 19.5394 13.4454 19.5394 12.9919C19.5394 12.5385 19.1722 12.1704 18.7197 12.1704H6.42339C5.97089 12.1704 5.60364 12.5385 5.60364 12.9919C5.60364 13.4454 5.97089 13.8135 6.42339 13.8135Z" fill="#004E4E"/>
<path d="M6.42339 9.70603H18.7197C19.1722 9.70603 19.5394 9.33799 19.5394 8.88451C19.5394 8.43103 19.1722 8.06299 18.7197 8.06299H6.42339C5.97089 8.06299 5.60364 8.43103 5.60364 8.88451C5.60364 9.33799 5.97089 9.70603 6.42339 9.70603Z" fill="#004E4E"/>
<path d="M19.5394 17.0998C19.5394 16.6464 19.1722 16.2783 18.7197 16.2783H6.42339C5.97089 16.2783 5.60364 16.6464 5.60364 17.0998C5.60364 17.5533 5.97089 17.9214 6.42339 17.9214H18.7197C19.1722 17.9214 19.5394 17.5533 19.5394 17.0998Z" fill="#004E4E"/>
</svg>
