<svg width="93" height="105" viewBox="0 0 93 105" fill="none" xmlns="http://www.w3.org/2000/svg">
<path d="M46.5835 73.1265C44.9189 73.1265 43.5678 74.4804 43.5678 76.1486V94.5477L39.6595 90.6551C38.405 89.5671 36.4991 89.7122 35.4135 90.9936C34.4484 92.1299 34.4484 93.7982 35.4135 94.9345L44.4605 104.001C45.6426 105.162 47.5485 105.162 48.7066 104.001L57.7536 94.9345C58.8392 93.6773 58.6945 91.7673 57.4158 90.6793C56.2819 89.7122 54.6173 89.7122 53.4834 90.6793L49.5751 94.5718V76.1728C49.5751 74.5046 48.224 73.1506 46.5594 73.1506L46.5835 73.1265Z" fill="#004E4E"/>
<path d="M67.7173 91.8397H68.1274C71.5533 91.3803 75.0032 90.7759 78.4049 90.0747C84.0743 88.9384 88.5134 84.4898 89.6473 78.8081C93.9416 57.7737 93.9416 36.1107 89.6473 15.0764C88.4893 9.39471 84.0743 4.97023 78.4049 3.80972C57.4158 -0.493863 35.7994 -0.493863 14.8103 3.80972C9.14087 4.94605 4.7018 9.39471 3.56791 15.0764C-0.726412 36.1107 -0.726412 57.7737 3.56791 78.8081C4.72593 84.4898 9.14087 88.9142 14.8103 90.0747C18.212 90.7759 21.6619 91.3561 25.0878 91.8397C26.7524 92.0573 28.2964 90.8968 28.5136 89.2285C28.7307 87.5603 27.5727 86.0129 25.908 85.7953C22.627 85.336 19.2977 84.7557 16.0166 84.1029C12.7597 83.4501 10.1783 80.9115 9.47862 77.6475C5.35318 57.411 5.35318 36.5701 9.47862 16.3336C10.1541 13.0455 12.7114 10.4585 16.0166 9.78154C36.2096 5.6472 57.0298 5.6472 77.2227 9.78154C80.5038 10.4585 83.0852 13.0213 83.7607 16.3336C87.8861 36.5701 87.8861 57.411 83.7607 77.6475C83.0852 80.9357 80.5279 83.5226 77.2227 84.1996C73.9417 84.8766 70.6124 85.4327 67.3313 85.892C65.6666 86.0129 64.4121 87.4394 64.5086 89.1076C64.6051 90.7759 66.0527 92.0331 67.7173 91.9364V91.8397Z" fill="#004E4E"/>
<path d="M23.9783 49.9648H69.2134C70.8781 49.9648 72.2291 48.6108 72.2291 46.9426C72.2291 45.2743 70.8781 43.9204 69.2134 43.9204H23.9783C22.3137 43.9204 20.9626 45.2743 20.9626 46.9426C20.9626 48.6108 22.3137 49.9648 23.9783 49.9648Z" fill="#004E4E"/>
<path d="M23.9783 34.8534H69.2134C70.8781 34.8534 72.2291 33.4995 72.2291 31.8313C72.2291 30.163 70.8781 28.8091 69.2134 28.8091H23.9783C22.3137 28.8091 20.9626 30.163 20.9626 31.8313C20.9626 33.4995 22.3137 34.8534 23.9783 34.8534Z" fill="#004E4E"/>
<path d="M72.2291 62.0534C72.2291 60.3852 70.8781 59.0312 69.2134 59.0312H23.9783C22.3137 59.0312 20.9626 60.3852 20.9626 62.0534C20.9626 63.7217 22.3137 65.0756 23.9783 65.0756H69.2134C70.8781 65.0756 72.2291 63.7217 72.2291 62.0534Z" fill="#004E4E"/>
</svg>
