<svg width="332" height="71" viewBox="0 0 332 71" fill="none" xmlns="http://www.w3.org/2000/svg">
<g clip-path="url(#clip0_1330_3113)">
<path d="M9.094 58.3994V68.1946H7.76927V63.7384H2.48806V68.1946H1.16333V58.3994H2.48806V62.7671H7.76927V58.3994H9.094Z" fill="white"/>
<path d="M16.9981 67.2254C16.8477 67.4068 16.6686 67.5661 16.4585 67.7011C16.2484 67.836 16.025 67.9467 15.7862 68.033C15.5473 68.1193 15.2996 68.1834 15.0453 68.2277C14.791 68.2719 14.5366 68.2918 14.2867 68.2918C13.809 68.2918 13.3667 68.21 12.9642 68.0485C12.5617 67.8869 12.2123 67.6502 11.9181 67.3382C11.624 67.0262 11.3962 66.639 11.2303 66.1788C11.0667 65.7186 10.9849 65.1898 10.9849 64.5924C10.9849 64.11 11.0578 63.6587 11.206 63.2383C11.3542 62.8201 11.5665 62.455 11.8452 62.1475C12.1238 61.8399 12.4622 61.5987 12.8625 61.4239C13.2628 61.2491 13.7139 61.1606 14.216 61.1606C14.6295 61.1606 15.0143 61.2292 15.3682 61.3686C15.722 61.508 16.0272 61.7071 16.2838 61.9704C16.5403 62.2315 16.7438 62.5568 16.8875 62.9418C17.0335 63.3268 17.1065 63.7649 17.1065 64.2583C17.1065 64.4508 17.0866 64.5769 17.0445 64.6411C17.0025 64.7052 16.9251 64.7362 16.8123 64.7362H12.1857C12.199 65.1743 12.2587 65.5549 12.3671 65.8779C12.4732 66.2009 12.6236 66.4709 12.8138 66.6877C13.0062 66.9045 13.2318 67.0661 13.4972 67.1723C13.7604 67.2785 14.0567 67.3338 14.3863 67.3338C14.6914 67.3338 14.9546 67.2984 15.1758 67.2276C15.3969 67.1568 15.5871 67.0793 15.7464 66.9975C15.9056 66.9156 16.0383 66.8382 16.1467 66.7674C16.255 66.6966 16.3457 66.6612 16.4231 66.6612C16.5226 66.6612 16.6 66.6988 16.6553 66.7762L16.9959 67.2209L16.9981 67.2254ZM16.014 63.9795C16.014 63.6963 15.9742 63.4374 15.8945 63.2029C15.8149 62.9683 15.6977 62.7648 15.5451 62.5944C15.3925 62.424 15.2067 62.2913 14.9878 62.1983C14.7688 62.1054 14.5212 62.059 14.2425 62.059C13.6586 62.059 13.1986 62.2293 12.8581 62.5679C12.5175 62.9064 12.3074 63.3777 12.2256 63.9795H16.0117H16.014Z" fill="white"/>
<path d="M18.7078 62.2493C19.0904 61.8798 19.5017 61.6055 19.944 61.4218C20.3864 61.2404 20.8751 61.1475 21.4125 61.1475C21.7995 61.1475 22.1423 61.2116 22.4431 61.3377C22.7439 61.4661 22.996 61.6431 23.2017 61.871C23.4074 62.0989 23.5622 62.3755 23.6661 62.6985C23.7701 63.0215 23.8231 63.3778 23.8231 63.765V68.1946H23.2835C23.1641 68.1946 23.0734 68.1747 23.0093 68.1371C22.9451 68.0994 22.8943 68.022 22.8589 67.9069L22.7218 67.2498C22.5404 67.418 22.3613 67.5684 22.1888 67.6967C22.0163 67.8273 21.8327 67.9357 21.6425 68.0242C21.4523 68.1127 21.2467 68.1813 21.0321 68.23C20.8154 68.2787 20.5743 68.3008 20.3112 68.3008C20.048 68.3008 19.7892 68.2632 19.5526 68.1879C19.316 68.1127 19.1103 67.9999 18.9356 67.8494C18.7609 67.699 18.6215 67.5087 18.5198 67.2786C18.4181 67.0485 18.365 66.7763 18.365 66.4621C18.365 66.1878 18.4402 65.9267 18.5906 65.6722C18.741 65.42 18.9842 65.1943 19.3226 64.9996C19.6588 64.8049 20.0989 64.6434 20.6407 64.5172C21.1825 64.3911 21.8482 64.3203 22.6355 64.3026V63.7628C22.6355 63.2251 22.5183 62.818 22.2861 62.5436C22.0539 62.267 21.7155 62.1299 21.2688 62.1299C20.968 62.1299 20.7159 62.1675 20.5146 62.2427C20.3112 62.3179 20.1365 62.402 19.9883 62.4949C19.8401 62.5879 19.7118 62.6719 19.6057 62.7472C19.4995 62.8224 19.3934 62.86 19.2872 62.86C19.2054 62.86 19.1346 62.8379 19.0749 62.7958C19.0152 62.7516 18.9665 62.6985 18.9245 62.6343L18.7056 62.2449L18.7078 62.2493ZM22.6355 65.0792C22.076 65.0969 21.5983 65.1412 21.2046 65.212C20.811 65.2828 20.4903 65.3757 20.2404 65.4886C19.9927 65.6036 19.8114 65.7364 19.7008 65.8913C19.5902 66.0461 19.5327 66.2187 19.5327 66.4112C19.5327 66.6037 19.5614 66.7498 19.6212 66.8825C19.6809 67.0153 19.7605 67.1237 19.8644 67.2078C19.9684 67.2918 20.0878 67.3538 20.2271 67.3914C20.3665 67.429 20.5146 67.4489 20.6739 67.4489C20.8884 67.4489 21.083 67.4268 21.2621 67.3848C21.4391 67.3405 21.6071 67.2786 21.7642 67.1967C21.9212 67.1148 22.0716 67.0175 22.2153 66.9024C22.3591 66.7896 22.4984 66.659 22.6355 66.513V65.077V65.0792Z" fill="white"/>
<path d="M27.22 58.1274V68.197H26.0037V58.1274H27.22Z" fill="white"/>
<path d="M31.6011 68.305C31.0548 68.305 30.6346 68.1524 30.3405 67.847C30.0463 67.5417 29.9004 67.1014 29.9004 66.5283V62.2912H29.0666C28.9936 62.2912 28.9317 62.2691 28.8831 62.227C28.8322 62.1828 28.8079 62.1164 28.8079 62.0257V61.5411L29.9424 61.3973L30.2233 59.2577C30.2365 59.1891 30.2675 59.1338 30.3161 59.0896C30.3648 59.0453 30.4267 59.0254 30.5041 59.0254H31.1189V61.4106H33.1204V62.2934H31.1189V66.4487C31.1189 66.7407 31.1897 66.9576 31.3313 67.0992C31.4728 67.2408 31.6541 67.3116 31.8775 67.3116C32.0058 67.3116 32.1164 67.2939 32.2092 67.2607C32.3021 67.2275 32.384 67.1899 32.4525 67.1478C32.5211 67.1058 32.5786 67.0682 32.6272 67.035C32.6759 67.0018 32.7179 66.9841 32.7533 66.9841C32.8174 66.9841 32.8727 67.0217 32.9236 67.1014L33.2796 67.6833C33.0695 67.8802 32.8174 68.0329 32.5211 68.1435C32.2247 68.2541 31.9195 68.3117 31.6055 68.3117L31.6011 68.305Z" fill="white"/>
<path d="M35.8849 62.194C36.1812 61.8798 36.5085 61.6298 36.869 61.4417C37.2295 61.2558 37.6431 61.1607 38.1119 61.1607C38.4901 61.1607 38.824 61.2226 39.1138 61.3487C39.4035 61.4749 39.6445 61.6519 39.8369 61.882C40.0316 62.1121 40.1775 62.3887 40.277 62.7117C40.3766 63.0347 40.4274 63.3932 40.4274 63.7848V68.1945H39.2044V63.7848C39.2044 63.2604 39.085 62.8533 38.8462 62.5657C38.6073 62.2758 38.2446 62.132 37.7559 62.132C37.3954 62.132 37.0592 62.2183 36.7474 62.3909C36.4356 62.5635 36.1481 62.798 35.8827 63.0945V68.1945H34.6597V58.125H35.8827V62.1917L35.8849 62.194Z" fill="white"/>
<path d="M47.3894 62.5017C47.354 62.5526 47.3164 62.5902 47.281 62.619C47.2434 62.6456 47.1948 62.661 47.1306 62.661C47.0621 62.661 46.9869 62.6323 46.905 62.5748C46.8232 62.5172 46.7215 62.4553 46.5998 62.3867C46.4804 62.3181 46.3322 62.2561 46.1553 62.1986C45.9784 62.1411 45.7639 62.1123 45.5095 62.1123C45.169 62.1123 44.8682 62.1721 44.6072 62.2938C44.3463 62.4154 44.1295 62.588 43.9548 62.8159C43.7801 63.0438 43.6474 63.3204 43.5589 63.6434C43.4705 63.9665 43.4262 64.3293 43.4262 64.7298C43.4262 65.1303 43.4749 65.5219 43.57 65.8472C43.6651 66.1724 43.8 66.4468 43.9769 66.6681C44.1516 66.8893 44.364 67.0575 44.6116 67.1747C44.8593 67.292 45.138 67.3495 45.4498 67.3495C45.7617 67.3495 45.9895 67.3141 46.1819 67.2433C46.3721 67.1725 46.5313 67.0951 46.6573 67.0066C46.7834 66.9203 46.8873 66.8406 46.9714 66.7698C47.0554 66.699 47.1395 66.6636 47.2213 66.6636C47.3208 66.6636 47.3982 66.7012 47.4535 66.7787L47.7941 67.2234C47.6437 67.4093 47.4734 67.5708 47.281 67.7013C47.0886 67.8341 46.8829 67.9447 46.6618 68.0332C46.4406 68.1217 46.2106 68.1859 45.9673 68.2279C45.7241 68.27 45.4808 68.2899 45.2287 68.2899C44.7952 68.2899 44.3927 68.2102 44.0234 68.0509C43.6518 67.8916 43.3289 67.6593 43.0569 67.3562C42.7827 67.053 42.5682 66.6813 42.4156 66.2388C42.2608 65.7963 42.1833 65.294 42.1833 64.7276C42.1833 64.2121 42.2541 63.7364 42.3979 63.2983C42.5416 62.8602 42.7517 62.484 43.026 62.1676C43.3024 61.8512 43.6408 61.6034 44.0433 61.4264C44.4458 61.2494 44.9102 61.1587 45.4343 61.1587C45.9209 61.1587 46.3499 61.2383 46.7215 61.3954C47.093 61.5525 47.4225 61.7738 47.7078 62.0614L47.3872 62.4995L47.3894 62.5017Z" fill="white"/>
<path d="M49.2073 62.2493C49.5899 61.8798 50.0012 61.6055 50.4435 61.4218C50.8859 61.2404 51.3746 61.1475 51.912 61.1475C52.299 61.1475 52.644 61.2116 52.9448 61.3377C53.2456 61.4661 53.4977 61.6431 53.7034 61.871C53.9091 62.0989 54.0639 62.3755 54.1678 62.6985C54.2718 63.0215 54.3248 63.3778 54.3248 63.765V68.1946H53.7852C53.6658 68.1946 53.5751 68.1747 53.511 68.1371C53.4468 68.0994 53.396 68.022 53.3606 67.9069L53.2235 67.2498C53.0421 67.418 52.863 67.5684 52.6905 67.6967C52.518 67.8273 52.3344 67.9357 52.1442 68.0242C51.954 68.1127 51.7484 68.1813 51.5338 68.23C51.3171 68.2787 51.076 68.3008 50.8129 68.3008C50.5497 68.3008 50.2909 68.2632 50.0543 68.1879C49.8177 68.1127 49.612 67.9999 49.4351 67.8494C49.2604 67.699 49.121 67.5087 49.0193 67.2786C48.9176 67.0485 48.8667 66.7763 48.8667 66.4621C48.8667 66.1878 48.9419 65.9267 49.0923 65.6722C49.2427 65.42 49.4859 65.1943 49.8221 64.9996C50.1583 64.8049 50.5984 64.6434 51.1402 64.5172C51.682 64.3911 52.3477 64.3203 53.135 64.3026V63.7628C53.135 63.2251 53.0178 62.818 52.7856 62.5436C52.5534 62.2693 52.215 62.1299 51.7683 62.1299C51.4675 62.1299 51.2154 62.1675 51.0141 62.2427C50.8107 62.3179 50.6359 62.402 50.4878 62.4949C50.3396 62.5879 50.2113 62.6719 50.1052 62.7472C49.999 62.8224 49.8929 62.86 49.7867 62.86C49.7049 62.86 49.6341 62.8379 49.5744 62.7958C49.5147 62.7516 49.466 62.6985 49.424 62.6343L49.2051 62.2449L49.2073 62.2493ZM53.135 65.0792C52.5755 65.0969 52.0978 65.1412 51.7041 65.212C51.3105 65.2828 50.9898 65.3757 50.7399 65.4886C50.4922 65.6036 50.3109 65.7364 50.2003 65.8913C50.0897 66.0461 50.0322 66.2187 50.0322 66.4112C50.0322 66.6037 50.0609 66.7498 50.1207 66.8825C50.1804 67.0153 50.26 67.1237 50.3639 67.2078C50.4657 67.2918 50.5873 67.3538 50.7266 67.3914C50.866 67.429 51.0141 67.4489 51.1734 67.4489C51.3879 67.4489 51.5825 67.4268 51.7616 67.3848C51.9386 67.3405 52.1066 67.2786 52.2637 67.1967C52.4207 67.1148 52.5711 67.0175 52.7148 66.9024C52.8586 66.7874 52.9979 66.659 53.135 66.513V65.077V65.0792Z" fill="white"/>
<path d="M57.6178 62.6587C57.8368 62.1852 58.1044 61.8135 58.425 61.5479C58.7435 61.2802 59.1327 61.1475 59.5927 61.1475C59.7387 61.1475 59.878 61.1629 60.0129 61.1961C60.1478 61.2271 60.2673 61.278 60.3712 61.3466L60.2827 62.256C60.2562 62.3688 60.1877 62.4263 60.0771 62.4263C60.0129 62.4263 59.9201 62.4131 59.7962 62.3865C59.6724 62.36 59.5352 62.3445 59.3804 62.3445C59.1615 62.3445 58.9669 62.3755 58.7966 62.4396C58.6263 62.5038 58.4737 62.5989 58.3388 62.7228C58.2039 62.8467 58.0845 63.0038 57.9761 63.1875C57.8699 63.3711 57.7726 63.5835 57.6864 63.8203V68.1946H56.4634V61.2692H57.16C57.2927 61.2692 57.3834 61.2935 57.4343 61.3444C57.4851 61.3953 57.5183 61.4816 57.536 61.6033L57.6178 62.6565V62.6587Z" fill="white"/>
<path d="M67.0613 67.2254C66.911 67.4068 66.7318 67.5661 66.5217 67.7011C66.3116 67.836 66.0882 67.9467 65.8494 68.033C65.6106 68.1193 65.3629 68.1834 65.1085 68.2277C64.8542 68.2719 64.5999 68.2918 64.35 68.2918C63.8723 68.2918 63.4299 68.21 63.0274 68.0485C62.6249 67.8869 62.2755 67.6502 61.9814 67.3382C61.6872 67.0262 61.4594 66.639 61.2936 66.1788C61.1299 65.7186 61.0481 65.1898 61.0481 64.5924C61.0481 64.11 61.1211 63.6587 61.2693 63.2383C61.4174 62.8201 61.6297 62.455 61.9084 62.1475C62.187 61.8399 62.5254 61.5987 62.9257 61.4239C63.326 61.2491 63.7772 61.1606 64.2792 61.1606C64.6927 61.1606 65.0776 61.2292 65.4314 61.3686C65.7853 61.508 66.0905 61.7071 66.347 61.9704C66.6035 62.2315 66.8048 62.5568 66.9508 62.9418C67.0967 63.3268 67.1697 63.7649 67.1697 64.2583C67.1697 64.4508 67.1498 64.5769 67.1078 64.6411C67.068 64.7052 66.9884 64.7362 66.8756 64.7362H62.249C62.2622 65.1743 62.322 65.5549 62.4303 65.8779C62.5365 66.2009 62.6869 66.4709 62.8771 66.6877C63.0695 66.9045 63.295 67.0661 63.5604 67.1723C63.8236 67.2785 64.12 67.3338 64.4495 67.3338C64.7547 67.3338 65.0178 67.2984 65.239 67.2276C65.4602 67.1568 65.6504 67.0793 65.8096 66.9975C65.9688 66.9156 66.1015 66.8382 66.2099 66.7674C66.316 66.6966 66.4089 66.6612 66.4863 66.6612C66.5859 66.6612 66.6633 66.6988 66.7185 66.7762L67.0591 67.2209L67.0613 67.2254ZM66.0772 63.9795C66.0772 63.6963 66.0374 63.4374 65.9578 63.2029C65.8781 62.9683 65.7609 62.7648 65.6083 62.5944C65.4557 62.424 65.27 62.2913 65.051 62.1983C64.8321 62.1054 64.5844 62.059 64.3057 62.059C63.7219 62.059 63.2619 62.2293 62.9213 62.5679C62.5807 62.9064 62.3706 63.3777 62.2888 63.9795H66.075H66.0772Z" fill="white"/>
<path d="M82.0646 63.3001C82.0646 64.0347 81.9474 64.7073 81.7152 65.3202C81.483 65.9331 81.1557 66.4597 80.7311 66.9022C80.3064 67.3447 79.7978 67.6877 79.2051 67.9311C78.6102 68.1745 77.9533 68.2961 77.2346 68.2961C76.5158 68.2961 75.859 68.1745 75.2663 67.9311C74.6736 67.6877 74.1671 67.3447 73.7425 66.9022C73.3201 66.4597 72.9906 65.9331 72.7584 65.3202C72.5261 64.7073 72.4089 64.0347 72.4089 63.3001C72.4089 62.5655 72.5261 61.8929 72.7584 61.28C72.9906 60.6671 73.3179 60.1383 73.7425 59.6936C74.1671 59.2488 74.6736 58.9037 75.2663 58.6581C75.859 58.4125 76.5136 58.2886 77.2346 58.2886C77.9555 58.2886 78.6124 58.4125 79.2051 58.6581C79.8 58.9037 80.3086 59.2488 80.7311 59.6936C81.1535 60.1383 81.483 60.6671 81.7152 61.28C81.9474 61.8929 82.0646 62.5655 82.0646 63.3001ZM80.7045 63.3001C80.7045 62.6983 80.6227 62.1584 80.459 61.6805C80.2954 61.2026 80.0632 60.7977 79.7624 60.468C79.4616 60.1383 79.0967 59.8839 78.6699 59.7046C78.2408 59.5276 77.7631 59.4391 77.2346 59.4391C76.706 59.4391 76.2349 59.5276 75.8059 59.7046C75.3769 59.8816 75.0119 60.1361 74.709 60.468C74.406 60.7999 74.1738 61.2026 74.0079 61.6805C73.8442 62.1584 73.7624 62.6983 73.7624 63.3001C73.7624 63.9019 73.8442 64.4396 74.0079 64.9175C74.1716 65.3932 74.406 65.7959 74.709 66.1278C75.0119 66.4575 75.3769 66.7119 75.8059 66.8867C76.2349 67.0615 76.7104 67.15 77.2346 67.15C77.7587 67.15 78.2408 67.0615 78.6699 66.8867C79.0989 66.7119 79.4616 66.4575 79.7624 66.1278C80.0632 65.7981 80.2954 65.3932 80.459 64.9175C80.6227 64.4418 80.7045 63.9019 80.7045 63.3001Z" fill="white"/>
<path d="M89.5463 61.2715V68.1969H88.8231C88.6506 68.1969 88.54 68.1128 88.4958 67.9447L88.4007 67.199C88.0999 67.5309 87.7637 67.7986 87.39 68.0022C87.0162 68.2058 86.5872 68.3075 86.1051 68.3075C85.7269 68.3075 85.3929 68.2456 85.1032 68.1195C84.8135 67.9933 84.5702 67.8186 84.3756 67.5907C84.1788 67.3628 84.0328 67.0862 83.9355 66.7631C83.8382 66.4401 83.7896 66.0817 83.7896 65.69V61.2737H85.0059V65.69C85.0059 66.2144 85.1253 66.6193 85.3642 66.907C85.603 67.1946 85.9679 67.3384 86.4611 67.3384C86.8216 67.3384 87.1578 67.2521 87.4696 67.0818C87.7814 66.9114 88.0689 66.6746 88.3343 66.3737V61.2737H89.5507L89.5463 61.2715Z" fill="white"/>
<path d="M93.8855 68.305C93.3392 68.305 92.919 68.1524 92.6249 67.847C92.3308 67.5417 92.1848 67.1014 92.1848 66.5283V62.2912H91.351C91.2781 62.2912 91.2161 62.2691 91.1675 62.227C91.1166 62.1828 91.0923 62.1164 91.0923 62.0257V61.5411L92.2268 61.3973L92.5077 59.2577C92.521 59.1891 92.5519 59.1338 92.6006 59.0896C92.6492 59.0453 92.7111 59.0254 92.7886 59.0254H93.4034V61.4106H95.4048V62.2934H93.4034V66.4487C93.4034 66.7407 93.4741 66.9576 93.6157 67.0992C93.7572 67.2408 93.9386 67.3116 94.1619 67.3116C94.2902 67.3116 94.4008 67.2939 94.4937 67.2607C94.5866 67.2275 94.6684 67.1899 94.7369 67.1478C94.8055 67.1058 94.863 67.0682 94.9117 67.035C94.9603 67.0018 95.0023 66.9841 95.0377 66.9841C95.1019 66.9841 95.1593 67.0217 95.208 67.1014L95.5641 67.6833C95.354 67.8802 95.1018 68.0329 94.8055 68.1435C94.5091 68.2541 94.204 68.3117 93.8899 68.3117L93.8855 68.305Z" fill="white"/>
<path d="M100.976 62.4132C100.92 62.5128 100.836 62.5637 100.723 62.5637C100.655 62.5637 100.578 62.5393 100.491 62.4884C100.405 62.4375 100.299 62.3822 100.173 62.3203C100.047 62.2583 99.8986 62.2008 99.7261 62.1499C99.5536 62.0968 99.3479 62.0703 99.1113 62.0703C98.9056 62.0703 98.722 62.0968 98.5584 62.1499C98.3947 62.203 98.2554 62.2738 98.1382 62.3645C98.0232 62.4552 97.9325 62.5614 97.8728 62.6831C97.8109 62.8048 97.7799 62.9354 97.7799 63.077C97.7799 63.254 97.8308 63.4022 97.9347 63.5217C98.0364 63.6412 98.1736 63.743 98.3416 63.8293C98.5097 63.9156 98.7021 63.993 98.9166 64.0594C99.1312 64.1258 99.3501 64.1966 99.5757 64.2718C99.8013 64.347 100.02 64.4311 100.235 64.5218C100.449 64.6125 100.639 64.7276 100.808 64.8625C100.976 64.9997 101.111 65.1679 101.214 65.3648C101.318 65.5617 101.369 65.8007 101.369 66.0795C101.369 66.3981 101.312 66.6946 101.199 66.9645C101.084 67.2367 100.916 67.4712 100.693 67.6681C100.469 67.8673 100.195 68.0221 99.872 68.1372C99.5491 68.25 99.1754 68.3076 98.7508 68.3076C98.2686 68.3076 97.8308 68.2279 97.4393 68.0708C97.0479 67.9137 96.7161 67.7124 96.4419 67.4668L96.7294 67.0021C96.767 66.9424 96.809 66.8981 96.8599 66.865C96.9107 66.834 96.9727 66.8163 97.0501 66.8163C97.1319 66.8163 97.2182 66.8472 97.3088 66.9114C97.3995 66.9756 97.5101 67.0464 97.6406 67.1238C97.771 67.2013 97.9281 67.2721 98.1161 67.3362C98.3018 67.4004 98.534 67.4314 98.8127 67.4314C99.0493 67.4314 99.2572 67.4004 99.4341 67.3384C99.6111 67.2765 99.7592 67.1946 99.8787 67.0884C99.9981 66.9822 100.084 66.8627 100.142 66.7256C100.199 66.5884 100.228 66.4423 100.228 66.2875C100.228 66.095 100.177 65.9379 100.073 65.8118C99.9693 65.6856 99.8344 65.5794 99.6664 65.4909C99.4983 65.4024 99.3059 65.325 99.0891 65.2586C98.8724 65.1922 98.6512 65.1236 98.4257 65.0506C98.2001 64.9776 97.9789 64.8935 97.7622 64.8006C97.5455 64.7077 97.3531 64.5904 97.185 64.4488C97.0169 64.3072 96.8798 64.1324 96.7781 63.9266C96.6763 63.7186 96.6232 63.4686 96.6232 63.1721C96.6232 62.9088 96.6785 62.6544 96.7869 62.4088C96.8953 62.1654 97.0545 61.9508 97.2646 61.7671C97.4747 61.5835 97.7312 61.4352 98.0364 61.3268C98.3416 61.2184 98.6911 61.1631 99.0825 61.1631C99.5381 61.1631 99.9472 61.2339 100.31 61.3777C100.673 61.5215 100.984 61.7185 101.25 61.9685L100.976 62.4132Z" fill="white"/>
<path d="M106.067 61.1606C106.573 61.1606 107.029 61.2447 107.433 61.4129C107.838 61.581 108.185 61.82 108.473 62.1298C108.76 62.4395 108.979 62.8135 109.132 63.2538C109.284 63.6941 109.362 64.1853 109.362 64.7273C109.362 65.2694 109.287 65.7673 109.132 66.2031C108.979 66.6412 108.76 67.0152 108.473 67.3249C108.185 67.6347 107.84 67.8737 107.433 68.0396C107.029 68.2055 106.573 68.2896 106.067 68.2896C105.56 68.2896 105.098 68.2055 104.691 68.0396C104.284 67.8737 103.937 67.6347 103.649 67.3249C103.362 67.0152 103.143 66.6412 102.99 66.2031C102.838 65.7651 102.76 65.2739 102.76 64.7273C102.76 64.1808 102.838 63.6941 102.99 63.2538C103.143 62.8135 103.362 62.4395 103.649 62.1298C103.937 61.82 104.284 61.581 104.691 61.4129C105.098 61.2447 105.558 61.1606 106.067 61.1606ZM106.067 67.3404C106.75 67.3404 107.261 67.1103 107.597 66.6523C107.933 66.1943 108.103 65.5549 108.103 64.734C108.103 63.9131 107.935 63.267 107.597 62.8068C107.261 62.3466 106.75 62.1165 106.067 62.1165C105.719 62.1165 105.419 62.1762 105.162 62.2935C104.905 62.413 104.691 62.5833 104.521 62.8068C104.35 63.0303 104.222 63.3046 104.138 63.6299C104.054 63.9551 104.012 64.3247 104.012 64.734C104.012 65.5549 104.182 66.1943 104.521 66.6523C104.861 67.1103 105.377 67.3404 106.069 67.3404H106.067Z" fill="white"/>
<path d="M116.875 61.2715V68.1969H116.151C115.979 68.1969 115.868 68.1128 115.824 67.9447L115.729 67.199C115.428 67.5309 115.092 67.7986 114.718 68.0022C114.345 68.2058 113.918 68.3075 113.433 68.3075C113.055 68.3075 112.721 68.2456 112.432 68.1195C112.142 67.9933 111.901 67.8186 111.704 67.5907C111.507 67.3628 111.361 67.0862 111.264 66.7631C111.167 66.4401 111.118 66.0817 111.118 65.69V61.2737H112.334V65.69C112.334 66.2144 112.454 66.6193 112.693 66.907C112.931 67.1946 113.296 67.3384 113.789 67.3384C114.15 67.3384 114.486 67.2521 114.798 67.0818C115.11 66.9114 115.397 66.6746 115.663 66.3737V61.2737H116.879L116.875 61.2715Z" fill="white"/>
<path d="M120.243 62.6587C120.462 62.1852 120.729 61.8135 121.05 61.5479C121.371 61.2824 121.758 61.1475 122.218 61.1475C122.364 61.1475 122.503 61.1629 122.638 61.1961C122.773 61.2271 122.892 61.278 122.996 61.3466L122.908 62.256C122.881 62.3688 122.813 62.4263 122.702 62.4263C122.638 62.4263 122.545 62.4131 122.421 62.3865C122.297 62.36 122.16 62.3445 122.005 62.3445C121.786 62.3445 121.592 62.3755 121.422 62.4396C121.251 62.5038 121.099 62.5989 120.964 62.7228C120.829 62.8467 120.709 63.0038 120.601 63.1875C120.495 63.3711 120.398 63.5835 120.311 63.8203V68.1946H119.088V61.2692H119.785C119.918 61.2692 120.008 61.2935 120.059 61.3444C120.11 61.3953 120.143 61.4816 120.161 61.6033L120.243 62.6565V62.6587Z" fill="white"/>
<path d="M128.888 62.5017C128.85 62.5526 128.815 62.5902 128.777 62.619C128.742 62.6456 128.691 62.661 128.627 62.661C128.558 62.661 128.483 62.6323 128.401 62.5748C128.32 62.5172 128.218 62.4553 128.098 62.3867C127.977 62.3181 127.829 62.2561 127.654 62.1986C127.479 62.1411 127.262 62.1123 127.008 62.1123C126.667 62.1123 126.367 62.1721 126.106 62.2938C125.845 62.4154 125.628 62.588 125.453 62.8159C125.279 63.0438 125.146 63.3204 125.057 63.6434C124.969 63.9665 124.925 64.3293 124.925 64.7298C124.925 65.1303 124.973 65.5219 125.069 65.8472C125.164 66.1724 125.299 66.4468 125.475 66.6681C125.65 66.8893 125.862 67.0575 126.11 67.1747C126.358 67.292 126.637 67.3495 126.946 67.3495C127.256 67.3495 127.486 67.3141 127.678 67.2433C127.868 67.1725 128.028 67.0951 128.154 67.0066C128.28 66.9203 128.384 66.8406 128.468 66.7698C128.552 66.699 128.636 66.6636 128.718 66.6636C128.817 66.6636 128.895 66.7012 128.95 66.7787L129.29 67.2234C129.14 67.4093 128.97 67.5708 128.777 67.7013C128.587 67.8341 128.379 67.9447 128.16 68.0332C127.939 68.1217 127.709 68.1859 127.466 68.2279C127.223 68.27 126.979 68.2899 126.727 68.2899C126.294 68.2899 125.893 68.2102 125.522 68.0509C125.15 67.8916 124.827 67.6593 124.555 67.3562C124.281 67.053 124.069 66.6813 123.914 66.2388C123.759 65.7963 123.682 65.294 123.682 64.7276C123.682 64.2121 123.753 63.7364 123.896 63.2983C124.04 62.8602 124.25 62.484 124.524 62.1676C124.801 61.8512 125.139 61.6034 125.542 61.4264C125.944 61.2494 126.409 61.1587 126.933 61.1587C127.419 61.1587 127.848 61.2383 128.22 61.3954C128.592 61.5525 128.921 61.7738 129.206 62.0614L128.886 62.4995L128.888 62.5017Z" fill="white"/>
<path d="M132.426 59.0964C132.426 59.2159 132.402 59.3265 132.353 59.4283C132.305 59.5301 132.243 59.623 132.163 59.7027C132.083 59.7823 131.991 59.8443 131.882 59.8907C131.774 59.9372 131.663 59.9593 131.544 59.9593C131.424 59.9593 131.314 59.9372 131.212 59.8907C131.11 59.8443 131.02 59.7823 130.942 59.7027C130.865 59.623 130.803 59.5323 130.759 59.4283C130.712 59.3265 130.69 59.2159 130.69 59.0964C130.69 58.9769 130.712 58.8663 130.759 58.7579C130.805 58.6517 130.865 58.5565 130.942 58.4769C131.02 58.3972 131.11 58.3353 131.212 58.2888C131.314 58.2423 131.424 58.2202 131.544 58.2202C131.663 58.2202 131.774 58.2423 131.882 58.2888C131.991 58.3353 132.083 58.3972 132.163 58.4769C132.243 58.5565 132.307 58.6495 132.353 58.7579C132.402 58.8641 132.426 58.9769 132.426 59.0964ZM132.168 61.2692V68.1946H130.951V61.2692H132.168Z" fill="white"/>
<path d="M135.596 62.2758C135.746 62.1076 135.905 61.955 136.073 61.8178C136.241 61.6806 136.42 61.5633 136.611 61.466C136.799 61.3686 137 61.2934 137.212 61.2403C137.425 61.1872 137.652 61.1606 137.898 61.1606C138.276 61.1606 138.61 61.2226 138.9 61.3487C139.189 61.4748 139.43 61.6518 139.623 61.8819C139.817 62.1121 139.963 62.3886 140.063 62.7117C140.162 63.0347 140.213 63.3932 140.213 63.7848V68.1945H138.99V63.7848C138.99 63.2604 138.871 62.8533 138.632 62.5656C138.393 62.2758 138.031 62.132 137.542 62.132C137.181 62.132 136.845 62.2183 136.533 62.3908C136.221 62.5634 135.934 62.798 135.669 63.0945V68.1945H134.446V61.2691H135.178C135.35 61.2691 135.458 61.3531 135.498 61.5213L135.593 62.2736L135.596 62.2758Z" fill="white"/>
<path d="M148.201 61.5437V61.9951C148.201 62.1455 148.106 62.2406 147.914 62.2827L147.129 62.3845C147.284 62.6854 147.361 63.0173 147.361 63.3823C147.361 63.7187 147.297 64.0262 147.166 64.3028C147.036 64.5794 146.857 64.8139 146.631 65.0108C146.403 65.2077 146.129 65.3582 145.811 65.4622C145.492 65.5662 145.145 65.6193 144.771 65.6193C144.448 65.6193 144.143 65.5817 143.856 65.5042C143.71 65.5949 143.599 65.6923 143.522 65.7941C143.444 65.8959 143.407 65.9998 143.407 66.1061C143.407 66.2698 143.473 66.3937 143.608 66.4778C143.743 66.5619 143.92 66.6216 144.137 66.6592C144.356 66.6968 144.605 66.7189 144.884 66.7278C145.165 66.7366 145.45 66.7521 145.744 66.772C146.039 66.792 146.326 66.8274 146.605 66.8783C146.886 66.9291 147.133 67.011 147.352 67.1238C147.571 67.2389 147.748 67.396 147.881 67.5951C148.013 67.7943 148.082 68.0554 148.082 68.374C148.082 68.6705 148.009 68.9581 147.861 69.2347C147.713 69.5135 147.5 69.7591 147.222 69.9759C146.943 70.1927 146.602 70.3653 146.2 70.4958C145.797 70.6264 145.342 70.6906 144.838 70.6906C144.333 70.6906 143.891 70.6397 143.513 70.5401C143.135 70.4405 142.821 70.3056 142.571 70.1374C142.321 69.9692 142.133 69.7745 142.007 69.5533C141.881 69.332 141.819 69.1019 141.819 68.8585C141.819 68.5178 141.925 68.2279 142.14 67.9912C142.354 67.7544 142.648 67.5642 143.022 67.4248C142.816 67.334 142.655 67.2124 142.533 67.0597C142.412 66.907 142.352 66.7012 142.352 66.4402C142.352 66.3406 142.37 66.2366 142.407 66.1282C142.445 66.022 142.5 65.9136 142.575 65.8074C142.65 65.7012 142.743 65.5994 142.852 65.5042C142.96 65.4091 143.088 65.325 143.234 65.252C142.894 65.0595 142.626 64.8073 142.436 64.4909C142.246 64.1745 142.148 63.8072 142.148 63.3868C142.148 63.0505 142.213 62.7429 142.343 62.4663C142.473 62.1898 142.655 61.9552 142.887 61.7627C143.119 61.568 143.396 61.4198 143.716 61.3158C144.037 61.2118 144.389 61.1587 144.771 61.1587C145.072 61.1587 145.353 61.1919 145.612 61.2583C145.87 61.3246 146.107 61.422 146.322 61.5481H148.201V61.5437ZM146.965 68.5709C146.965 68.4027 146.917 68.2655 146.821 68.1616C146.726 68.0576 146.596 67.9757 146.434 67.916C146.273 67.8562 146.085 67.8142 145.87 67.7898C145.656 67.7655 145.43 67.7456 145.191 67.7323C144.953 67.719 144.709 67.7058 144.464 67.6903C144.218 67.6748 143.982 67.6527 143.754 67.6217C143.5 67.7412 143.29 67.8894 143.128 68.0686C142.967 68.2479 142.885 68.4603 142.885 68.7014C142.885 68.8563 142.925 69.0001 143.004 69.1351C143.084 69.2701 143.206 69.3851 143.369 69.4847C143.533 69.582 143.738 69.6595 143.988 69.717C144.236 69.7745 144.53 69.8033 144.866 69.8033C145.203 69.8033 145.488 69.7745 145.747 69.7148C146.005 69.6551 146.226 69.571 146.406 69.4626C146.585 69.3519 146.724 69.2236 146.819 69.0731C146.914 68.9227 146.963 68.7567 146.963 68.5753L146.965 68.5709ZM144.771 64.8117C145.017 64.8117 145.233 64.7785 145.421 64.7099C145.607 64.6413 145.764 64.5462 145.893 64.4223C146.021 64.2984 146.116 64.1523 146.18 63.982C146.244 63.8116 146.275 63.6235 146.275 63.4178C146.275 62.9929 146.147 62.6566 145.888 62.4066C145.632 62.1566 145.258 62.0305 144.771 62.0305C144.285 62.0305 143.904 62.1566 143.648 62.4066C143.391 62.6566 143.261 62.9951 143.261 63.4178C143.261 63.6235 143.294 63.8116 143.36 63.982C143.427 64.1523 143.524 64.3006 143.65 64.4223C143.778 64.5462 143.935 64.6413 144.121 64.7099C144.307 64.7785 144.524 64.8117 144.769 64.8117H144.771Z" fill="white"/>
<path d="M160.699 66.1721C160.772 66.1721 160.836 66.2008 160.891 66.2606L161.418 66.827C161.017 67.2916 160.531 67.6545 159.958 67.9134C159.387 68.1722 158.695 68.3028 157.884 68.3028C157.183 68.3028 156.546 68.1811 155.971 67.9377C155.398 67.6943 154.907 67.3514 154.502 66.9133C154.097 66.473 153.783 65.9464 153.56 65.3313C153.337 64.7162 153.226 64.0391 153.226 63.3001C153.226 62.5611 153.341 61.884 153.575 61.2689C153.81 60.6538 154.135 60.125 154.555 59.6825C154.975 59.24 155.482 58.897 156.068 58.6537C156.656 58.4103 157.304 58.2886 158.014 58.2886C158.724 58.2886 159.326 58.3992 159.859 58.6227C160.392 58.8462 160.86 59.1493 161.265 59.5321L160.827 60.1405C160.801 60.187 160.765 60.2246 160.721 60.2534C160.677 60.2821 160.619 60.2976 160.546 60.2976C160.465 60.2976 160.365 60.2534 160.246 60.1649C160.126 60.0764 159.971 59.9768 159.781 59.8684C159.591 59.7599 159.35 59.6604 159.065 59.5719C158.777 59.4834 158.425 59.4391 158.005 59.4391C157.499 59.4391 157.037 59.5276 156.619 59.7024C156.198 59.8772 155.838 60.1317 155.535 60.4636C155.232 60.7954 154.995 61.2026 154.827 61.6805C154.659 62.1584 154.575 62.6983 154.575 63.3001C154.575 63.9019 154.664 64.4551 154.838 64.933C155.013 65.4109 155.254 65.8158 155.555 66.1455C155.858 66.4752 156.216 66.7274 156.627 66.9C157.039 67.0726 157.486 67.1589 157.963 67.1589C158.255 67.1589 158.518 67.1412 158.753 67.108C158.987 67.0748 159.204 67.0195 159.403 66.9465C159.602 66.8734 159.786 66.7805 159.956 66.6699C160.126 66.5593 160.296 66.4243 160.465 66.2694C160.542 66.2008 160.619 66.1676 160.697 66.1676L160.699 66.1721Z" fill="white"/>
<path d="M165.735 61.1606C166.241 61.1606 166.697 61.2447 167.102 61.4129C167.506 61.581 167.853 61.82 168.141 62.1298C168.428 62.4395 168.647 62.8135 168.8 63.2538C168.953 63.6941 169.03 64.1853 169.03 64.7273C169.03 65.2694 168.953 65.7673 168.8 66.2031C168.647 66.6412 168.428 67.0152 168.141 67.3249C167.853 67.6347 167.508 67.8737 167.102 68.0396C166.697 68.2055 166.241 68.2896 165.735 68.2896C165.228 68.2896 164.766 68.2055 164.359 68.0396C163.952 67.8737 163.605 67.6347 163.318 67.3249C163.03 67.0152 162.811 66.6412 162.658 66.2031C162.506 65.7651 162.428 65.2739 162.428 64.7273C162.428 64.1808 162.506 63.6941 162.658 63.2538C162.811 62.8135 163.03 62.4395 163.318 62.1298C163.605 61.82 163.952 61.581 164.359 61.4129C164.766 61.2447 165.226 61.1606 165.735 61.1606ZM165.735 67.3404C166.418 67.3404 166.929 67.1103 167.265 66.6523C167.601 66.1943 167.772 65.5549 167.772 64.734C167.772 63.9131 167.604 63.267 167.265 62.8068C166.929 62.3466 166.418 62.1165 165.735 62.1165C165.388 62.1165 165.087 62.1762 164.83 62.2935C164.574 62.413 164.359 62.5833 164.189 62.8068C164.019 63.0303 163.89 63.3046 163.806 63.6299C163.722 63.9551 163.68 64.3247 163.68 64.734C163.68 65.5549 163.85 66.1943 164.189 66.6523C164.529 67.1103 165.045 67.3404 165.737 67.3404H165.735Z" fill="white"/>
<path d="M170.852 68.1947V61.2693H171.584C171.757 61.2693 171.865 61.3534 171.905 61.5216L171.993 62.2318C172.248 61.9176 172.535 61.6609 172.854 61.4596C173.172 61.2583 173.542 61.1587 173.96 61.1587C174.424 61.1587 174.8 61.2892 175.09 61.5481C175.379 61.807 175.587 62.1588 175.716 62.6013C175.815 62.3513 175.946 62.1344 176.103 61.953C176.26 61.7716 176.436 61.6211 176.631 61.5016C176.828 61.3822 177.036 61.2959 177.257 61.2428C177.478 61.1875 177.702 61.1609 177.929 61.1609C178.294 61.1609 178.619 61.2184 178.902 61.3357C179.188 61.4508 179.429 61.6211 179.628 61.8446C179.827 62.0681 179.977 62.3424 180.081 62.6677C180.185 62.9929 180.238 63.3669 180.238 63.785V68.1947H179.015V63.785C179.015 63.243 178.896 62.8314 178.659 62.5504C178.422 62.2694 178.08 62.13 177.635 62.13C177.434 62.13 177.244 62.1654 177.065 62.2362C176.885 62.307 176.726 62.411 176.589 62.5482C176.452 62.6854 176.344 62.858 176.264 63.0637C176.184 63.2717 176.145 63.5107 176.145 63.785V68.1947H174.922V63.785C174.922 63.2297 174.809 62.8137 174.588 62.5416C174.364 62.2672 174.039 62.1322 173.61 62.1322C173.309 62.1322 173.031 62.2141 172.776 62.3756C172.522 62.5371 172.288 62.7584 172.073 63.035V68.197H170.85L170.852 68.1947Z" fill="white"/>
<path d="M183.54 62.3442C183.832 61.9836 184.168 61.6937 184.551 61.4769C184.933 61.2578 185.371 61.1494 185.862 61.1494C186.262 61.1494 186.625 61.2246 186.948 61.3773C187.271 61.53 187.547 61.7557 187.775 62.0544C188.003 62.3531 188.178 62.7226 188.301 63.1651C188.425 63.6076 188.485 64.1143 188.485 64.6896C188.485 65.2007 188.416 65.6742 188.279 66.1145C188.142 66.5548 187.945 66.9354 187.689 67.2562C187.432 67.577 187.118 67.8292 186.747 68.0151C186.375 68.1987 185.957 68.2917 185.493 68.2917C185.068 68.2917 184.705 68.2209 184.402 68.0771C184.1 67.9332 183.832 67.7341 183.6 67.4797V70.5419H182.377V61.2733H183.109C183.281 61.2733 183.39 61.3574 183.429 61.5256L183.538 62.3464L183.54 62.3442ZM183.602 66.5282C183.825 66.8291 184.069 67.0416 184.334 67.1632C184.599 67.2849 184.893 67.3469 185.223 67.3469C185.869 67.3469 186.366 67.1168 186.714 66.6566C187.059 66.1963 187.233 65.5392 187.233 64.6874C187.233 64.236 187.193 63.8488 187.114 63.5257C187.034 63.2027 186.919 62.9372 186.769 62.7292C186.618 62.5212 186.435 62.3708 186.216 62.2756C185.997 62.1805 185.749 62.1318 185.471 62.1318C185.075 62.1318 184.728 62.2225 184.429 62.4062C184.13 62.5876 183.856 62.8465 183.606 63.1784V66.5282H183.602Z" fill="white"/>
<path d="M190.146 62.2493C190.529 61.8798 190.94 61.6055 191.382 61.4218C191.825 61.2404 192.313 61.1475 192.851 61.1475C193.238 61.1475 193.583 61.2116 193.884 61.3377C194.184 61.4661 194.436 61.6431 194.642 61.871C194.848 62.0989 195.003 62.3755 195.107 62.6985C195.211 63.0215 195.264 63.3778 195.264 63.765V68.1946H194.724C194.605 68.1946 194.514 68.1747 194.45 68.1371C194.386 68.0994 194.335 68.022 194.299 67.9069L194.162 67.2498C193.981 67.418 193.802 67.5684 193.629 67.6967C193.457 67.8273 193.273 67.9357 193.083 68.0242C192.893 68.1127 192.687 68.1813 192.473 68.23C192.258 68.2787 192.015 68.3008 191.752 68.3008C191.488 68.3008 191.23 68.2632 190.993 68.1879C190.756 68.1127 190.551 67.9999 190.374 67.8494C190.197 67.699 190.06 67.5087 189.958 67.2786C189.856 67.0485 189.803 66.7763 189.803 66.4621C189.803 66.1878 189.878 65.9267 190.029 65.6722C190.179 65.42 190.422 65.1943 190.761 64.9996C191.097 64.8049 191.537 64.6434 192.079 64.5172C192.621 64.3911 193.286 64.3203 194.074 64.3026V63.7628C194.074 63.2251 193.957 62.818 193.724 62.5436C193.492 62.267 193.154 62.1299 192.707 62.1299C192.406 62.1299 192.154 62.1675 191.953 62.2427C191.749 62.3179 191.575 62.402 191.427 62.4949C191.278 62.5879 191.15 62.6719 191.044 62.7472C190.938 62.8224 190.832 62.86 190.725 62.86C190.644 62.86 190.573 62.8379 190.513 62.7958C190.453 62.7516 190.405 62.6985 190.363 62.6343L190.144 62.2449L190.146 62.2493ZM194.074 65.0792C193.514 65.0969 193.037 65.1412 192.643 65.212C192.249 65.2828 191.929 65.3757 191.679 65.4886C191.431 65.6036 191.25 65.7364 191.139 65.8913C191.028 66.0461 190.971 66.2187 190.971 66.4112C190.971 66.6037 191 66.7498 191.059 66.8825C191.119 67.0153 191.199 67.1237 191.303 67.2078C191.404 67.2918 191.526 67.3538 191.665 67.3914C191.805 67.429 191.953 67.4489 192.112 67.4489C192.327 67.4489 192.521 67.4268 192.7 67.3848C192.877 67.3405 193.045 67.2786 193.202 67.1967C193.359 67.1148 193.51 67.0175 193.654 66.9024C193.797 66.7874 193.937 66.659 194.074 66.513V65.077V65.0792Z" fill="white"/>
<path d="M198.55 62.2758C198.7 62.1076 198.86 61.955 199.028 61.8178C199.196 61.6806 199.375 61.5633 199.563 61.466C199.751 61.3686 199.952 61.2934 200.164 61.2403C200.377 61.1872 200.604 61.1606 200.852 61.1606C201.23 61.1606 201.564 61.2226 201.854 61.3487C202.144 61.4748 202.385 61.6518 202.579 61.8819C202.774 62.1121 202.92 62.3886 203.019 62.7117C203.119 63.0347 203.17 63.3932 203.17 63.7848V68.1945H201.947V63.7848C201.947 63.2604 201.827 62.8533 201.589 62.5656C201.35 62.2758 200.987 62.132 200.498 62.132C200.138 62.132 199.802 62.2183 199.49 62.3908C199.178 62.5634 198.89 62.798 198.625 63.0945V68.1945H197.402V61.2691H198.134C198.307 61.2691 198.415 61.3531 198.455 61.5213L198.55 62.2736V62.2758Z" fill="white"/>
<path d="M211.114 61.2715L207.252 70.2391C207.21 70.3299 207.159 70.4029 207.098 70.4582C207.036 70.5135 206.941 70.54 206.814 70.54H205.912L207.177 67.792L204.322 61.2715H205.375C205.479 61.2715 205.563 61.298 205.625 61.3511C205.687 61.4042 205.729 61.4618 205.751 61.5259L207.602 65.887C207.675 66.0795 207.737 66.2786 207.785 66.4888C207.849 66.2742 207.918 66.0728 207.991 65.8803L209.787 61.5259C209.813 61.4529 209.86 61.3932 209.926 61.3445C209.992 61.2958 210.065 61.2737 210.147 61.2737H211.112L211.114 61.2715Z" fill="white"/>
<path d="M176.591 7.51815H178.803L174.329 11.992L170.291 7.95181H171.918L173.223 4.58203L174.307 9.25503L175.939 6.10208L176.591 7.51815Z" fill="#F6B037"/>
<path d="M179.844 6.47605L179.564 6.75705H177.027L175.939 4.47365L174.526 7.19072L173.331 2.19025L171.483 7.0823H169.421L168.815 6.47605C167.356 5.01574 167.356 2.65269 168.815 1.1968C170.271 -0.263516 172.637 -0.263516 174.092 1.1968L174.329 1.43355L174.565 1.1968C176.025 -0.263516 178.387 -0.263516 179.842 1.1968C181.302 2.65269 181.302 5.01795 179.842 6.47605H179.844Z" fill="#F6B037"/>
<path d="M21.158 54.5689C14.6074 54.5689 9.52742 52.9117 5.91593 49.595C2.30666 46.2783 0.333946 41.727 0 35.9411H11.4028C11.6417 38.6847 12.6214 40.7424 14.3442 42.112C16.0648 43.4838 18.3361 44.1697 21.158 44.1697C27.4212 44.1697 30.5528 42.3753 30.5528 38.7843C30.5528 37.3395 30.0861 36.1778 29.1551 35.3061C28.224 34.4343 26.656 33.7484 24.4577 33.2484L17.1418 31.6022C12.2167 30.5047 8.40394 28.7723 5.70141 26.4026C2.99888 24.0351 1.64983 20.5304 1.64983 15.8928C1.64983 11.2552 3.44341 7.83891 7.02835 5.04661C10.6155 2.25432 15.3483 0.855957 21.2288 0.855957C27.1094 0.855957 31.7824 2.45345 35.5376 5.64401C39.2906 8.83679 41.1904 12.9257 41.239 17.9129H29.8362C29.6925 16.0189 28.8919 14.4479 27.4345 13.2C25.9748 11.9543 23.8606 11.3304 21.0873 11.3304C18.314 11.3304 16.3656 11.7795 15.0983 12.6779C13.8311 13.5762 13.1964 14.6493 13.1964 15.895C13.1964 17.0433 13.6011 18.0146 14.415 18.8134C15.2266 19.6121 16.7106 20.2604 18.8624 20.7583L25.6763 22.254C30.8867 23.4023 34.9294 25.1967 37.7978 27.6394C40.6662 30.0844 42.1015 33.6997 42.1015 38.4856C42.1015 43.2714 40.4031 47.4001 37.0083 50.2677C33.6136 53.1352 28.3301 54.5689 21.158 54.5689Z" fill="white"/>
<path d="M61.393 53.9229C57.2331 53.9229 54.1015 52.8232 51.9983 50.6217C49.8929 48.4223 48.8424 45.5261 48.8424 41.9394V25.7941H42.7451V16.395H49.3444V6.56445H59.887V16.395H68.8526V25.7941H59.887V39.2843C59.887 41.0544 60.2696 42.3333 61.0348 43.1232C61.7977 43.9131 63.0185 44.3069 64.6927 44.3069H68.9964V53.9229H61.393Z" fill="white"/>
<path d="M84.5592 54.569C80.4479 54.569 77.2323 53.4694 74.9124 51.2678C72.5925 49.0685 71.4336 46.2452 71.4336 42.8002C71.4336 39.3552 72.6875 36.3903 75.1977 34.3326C77.7078 32.2771 81.4741 31.2483 86.4943 31.2483H94.5268V29.2392C94.5268 27.8519 94.0601 26.7412 93.129 25.9026C92.1958 25.0663 90.7494 24.6459 88.79 24.6459C87.1158 24.6459 85.7889 25.0397 84.8091 25.8296C83.8294 26.6195 83.3384 27.613 83.3384 28.8078H73.0104C73.0104 25.0287 74.3838 21.9089 77.1328 19.4441C79.8818 16.9814 83.8869 15.749 89.146 15.749C94.4051 15.749 98.1581 17.0036 101.124 19.5149C104.087 22.0262 105.571 25.2676 105.571 29.237V53.9207H95.6723L94.8828 50.5487H94.5953C92.2511 53.2282 88.9049 54.5668 84.5548 54.5668L84.5592 54.569ZM87.3569 45.9576C89.5552 45.9576 91.3023 45.4089 92.5938 44.307C93.8854 43.2073 94.529 41.8444 94.529 40.2181V38.6405H87.4298C85.7557 38.6405 84.4885 38.9769 83.6282 39.6451C82.7679 40.3155 82.3366 41.1762 82.3366 42.2272C82.3366 43.2781 82.7679 44.2251 83.6282 44.9177C84.4885 45.6124 85.7314 45.9576 87.3569 45.9576Z" fill="white"/>
<path d="M174.488 16.3929V25.719H161.944V25.7234H153.051V53.9229H142.007V25.7234H135.48V25.719H124.865V53.9207H113.822V25.719H107.294V16.3929H113.822V14.4569C113.822 10.0117 115.3 6.50036 118.268 3.9426C121.236 1.38484 124.986 0.105957 129.531 0.105957H134.12V9.57808H130.535C126.753 9.57808 124.865 11.2066 124.865 14.4569V16.3929H142.007V14.4569C142.007 10.0073 143.488 6.50479 146.454 3.94481C149.418 1.38705 153.171 0.105957 157.713 0.105957H162.304V9.57808H158.717C154.94 9.57808 153.051 11.2043 153.051 14.4569V16.3929H174.488Z" fill="white"/>
<path d="M169.384 53.9229V16.395H180.428V53.9229H169.384Z" fill="white"/>
<path d="M184.301 53.9229V16.3951H194.198L195.058 19.9817H195.345C197.736 17.1584 201.155 15.749 205.603 15.749C209.763 15.749 213.122 16.9682 215.681 19.4087C218.237 21.8492 219.518 25.126 219.518 29.2392V53.9229H208.473V32.6842C208.473 28.0909 206.37 25.7964 202.161 25.7964C200.153 25.7964 198.515 26.4536 197.249 27.7701C195.982 29.0866 195.348 30.8677 195.348 33.1157V53.9252H184.303L184.301 53.9229Z" fill="white"/>
<path d="M239.74 71C234.671 71 230.582 69.7455 227.475 67.232C224.365 64.7207 222.764 61.3597 222.669 57.1514H233.499C233.643 58.4435 234.289 59.4945 235.436 60.3088C236.584 61.1208 238.017 61.5279 239.74 61.5279C242.082 61.5279 243.887 60.977 245.156 59.8773C246.421 58.7754 247.056 57.3417 247.056 55.5716V50.3344H246.768C244.424 53.1576 241.102 54.5671 236.799 54.5671C232.161 54.5671 228.466 52.7616 225.717 49.1484C222.968 45.5375 221.594 40.8866 221.594 35.1914C221.594 29.4961 222.968 24.7767 225.717 21.1635C228.466 17.5525 232.159 15.7471 236.799 15.7471C241.102 15.7471 244.424 17.1587 246.768 19.9798H247.056L248.204 16.3931H258.101V55.7154C258.101 60.3552 256.38 64.0635 252.937 66.8381C249.493 69.6127 245.094 71 239.74 71ZM240.171 44.8803C245.094 44.8803 247.558 41.6521 247.558 35.1936C247.558 32.3238 246.959 29.9807 245.764 28.1619C244.568 26.3454 242.704 25.436 240.169 25.436C237.635 25.436 235.77 26.3454 234.574 28.1619C233.38 29.9807 232.78 32.3238 232.78 35.1936C232.78 41.6521 235.242 44.8803 240.167 44.8803H240.171Z" fill="white"/>
<path d="M261.973 53.9232V0H273.018V53.9232H261.973Z" fill="#F6B037"/>
<path d="M314.776 16.3931V17.1122L295.912 70.3539H283.934V69.637L288.344 56.7597L279.356 28.9009L278.863 27.372L275.543 17.1122V16.3931H286.875L294.479 43.015H294.766L302.869 16.3931H314.776Z" fill="#F6B037"/>
<path d="M325.138 22.79C321.354 22.79 318.275 19.71 318.275 15.9243C318.275 12.1385 321.354 9.05859 325.138 9.05859C328.922 9.05859 332 12.1385 332 15.9243C332 19.71 328.922 22.79 325.138 22.79ZM325.138 9.53209C321.615 9.53209 318.748 12.3996 318.748 15.9243C318.748 19.4489 321.615 22.3165 325.138 22.3165C328.661 22.3165 331.527 19.4489 331.527 15.9243C331.527 12.3996 328.661 9.53209 325.138 9.53209Z" fill="white"/>
<path d="M327.305 18.7719H326.478C326.314 18.7719 326.195 18.7077 326.122 18.5816L324.793 16.6633C324.748 16.5969 324.7 16.5504 324.647 16.5217C324.593 16.4929 324.514 16.4774 324.41 16.4774H323.897V18.7719H322.972V13.0767H324.649C325.023 13.0767 325.345 13.1143 325.615 13.1917C325.885 13.2692 326.108 13.3776 326.281 13.5192C326.456 13.6608 326.584 13.8289 326.666 14.0281C326.75 14.225 326.79 14.4463 326.79 14.6896C326.79 14.8866 326.761 15.0724 326.701 15.2428C326.641 15.4132 326.555 15.5703 326.445 15.7096C326.332 15.849 326.195 15.9707 326.031 16.0725C325.867 16.1743 325.682 16.2562 325.474 16.3137C325.586 16.3823 325.684 16.4796 325.766 16.6035L327.303 18.7741L327.305 18.7719ZM324.624 15.8048C324.835 15.8048 325.02 15.7782 325.177 15.7274C325.334 15.6765 325.467 15.6034 325.573 15.5127C325.679 15.4198 325.757 15.3114 325.81 15.1831C325.863 15.0547 325.889 14.9131 325.889 14.7582C325.889 14.4463 325.788 14.2095 325.582 14.0458C325.376 13.882 325.065 13.8002 324.649 13.8002H323.897V15.8048H324.624Z" fill="white"/>
</g>
<defs>
<clipPath id="clip0_1330_3113">
<rect width="332" height="71" fill="white"/>
</clipPath>
</defs>
</svg>
