<svg width="54" height="73" viewBox="0 0 54 73" fill="none" xmlns="http://www.w3.org/2000/svg">
<mask id="mask0_1330_3469" style="mask-type:luminance" maskUnits="userSpaceOnUse" x="0" y="0" width="54" height="73">
<path d="M0 0H53.7585V72.875H0V0Z" fill="white"/>
</mask>
<g mask="url(#mask0_1330_3469)">
<path d="M53.758 37.6109C53.758 38.3128 53.0715 39.8629 52.8272 40.4306C51.2743 44.027 45.367 57.5624 42.3008 62.4922C41.6446 63.5445 39.3606 66.4946 39.3606 66.4946L39.3529 66.4913C37.2137 69.0377 32.368 72.1984 26.4705 72.6875C24.7312 72.8316 22.1166 72.8607 20.2337 72.7942C19.0807 72.7535 0.0121018 71.5185 0.0121018 48.1494C0.0121018 47.3853 0 46.5283 0 46.5283V18.2292C0 16.9156 1.69316 15.4156 3.83133 15.4156C5.96895 15.4156 7.57849 16.9156 7.57849 18.7689V35.3863C7.57849 36.0189 7.79248 36.53 8.52354 36.53C9.25515 36.53 9.63745 36.0184 9.63745 35.3863V7.19678C9.63745 5.40406 11.225 3.93204 13.246 3.77636H14.4622C16.4854 3.93039 18.0708 5.40241 18.0708 7.19678V33.2042C18.0708 33.8373 18.4531 34.3478 19.1847 34.3478C19.9169 34.3478 20.2981 33.8362 20.2981 33.2042V3.60529C20.2981 1.68825 22.0259 0.121062 24.2026 0.0126953H25.1867C27.3628 0.121062 29.0906 1.68825 29.0906 3.60529V32.1018C29.0906 32.7333 29.469 33.246 30.1957 33.246C30.9218 33.246 31.3855 32.7322 31.3855 32.1018V9.00985C31.3855 7.11207 33.3284 5.57458 35.5172 5.57458C37.7065 5.57458 39.5229 7.11207 39.5229 9.00985C39.5229 12.2537 39.5229 36.2874 39.5202 45.6641C34.4352 44.8126 27.1829 47.1372 23.2883 52.7376C23.2482 52.802 23.2218 52.8713 23.208 52.9455C23.1948 53.0198 23.1954 53.0941 23.2108 53.1683C23.2256 53.242 23.2542 53.3108 23.2955 53.3741C23.3373 53.4368 23.389 53.4901 23.4511 53.5336C23.5128 53.5765 23.581 53.6067 23.6541 53.6243C23.7278 53.6414 23.8021 53.6441 23.8769 53.6326C23.9517 53.6216 24.0216 53.5968 24.0865 53.5583C24.1519 53.5198 24.2075 53.4709 24.2543 53.4115C28.4085 47.4398 35.8896 46.026 39.8744 46.9254C39.9091 46.9293 39.9443 46.9304 39.9795 46.9282C40.2001 46.9744 40.4498 46.844 40.611 46.6702C40.7568 46.5085 40.8805 46.3313 40.9828 46.1394L46.042 35.6454C46.042 35.6454 46.2878 35.2461 46.3577 35.1394C47.0332 34.0975 48.1532 33.7163 49.0834 33.6145C49.727 33.5441 50.4388 33.6657 50.7672 33.7388C51.7628 33.9534 52.6088 34.6828 52.989 35.1696C53.429 35.7323 53.758 36.7032 53.758 37.6109Z" fill="#FFBD4C"/>
</g>
</svg>
