<svg xmlns="http://www.w3.org/2000/svg" xmlns:xlink="http://www.w3.org/1999/xlink" data-name="Layer 2" viewBox="0 0 686.72 617.54" style="fill: rgb(0, 0, 0);" original_string_length="773"><g data-name="Layer 1"><g style="fill: rgb(255, 239, 215);"><path d="M460.81 385.15L575.75 385.15 343.36 617.54 133.5 407.69 218.1 407.69 285.83 232.7 342.22 475.41 426.95 311.63 460.81 385.15z" style="fill: inherit;"/><path d="m629.88,331.02l-14.6,14.6h-131.8l-56.52-118.59-73.39,141.12-62.06-259.71-96.05,254.04h-107.13l-31.47-31.47c-75.78-75.78-75.78-198.52,0-274.18,75.66-75.78,198.52-75.78,274.18,0l12.34,12.34,12.34-12.34c75.78-75.78,198.52-75.78,274.18,0,75.78,75.66,75.78,198.4,0,274.18Z" style="fill: inherit;"/></g></g></svg>