<svg width="94" height="82" viewBox="0 0 94 82" fill="none" xmlns="http://www.w3.org/2000/svg">
<path d="M0.979323 22.19C1.24544 21.3717 1.4253 20.5134 1.79029 19.7424C3.5784 15.9674 6.63608 14.1435 10.7719 14.1204C15.6966 14.093 20.6223 14.1141 25.547 14.1141C25.9057 14.1141 26.2633 14.1141 26.7608 14.1141C26.7608 13.2137 26.7219 12.3533 26.7692 11.4981C26.8523 10.0056 26.8018 8.47203 27.1395 7.03417C28.023 3.27071 31.4867 0.447596 35.3564 0.376071C40.6997 0.277199 46.0472 0.262473 51.3905 0.353983C56.5897 0.442336 60.3037 4.36357 60.3868 9.65429C60.41 11.0932 60.39 12.5321 60.39 14.112C60.7907 14.112 61.1368 14.112 61.4828 14.112C66.4675 14.112 71.4532 14.092 76.4378 14.1183C81.211 14.1435 85.0397 17.0329 85.9011 21.5105C86.2756 23.4596 86.1494 25.5149 86.1599 27.5218C86.1641 28.3254 86.3692 28.9018 86.9382 29.4929C95.3908 38.2694 95.3245 51.8191 86.7931 60.6945C86.3345 61.172 86.1757 61.6348 86.1641 62.2743C86.1346 63.9215 86.2303 65.6097 85.9022 67.2043C84.9913 71.6241 81.2836 74.5219 76.5903 74.5566C69.684 74.6081 62.7766 74.5713 55.8692 74.565C55.5736 74.565 55.1645 74.5986 55.0035 74.4303C54.6449 74.0527 54.1652 73.5405 54.1947 73.1156C54.2241 72.6938 54.7648 72.2341 55.1845 71.9407C55.4327 71.7671 55.8829 71.8702 56.2426 71.8691C62.9396 71.867 69.6356 71.8744 76.3326 71.8639C79.7784 71.8586 82.3722 70.0463 83.1748 66.9897C83.4504 65.9431 83.4504 64.824 83.6008 63.526C74.96 68.7073 66.5548 68.6905 58.0707 63.5081C57.2576 64.3317 56.3804 65.191 55.5442 66.0904C55.3959 66.2502 55.3601 66.5742 55.3748 66.8161C55.4369 67.8101 55.114 68.6463 54.4187 69.3426C50.7678 72.9967 47.1411 76.676 43.4502 80.2901C41.213 82.4811 37.7304 82.4211 35.5846 80.268C33.3905 78.0665 33.3726 74.6102 35.6162 72.3372C39.2229 68.6821 42.8728 65.069 46.5016 61.4339C47.2021 60.7323 48.0278 60.4252 49.0239 60.4809C49.3058 60.4967 49.6676 60.381 49.8738 60.1938C50.7184 59.4291 51.5167 58.6129 52.3939 57.7556C49.7822 53.8975 48.478 49.6597 48.4264 44.9917H25.8457C25.8457 46.642 25.8667 48.2818 25.8404 49.9216C25.8047 52.1473 24.3637 54.0311 22.2421 54.6874C19.175 55.6351 15.9511 53.522 15.7302 50.3181C15.6082 48.5574 15.7081 46.7819 15.7081 44.9391C10.7119 44.41 6.76545 42.1717 3.74144 38.0527C3.71409 38.4503 3.68148 38.6996 3.68043 38.9489C3.67833 47.5686 3.67412 56.1895 3.68043 64.8092C3.68358 68.9966 6.47936 71.8397 10.6699 71.8586C16.7358 71.8849 22.8017 71.866 28.8687 71.866C29.079 71.866 29.2894 71.8639 29.4998 71.866C30.6263 71.8818 31.2563 72.3761 31.2395 73.2281C31.2227 74.079 30.5979 74.565 29.4556 74.566C23.1793 74.5713 16.903 74.5976 10.6267 74.5587C5.69364 74.5282 2.2268 71.6367 1.12553 66.7509C1.09397 66.61 1.02771 66.4764 0.978271 66.3396C0.979323 51.6245 0.979323 36.9073 0.979323 22.19ZM25.9309 42.2264C26.3327 42.2264 26.6893 42.2264 27.0458 42.2264C33.5314 42.2264 40.017 42.2264 46.5026 42.2264C47.8532 42.2264 48.6631 41.5792 48.9324 40.2847C48.9502 40.1963 48.9776 40.1101 48.9986 40.0228C52.5254 25.0068 69.4694 17.9217 82.6194 25.963C82.8634 26.1123 83.1169 26.2459 83.6008 26.5194C83.464 24.787 83.5271 23.2334 83.1874 21.7725C82.4595 18.6475 79.7742 16.8173 76.2327 16.8162C54.464 16.8131 32.6952 16.8141 10.9265 16.8162C10.6562 16.8162 10.3859 16.8162 10.1166 16.8351C6.36997 17.0834 3.71514 19.8792 3.68464 23.6205C3.66991 25.3624 3.68884 27.1042 3.68043 28.846C3.66465 32.2624 4.75435 35.2738 7.03157 37.8224C9.30247 40.3636 12.1529 41.7983 15.4862 42.1706C15.705 41.0851 15.7271 39.9828 16.1646 39.0814C16.5875 38.2094 17.3111 37.3333 18.1326 36.8442C18.9804 36.3393 20.1048 36.0889 21.1072 36.0931C23.9503 36.1068 25.4912 38.1158 25.9319 42.2264H25.9309ZM51.1381 45.019C51.1339 55.8466 59.9524 64.6925 70.7726 64.7146C81.6517 64.7366 90.5092 55.9223 90.5292 45.0537C90.5492 34.1851 81.7064 25.3098 70.8526 25.3035C59.9934 25.2961 51.1433 34.1483 51.1391 45.019H51.1381ZM57.6152 14.0814C57.6152 12.225 57.752 10.4495 57.5858 8.70133C57.2797 5.48167 54.7301 3.10558 51.5062 3.0614C46.1955 2.98882 40.8816 2.99724 35.5709 3.06561C32.7825 3.10137 30.2971 5.00203 29.769 7.71891C29.3693 9.77314 29.4766 11.9252 29.3567 14.0667H32.2061C32.2682 13.9994 32.3061 13.9773 32.3061 13.9552C32.3218 12.4553 32.3155 10.9565 32.3523 9.45759C32.4018 7.44544 33.8154 5.94552 35.8097 5.9308C41.0016 5.89188 46.1945 5.89504 51.3863 5.9329C53.1755 5.94658 54.4945 7.19089 54.7385 8.97165C54.8279 9.62168 54.7974 10.2885 54.8037 10.948C54.8132 11.9851 54.8058 13.0212 54.8058 14.0825H57.6152V14.0814ZM52.1036 14.0667C52.1036 12.6667 52.1068 11.3509 52.1036 10.035C52.0994 8.79178 51.9311 8.61613 50.71 8.61508C47.1968 8.61087 43.6837 8.61402 40.1706 8.61402C38.819 8.61402 37.4684 8.62033 36.1168 8.61402C35.5278 8.61087 35.0776 8.81492 35.065 9.45549C35.0356 10.9775 35.0555 12.5005 35.0555 14.0678H52.1036V14.0667ZM45.15 66.5973C42.5109 69.2427 39.975 71.7482 37.4821 74.2968C36.3314 75.4738 36.3724 77.2188 37.4821 78.3421C38.5823 79.4549 40.3263 79.4949 41.5317 78.3947C42.2396 77.7489 42.897 77.0484 43.5754 76.371C45.4392 74.5124 47.302 72.6527 49.1859 70.7731C49.027 70.5785 48.925 70.4334 48.803 70.3082C47.6102 69.0933 46.4143 67.8816 45.1489 66.5973H45.15ZM18.4397 45.5965H23.133C23.133 43.9745 23.1867 42.4178 23.1162 40.8664C23.0615 39.662 22.0286 38.7806 20.8327 38.7543C19.6536 38.728 18.5418 39.5095 18.4671 40.6476C18.3598 42.279 18.4397 43.9219 18.4397 45.5965ZM23.1015 48.4332H18.424C18.3282 49.7417 18.2157 50.9892 19.4527 51.8075C20.2783 52.3545 21.165 52.3703 22.0023 51.8528C23.2992 51.0502 23.2161 49.7691 23.1015 48.4332ZM47.1905 64.5673C48.6074 65.9778 49.9337 67.2989 51.2064 68.5653C51.6556 68.1677 52.1899 67.6955 52.8315 67.1285C51.8849 66.204 51.0055 65.3562 50.1378 64.4958C49.1154 63.4811 48.1274 63.5221 47.1737 64.6189C47.1558 64.6388 47.1548 64.6725 47.1895 64.5684L47.1905 64.5673ZM54.1295 60.0066C53.3364 60.7534 52.5591 61.4844 51.9248 62.0808C52.5202 62.7539 53.0997 63.4082 53.5394 63.9047C54.3125 63.1526 55.073 62.4142 55.7546 61.7526C55.2202 61.1794 54.6354 60.5504 54.1295 60.0066Z" fill="#004E4E"/>
<path d="M70.824 28.7895C78.3467 28.7842 84.8817 33.9361 86.6025 41.2285C86.8329 42.2067 86.5184 42.8946 85.7432 43.1049C84.9049 43.3321 84.2906 42.9051 84.0003 41.8827C82.392 36.2028 78.7222 32.7191 72.9014 31.6515C65.3166 30.26 57.7571 36.3069 57.3616 44.0064C56.9619 51.7857 62.3315 57.9179 70.0835 58.5343C76.2241 59.0223 82.2248 54.7045 83.8667 48.6144C83.9288 48.383 83.9772 48.1474 84.0508 47.9192C84.3232 47.0798 85.0269 46.6749 85.7852 46.9115C86.4879 47.1313 86.8339 47.8171 86.6383 48.6534C85.7979 52.2559 83.9814 55.2873 81.0825 57.5718C76.1578 61.4531 70.6494 62.3577 64.8327 60.0447C58.932 57.697 55.5451 53.1605 54.7309 46.88C53.4887 37.3051 61.124 28.7969 70.8219 28.7895H70.824Z" fill="#004E4E"/>
</svg>
