<svg width="18" height="18" viewBox="0 0 18 18" fill="none" xmlns="http://www.w3.org/2000/svg">
<path d="M17.7678 11.4446V11.4429C17.5734 11.1951 17.2296 10.9933 16.7968 10.9842C16.5507 10.9798 16.2772 11.0362 15.973 11.1478C15.9165 11.0731 15.8307 10.975 15.713 10.8895C15.4852 10.7198 15.1228 10.567 14.6309 10.567C14.3784 10.567 14.1721 10.6252 14.0068 10.6938C13.7715 10.469 13.354 10.183 12.7472 10.183C12.255 10.183 11.7932 10.3483 11.4724 10.5379C11.4126 10.5731 11.2689 10.6634 11.0245 10.8162C10.7797 10.969 10.4603 11.1661 10.1452 11.3631C9.64249 11.6769 9.33046 11.8726 9.15027 11.9855C8.76657 11.9091 8.38253 11.8006 8.02047 11.6417C7.71149 11.4429 7.11684 10.1755 4.86502 10.1755C3.84374 10.1755 3.37283 10.42 2.8654 10.616V10.6174C1.89145 10.9967 0.22515 11.7823 0.22515 11.7823C0.0294138 11.874 -0.0544251 12.1079 0.0371892 12.3036C0.130494 12.499 0.364431 12.5832 0.560168 12.4916C0.560168 12.4916 2.23728 11.7012 3.14802 11.3466C3.71089 11.1279 3.9553 10.9585 4.86502 10.9585C6.87242 10.9585 6.79129 11.8297 7.63813 12.328C7.6503 12.3357 7.66416 12.3432 7.67802 12.3479C8.72837 12.8188 9.85648 12.9152 10.7659 12.9152C11.1681 12.9152 11.4217 13.0085 11.5596 13.1123C11.6955 13.2177 11.7442 13.3263 11.7442 13.502C11.7442 13.7083 11.6925 13.8063 11.5562 13.9057C11.4217 14.0034 11.1621 14.0893 10.7659 14.0893H8.71147C7.84908 14.0893 6.36466 13.71 6.36466 13.71C6.23011 13.6734 6.08474 13.713 5.98569 13.8124C5.8863 13.9118 5.8481 14.0571 5.88461 14.1917C5.92281 14.3276 6.02998 14.4331 6.16588 14.4682C6.16588 14.4682 7.63813 14.8719 8.71147 14.8719H10.7659C11.1648 14.8719 11.512 14.8059 11.8023 14.6623C11.8406 14.6518 11.8774 14.6349 11.9095 14.6119L15.6214 12.1765C16.1792 11.854 16.5599 11.7637 16.7833 11.7671C17.0064 11.7715 17.0828 11.8388 17.1501 11.9243C17.2495 12.0528 17.2556 12.1018 17.1914 12.2499C17.1254 12.4 16.9344 12.6305 16.5906 12.8692H16.5889C16.164 13.1657 11.4112 16.263 10.8622 16.575C10.4481 16.8103 10.1195 17.0581 9.74458 17.1636C9.37035 17.2674 8.9285 17.2674 8.19762 16.9188C7.71013 16.6849 5.63377 15.621 4.96137 15.2799C4.5868 15.0903 4.26733 14.9834 3.94178 15.002C3.61454 15.0203 3.33767 15.1592 3.05167 15.3397C3.05032 15.3397 3.04896 15.3411 3.04896 15.3428L2.07941 15.9618C1.95737 16.0351 1.88536 16.1697 1.8901 16.312C1.89483 16.454 1.97731 16.5824 2.10409 16.6467C2.23255 16.7109 2.38366 16.7018 2.50165 16.621L3.46613 16.003C3.71528 15.8472 3.85591 15.7907 3.98438 15.7829C4.11284 15.7755 4.28863 15.8167 4.6081 15.9787C5.27475 16.3167 7.31866 17.3654 7.86159 17.6237C8.71282 18.0317 9.40212 18.0703 9.95418 17.9171C10.5059 17.7626 10.8991 17.454 11.2489 17.2552C12.0042 16.8255 16.4912 13.8905 17.0369 13.5112C17.4513 13.2221 17.7556 12.9213 17.9101 12.5605C18.0642 12.1995 18.0139 11.7593 17.7678 11.4446ZM11.4876 12.2242C11.2719 12.163 11.0306 12.1322 10.7659 12.1322C10.6529 12.1322 10.5289 12.1248 10.4112 12.1201C10.4601 12.0896 10.5096 12.0591 10.5596 12.0284C10.8747 11.831 11.1925 11.6322 11.4386 11.4794C11.6752 11.3334 11.8703 11.2124 11.8703 11.2117C12.0559 11.1018 12.4572 10.9659 12.7472 10.9659C12.9947 10.9659 13.1722 11.0285 13.2976 11.1022L11.4876 12.2242ZM15.207 11.5132L12.5028 13.2867C12.466 13.068 12.3757 12.8584 12.232 12.6843L14.1231 11.5119L14.1248 11.5085C14.14 11.5011 14.4673 11.3496 14.6309 11.3496C14.9487 11.3496 15.1197 11.4304 15.2239 11.5024C15.2178 11.5055 15.213 11.5085 15.207 11.5132Z" fill="#004E4E"/>
<path d="M10.3852 3.72584C10.0062 3.34214 9.50321 3.1481 9.00017 3.14506C8.49714 3.14201 7.99275 3.32997 7.60906 3.71063C6.84166 4.4689 6.83557 5.71769 7.59384 6.48678C8.35211 7.25417 9.60259 7.2606 10.37 6.50199C11.1374 5.74372 11.1435 4.49324 10.3852 3.72584ZM9.81963 5.94419C9.35344 6.40564 8.61208 6.40294 8.15029 5.93642C7.6885 5.46888 7.69323 4.72718 8.15942 4.26708C8.39335 4.03618 8.69457 3.92158 8.99713 3.92327C9.29834 3.92462 9.5982 4.04227 9.82876 4.2762C10.2905 4.74239 10.2858 5.48375 9.81963 5.94419ZM10.3852 3.72584C10.0062 3.34214 9.50321 3.1481 9.00017 3.14506C8.49714 3.14201 7.99275 3.32997 7.60906 3.71063C6.84166 4.4689 6.83557 5.71769 7.59384 6.48678C8.35211 7.25417 9.60259 7.2606 10.37 6.50199C11.1374 5.74372 11.1435 4.49324 10.3852 3.72584ZM9.81963 5.94419C9.35344 6.40564 8.61208 6.40294 8.15029 5.93642C7.6885 5.46888 7.69323 4.72718 8.15942 4.26708C8.39335 4.03618 8.69457 3.92158 8.99713 3.92327C9.29834 3.92462 9.5982 4.04227 9.82876 4.2762C10.2905 4.74239 10.2858 5.48375 9.81963 5.94419ZM10.3852 3.72584C10.0062 3.34214 9.50321 3.1481 9.00017 3.14506C8.49714 3.14201 7.99275 3.32997 7.60906 3.71063C6.84166 4.4689 6.83557 5.71769 7.59384 6.48678C8.35211 7.25417 9.60259 7.2606 10.37 6.50199C11.1374 5.74372 11.1435 4.49324 10.3852 3.72584ZM9.81963 5.94419C9.35344 6.40564 8.61208 6.40294 8.15029 5.93642C7.6885 5.46888 7.69323 4.72718 8.15942 4.26708C8.39335 4.03618 8.69457 3.92158 8.99713 3.92327C9.29834 3.92462 9.5982 4.04227 9.82876 4.2762C10.2905 4.74239 10.2858 5.48375 9.81963 5.94419Z" fill="#FFBD4C"/>
<path d="M13.7668 4.13414L12.5866 3.93367C12.5285 3.75349 12.4568 3.57736 12.3726 3.40461L13.0667 2.42491C13.1782 2.27042 13.1617 2.05947 13.0271 1.92357L12.2016 1.08856C12.067 0.954015 11.853 0.934069 11.6969 1.04597L10.7276 1.73392C10.5566 1.6467 10.3822 1.57334 10.2033 1.51384L10.0137 0.33638C9.98324 0.147066 9.82097 0.00778538 9.62862 0.00643314L8.45589 1.00023e-05C8.26623 -0.00134224 8.10295 0.134558 8.06915 0.321167L7.85515 1.49221C7.67192 1.55204 7.49444 1.62371 7.32034 1.70924L6.35856 1.0152C6.20407 0.903644 5.99008 0.918857 5.85553 1.05509L5.01951 1.87759C4.88496 2.01214 4.86501 2.22309 4.97353 2.37894L5.64931 3.35728C5.5604 3.53003 5.48569 3.70751 5.42586 3.88939L4.25346 4.07904C4.0655 4.10811 3.92622 4.27004 3.92487 4.46274L3.91709 5.63682C3.91574 5.82613 4.05164 5.98975 4.23825 6.02356L5.41368 6.23755C5.47183 6.41943 5.54553 6.59522 5.63106 6.76797L4.93229 7.73414C4.82073 7.88864 4.83594 8.10263 4.97049 8.23853L5.79603 9.07354C5.92889 9.20775 6.13984 9.22769 6.29602 9.11918L7.28654 8.43731C7.45759 8.52453 7.63372 8.59653 7.81391 8.65603L8.01573 9.84229C8.04785 10.0302 8.20843 10.1682 8.39943 10.1695L9.57182 10.1756C9.76452 10.1773 9.92814 10.038 9.96025 9.85006L10.1607 8.66516C10.3396 8.60702 10.5137 8.5367 10.6834 8.45117L11.6664 9.14994C11.8223 9.25981 12.0332 9.24155 12.1678 9.1087L13.0041 8.2845C13.14 8.14996 13.1583 7.93597 13.0471 7.77843L12.3497 6.80008C12.4369 6.63038 12.5102 6.45763 12.5701 6.28049L13.7607 6.07866C13.9473 6.04655 14.0849 5.88428 14.0866 5.69328L14.0924 4.52055C14.094 4.32954 13.9565 4.16592 13.7668 4.13414ZM13.3054 5.36164L12.232 5.54183C12.0792 5.56786 11.9551 5.68246 11.9169 5.83256C11.8453 6.11687 11.7307 6.39205 11.5731 6.64897C11.492 6.78352 11.4981 6.95289 11.59 7.08L12.2151 7.962L11.853 8.32135L10.9646 7.69155C10.8379 7.60129 10.6712 7.5952 10.5383 7.67465C10.2784 7.8288 10.0032 7.93901 9.71719 8.00933C9.56438 8.04584 9.44978 8.1699 9.42375 8.3244L9.24357 9.39131L8.73276 9.38692L8.55223 8.31662C8.5262 8.16382 8.4116 8.04009 8.2588 8.00324C7.97618 7.93292 7.69762 7.81663 7.43765 7.66078C7.30648 7.58134 7.13982 7.58607 7.01305 7.67465L6.12158 8.28924L5.76087 7.9238L6.38899 7.05532C6.48094 6.92855 6.48871 6.75884 6.40758 6.62429C6.25309 6.36297 6.13984 6.08475 6.06986 5.79706C6.03301 5.6473 5.91199 5.5327 5.75918 5.50362L4.70139 5.31262L4.70613 4.79911L5.75918 4.6294C5.91368 4.60472 6.0391 4.49012 6.0773 4.33867C6.15066 4.04997 6.26526 3.77174 6.42448 3.51178C6.50528 3.38027 6.50089 3.21226 6.41231 3.08548L5.80516 2.2045L6.16891 1.84379L7.03434 2.46751C7.15976 2.55946 7.32778 2.5669 7.46233 2.48881C7.72534 2.33161 8.00525 2.22005 8.29395 2.14973C8.44541 2.11457 8.56001 1.9922 8.58739 1.84075L8.78009 0.784309L9.29394 0.78769L9.46364 1.84548C9.48798 1.99997 9.60259 2.1237 9.75235 2.1619C10.0397 2.23526 10.3166 2.35291 10.5765 2.51044C10.7094 2.59293 10.8791 2.58684 11.0059 2.49658L11.8787 1.87759L12.2398 2.24135L11.6113 3.12199C11.5228 3.24877 11.515 3.41543 11.5944 3.54829C11.7489 3.80994 11.8622 4.08817 11.9295 4.37383C11.966 4.52697 12.0897 4.64292 12.2459 4.67065L13.3084 4.84948L13.3054 5.36164Z" fill="#FFBD4C"/>
</svg>
