<svg width="109" height="75" viewBox="0 0 109 75" fill="none" xmlns="http://www.w3.org/2000/svg">
<path d="M54.9665 33.2947C73.4169 32.0258 91.9122 33.0681 105.404 37.5394C106.401 37.9873 107.469 35.626 107.635 33.0362C107.795 30.4589 107.065 27.6804 106.219 27.452C92.265 22.8228 72.9143 23.1534 53.773 26.1369L54.9716 33.2823L54.9665 33.2947ZM53.1093 22.2229C72.5602 18.9985 91.99 18.5435 105.619 22.6365C106.234 22.8545 106.556 25.0742 105.877 24.9433C92.4605 20.497 72.9336 20.5857 53.3282 23.5708L53.1042 22.2354L53.1093 22.2229ZM4.11502 43.2328C17.4716 38.2946 36.2 34.5954 54.9665 33.2947L53.7679 26.1494C35.1294 29.0642 16.6918 34.4974 3.63357 40.3627C3.36783 40.4817 3.45456 41.2116 3.57492 41.9291C3.69361 42.6367 3.85266 43.3294 4.11502 43.2328ZM53.335 23.5683C33.8961 26.5238 14.3789 32.3332 0.662151 39.425C0.248377 39.6408 0.0156102 38.679 0.44451 38.4682C14.141 31.4685 33.6332 25.4672 53.111 22.2329L53.335 23.5683Z" fill="#F6B037"/>
</svg>
