<svg width="42" height="31" viewBox="0 0 42 31" fill="none" xmlns="http://www.w3.org/2000/svg">
<path d="M39.7512 17.4488V23.7475C39.7512 24.6644 39.0492 25.3737 38.1656 25.3737H18.8169C19.4408 24.0758 19.8009 22.6287 19.8009 21.0946C19.8009 19.8852 19.573 18.7336 19.178 17.6632H21.3595V18.0665C21.3595 19.1265 22.2134 20.0096 23.4602 20.0096C24.7045 20.0096 25.5605 19.1265 25.5605 18.0665V17.6632H38.7162C39.082 17.6637 39.4343 17.5862 39.7512 17.4488ZM23.4602 15.3158C24.1076 15.3158 24.4765 15.6847 24.4765 16.1807V18.067C24.4765 18.5598 24.1076 18.9257 23.4602 18.9257C22.8098 18.9257 22.4439 18.5598 22.4439 18.067V16.1807C22.4439 15.6847 22.8098 15.3158 23.4602 15.3158ZM10.4398 12.2861C13.6943 12.4813 16.4617 14.441 17.8198 17.2214C17.8391 17.3161 17.8797 17.4035 17.9416 17.4733C18.3647 18.4167 18.6306 19.444 18.7008 20.5253H17.2422C17.223 20.5253 17.2048 20.5253 17.1855 20.5253C16.4944 20.5903 16.5491 21.6118 17.2422 21.6025H18.6946C18.4407 26.0673 14.8922 29.6205 10.4398 29.889V28.4122C10.4419 28.1072 10.1979 27.859 9.895 27.8611C9.59422 27.8642 9.35537 28.1103 9.35849 28.4122V29.889C4.90457 29.6179 1.36027 26.0642 1.1058 21.6025H2.56078C3.33042 21.6556 3.33042 20.4733 2.56078 20.5253H1.11101C1.38993 16.0912 4.92382 12.5619 9.35849 12.2929V13.7198C9.30645 14.4894 10.4908 14.4894 10.4398 13.7198V12.2861ZM8.20377 3.80033H38.7162C39.5967 3.80033 40.3018 4.5096 40.3018 5.42651V14.9546C40.3018 15.8715 39.5972 16.5787 38.7162 16.5787H25.5605V16.1801C25.5605 15.1201 24.7039 14.237 23.4602 14.237C22.2134 14.237 21.3595 15.1201 21.3595 16.1801V16.5787H18.7061C17.0606 13.3805 13.738 11.1829 9.9002 11.1829C8.75069 11.1829 7.64801 11.3911 6.62026 11.7522V5.42651C6.62026 4.5096 7.31965 3.80033 8.20377 3.80033ZM20.8771 1.08447H26.5606C26.8182 1.08447 27.2788 1.45238 27.6259 1.94049C27.8777 2.29643 28.0104 2.56443 28.0838 2.71586H19.3544C19.4268 2.56443 19.56 2.29591 19.8119 1.94049C20.1595 1.45238 20.6169 1.08447 20.8771 1.08447ZM20.8771 0C19.956 0 19.3544 0.720725 18.934 1.31396C18.5109 1.91031 18.2559 2.49313 18.2559 2.49313L18.2101 2.59669V2.71586H8.20377C6.72902 2.71586 5.53579 3.94083 5.53579 5.42651V12.2096C2.26313 13.8275 0 17.197 0 21.0946C0 26.5586 4.43831 31 9.9002 31C13.3883 31 16.4507 29.187 18.2133 26.455H38.1661C39.6409 26.455 40.8331 25.2332 40.8331 23.7475V16.8035L40.8003 16.6167C41.1583 16.1562 41.3805 15.5843 41.3805 14.9552V5.42651C41.3805 3.94083 40.1878 2.71586 38.7162 2.71586H29.2302V2.59669L29.1844 2.49313C29.1844 2.49313 28.9325 1.91083 28.5095 1.31396C28.0864 0.720204 27.4817 0 26.5606 0H20.8771Z" fill="#004E4E"/>
</svg>
