<svg width="102" height="102" viewBox="0 0 102 102" fill="none" xmlns="http://www.w3.org/2000/svg">
<path d="M50.8691 34.1221C41.5347 34.1221 33.9211 41.7285 33.9211 51.1065C33.9211 60.4846 41.5112 68.091 50.8691 68.091C60.2269 68.091 67.817 60.4846 67.817 51.1065C67.817 41.7285 60.2269 34.1221 50.8691 34.1221ZM50.8691 65.7996C42.784 65.7996 36.184 59.209 36.184 51.0829C36.184 42.9568 42.7605 36.3662 50.8691 36.3662C58.9777 36.3662 65.5541 42.9568 65.5541 51.0829C65.5541 59.209 58.9777 65.7996 50.8691 65.7996Z" fill="#004E4E"/>
<path d="M88.0883 85.7598C96.8569 76.3109 101.689 64.0509 101.689 51.1059C101.689 39.9797 98.1769 29.4205 91.5297 20.5622V11.2786C91.5297 10.8534 91.2704 10.4518 90.8933 10.2628C90.5161 10.0738 90.0447 10.1211 89.7147 10.3809L85.354 13.7117C75.9254 4.99504 63.7625 0.199707 50.8924 0.199707C39.7902 0.199707 29.2538 3.71944 20.4145 10.3809H11.3866C10.9623 10.3809 10.5616 10.6172 10.373 10.9951C10.1844 11.3731 10.2316 11.8455 10.4908 12.1762L13.7201 16.4283C4.95155 25.8772 0.119385 38.1372 0.119385 51.0822C0.119385 62.2083 3.63153 72.7675 10.2787 81.6259V90.6733C10.2787 91.0985 10.5144 91.5001 10.8916 91.689C11.0566 91.7599 11.2216 91.8071 11.4101 91.8071C11.6459 91.8071 11.9051 91.7363 12.0937 91.5709L16.3366 88.3347C25.7652 97.1222 37.9988 101.965 50.916 101.965C62.0182 101.965 72.5546 98.445 81.3939 91.7835H90.4218C90.8461 91.7835 91.2468 91.5473 91.4354 91.1693C91.624 90.7914 91.5769 90.3189 91.3176 89.9882L88.0883 85.7362V85.7598ZM50.8688 2.44383C63.291 2.44383 75.0768 7.12105 84.1047 15.6487C84.364 16.5936 85.8961 16.6645 86.2968 15.8141L89.2668 13.57V34.145H68.7125L71.4939 29.6804C71.4939 29.6804 71.5646 29.6568 71.5882 29.6095C72.0125 29.1371 71.9653 28.4284 71.4939 28.0032C65.8132 22.9008 58.4824 20.1133 50.8688 20.1133C45.7303 20.1133 40.686 21.3889 36.1838 23.822V11.5148C36.1838 10.9006 35.6652 10.3809 35.0524 10.3809H24.3038C32.2002 5.20765 41.2988 2.46746 50.8453 2.46746L50.8688 2.44383ZM72.8139 69.5549L67.2746 66.0588C66.921 65.8462 66.4732 65.8226 66.1196 66.0352C65.766 66.2478 65.5303 66.6021 65.5303 67.0273V75.7676C61.0989 78.4133 56.0546 79.8306 50.8453 79.8306C44.0803 79.8306 37.5981 77.4211 32.4359 73.0746L35.9245 67.5234C36.1367 67.169 36.1602 66.7202 35.9481 66.3659C35.7359 66.0116 35.3824 65.7753 34.9581 65.7753H26.2366C23.5966 61.3343 22.1823 56.2791 22.1823 51.0586C22.1823 44.279 24.5866 37.7829 28.9238 32.6096L34.4631 36.1057C34.6516 36.2238 34.8638 36.271 35.0524 36.271C35.2409 36.271 35.4295 36.2238 35.5945 36.1293C35.9481 35.9167 36.1838 35.5624 36.1838 35.1371V26.3969C40.6152 23.7512 45.6595 22.3338 50.8688 22.3338C57.6103 22.3338 64.0689 24.7197 69.2075 29.019L65.7189 34.6411C65.5068 34.9954 65.4832 35.4442 65.6953 35.775C65.9075 36.1293 66.261 36.3419 66.6853 36.3419H75.5011C78.1411 40.7829 79.5554 45.8381 79.5554 51.0586C79.5554 57.8382 77.1511 64.3344 72.8139 69.5077V69.5549ZM2.31154 51.1059C2.31154 38.6805 6.97869 26.893 15.4644 17.8456C15.653 17.8456 15.818 17.7747 16.0066 17.633C16.5016 17.255 16.5959 16.5464 16.2187 16.0503L13.6259 12.6251H33.9445V33.1293L29.3952 30.271C28.8766 30.0111 28.2402 29.9639 27.8159 30.4363C22.7245 36.1293 19.943 43.4522 19.943 51.1059C19.943 56.2555 21.2159 61.3107 23.6438 65.8226H11.363C10.7501 65.8226 10.2316 66.3423 10.2316 66.9564V77.7282C5.0694 69.8147 2.3351 60.6965 2.3351 51.1295L2.31154 51.1059ZM50.8688 99.7679C38.4702 99.7679 26.708 95.0906 17.6802 86.5866C17.6802 86.3976 17.6094 86.2323 17.468 86.0433C17.0909 85.5472 16.3837 85.4527 15.8887 85.8307L12.4709 88.4291V68.0667C12.4709 68.0667 25.5059 68.1612 25.6473 68.1612C25.7888 68.1612 32.9309 68.0667 32.9309 68.0667L30.0788 72.6258C29.8195 73.1455 29.7723 73.7833 30.2438 74.2085C35.9245 79.3109 43.2317 82.0984 50.8688 82.0984C56.0074 82.0984 61.0517 80.8227 65.5539 78.3896V90.6969C65.5539 91.3111 66.0725 91.8308 66.6853 91.8308H77.4339C69.5375 97.0041 60.4389 99.7442 50.8924 99.7442L50.8688 99.7679ZM67.8168 89.5866V69.0824L72.3661 71.9408C72.8846 72.2006 73.5211 72.2478 73.9454 71.7754C79.0368 66.0824 81.8182 58.7595 81.8182 51.1059C81.8182 45.9562 80.5454 40.901 78.1175 36.3891H90.3983C91.0111 36.3891 91.5297 35.8694 91.5297 35.2553V24.4835C96.6919 32.397 99.4261 41.5152 99.4261 51.0822C99.4261 63.5076 94.759 75.2951 86.2733 84.3425C86.0847 84.3425 85.8961 84.4133 85.7311 84.5551C85.2361 84.933 85.1418 85.6417 85.519 86.1378L88.1118 89.563H67.7932L67.8168 89.5866Z" fill="#004E4E"/>
<path d="M50.5628 50.3499C48.0171 50.3499 47.4749 49.1688 47.4749 48.1531C47.4749 48.035 47.4985 45.3184 50.5628 45.3184C53.3678 45.3184 53.7449 47.2082 53.7921 47.5861C53.8628 48.2003 54.4049 48.6491 55.0178 48.6019C55.6307 48.5546 56.1021 47.9877 56.0314 47.3735C55.9135 46.0743 54.8999 43.8066 51.9771 43.216V42.0821C51.9771 41.4679 51.4585 40.9482 50.8456 40.9482C50.2328 40.9482 49.7142 41.4679 49.7142 42.0821V43.1451C46.4142 43.5467 45.1885 46.2869 45.1885 48.1767C45.1885 50.3263 46.5792 52.6413 50.5392 52.6413C51.6471 52.6413 54.2399 52.8303 54.2399 54.5547C54.2399 55.5469 53.0614 56.9169 50.8456 56.9169C49.2192 56.9169 47.4513 56.4445 47.4513 55.1216C47.4513 54.5075 46.9328 53.9878 46.3199 53.9878C45.707 53.9878 45.1885 54.5075 45.1885 55.1216C45.1885 56.7988 46.4142 58.7359 49.7142 59.1138V60.2005C49.7142 60.8146 50.2328 61.3343 50.8456 61.3343C51.4585 61.3343 51.9771 60.8146 51.9771 60.2005V59.1138C54.7821 58.665 56.5028 56.5626 56.5028 54.5783C56.5028 53.5862 56.0785 50.3972 50.5628 50.3972V50.3499Z" fill="#004E4E"/>
</svg>
