<svg width="25" height="29" viewBox="0 0 25 29" fill="none" xmlns="http://www.w3.org/2000/svg">
<path d="M24.4447 20.9212L23.9637 20.5449C23.8698 20.1569 23.6175 19.8218 23.2597 19.6219L22.2272 19.0399C22.0102 18.4814 21.5057 18.0758 20.8839 17.9935L20.2503 17.9582L20.1389 17.335C20.1037 17.1234 20.0274 16.9294 19.9335 16.7471V8.35795H23.1248C23.248 8.35795 23.3477 8.25801 23.3477 8.13455V5.83002C23.3477 5.70656 23.248 5.60662 23.1248 5.60662H19.9335V4.86H23.1248C23.248 4.86 23.3477 4.76006 23.3477 4.6366V2.33207C23.3477 2.20861 23.248 2.10867 23.1248 2.10867H19.9335V0.486094C19.9335 0.362637 19.8338 0.262695 19.7106 0.262695H0.222916C0.0997247 0.262695 0 0.362637 0 0.486094V26.6472C0 26.7707 0.0997247 26.8706 0.222916 26.8706H15.2933L15.5104 27.1587C15.5925 27.2704 15.6394 27.4056 15.6394 27.5408V28.0817C15.6394 28.2051 15.7392 28.3051 15.8624 28.3051C15.9855 28.3051 16.0853 28.2051 16.0853 28.0817V27.5408C16.0853 27.3057 16.009 27.0764 15.8682 26.8883L15.1056 25.883C14.9238 25.6478 14.7947 25.3774 14.7243 25.0893L13.6508 20.9447C13.5686 20.639 13.5628 20.3098 13.6273 19.9982L14.2315 17.1058C14.2902 16.8236 14.56 16.6296 14.8475 16.6648C15.1232 16.7001 15.3344 16.9412 15.3344 17.2233V19.7395C15.3344 19.7395 15.3344 19.7513 15.3344 19.763C15.3344 19.7807 15.3344 19.7924 15.3461 19.8101C15.3461 19.8218 15.3579 19.8395 15.3637 19.8512C15.3637 19.8571 15.3637 19.8688 15.3755 19.8747L17.411 22.7848C17.0532 23.0611 16.9711 23.5784 17.2351 23.9547L18.3144 25.4714C18.4787 25.7066 18.7427 25.8301 19.0067 25.8301C19.1592 25.8301 19.3117 25.7889 19.4525 25.7007L19.9394 26.3944C20.1623 26.7119 20.5202 26.8824 20.8839 26.8824C21.1127 26.8824 21.3414 26.8118 21.5409 26.6707C21.7931 26.4944 21.9574 26.2298 22.0102 25.93C22.063 25.6302 21.9926 25.3245 21.8166 25.0717L18.555 20.4215L18.4259 18.4814C18.4142 18.2815 18.3379 18.1052 18.2206 17.9582C18.2147 17.9464 18.203 17.9347 18.1913 17.9229C18.027 17.7348 17.7982 17.6113 17.5401 17.5937L15.7744 17.4703V17.241C15.7744 16.9059 15.6042 16.6002 15.3403 16.4179C15.4341 16.3474 15.5397 16.3003 15.6629 16.2945L18.1091 16.1593C18.8835 16.1181 19.564 16.659 19.7047 17.4232L20.3266 20.9094C20.3442 21.0152 20.438 21.0917 20.5436 21.0917C20.5554 21.0917 20.5671 21.0917 20.5847 21.0917C20.7079 21.0681 20.7841 20.9564 20.7665 20.833L20.3383 18.4168L20.8487 18.4403C21.3708 18.5108 21.7931 18.9106 21.887 19.4279L22.2038 21.1152C22.2214 21.221 22.3152 21.2974 22.4208 21.2974C22.4326 21.2974 22.4502 21.2974 22.4619 21.2974C22.5851 21.2739 22.6613 21.1563 22.6379 21.0387L22.3739 19.6454L23.0427 20.0217C23.3712 20.2039 23.5706 20.5567 23.5589 20.9329L23.5354 22.1557C23.5354 22.2792 23.6293 22.3791 23.7525 22.385C23.8698 22.385 23.9695 22.291 23.9754 22.1675L23.9988 21.1563L24.1631 21.2857C24.4329 21.4973 24.5796 21.8265 24.5503 22.1675L24.0986 28.0758C24.0868 28.1993 24.1807 28.3051 24.3039 28.3168C24.3098 28.3168 24.3156 28.3168 24.3215 28.3168C24.4388 28.3168 24.5327 28.2286 24.5444 28.1111L24.9961 22.2028C25.0313 21.7148 24.826 21.2386 24.4388 20.9329L24.4447 20.9212ZM22.9077 7.91115H16.5194V6.05342H22.9077V7.91115ZM22.9077 4.4132H16.5194V2.54959H22.9077V4.4132ZM13.9676 16.6354L13.4924 15.1834L14.824 16.2239C14.4838 16.2063 14.167 16.365 13.9676 16.6296V16.6354ZM18.6782 25.2069L17.5988 23.6901C17.4756 23.5196 17.5108 23.2786 17.6692 23.1434L19.2003 25.3245C19.0243 25.4185 18.8013 25.3715 18.6782 25.201V25.2069ZM21.5761 25.8477C21.5409 26.0358 21.4412 26.1945 21.2886 26.3062C21.1361 26.4179 20.9484 26.4532 20.7607 26.4238C20.573 26.3886 20.4146 26.2886 20.3031 26.1358L19.693 25.2657L19.5053 24.9953C19.7399 24.5426 20.1095 24.2604 20.6316 24.1487L21.4529 25.3245C21.5585 25.4773 21.5996 25.6654 21.5702 25.8536L21.5761 25.8477ZM17.9977 18.5931L18.0739 19.716L17.675 19.1516L17.9977 18.599V18.5931ZM17.763 18.1111L17.3934 18.746L16.8596 17.9817L17.5225 18.0287C17.6105 18.0346 17.6926 18.064 17.763 18.1111ZM16.2847 17.9406L17.2292 19.2927L20.3559 23.7548C19.869 23.9018 19.4877 24.1781 19.2237 24.5896L17.8979 22.7025L15.7744 19.6748V17.9053L16.2789 17.9406H16.2847ZM18.0915 15.7066L15.6453 15.8418C15.4869 15.8477 15.3403 15.8947 15.2112 15.9653L13.1932 14.3838C13.1463 14.3486 13.0876 14.3368 13.0348 14.3427C13.0348 14.3427 13.029 14.3427 13.0231 14.3427C12.982 14.3427 12.9644 14.3427 12.9586 14.3368C12.8412 14.2662 12.8178 14.0135 12.8002 13.7724C12.7708 13.3844 12.718 12.7965 12.0904 12.7436C11.7325 12.7201 11.1576 13.014 10.2601 13.5079C9.71452 13.8077 8.5706 14.4367 8.38874 14.2898C8.23036 14.1604 8.23622 13.937 8.27142 13.5725C8.30662 13.208 8.35355 12.7495 7.93118 12.532C7.17443 12.144 4.50528 13.6901 3.45522 14.9364C3.37896 15.0305 3.39069 15.1716 3.48455 15.248C3.52562 15.2833 3.57841 15.3009 3.62534 15.3009C3.68987 15.3009 3.74854 15.2715 3.79547 15.2245C4.92179 13.8841 7.34455 12.7319 7.73172 12.9259C7.86665 12.9964 7.86665 13.1669 7.83145 13.5255C7.79625 13.89 7.75519 14.3427 8.11303 14.6307C8.50607 14.9482 9.26868 14.5543 10.4771 13.89C11.0696 13.5667 11.8029 13.161 12.061 13.1787C12.2781 13.1963 12.325 13.3315 12.3661 13.7959C12.3954 14.131 12.4247 14.5132 12.7356 14.7072C12.7884 14.7366 12.8412 14.7601 12.8999 14.7718L13.7388 17.3233L13.1991 19.91C13.1228 20.2862 13.1287 20.686 13.2284 21.0564L14.3019 25.201C14.3899 25.5479 14.5483 25.8653 14.7595 26.1475L14.9648 26.4179H0.457567V0.697735H19.5053V2.09691H16.3141C16.1909 2.09691 16.0911 2.19686 16.0911 2.32031V4.62484C16.0911 4.7483 16.1909 4.84824 16.3141 4.84824H19.5053V5.59486H16.3141C16.1909 5.59486 16.0911 5.6948 16.0911 5.81826V8.12279C16.0911 8.24625 16.1909 8.34619 16.3141 8.34619H19.5053V16.1828C19.1299 15.8536 18.6312 15.6713 18.1033 15.7007L18.0915 15.7066Z" fill="#004E4E"/>
<path d="M18.5315 3.53102C18.5315 3.65447 18.6312 3.75442 18.7544 3.75442H22.104C22.2272 3.75442 22.327 3.65447 22.327 3.53102C22.327 3.40756 22.2272 3.30762 22.104 3.30762H18.7544C18.6312 3.30762 18.5315 3.40756 18.5315 3.53102Z" fill="#004E4E"/>
<path d="M18.5315 7.02955C18.5315 7.15301 18.6312 7.25295 18.7544 7.25295H22.104C22.2272 7.25295 22.327 7.15301 22.327 7.02955C22.327 6.90609 22.2272 6.80615 22.104 6.80615H18.7544C18.6312 6.80615 18.5315 6.90609 18.5315 7.02955Z" fill="#004E4E"/>
<path d="M7.90767 6.80008C8.4767 5.35387 8.61162 3.80184 8.31244 2.1969C8.29485 2.09107 8.20099 2.01465 8.09539 2.01465H1.51346C1.44893 2.01465 1.3844 2.04404 1.34333 2.09695C1.30227 2.14986 1.28467 2.21453 1.2964 2.2792C1.57798 3.80184 1.44893 5.27156 0.915097 6.64135C0.885766 6.71189 0.897499 6.78832 0.938562 6.84711C0.979626 6.9059 1.05002 6.94705 1.12042 6.94705H7.70235C7.79621 6.94705 7.87834 6.88826 7.90767 6.80596V6.80008ZM1.43719 6.49437C1.88303 5.21277 1.99449 3.85475 1.77744 2.45557H7.90767C8.13646 3.86062 8.01326 5.21865 7.54396 6.49437H1.43133H1.43719Z" fill="#004E4E"/>
<path d="M2.99184 4.1426H6.54092C6.66411 4.1426 6.76384 4.04266 6.76384 3.9192C6.76384 3.79574 6.66411 3.6958 6.54092 3.6958H2.99184C2.86865 3.6958 2.76892 3.79574 2.76892 3.9192C2.76892 4.04266 2.86865 4.1426 2.99184 4.1426Z" fill="#004E4E"/>
<path d="M7.09814 4.84814H2.43447C2.31127 4.84814 2.21155 4.94809 2.21155 5.07154C2.21155 5.195 2.31127 5.29494 2.43447 5.29494H7.09814C7.22133 5.29494 7.32106 5.195 7.32106 5.07154C7.32106 4.94809 7.22133 4.84814 7.09814 4.84814Z" fill="#004E4E"/>
<path d="M9.02223 4.69533H12.7297C12.8529 4.69533 12.9526 4.59539 12.9526 4.47193C12.9526 4.34847 12.8529 4.24854 12.7297 4.24854H9.02223C8.89904 4.24854 8.79932 4.34847 8.79932 4.47193C8.79932 4.59539 8.89904 4.69533 9.02223 4.69533Z" fill="#004E4E"/>
<path d="M8.67018 6.94094H14.0026C14.1258 6.94094 14.2255 6.84099 14.2255 6.71754C14.2255 6.59408 14.1258 6.49414 14.0026 6.49414H8.67018C8.54699 6.49414 8.44727 6.59408 8.44727 6.71754C8.44727 6.84099 8.54699 6.94094 8.67018 6.94094Z" fill="#004E4E"/>
<path d="M17.2937 10.4155C16.7657 10.7506 16.0559 11.0504 15.8741 10.9387C15.7743 10.8741 15.7391 10.7682 15.6981 10.5919C15.6394 10.3567 15.5397 9.96283 15 9.98634C14.6421 9.9981 14.255 10.3038 13.8502 10.633C13.5686 10.8564 13.1052 11.2268 12.9703 11.1445C12.8529 11.0739 12.8295 10.8211 12.8119 10.5801C12.7767 10.1921 12.7297 9.60421 12.1021 9.5513C11.7442 9.52779 11.1693 9.82173 10.2718 10.3156C9.72622 10.6154 8.5823 11.2444 8.40045 11.0975C8.24206 10.9681 8.24793 10.7388 8.28312 10.3802C8.31832 10.0157 8.36525 9.55718 7.94288 9.33966C7.18613 8.95166 4.51699 10.4978 3.46693 11.7441C3.39067 11.8382 3.4024 11.9793 3.49626 12.0557C3.53732 12.091 3.59012 12.1086 3.63705 12.1086C3.70158 12.1086 3.76024 12.0792 3.80717 12.0322C4.93349 10.6918 7.35625 9.53954 7.74343 9.73355C7.87835 9.8041 7.87835 9.97458 7.84315 10.3332C7.80796 10.6977 7.76689 11.1504 8.12473 11.4384C8.51777 11.7559 9.28039 11.362 10.4888 10.6977C11.0813 10.3743 11.8146 9.96871 12.0727 9.98634C12.2898 10.004 12.3367 10.1392 12.3778 10.6036C12.4071 10.9387 12.4364 11.3209 12.7473 11.5149C13.1462 11.7618 13.6273 11.3796 14.1376 10.974C14.4544 10.7212 14.8181 10.4331 15.0293 10.4273C15.1994 10.4273 15.217 10.4508 15.2816 10.6977C15.3285 10.8917 15.3989 11.1562 15.657 11.315C16.1674 11.6266 17.235 10.9916 17.5518 10.7859C17.6574 10.7212 17.6867 10.5801 17.6163 10.4802C17.5518 10.3743 17.411 10.345 17.3113 10.4155H17.2937Z" fill="#004E4E"/>
</svg>
