<svg width="26" height="31" viewBox="0 0 26 31" fill="none" xmlns="http://www.w3.org/2000/svg">
<g clip-path="url(#clip0_1330_5302)">
<path d="M27.2465 14.6699H18.979V14.4171C18.979 14.263 18.979 14.1089 18.9606 13.9548C18.9483 13.8006 18.9298 13.6465 18.9114 13.4924C18.8867 13.3383 18.8621 13.1903 18.8252 13.0362C18.7883 12.8821 18.7514 12.7342 18.7022 12.5924C18.653 12.4506 18.6038 12.2965 18.5484 12.1547C18.4931 12.0129 18.4315 11.8711 18.3639 11.7293C18.2962 11.5875 18.2224 11.4519 18.1486 11.3224C18.0686 11.1868 17.9886 11.0574 17.9025 10.9341C17.8164 10.8046 17.7241 10.6813 17.6257 10.5642C17.5273 10.4409 17.4289 10.3299 17.3243 10.2128C17.2197 10.1018 17.109 9.99088 16.9983 9.88608C16.8875 9.78128 16.7645 9.68265 16.6476 9.59018C16.5246 9.49771 16.4016 9.40524 16.2724 9.31893C16.1432 9.23263 16.0141 9.15249 15.8787 9.07851C15.7434 9.00453 15.6081 8.93056 15.4666 8.86891C15.3251 8.80727 15.1836 8.74562 15.0421 8.69014C15.1098 8.65315 15.1775 8.61 15.2451 8.56685C15.3128 8.52369 15.3743 8.48054 15.442 8.43122C15.5035 8.38191 15.565 8.33875 15.6265 8.28327C15.688 8.23395 15.7495 8.17847 15.8049 8.12915C15.8664 8.07367 15.9218 8.01819 15.9771 7.96271C16.0325 7.90723 16.0879 7.84558 16.1371 7.7901C16.1863 7.72845 16.2417 7.66681 16.2909 7.60516C16.3401 7.54351 16.3893 7.48186 16.4323 7.41405C16.4754 7.34624 16.5185 7.2846 16.5615 7.21679C16.6046 7.14897 16.6415 7.08116 16.6784 7.01335C16.7153 6.94554 16.7522 6.87157 16.7891 6.80375C16.826 6.72978 16.8568 6.66197 16.8875 6.58799C16.9183 6.51401 16.9491 6.44004 16.9737 6.36606C16.9983 6.29209 17.0229 6.21811 17.0475 6.13797C17.0721 6.05783 17.0905 5.98386 17.109 5.90988C17.1275 5.82974 17.1398 5.75576 17.1582 5.67562C17.1705 5.59548 17.1828 5.52151 17.1951 5.44137C17.2074 5.36123 17.2136 5.28109 17.2197 5.20711C17.2197 5.12697 17.2259 5.04683 17.2259 4.96669C17.2259 4.88655 17.2259 4.80641 17.2259 4.72627C17.2259 4.64613 17.2197 4.56599 17.2074 4.49201C17.1951 4.41803 17.189 4.33173 17.1767 4.25775C17.1644 4.17761 17.1521 4.10363 17.1336 4.02349C17.1151 3.94335 17.0967 3.86938 17.0782 3.78924C17.0598 3.71526 17.0352 3.63512 17.0106 3.56115C16.986 3.48717 16.9614 3.4132 16.9306 3.33922C16.8999 3.26524 16.8691 3.19127 16.8383 3.11729C16.8076 3.04332 16.7707 2.9755 16.7338 2.90153C16.6969 2.83372 16.6599 2.75974 16.6169 2.69193C16.5738 2.62412 16.5369 2.55631 16.4877 2.4885C16.4446 2.42069 16.3954 2.35904 16.3524 2.29739C16.3093 2.23575 16.254 2.1741 16.2047 2.11245C16.1555 2.05081 16.1002 1.99532 16.0448 1.93368C15.9894 1.8782 15.9341 1.81655 15.8787 1.76723C15.8234 1.71175 15.7618 1.65627 15.7003 1.60695C15.6388 1.55763 15.5773 1.50832 15.5158 1.459C15.4543 1.40968 15.3866 1.36653 15.3251 1.31721C15.2636 1.26789 15.1959 1.23091 15.1283 1.18775C15.0606 1.1446 14.9929 1.10761 14.9191 1.07063C14.8514 1.03364 14.7776 0.99665 14.7038 0.965827C14.63 0.935003 14.5623 0.898017 14.4885 0.873358C14.4147 0.842535 14.3409 0.817876 14.2671 0.793217C14.1932 0.768558 14.1133 0.743899 14.0395 0.725405C13.9656 0.706911 13.8857 0.682253 13.8119 0.669923C13.7319 0.651429 13.6581 0.6391 13.5781 0.626771C13.4981 0.614442 13.4243 0.602113 13.3443 0.595948C13.2644 0.589784 13.1844 0.583619 13.1106 0.577454C13.0306 0.577454 12.9507 0.571289 12.8707 0.571289C12.7907 0.571289 12.7108 0.571289 12.6308 0.577454C12.5508 0.583619 12.4709 0.589784 12.397 0.595948C12.3171 0.602113 12.2371 0.614442 12.1633 0.626771C12.0833 0.6391 12.0095 0.657594 11.9295 0.669923C11.8496 0.688417 11.7757 0.706911 11.7019 0.725405C11.6281 0.743899 11.5481 0.768558 11.4743 0.793217C11.4005 0.817876 11.3267 0.8487 11.2529 0.873358C11.1791 0.898017 11.1052 0.935003 11.0376 0.965827C10.9638 0.99665 10.8961 1.03364 10.8223 1.07063C10.7485 1.10761 10.6808 1.1446 10.6131 1.18775C10.5455 1.23091 10.4778 1.27406 10.4163 1.31721C10.3548 1.36036 10.2871 1.40968 10.2256 1.459C10.1641 1.50832 10.1026 1.55763 10.0411 1.60695C9.97954 1.65627 9.92417 1.71175 9.86266 1.76723C9.8073 1.82271 9.75193 1.8782 9.69657 1.93368C9.64121 1.98916 9.592 2.05081 9.53664 2.11245C9.48743 2.1741 9.43821 2.23575 9.389 2.29739C9.33979 2.35904 9.29673 2.42685 9.25367 2.4885C9.21061 2.55631 9.16755 2.62412 9.12449 2.69193C9.08144 2.75974 9.04453 2.82755 9.00762 2.90153C8.97071 2.96934 8.9338 3.04332 8.90304 3.11729C8.87229 3.19127 8.84153 3.26524 8.81077 3.33922C8.78002 3.4132 8.75541 3.48717 8.7308 3.56115C8.7062 3.63512 8.68159 3.71526 8.66314 3.78924C8.64469 3.86321 8.62623 3.94335 8.60778 4.02349C8.58932 4.10363 8.57702 4.17761 8.56472 4.25775C8.55241 4.33789 8.54011 4.41187 8.53396 4.49201C8.52781 4.57215 8.52166 4.65229 8.51551 4.72627C8.50935 4.80024 8.51551 4.88655 8.51551 4.96669C8.51551 5.04683 8.5155 5.12697 8.52166 5.20711C8.52166 5.28725 8.53396 5.36739 8.54626 5.44137C8.55857 5.51534 8.56472 5.59548 8.58317 5.67562C8.60163 5.75576 8.61393 5.82974 8.63238 5.90988C8.65084 5.99002 8.66929 6.06399 8.6939 6.13797C8.7185 6.21195 8.74311 6.29209 8.76771 6.36606C8.79232 6.44004 8.82308 6.51401 8.85383 6.58799C8.88459 6.66197 8.91535 6.73594 8.95225 6.80375C8.98916 6.87157 9.01992 6.94554 9.06298 7.01335C9.09989 7.08116 9.14295 7.14897 9.17986 7.21679C9.22291 7.2846 9.26598 7.35241 9.30904 7.41405C9.3521 7.48186 9.40131 7.54351 9.45052 7.60516C9.49973 7.66681 9.54894 7.72845 9.6043 7.7901C9.65351 7.85174 9.70887 7.90723 9.76424 7.96271C9.8196 8.01819 9.87496 8.07367 9.93648 8.12915C9.99799 8.18464 10.0534 8.23395 10.1149 8.28327C10.1764 8.33259 10.2379 8.38191 10.2994 8.43122C10.3609 8.48054 10.4286 8.52369 10.4963 8.56685C10.5639 8.61 10.6316 8.65315 10.6992 8.69014C10.5578 8.74562 10.4163 8.80727 10.2748 8.86891C10.1333 8.93672 9.99799 9.00453 9.86266 9.07851C9.72733 9.15249 9.59815 9.23263 9.46897 9.31893C9.33979 9.40524 9.21676 9.49771 9.09374 9.59018C8.97071 9.68265 8.85383 9.78745 8.74311 9.89225C8.63238 9.99704 8.52166 10.1018 8.41708 10.219C8.31251 10.3299 8.20794 10.4471 8.11567 10.5704C8.01724 10.6875 7.92497 10.8169 7.83885 10.9402C7.75274 11.0697 7.66661 11.1992 7.5928 11.3286C7.51898 11.4581 7.44517 11.5999 7.3775 11.7355C7.30983 11.8711 7.24832 12.0129 7.19296 12.1608C7.13759 12.3026 7.08223 12.4506 7.03917 12.5985C6.99611 12.7465 6.95305 12.8944 6.91615 13.0424C6.87924 13.1903 6.85463 13.3445 6.83002 13.4986C6.80542 13.6527 6.78696 13.8068 6.77466 13.9609C6.76236 14.115 6.75621 14.2692 6.75621 14.4233V14.676H-1.51126C-1.54202 14.676 -1.57892 14.676 -1.60968 14.6883C-1.64044 14.6945 -1.6712 14.7068 -1.70195 14.7192C-1.73271 14.7315 -1.76347 14.75 -1.78807 14.7685C-1.81268 14.787 -1.84343 14.8055 -1.86189 14.8301C-1.88649 14.8548 -1.90495 14.8795 -1.9234 14.9041C-1.94186 14.9288 -1.95416 14.9596 -1.96646 14.9904C-1.97876 15.0212 -1.99107 15.0521 -1.99722 15.0829C-2.00337 15.1137 -2.00952 15.1445 -2.00952 15.1815V17.9679C-2.00952 17.9988 -2.00952 18.0358 -1.99722 18.0666C-1.98492 18.0974 -1.97876 18.1282 -1.96646 18.159C-1.95416 18.1899 -1.9357 18.2207 -1.9234 18.2454C-1.90495 18.27 -1.88649 18.3008 -1.86189 18.3193C-1.83728 18.3378 -1.81268 18.3625 -1.78807 18.381C-1.76347 18.3995 -1.73271 18.4118 -1.70195 18.4303C-1.6712 18.4426 -1.64044 18.455 -1.60968 18.4611C-1.57892 18.4673 -1.54817 18.4734 -1.51126 18.4734H0.617122V30.0075C0.617122 30.0383 0.617122 30.0753 0.629425 30.1061C0.641728 30.137 0.647879 30.1678 0.660182 30.1986C0.672484 30.2294 0.690938 30.2603 0.703241 30.2849C0.721695 30.3096 0.740151 30.3342 0.764756 30.3589C0.789362 30.3836 0.813967 30.4021 0.838573 30.4205C0.863178 30.439 0.893935 30.4514 0.924692 30.4699C0.955449 30.4822 0.986206 30.4945 1.01696 30.5007C1.04772 30.5068 1.07848 30.513 1.11539 30.513H24.6506C24.6814 30.513 24.7183 30.513 24.749 30.5007C24.7798 30.4945 24.8105 30.4822 24.8413 30.4699C24.872 30.4575 24.9028 30.439 24.9274 30.4205C24.952 30.4021 24.9828 30.3836 25.0012 30.3589C25.0258 30.3342 25.0443 30.3096 25.0627 30.2849C25.0812 30.2603 25.0935 30.2294 25.1058 30.1986C25.1181 30.1678 25.1304 30.137 25.1366 30.1061C25.1427 30.0753 25.1489 30.0445 25.1489 30.0075V18.4734H27.2772C27.308 18.4734 27.3449 18.4734 27.3757 18.4611C27.4064 18.455 27.4372 18.4426 27.4679 18.4303C27.4987 18.418 27.5295 18.3995 27.5541 18.381C27.5787 18.3625 27.6094 18.344 27.6279 18.3193C27.6463 18.2947 27.6709 18.27 27.6894 18.2454C27.7078 18.2207 27.7201 18.1899 27.7324 18.159C27.7448 18.1282 27.7571 18.0974 27.7632 18.0666C27.7694 18.0358 27.7755 18.0049 27.7755 17.9679V15.1815C27.7755 15.1507 27.7755 15.1137 27.7632 15.0829C27.7509 15.0521 27.7448 15.0212 27.7324 14.9904C27.7201 14.9596 27.7017 14.9288 27.6894 14.9041C27.6709 14.8795 27.6525 14.8548 27.6279 14.8301C27.6033 14.8055 27.5787 14.787 27.5541 14.7685C27.5295 14.75 27.4987 14.7377 27.4679 14.7192C27.4372 14.7068 27.4064 14.6945 27.3757 14.6883C27.3449 14.6822 27.3141 14.676 27.2772 14.676L27.2465 14.6699ZM9.49973 4.91121C9.49973 4.80024 9.49973 4.68928 9.51818 4.58448C9.53049 4.47351 9.54279 4.36872 9.56739 4.25775C9.58585 4.14679 9.6166 4.04199 9.64736 3.93719C9.67812 3.83239 9.71503 3.72759 9.75809 3.62896C9.80115 3.52416 9.84421 3.42552 9.89957 3.33305C9.95493 3.24058 10.0103 3.14195 10.0718 3.04948C10.1333 2.95701 10.201 2.87071 10.2687 2.7844C10.3363 2.69809 10.4101 2.61795 10.4901 2.53781C10.5701 2.45767 10.65 2.3837 10.7362 2.31589C10.8223 2.24808 10.9084 2.18026 11.0007 2.11862C11.0929 2.05697 11.1852 2.00149 11.2836 1.94601C11.3821 1.89669 11.4805 1.84737 11.5789 1.80422C11.6773 1.76107 11.7819 1.72408 11.8865 1.69326C11.991 1.66243 12.0956 1.63161 12.2063 1.61311C12.3171 1.59462 12.4216 1.57613 12.5324 1.5638C12.6431 1.55147 12.7538 1.54531 12.8584 1.54531C12.963 1.54531 13.0798 1.5453 13.1844 1.5638C13.2951 1.57613 13.3997 1.58846 13.5104 1.61311C13.6212 1.63777 13.7257 1.66243 13.8303 1.69326C13.9349 1.72408 14.0395 1.76107 14.1379 1.80422C14.2363 1.84737 14.3409 1.89052 14.4331 1.94601C14.5316 1.99532 14.6238 2.05697 14.7161 2.11862C14.8084 2.18026 14.8945 2.24808 14.9806 2.31589C15.0667 2.3837 15.1467 2.45767 15.2267 2.53781C15.3066 2.61795 15.3805 2.69809 15.4481 2.7844C15.5158 2.87071 15.5835 2.95701 15.645 3.04948C15.7065 3.14195 15.7618 3.23442 15.8172 3.33305C15.8726 3.43169 15.9156 3.53032 15.9587 3.62896C16.0017 3.72759 16.0387 3.83239 16.0694 3.93719C16.1002 4.04199 16.1309 4.14679 16.1494 4.25775C16.1678 4.36872 16.1863 4.47351 16.1986 4.58448C16.2109 4.69544 16.217 4.80641 16.217 4.91121C16.217 5.01601 16.217 5.13313 16.1986 5.23793C16.1863 5.3489 16.174 5.45369 16.1494 5.56466C16.1309 5.67562 16.1002 5.78042 16.0694 5.88522C16.0387 5.99002 16.0017 6.09482 15.9587 6.19345C15.9156 6.29209 15.8726 6.39689 15.8172 6.48936C15.7618 6.58183 15.7065 6.68046 15.645 6.77293C15.5835 6.8654 15.5158 6.95171 15.4481 7.03801C15.3805 7.12432 15.3066 7.20446 15.2267 7.2846C15.1467 7.36474 15.0667 7.43871 14.9806 7.50652C14.8945 7.57434 14.8084 7.64215 14.7161 7.70379C14.6238 7.76544 14.5316 7.82092 14.4331 7.8764C14.3347 7.93188 14.2363 7.97504 14.1379 8.01819C14.0395 8.06134 13.9349 8.09833 13.8303 8.12915C13.7257 8.15998 13.6212 8.1908 13.5104 8.20929C13.3997 8.22779 13.2951 8.24628 13.1844 8.25861C13.0737 8.27094 12.963 8.27711 12.8584 8.27711C12.7538 8.27711 12.6369 8.27711 12.5324 8.25861C12.4216 8.24628 12.3171 8.23395 12.2063 8.20929C12.0956 8.1908 11.991 8.15998 11.8865 8.12915C11.7819 8.09833 11.6773 8.06134 11.5789 8.01819C11.4743 7.97504 11.3759 7.93188 11.2836 7.8764C11.1852 7.82709 11.0929 7.76544 11.0007 7.70996C10.9084 7.65448 10.8223 7.5805 10.7362 7.51269C10.65 7.44488 10.5701 7.3709 10.4901 7.29076C10.4101 7.21062 10.3363 7.13048 10.2687 7.04418C10.201 6.95787 10.1333 6.87157 10.0718 6.7791C10.0103 6.68663 9.95493 6.59416 9.90572 6.49552C9.85651 6.39689 9.8073 6.29825 9.76424 6.19962C9.72118 6.10098 9.68427 5.99619 9.65351 5.89139C9.62276 5.78659 9.592 5.68179 9.57355 5.57082C9.55509 5.45986 9.53664 5.35506 9.52433 5.2441C9.51203 5.13313 9.50588 5.02217 9.50588 4.91737L9.49973 4.91121ZM7.72813 14.4109C7.72813 14.3246 7.72813 14.2445 7.73428 14.1582C7.73428 14.0719 7.74658 13.9917 7.75273 13.9054C7.75888 13.8191 7.77119 13.739 7.78349 13.6527C7.79579 13.5725 7.8081 13.4862 7.82655 13.4061C7.84501 13.326 7.86346 13.2397 7.88191 13.1595C7.90037 13.0794 7.92497 12.9992 7.94958 12.9191C7.97418 12.8389 7.99879 12.7588 8.02955 12.6787C8.0603 12.5985 8.09106 12.5184 8.12182 12.4444C8.15257 12.3643 8.18948 12.2903 8.22639 12.2163C8.2633 12.1423 8.30021 12.0622 8.33712 11.9882C8.37402 11.9143 8.41708 11.8403 8.46014 11.7663C8.5032 11.6923 8.54626 11.6245 8.59548 11.5505C8.64469 11.4827 8.68774 11.4088 8.74311 11.3471C8.79232 11.2793 8.84153 11.2115 8.89689 11.1498C8.95225 11.082 9.00762 11.0204 9.06298 10.9587C9.11834 10.8971 9.17986 10.8354 9.23522 10.7738C9.29058 10.7121 9.35825 10.6567 9.41976 10.6012C9.48128 10.5457 9.54279 10.4902 9.61045 10.4347C9.67812 10.3793 9.73963 10.3299 9.8073 10.2806C9.87496 10.2313 9.94263 10.182 10.0103 10.1327C10.078 10.0833 10.1518 10.0402 10.2256 9.99705C10.2994 9.95389 10.3732 9.91074 10.447 9.87375C10.5209 9.83676 10.5947 9.79361 10.6746 9.76279C10.7485 9.7258 10.8284 9.69498 10.9022 9.65799C10.9822 9.62717 11.056 9.59634 11.136 9.56552C11.216 9.5347 11.2959 9.51004 11.3759 9.48538C11.4559 9.46072 11.5358 9.43606 11.6158 9.41757C11.6958 9.39907 11.7819 9.38058 11.8619 9.36208C11.9418 9.34359 12.0279 9.33126 12.1079 9.31893C12.1879 9.3066 12.274 9.29427 12.3601 9.28811C12.4462 9.28194 12.5262 9.27578 12.6123 9.26962C12.6985 9.26962 12.7784 9.26345 12.8645 9.26345C12.9507 9.26345 13.0306 9.26345 13.1167 9.26962C13.2029 9.26962 13.2828 9.28194 13.369 9.28811C13.4551 9.29427 13.535 9.3066 13.6212 9.31893C13.7073 9.33126 13.7872 9.34359 13.8672 9.36208C13.9472 9.38058 14.0333 9.39907 14.1133 9.41757C14.1932 9.43606 14.2732 9.46072 14.3532 9.48538C14.4331 9.51004 14.5131 9.5347 14.5931 9.56552C14.673 9.59634 14.753 9.62717 14.8268 9.65799C14.9068 9.68881 14.9806 9.7258 15.0544 9.76279C15.1283 9.79978 15.2082 9.83676 15.282 9.87375C15.3559 9.91074 15.4297 9.95389 15.5035 9.99705C15.5773 10.0402 15.645 10.0833 15.7188 10.1327C15.7864 10.182 15.8603 10.2251 15.9218 10.2806C15.9833 10.3361 16.0571 10.3793 16.1186 10.4347C16.1801 10.4902 16.2478 10.5457 16.3093 10.6012C16.3708 10.6567 16.4323 10.7183 16.4939 10.7738C16.5554 10.8293 16.6107 10.8971 16.6661 10.9587C16.7215 11.0204 16.7768 11.082 16.8322 11.1498C16.8875 11.2176 16.9368 11.2793 16.986 11.3471C17.0352 11.4149 17.0844 11.4827 17.1336 11.5505C17.1828 11.6184 17.2259 11.6923 17.2689 11.7663C17.312 11.8403 17.3551 11.9143 17.392 11.9882C17.4289 12.0622 17.4719 12.1362 17.5027 12.2163C17.5396 12.2903 17.5704 12.3704 17.6073 12.4444C17.638 12.5246 17.6688 12.5985 17.6995 12.6787C17.7303 12.7588 17.7549 12.8389 17.7795 12.9191C17.8041 12.9992 17.8287 13.0794 17.8472 13.1595C17.8656 13.2397 17.8841 13.326 17.9025 13.4061C17.921 13.4862 17.9333 13.5725 17.9456 13.6527C17.9579 13.739 17.9702 13.8191 17.9763 13.9054C17.9825 13.9917 17.9886 14.0719 17.9948 14.1582C17.9948 14.2445 18.0009 14.3246 18.0009 14.4109V14.6637H7.74658V14.4109H7.72813ZM24.1216 29.4774H1.58289V18.4426H24.1216V29.4774Z" fill="#004E4E"/>
<path d="M9.35222 25.6245H11.1669V27.4431C11.1669 27.4739 11.1669 27.5109 11.173 27.5417C11.173 27.5725 11.1853 27.6033 11.2038 27.6342C11.2161 27.665 11.2284 27.6958 11.2468 27.7205C11.2653 27.7451 11.2838 27.7759 11.3084 27.7944C11.333 27.8129 11.3576 27.8376 11.3822 27.8561C11.4068 27.8746 11.4375 27.8869 11.4683 27.8992C11.499 27.9116 11.5298 27.9239 11.5606 27.9301C11.5913 27.9362 11.6282 27.9362 11.659 27.9362H14.0457C14.0765 27.9362 14.1134 27.9362 14.1441 27.9301C14.1749 27.9301 14.2057 27.9116 14.2364 27.8992C14.2672 27.8869 14.2979 27.8746 14.3225 27.8561C14.3471 27.8376 14.3779 27.8191 14.3964 27.7944C14.4148 27.7698 14.4394 27.7451 14.4579 27.7205C14.4763 27.6958 14.4886 27.665 14.5009 27.6342C14.5132 27.6033 14.5255 27.5725 14.5317 27.5417C14.5378 27.5109 14.5378 27.4739 14.5378 27.4431V25.6245H16.3525C16.3833 25.6245 16.4202 25.6245 16.4509 25.6122C16.4817 25.5998 16.5124 25.5937 16.5432 25.5813C16.5739 25.569 16.6047 25.5505 16.6293 25.5382C16.6539 25.5197 16.6847 25.5012 16.7031 25.4765C16.7277 25.4519 16.7462 25.4272 16.7646 25.4026C16.7831 25.3779 16.7954 25.3471 16.8077 25.3163C16.82 25.2854 16.8323 25.2546 16.8385 25.2238C16.8446 25.193 16.8508 25.1621 16.8508 25.1251V22.7333C16.8508 22.7024 16.8508 22.6654 16.8385 22.6346C16.8323 22.6038 16.82 22.573 16.8077 22.5422C16.7954 22.5113 16.7769 22.4805 16.7646 22.4559C16.7462 22.4312 16.7277 22.4004 16.7031 22.3819C16.6785 22.3572 16.6539 22.3387 16.6293 22.3202C16.6047 22.3017 16.5739 22.2894 16.5432 22.2771C16.5124 22.2648 16.4817 22.2524 16.4509 22.2463C16.4202 22.2401 16.3894 22.2339 16.3525 22.2339H14.5378V20.4154C14.5378 20.3845 14.5378 20.3475 14.5255 20.3167C14.5194 20.2859 14.5071 20.2551 14.4948 20.2242C14.4825 20.1934 14.464 20.1626 14.4456 20.1379C14.4271 20.1133 14.4087 20.0886 14.3841 20.064C14.3594 20.0393 14.3348 20.0208 14.3102 20.0023C14.2856 19.9838 14.2549 19.9715 14.2241 19.9592C14.1934 19.9468 14.1626 19.9345 14.1318 19.9283C14.1011 19.9222 14.0703 19.916 14.0334 19.916H11.6467C11.6159 19.916 11.579 19.916 11.5483 19.9283C11.5175 19.9407 11.4867 19.9468 11.456 19.9592C11.4252 19.9715 11.3945 19.99 11.3699 20.0023C11.3453 20.0146 11.3207 20.0393 11.2961 20.064C11.2714 20.0886 11.253 20.1133 11.2345 20.1379C11.2161 20.1626 11.2038 20.1934 11.1853 20.2242C11.173 20.2551 11.1607 20.2859 11.1546 20.3167C11.1484 20.3475 11.1423 20.3784 11.1423 20.4154V22.2339H9.32761C9.29685 22.2339 9.25994 22.2339 9.22919 22.2463C9.19843 22.2586 9.16767 22.2648 9.13692 22.2771C9.10616 22.2894 9.0754 22.3079 9.0508 22.3202C9.02619 22.3387 8.99543 22.3572 8.97698 22.3819C8.95237 22.4065 8.93392 22.4312 8.91547 22.4559C8.89701 22.4805 8.88471 22.5113 8.87241 22.5422C8.8601 22.573 8.8478 22.6038 8.84165 22.6346C8.8355 22.6654 8.82935 22.6963 8.82935 22.7333V25.1251C8.82935 25.156 8.82935 25.193 8.84165 25.2238C8.8478 25.2546 8.8601 25.2854 8.87241 25.3163C8.88471 25.3471 8.90316 25.3779 8.91547 25.4026C8.93392 25.4272 8.95237 25.4519 8.97698 25.4765C9.00159 25.5012 9.02619 25.5197 9.0508 25.5382C9.0754 25.5567 9.10616 25.569 9.13692 25.5813C9.16767 25.5937 9.19843 25.606 9.22919 25.6122C9.25994 25.6183 9.2907 25.6245 9.32761 25.6245H9.35222ZM9.85048 23.2326H11.6651C11.6959 23.2326 11.7328 23.2326 11.7636 23.2203C11.7943 23.2079 11.8251 23.2018 11.8558 23.1894C11.8866 23.1771 11.9173 23.1586 11.9419 23.1463C11.9666 23.1278 11.9973 23.1093 12.0158 23.0846C12.0342 23.06 12.0588 23.0353 12.0773 23.0107C12.0957 22.986 12.108 22.9552 12.1265 22.9244C12.1388 22.8935 12.1511 22.8627 12.1572 22.8319C12.1634 22.8011 12.1696 22.7703 12.1696 22.7333V20.9147H13.5659V22.7333C13.5659 22.7641 13.5659 22.8011 13.5782 22.8319C13.5905 22.8627 13.5967 22.8935 13.609 22.9244C13.6213 22.9552 13.6397 22.986 13.6582 23.0107C13.6766 23.0353 13.6951 23.0662 13.7197 23.0846C13.7443 23.1031 13.7689 23.1278 13.7935 23.1463C13.8181 23.1648 13.8489 23.1771 13.8796 23.1894C13.9104 23.2018 13.9412 23.2141 13.9719 23.2203C14.0027 23.2264 14.0334 23.2326 14.0703 23.2326H15.885V24.632H14.0703C14.0396 24.632 14.0027 24.632 13.9719 24.6443C13.9412 24.6566 13.9104 24.6628 13.8796 24.6751C13.8489 24.6875 13.8181 24.706 13.7935 24.7183C13.7689 24.7368 13.7382 24.7553 13.7197 24.7799C13.7012 24.8046 13.6766 24.8292 13.6582 24.8539C13.6397 24.8786 13.6274 24.9094 13.609 24.9402C13.5905 24.971 13.5844 25.0019 13.5782 25.0327C13.5721 25.0635 13.5659 25.0943 13.5659 25.1313V26.9499H12.1696V25.1313C12.1696 25.1005 12.1696 25.0635 12.1572 25.0327C12.1449 25.0019 12.1388 24.971 12.1265 24.9402C12.1142 24.9094 12.0957 24.8786 12.0773 24.8539C12.0588 24.8292 12.0404 24.7984 12.0158 24.7799C11.9912 24.7614 11.9666 24.7368 11.9419 24.7183C11.9173 24.6998 11.8866 24.6875 11.8558 24.6751C11.8251 24.6628 11.7943 24.6505 11.7636 24.6443C11.7328 24.6381 11.702 24.632 11.6651 24.632H9.85048V23.2326Z" fill="#004E4E"/>
</g>
<defs>
<clipPath id="clip0_1330_5302">
<rect width="25.4405" height="30" fill="white" transform="translate(0 0.390137)"/>
</clipPath>
</defs>
</svg>
