<svg width="26" height="25" viewBox="0 0 26 25" fill="none" xmlns="http://www.w3.org/2000/svg">
<path d="M25.1124 21.0656L24.4901 19.2812V4.93002C24.4901 4.36252 24.0395 3.90416 23.4816 3.90416H20.5256V1.14306C20.5256 0.919331 20.3485 0.739258 20.1286 0.739258H5.00532C4.78537 0.739258 4.60833 0.919331 4.60833 1.14306V3.90416H1.65235C1.09441 3.90416 0.64377 4.36252 0.64377 4.93002V19.2812L0.0268234 21.0656C0.0107291 21.1092 0.00536476 21.1529 0 21.202V22.8117C0 23.6139 0.638406 24.2578 1.42703 24.2632H23.723C24.5116 24.2632 25.1446 23.6139 25.15 22.8117V21.202C25.15 21.1583 25.1393 21.1092 25.1285 21.0656H25.1124ZM1.31436 19.756H23.8142L24.1736 20.7982H0.949561L1.309 19.756H1.31436ZM20.5256 6.22873H22.2101V17.4314H20.5256V6.22873ZM19.7316 1.54686V17.4314H5.40231V1.54686H19.7316ZM4.60833 17.4314H2.92379V6.22873H4.60833V17.4314ZM1.43775 4.93002C1.43775 4.80998 1.53432 4.71176 1.65235 4.71176H4.60833V5.42113H2.5268C2.30685 5.42113 2.12981 5.6012 2.12981 5.82493V17.8352C2.12981 18.0589 2.30685 18.239 2.5268 18.239H22.6071C22.8271 18.239 23.0041 18.0589 23.0041 17.8352V5.82493C23.0041 5.6012 22.8271 5.42113 22.6071 5.42113H20.5256V4.71176H23.4816C23.5996 4.71176 23.6961 4.80998 23.6961 4.93002V18.9484H1.43239V4.93002H1.43775ZM24.3506 22.8063C24.3506 23.161 24.0663 23.4447 23.723 23.4447H1.42703C1.07832 23.4447 0.799348 23.1555 0.799348 22.8063V21.6003H24.3506V22.8063ZM12.5535 11.5163H12.5696C15.0213 11.5054 17.0009 9.47002 16.9902 6.9763C16.9795 4.50986 15.016 2.50724 12.5911 2.47996H12.5696C10.1179 2.49087 8.13834 4.52623 8.14907 7.01995C8.1598 9.48639 10.1233 11.489 12.5482 11.5163H12.5535ZM10.0053 4.36253C10.6866 3.66952 11.6093 3.28755 12.5696 3.28755H12.5857C14.5975 3.30938 16.2123 4.98459 16.1962 7.03632C16.1748 9.06077 14.56 10.6923 12.5696 10.7087H12.5535C10.5418 10.6978 8.91623 9.03348 8.9216 6.98175C8.9216 5.99954 9.31322 5.05553 9.99991 4.36253H10.0053ZM11.4001 8.19315V9.48094C11.4001 9.70466 11.5772 9.88473 11.7971 9.88473H13.3475C13.5675 9.88473 13.7445 9.70466 13.7445 9.48094V8.19315H15.0106C15.2306 8.19315 15.4076 8.01308 15.4076 7.78935V6.21236C15.4076 5.98863 15.2306 5.80856 15.0106 5.80856H13.7445V4.52077C13.7445 4.29704 13.5675 4.11697 13.3475 4.11697H11.7971C11.5772 4.11697 11.4001 4.29704 11.4001 4.52077V5.80856H10.134C9.91408 5.80856 9.73704 5.98863 9.73704 6.21236V7.78935C9.73704 8.01308 9.91408 8.19315 10.134 8.19315H11.4001ZM10.531 6.61615H11.7971C12.0171 6.61615 12.1941 6.43608 12.1941 6.21236V4.92457H12.9505V6.21236C12.9505 6.43608 13.1276 6.61615 13.3475 6.61615H14.6136V7.38555H13.3475C13.1276 7.38555 12.9505 7.56562 12.9505 7.78935V9.07714H12.1941V7.78935C12.1941 7.56562 12.0171 7.38555 11.7971 7.38555H10.531V6.61615ZM13.6319 12.6567L12.2424 16.0672C12.1834 16.22 12.0332 16.3182 11.8722 16.3182C11.6523 16.3182 11.4752 16.1381 11.4752 15.9144C11.4752 15.8598 11.486 15.8107 11.5074 15.7616L12.8969 12.3512C12.9827 12.1438 13.2134 12.0456 13.4173 12.1329C13.6211 12.2202 13.7177 12.4549 13.6319 12.6622V12.6567ZM16.2391 14.4247C16.2391 14.5502 16.1801 14.6703 16.0836 14.7467L14.3776 16.0727C14.2005 16.2036 13.9484 16.1545 13.825 15.9744C13.707 15.7998 13.7392 15.5652 13.9001 15.4288L15.1876 14.4247L13.9001 13.4207C13.7284 13.2788 13.7016 13.0278 13.8357 12.8532C13.9698 12.684 14.2113 12.6513 14.3829 12.7768L16.0889 14.1028C16.1855 14.1792 16.2445 14.2992 16.2445 14.4247H16.2391ZM11.0031 13.4207L9.71558 14.4247L11.0031 15.4288C11.1802 15.5652 11.2123 15.8162 11.0782 15.9963C10.9441 16.1763 10.6973 16.2091 10.5203 16.0727L8.8143 14.7467C8.63726 14.6103 8.60507 14.3592 8.73919 14.1792C8.76065 14.1519 8.78748 14.1246 8.8143 14.1028L10.5203 12.7768C10.692 12.6349 10.9441 12.6677 11.0782 12.8423C11.2177 13.0169 11.1855 13.2734 11.0139 13.4098C11.0139 13.4098 11.0031 13.4152 10.9978 13.4207H11.0031Z" fill="#004E4E"/>
</svg>
