<svg width="23" height="18" viewBox="0 0 23 18" fill="none" xmlns="http://www.w3.org/2000/svg">
<path d="M2.22528 2.91492C2.25075 2.93483 2.2795 2.95011 2.31024 2.96008C2.34006 2.97517 2.37214 2.98532 2.40521 2.99012C2.43657 2.99586 2.46832 2.99921 2.50018 3.00012C2.56602 3.00076 2.63133 2.98827 2.69228 2.96337C2.75323 2.93847 2.80861 2.90166 2.85516 2.85511C2.90172 2.80855 2.93853 2.75318 2.96343 2.69222C2.98833 2.63127 3.00082 2.56597 3.00018 2.50013C3.00117 2.43505 2.98931 2.37043 2.96529 2.30994C2.93622 2.25028 2.89919 2.19484 2.85519 2.14514C2.75947 2.05594 2.63349 2.00635 2.50265 2.00635C2.37181 2.00635 2.24584 2.05594 2.15011 2.14514C2.10292 2.19224 2.06558 2.24826 2.04025 2.30994C2.01448 2.37007 2.00087 2.43471 2.00021 2.50013C2.00169 2.63354 2.05552 2.76102 2.15011 2.85511C2.17182 2.87893 2.1972 2.89912 2.22528 2.91492Z" fill="#004E4E"/>
<path d="M4.50008 3.00012C4.53365 2.99919 4.5671 2.99585 4.60018 2.99011C4.63143 2.98451 4.66169 2.9744 4.69003 2.96008C4.72237 2.95016 4.75282 2.93489 4.78012 2.91492C4.80632 2.89656 4.83135 2.87659 4.85506 2.8551C4.94832 2.76053 5.00044 2.63294 5.00009 2.50012C5.00107 2.43505 4.98921 2.37042 4.96519 2.30993C4.93612 2.25027 4.89908 2.19483 4.85508 2.14514C4.75841 2.0559 4.63167 2.00635 4.50011 2.00635C4.36855 2.00635 4.24181 2.0559 4.14514 2.14514C4.10101 2.19369 4.0655 2.24942 4.04015 2.30993C4.01438 2.37007 4.00078 2.4347 4.00011 2.50012C3.99947 2.56596 4.01197 2.63127 4.03687 2.69222C4.06177 2.75317 4.09858 2.80854 4.14514 2.8551C4.19169 2.90166 4.24707 2.93846 4.30802 2.96336C4.36897 2.98826 4.43425 3.00076 4.50008 3.00012Z" fill="#004E4E"/>
<path d="M6.49998 3.00012C6.53354 2.9992 6.56699 2.99585 6.60008 2.99012C6.63279 2.98382 6.66466 2.97374 6.69505 2.96008C6.72531 2.94901 6.7539 2.93381 6.78001 2.91492C6.80622 2.89657 6.83125 2.87659 6.85496 2.85511C6.94822 2.76053 7.00034 2.63295 6.99998 2.50013C7.00096 2.43505 6.98911 2.37043 6.96508 2.30994C6.93601 2.25028 6.89897 2.19484 6.85498 2.14514C6.75926 2.05594 6.63328 2.00635 6.50244 2.00635C6.3716 2.00635 6.24562 2.05594 6.1499 2.14514C6.10271 2.19224 6.06536 2.24826 6.04004 2.30994C6.01427 2.37007 6.00066 2.43471 6 2.50013C6.00091 2.63245 6.05388 2.7591 6.14745 2.85267C6.24102 2.94624 6.36765 2.99921 6.49998 3.00012Z" fill="#004E4E"/>
<path d="M10.0014 3H15.5014C15.5672 3.00023 15.6324 2.98747 15.6933 2.96245C15.7541 2.93743 15.8095 2.90064 15.8561 2.85418C15.9027 2.80773 15.9397 2.75253 15.9649 2.69176C15.9902 2.63098 16.0032 2.56581 16.0032 2.5C16.0032 2.43419 15.9902 2.36903 15.9649 2.30825C15.9397 2.24747 15.9027 2.19227 15.8561 2.14582C15.8095 2.09937 15.7541 2.06257 15.6933 2.03755C15.6324 2.01253 15.5672 1.99977 15.5014 2H10.0014C9.86906 2.00047 9.74234 2.05336 9.64896 2.14708C9.55558 2.24079 9.50314 2.3677 9.50314 2.5C9.50314 2.6323 9.55558 2.75921 9.64896 2.85293C9.74234 2.94664 9.86906 2.99953 10.0014 3Z" fill="#004E4E"/>
<path d="M3.50111 8.5H13.5011C13.5669 8.50023 13.6321 8.48747 13.693 8.46245C13.7539 8.43743 13.8092 8.40064 13.8558 8.35418C13.9024 8.30773 13.9394 8.25253 13.9647 8.19176C13.9899 8.13098 14.0029 8.06581 14.0029 8C14.0029 7.93419 13.9899 7.86903 13.9647 7.80825C13.9394 7.74747 13.9024 7.69227 13.8558 7.64582C13.8092 7.59937 13.7539 7.56257 13.693 7.53755C13.6321 7.51253 13.5669 7.49977 13.5011 7.5H3.50111C3.4353 7.49977 3.37009 7.51253 3.30922 7.53755C3.24835 7.56257 3.19302 7.59937 3.14641 7.64582C3.09979 7.69227 3.0628 7.74747 3.03756 7.80825C3.01232 7.86903 2.99933 7.93419 2.99933 8C2.99933 8.06581 3.01232 8.13098 3.03756 8.19176C3.0628 8.25253 3.09979 8.30773 3.14641 8.35418C3.19302 8.40064 3.24835 8.43743 3.30922 8.46245C3.37009 8.48747 3.4353 8.50023 3.50111 8.5Z" fill="#FFBD4C"/>
<path d="M3.50111 10.5H11.5011C11.5669 10.5002 11.6321 10.4875 11.693 10.4625C11.7539 10.4374 11.8092 10.4006 11.8558 10.3542C11.9024 10.3077 11.9394 10.2525 11.9647 10.1918C11.9899 10.131 12.0029 10.0658 12.0029 10C12.0029 9.93419 11.9899 9.86903 11.9647 9.80825C11.9394 9.74747 11.9024 9.69227 11.8558 9.64582C11.8092 9.59937 11.7539 9.56257 11.693 9.53755C11.6321 9.51253 11.5669 9.49977 11.5011 9.5H3.50111C3.4353 9.49977 3.37009 9.51253 3.30922 9.53755C3.24835 9.56257 3.19302 9.59937 3.14641 9.64582C3.09979 9.69227 3.0628 9.74747 3.03756 9.80825C3.01232 9.86903 2.99933 9.93419 2.99933 10C2.99933 10.0658 3.01232 10.131 3.03756 10.1918C3.0628 10.2525 3.09979 10.3077 3.14641 10.3542C3.19302 10.4006 3.24835 10.4374 3.30922 10.4625C3.37009 10.4875 3.4353 10.5002 3.50111 10.5Z" fill="#FFBD4C"/>
<path d="M10.0013 11.5H3.50131C3.36871 11.5 3.24153 11.5527 3.14776 11.6464C3.05399 11.7402 3.00131 11.8674 3.00131 12C3.00131 12.1326 3.05399 12.2598 3.14776 12.3536C3.24153 12.4473 3.36871 12.5 3.50131 12.5H10.0013C10.1339 12.5 10.2611 12.4473 10.3549 12.3536C10.4486 12.2598 10.5013 12.1326 10.5013 12C10.5013 11.8674 10.4486 11.7402 10.3549 11.6464C10.2611 11.5527 10.1339 11.5 10.0013 11.5Z" fill="#FFBD4C"/>
<path d="M10.0013 13.5H3.50131C3.36871 13.5 3.24153 13.5527 3.14776 13.6464C3.05399 13.7402 3.00131 13.8674 3.00131 14C3.00131 14.1326 3.05399 14.2598 3.14776 14.3536C3.24153 14.4473 3.36871 14.5 3.50131 14.5H10.0013C10.1339 14.5 10.2611 14.4473 10.3549 14.3536C10.4486 14.2598 10.5013 14.1326 10.5013 14C10.5013 13.8674 10.4486 13.7402 10.3549 13.6464C10.2611 13.5527 10.1339 13.5 10.0013 13.5Z" fill="#FFBD4C"/>
<path d="M22.8401 5.16113C22.8408 4.89839 22.7894 4.63811 22.6888 4.39538C22.5883 4.15265 22.4405 3.93229 22.2542 3.74707C21.8733 3.38321 21.3668 3.18017 20.8401 3.18017C20.3134 3.18017 19.8069 3.38321 19.426 3.74707L18.7188 4.4541L18.7176 4.45587L18.7166 4.45654L18 5.1731V4.50604L18.0012 4.5L18 4.49395V0.499995C18 0.367389 17.9473 0.240216 17.8535 0.14645C17.7598 0.0526845 17.6326 5.04751e-06 17.5 0H0.500001C0.367396 5.04751e-06 0.240222 0.0526845 0.146455 0.14645C0.0526878 0.240216 6.73015e-06 0.367389 0 0.499995V17.5C6.73015e-06 17.6326 0.0526878 17.7598 0.146455 17.8535C0.240222 17.9473 0.367396 18 0.500001 18H17.5C17.6326 18 17.7598 17.9473 17.8536 17.8535C17.9473 17.7598 18 17.6326 18 17.5V10.8304L20.1333 8.699L20.1338 8.69827L21.5486 7.28345L21.5535 7.2761L22.2542 6.57545C22.4405 6.39017 22.5883 6.16977 22.6889 5.927C22.7894 5.68422 22.8408 5.42391 22.8401 5.16113ZM17 0.999996V4H1V0.999996H17ZM17 17H1V5H17V6.17285L11.6465 11.5264C11.5527 11.6201 11.5 11.7473 11.5 11.8799V14C11.5 14.1326 11.5527 14.2598 11.6465 14.3535C11.7402 14.4473 11.8674 14.5 12 14.5H14.1201C14.2527 14.5 14.3799 14.4473 14.4736 14.3535L17 11.8294L17 17ZM17.1566 10.2592L17.1465 10.2666L13.9131 13.5H12.5V12.0869L17.6597 6.92749L19.073 8.34421L17.1566 10.2592ZM19.7805 7.63745L18.367 6.22046L19.0706 5.51685L20.4876 6.93043L19.7805 7.63745ZM21.5471 5.86841L21.1934 6.2221L19.7775 4.80957L20.1331 4.4541C20.3235 4.27217 20.5767 4.17065 20.8401 4.17065C21.1035 4.17065 21.3567 4.27217 21.5471 4.4541C21.64 4.54695 21.7137 4.6572 21.764 4.77853C21.8142 4.89987 21.8401 5.02992 21.8401 5.16125C21.8401 5.29259 21.8142 5.42264 21.764 5.54397C21.7137 5.66531 21.64 5.77555 21.5471 5.86841Z" fill="#004E4E"/>
</svg>
