<svg width="127" height="101" viewBox="0 0 127 101" fill="none" xmlns="http://www.w3.org/2000/svg">
<path d="M12.3725 16.2073C12.514 16.318 12.6739 16.403 12.8449 16.4584C13.0107 16.5423 13.189 16.5987 13.3729 16.6254C13.5473 16.6574 13.7238 16.676 13.901 16.6811C14.2671 16.6846 14.6302 16.6151 14.9691 16.4767C15.308 16.3382 15.616 16.1336 15.8748 15.8747C16.1337 15.6158 16.3384 15.3079 16.4768 14.969C16.6153 14.6301 16.6848 14.267 16.6812 13.9009C16.6867 13.5391 16.6207 13.1797 16.4872 12.8434C16.3256 12.5116 16.1196 12.2033 15.875 11.927C15.3427 11.4311 14.6423 11.1553 13.9147 11.1553C13.1872 11.1553 12.4867 11.4311 11.9545 11.927C11.6921 12.1889 11.4844 12.5004 11.3436 12.8434C11.2003 13.1777 11.1246 13.5371 11.121 13.9009C11.1292 14.6427 11.4285 15.3516 11.9545 15.8747C12.0752 16.0072 12.2163 16.1195 12.3725 16.2073Z" fill="white"/>
<path d="M25.0221 16.681C25.2087 16.6759 25.3947 16.6573 25.5787 16.6254C25.7524 16.5943 25.9207 16.538 26.0782 16.4584C26.2581 16.4032 26.4274 16.3184 26.5792 16.2073C26.7249 16.1052 26.8641 15.9941 26.9959 15.8747C27.5145 15.3488 27.8043 14.6394 27.8023 13.9009C27.8078 13.539 27.7418 13.1797 27.6083 12.8433C27.4466 12.5116 27.2407 12.2033 26.996 11.927C26.4585 11.4308 25.7538 11.1553 25.0222 11.1553C24.2907 11.1553 23.586 11.4308 23.0485 11.927C22.8031 12.197 22.6057 12.5069 22.4647 12.8433C22.3214 13.1777 22.2457 13.5371 22.2421 13.9009C22.2385 14.2669 22.308 14.6301 22.4465 14.969C22.5849 15.3079 22.7896 15.6158 23.0484 15.8747C23.3073 16.1336 23.6152 16.3382 23.9541 16.4767C24.2931 16.6151 24.656 16.6846 25.0221 16.681Z" fill="white"/>
<path d="M36.1429 16.6811C36.3295 16.6759 36.5155 16.6573 36.6995 16.6254C36.8814 16.5904 37.0586 16.5344 37.2275 16.4584C37.3958 16.3968 37.5548 16.3124 37.6999 16.2073C37.8457 16.1053 37.9849 15.9942 38.1167 15.8747C38.6352 15.3488 38.9251 14.6394 38.9231 13.9009C38.9285 13.5391 38.8626 13.1797 38.729 12.8434C38.5674 12.5116 38.3614 12.2034 38.1168 11.927C37.5846 11.4311 36.8841 11.1553 36.1566 11.1553C35.429 11.1553 34.7286 11.4311 34.1963 11.927C33.9339 12.1889 33.7262 12.5004 33.5854 12.8434C33.4421 13.1777 33.3664 13.5371 33.3628 13.9009C33.3678 14.6367 33.6624 15.3409 34.1827 15.8612C34.703 16.3815 35.4071 16.676 36.1429 16.6811Z" fill="white"/>
<path d="M55.611 16.681H86.1933C86.5592 16.6823 86.9218 16.6114 87.2603 16.4722C87.5987 16.3331 87.9064 16.1285 88.1656 15.8702C88.4248 15.6119 88.6305 15.305 88.7708 14.967C88.9112 14.6291 88.9834 14.2667 88.9834 13.9008C88.9834 13.5349 88.9112 13.1725 88.7708 12.8346C88.6305 12.4966 88.4248 12.1897 88.1656 11.9314C87.9064 11.6731 87.5987 11.4685 87.2603 11.3294C86.9218 11.1903 86.5592 11.1193 86.1933 11.1206H55.611C54.8754 11.1232 54.1707 11.4173 53.6515 11.9384C53.1323 12.4595 52.8407 13.1652 52.8407 13.9008C52.8407 14.6365 53.1323 15.3421 53.6515 15.8632C54.1707 16.3843 54.8754 16.6784 55.611 16.681Z" fill="white"/>
<path d="M19.468 47.2635H75.0719C75.4379 47.2648 75.8005 47.1939 76.1389 47.0547C76.4774 46.9156 76.785 46.711 77.0442 46.4527C77.3035 46.1944 77.5091 45.8875 77.6495 45.5496C77.7898 45.2116 77.862 44.8493 77.862 44.4833C77.862 44.1174 77.7898 43.7551 77.6495 43.4171C77.5091 43.0791 77.3035 42.7722 77.0442 42.5139C76.785 42.2556 76.4774 42.0511 76.1389 41.9119C75.8005 41.7728 75.4379 41.7018 75.0719 41.7031H19.468C19.102 41.7018 18.7394 41.7728 18.401 41.9119C18.0625 42.0511 17.7549 42.2556 17.4957 42.5139C17.2364 42.7722 17.0308 43.0791 16.8904 43.4171C16.7501 43.7551 16.6779 44.1174 16.6779 44.4833C16.6779 44.8493 16.7501 45.2116 16.8904 45.5496C17.0308 45.8875 17.2364 46.1944 17.4957 46.4527C17.7549 46.711 18.0625 46.9156 18.401 47.0547C18.7394 47.1939 19.102 47.2648 19.468 47.2635Z" fill="#FFBD4C"/>
<path d="M19.468 58.3836H63.9511C64.3171 58.3849 64.6797 58.314 65.0181 58.1749C65.3566 58.0357 65.6642 57.8311 65.9234 57.5728C66.1827 57.3146 66.3883 57.0076 66.5287 56.6697C66.669 56.3317 66.7413 55.9694 66.7413 55.6035C66.7413 55.2375 66.669 54.8752 66.5287 54.5372C66.3883 54.1993 66.1827 53.8923 65.9234 53.634C65.6642 53.3758 65.3566 53.1712 65.0181 53.032C64.6797 52.8929 64.3171 52.822 63.9511 52.8233H19.468C19.102 52.822 18.7394 52.8929 18.401 53.032C18.0625 53.1712 17.7549 53.3758 17.4957 53.634C17.2364 53.8923 17.0308 54.1993 16.8904 54.5372C16.7501 54.8752 16.6779 55.2375 16.6779 55.6035C16.6779 55.9694 16.7501 56.3317 16.8904 56.6697C17.0308 57.0076 17.2364 57.3146 17.4957 57.5728C17.7549 57.8311 18.0625 58.0357 18.401 58.1749C18.7394 58.314 19.102 58.3849 19.468 58.3836Z" fill="#FFBD4C"/>
<path d="M55.6106 63.9443H19.4681C18.7307 63.9443 18.0236 64.2373 17.5022 64.7586C16.9808 65.28 16.6879 65.9872 16.6879 66.7245C16.6879 67.4619 16.9808 68.1691 17.5022 68.6904C18.0236 69.2118 18.7307 69.5048 19.4681 69.5048H55.6106C56.348 69.5048 57.0552 69.2118 57.5765 68.6904C58.0979 68.1691 58.3908 67.4619 58.3908 66.7245C58.3908 65.9872 58.0979 65.28 57.5765 64.7586C57.0552 64.2373 56.348 63.9443 55.6106 63.9443Z" fill="#FFBD4C"/>
<path d="M55.6106 75.0649H19.4681C18.7307 75.0649 18.0236 75.3579 17.5022 75.8792C16.9808 76.4006 16.6879 77.1078 16.6879 77.8451C16.6879 78.5825 16.9808 79.2897 17.5022 79.8111C18.0236 80.3324 18.7307 80.6254 19.4681 80.6254H55.6106C56.348 80.6254 57.0552 80.3324 57.5765 79.8111C58.0979 79.2897 58.3908 78.5825 58.3908 77.8451C58.3908 77.1078 58.0979 76.4006 57.5765 75.8792C57.0552 75.3579 56.348 75.0649 55.6106 75.0649Z" fill="#FFBD4C"/>
<path d="M127 28.6979C127.004 27.237 126.718 25.7897 126.159 24.4401C125.6 23.0904 124.778 21.8651 123.742 20.8352C121.624 18.812 118.808 17.683 115.879 17.683C112.95 17.683 110.134 18.812 108.016 20.8352L104.084 24.7665L104.077 24.7764L104.071 24.7801L100.087 28.7645V25.0554L100.094 25.0218L100.087 24.9882V2.78017C100.087 2.04283 99.7942 1.3357 99.2728 0.814322C98.7514 0.292946 98.0443 2.80662e-05 97.3069 0H2.78021C2.04286 2.80662e-05 1.33573 0.292946 0.814348 0.814322C0.292965 1.3357 3.74223e-05 2.04283 0 2.78017V97.3069C3.74223e-05 98.0443 0.292965 98.7514 0.814348 99.2728C1.33573 99.7942 2.04286 100.087 2.78021 100.087H97.307C98.0443 100.087 98.7515 99.7942 99.2728 99.2728C99.7942 98.7514 100.087 98.0443 100.087 97.3069V60.2212L111.949 48.3699L111.952 48.3658L119.819 40.4989L119.846 40.458L123.742 36.5621C124.778 35.5319 125.6 34.3064 126.159 32.9564C126.718 31.6065 127.004 30.1591 127 28.6979ZM94.5268 5.56037V22.2416H5.56041V5.56037H94.5268ZM94.5268 94.5267H5.56041V27.802H94.5268V34.3235L64.7591 64.0912C64.2377 64.6125 63.9447 65.3195 63.9446 66.0568V77.8455C63.9446 78.5829 64.2375 79.29 64.7589 79.8114C65.2803 80.3328 65.9874 80.6257 66.7248 80.6257H78.5135C79.2508 80.6256 79.9578 80.3326 80.4791 79.8112L94.5267 65.7763L94.5268 94.5267ZM95.3973 57.045L95.3413 57.0864L77.3623 75.0653H69.505V67.208L98.1948 38.5196L106.053 46.3971L95.3973 57.045ZM109.988 42.4672L102.128 34.5882L106.04 30.6759L113.919 38.536L109.988 42.4672ZM119.811 32.6307L117.844 34.5974L109.971 26.7431L111.948 24.7665C113.007 23.755 114.415 23.1905 115.879 23.1905C117.344 23.1905 118.752 23.755 119.811 24.7665C120.327 25.2829 120.737 25.8959 121.016 26.5705C121.296 27.2452 121.44 27.9683 121.44 28.6986C121.44 29.4289 121.296 30.152 121.016 30.8267C120.737 31.5013 120.327 32.1143 119.811 32.6307Z" fill="white"/>
</svg>
