<svg width="104" height="66" viewBox="0 0 104 66" fill="none" xmlns="http://www.w3.org/2000/svg">
<path d="M103.184 33.0075C103.242 32.7208 103.242 32.4255 103.184 32.1388C103.13 31.8436 103.014 31.5629 102.845 31.3149C102.809 31.2375 102.769 31.1624 102.724 31.0898C84.646 9.33199 65.981 -1.05333 47.2842 0.210265C18.8436 2.13911 1.05343 30.1536 0.310008 31.3447C0.260261 31.4509 0.219126 31.5609 0.186998 31.6736C0.113752 31.8196 0.0563374 31.973 0.015736 32.1312C-0.00524534 32.4257 -0.00524534 32.7213 0.015736 33.0158C0.0569075 33.1772 0.115475 33.3336 0.19041 33.4823C0.221887 33.5918 0.261907 33.6985 0.310101 33.8017C1.05352 34.9939 18.8437 63.0084 47.2843 64.9371C48.302 65.0051 49.3204 65.0391 50.3396 65.0391C68.0232 65.0391 85.6319 54.6289 102.724 34.0565C102.769 33.984 102.809 33.9088 102.845 33.8314C103.014 33.5834 103.13 33.3028 103.184 33.0075ZM47.6242 60.3066C24.7861 58.7732 8.79752 37.8957 5.07614 32.5723C8.78647 27.25 24.7295 6.39205 47.597 4.84083C64.3302 3.70259 81.2201 13.0568 97.877 32.5732C81.2296 52.0801 64.3594 61.4647 47.6242 60.3066Z" fill="#004E4E"/>
<path d="M51.6086 14.3057C47.9955 14.3058 44.4637 15.3773 41.4596 17.3847C38.4555 19.392 36.1142 22.2452 34.7317 25.5832C33.3491 28.9212 32.9875 32.5943 33.6924 36.1379C34.3974 39.6815 36.1374 42.9364 38.6922 45.4912C41.2471 48.0459 44.5022 49.7856 48.0458 50.4904C51.5894 51.1951 55.2625 50.8333 58.6004 49.4505C61.9384 48.0678 64.7914 45.7262 66.7986 42.7221C68.8058 39.7179 69.877 36.1859 69.8769 32.5729C69.8712 27.7297 67.9446 23.0865 64.5198 19.662C61.0951 16.2374 56.4518 14.3111 51.6086 14.3057ZM51.6086 46.1994C48.9137 46.1993 46.2793 45.4 44.0386 43.9028C41.7979 42.4055 40.0516 40.2774 39.0203 37.7876C37.9891 35.2978 37.7193 32.5582 38.2451 29.915C38.7708 27.2719 40.0686 24.8441 41.9741 22.9385C43.8797 21.0329 46.3076 19.7352 48.9507 19.2094C51.5938 18.6836 54.3335 18.9534 56.8233 19.9847C59.3131 21.0159 61.4412 22.7623 62.9384 25.003C64.4357 27.2437 65.2349 29.878 65.235 32.5729C65.2309 36.1856 63.794 39.6492 61.2394 42.2037C58.6848 44.7583 55.2213 46.1953 51.6086 46.1994Z" fill="#004E4E"/>
</svg>
