<svg width="21" height="18" viewBox="0 0 21 18" fill="none" xmlns="http://www.w3.org/2000/svg">
<path d="M3.75 18H13.5C15.57 18 17.25 16.32 17.25 14.25V7.5C17.25 5.43 15.57 3.75 13.5 3.75H3.75C1.68 3.75 0 5.43 0 7.5V14.25C0 16.32 1.68 18 3.75 18ZM1.5 7.5C1.5 6.2625 2.5125 5.25 3.75 5.25H13.5C14.7375 5.25 15.75 6.2625 15.75 7.5V14.25C15.75 15.4875 14.7375 16.5 13.5 16.5H3.75C2.5125 16.5 1.5 15.4875 1.5 14.25V7.5Z" fill="#004E4E"/>
<path d="M17.25 0H7.50001C6.58501 0 5.70751 0.33 5.01751 0.9375C4.71001 1.215 4.68001 1.6875 4.95001 1.995C5.22001 2.3025 5.70001 2.3325 6.00751 2.0625C6.42001 1.7025 6.95251 1.5 7.50001 1.5H17.25C18.4875 1.5 19.5 2.5125 19.5 3.75V10.5C19.5 11.0475 19.2975 11.58 18.9375 11.985C18.66 12.2925 18.69 12.7725 19.005 13.0425C19.1475 13.17 19.3275 13.23 19.5 13.23C19.71 13.23 19.9125 13.1475 20.0625 12.975C20.67 12.2925 21 11.415 21 10.5V3.75C21 1.68 19.32 0 17.25 0Z" fill="#004E4E"/>
<path d="M7.53744 14.25C7.80744 14.25 8.07744 14.175 8.31744 14.0325L11.1974 12.3C11.6924 12.0075 11.9999 11.46 11.9999 10.875C11.9999 10.29 11.6924 9.7425 11.2049 9.45L8.32494 7.7175C8.08494 7.575 7.81494 7.5 7.53744 7.5C6.68994 7.5 5.99994 8.2125 5.99994 9.0825V12.675C5.99994 13.545 6.68994 14.25 7.53744 14.25ZM7.49994 9.0825C7.49994 9.03 7.52994 9.0075 7.54494 9.0075L10.4324 10.74C10.4699 10.7625 10.4999 10.815 10.4999 10.875C10.4999 10.935 10.4699 10.995 10.4324 11.0175L7.53744 12.75C7.52994 12.75 7.49994 12.7275 7.49994 12.675V9.0825Z" fill="#FFBD4C"/>
</svg>
