<svg width="24" height="18" viewBox="0 0 24 18" fill="none" xmlns="http://www.w3.org/2000/svg">
<path d="M10.7204 11.5739C10.5966 11.4501 10.438 11.3745 10.1905 11.3812C9.9934 11.399 9.81628 11.5027 9.70438 11.6635C9.2501 12.3172 8.96923 12.8507 8.7973 13.2428C8.25039 13.0412 7.32182 12.5906 6.35916 11.648C5.4091 10.6786 4.95705 9.74859 4.75473 9.20019C5.1475 9.02826 5.68108 8.74739 6.33323 8.29311C6.49626 8.18047 6.59927 8.00113 6.61558 7.80771C6.63336 7.6091 6.56296 7.41642 6.4229 7.27784L2.89019 3.74365C2.64044 3.49316 2.20024 3.49613 1.95643 3.73772C1.94531 3.74883 0.832217 4.83451 0.183035 6.32185C-0.907088 8.81483 3.19329 13.1272 4.02626 13.9661C4.03144 13.9712 4.03737 13.9764 4.04256 13.9816C4.75103 14.6834 8.2326 17.9997 10.7285 17.9997C11.0731 17.9997 11.3918 17.9367 11.6742 17.813C13.0288 17.2209 14.0567 16.2404 14.2568 16.0425C14.511 15.7832 14.5095 15.3637 14.2524 15.1058L10.7204 11.5739ZM11.3785 17.1349C11.1895 17.2172 10.9716 17.2594 10.7293 17.2594C8.46086 17.2594 4.94593 13.8341 4.55242 13.4443C4.5502 13.4421 4.54797 13.4399 4.54501 13.4377C2.82349 11.7013 0.119302 8.32053 0.862602 6.61976C1.36802 5.46294 2.20691 4.54623 2.42108 4.32317L5.83448 7.73657C5.03412 8.28348 4.44941 8.5347 4.1678 8.63697C3.98476 8.70367 3.88471 8.90005 3.93733 9.08681C4.07665 9.57443 4.53982 10.8498 5.83522 12.1712C7.14767 13.4577 8.42232 13.9201 8.90921 14.0594C9.0967 14.1106 9.29308 14.012 9.35904 13.829C9.46131 13.5473 9.71253 12.9626 10.2602 12.1623L13.6743 15.5757C13.4068 15.8336 12.5175 16.6369 11.3785 17.1349Z" fill="#FFBD4C"/>
<path d="M21.7157 0H6.43919C5.46023 0 4.66357 0.796657 4.66357 1.77562V4.47017L5.40465 5.21125V3.46675L13.8981 8.13628C13.953 8.16666 14.0145 8.18222 14.076 8.18222C14.1375 8.18222 14.199 8.16666 14.2546 8.13628L22.7488 3.46675V12.8384C22.7488 13.409 22.2849 13.8729 21.7143 13.8729H14.0671L14.7778 14.5836C14.7874 14.5933 14.7933 14.6044 14.8022 14.614H21.7157C22.6947 14.614 23.4914 13.8174 23.4914 12.8384V1.77562C23.4914 0.797398 22.6947 0 21.7157 0ZM22.7503 2.62193L14.0775 7.38927L5.40539 2.62193V1.77562C5.40539 1.20499 5.86931 0.741076 6.43993 0.741076H21.7165C22.2871 0.741076 22.751 1.20499 22.751 1.77562L22.7503 2.62193Z" fill="#004E4E"/>
</svg>
