<svg width="73" height="85" viewBox="0 0 73 85" fill="none" xmlns="http://www.w3.org/2000/svg">
<path d="M43.6411 59.11C42.7817 59.11 42.0786 59.8131 42.0786 60.6725V70.7035C42.0786 73.016 40.2036 74.891 37.8911 74.891H17.9531C17.9531 74.891 17.875 74.9066 17.8281 74.9223C17.75 74.9223 17.6718 74.9535 17.5937 74.9691C17.4687 75.0004 17.3437 75.0316 17.2343 75.0941C17.2031 75.0941 17.1875 75.0941 17.1562 75.1254L8.875 80.0629V76.4691C8.875 75.6097 8.17188 74.9066 7.3125 74.9066C5 74.9066 3.125 73.0316 3.125 70.7191V52.1881C3.125 49.8756 5 47.985 7.3125 47.985H18.8905C19.7499 47.985 20.453 47.2819 20.453 46.4225C20.453 45.5631 19.7499 44.86 18.8905 44.86H7.3125C3.2813 44.86 0 48.1412 0 52.1881V70.7191C0 74.2191 2.4688 77.141 5.75 77.8597V82.8285C5.75 83.391 6.04688 83.9066 6.54688 84.1879C6.78126 84.3285 7.04688 84.391 7.3125 84.391C7.57812 84.391 7.85938 84.3129 8.10938 84.1723L18.4064 78.0473H37.9064C41.9376 78.0473 45.2189 74.7661 45.2189 70.7348V60.7038C45.2189 59.8444 44.5158 59.1413 43.6564 59.1413L43.6411 59.11Z" fill="black"/>
<path d="M23.1411 59.297C22.2817 59.297 21.5786 60.0001 21.5786 60.8595C21.5786 61.7189 22.2817 62.422 23.1411 62.422C24.0005 62.422 24.7036 61.7189 24.7036 60.8595C24.7036 60.0001 24.0005 59.297 23.1411 59.297Z" fill="black"/>
<path d="M15.9531 59.297C15.0937 59.297 14.3906 60.0001 14.3906 60.8595C14.3906 61.7189 15.0937 62.422 15.9531 62.422C16.8125 62.422 17.5156 61.7189 17.5156 60.8595C17.5156 60.0001 16.8125 59.297 15.9531 59.297Z" fill="black"/>
<path d="M31.9221 60.86C31.9221 60.0006 31.219 59.2975 30.3596 59.2975C29.5002 59.2975 28.7971 60.0006 28.7971 60.86C28.7971 61.7194 29.5002 62.4225 30.3596 62.4225C31.219 62.4225 31.9221 61.7194 31.9221 60.86Z" fill="black"/>
<path d="M65.6091 21.813H48.9211C48.0617 21.813 47.3586 22.5161 47.3586 23.3755C47.3586 24.2349 48.0617 24.938 48.9211 24.938H65.6091C67.9216 24.938 69.7966 26.813 69.7966 29.1255V47.6725C69.7966 49.9537 67.9528 51.8444 65.6716 51.8756C65.4528 51.8756 65.2341 51.9225 65.0466 52.0006C65.0153 52.0006 64.9997 52.0475 64.9684 52.0631C64.8278 52.1412 64.6716 52.2193 64.5622 52.3443C64.4841 52.4225 64.4372 52.5318 64.3747 52.6256C64.3278 52.7037 64.2653 52.7662 64.2341 52.8443C64.1716 53.0162 64.1403 53.1881 64.1247 53.3756V53.4381V53.4537V57.0162L55.8435 52.0787C55.8435 52.0787 55.7654 52.0631 55.7341 52.0318C55.656 51.985 55.5779 51.9693 55.4841 51.9381C55.3591 51.9068 55.2497 51.8756 55.1247 51.86C55.0935 51.86 55.0622 51.8443 55.0466 51.8443H35.0466C32.7341 51.8443 30.8435 49.9537 30.8435 47.6412V46.2662C30.8435 45.4069 30.1404 44.7037 29.281 44.7037C28.4216 44.7037 27.7185 45.4069 27.7185 46.2662V47.6412C27.7185 51.6881 30.9997 54.9693 35.0466 54.9693H54.6246L64.8906 61.0943C65.1406 61.235 65.4062 61.3131 65.6875 61.3131C65.9687 61.3131 66.2187 61.2506 66.4531 61.11C66.9375 60.8287 67.25 60.3131 67.25 59.7506V54.7818C70.5 54.0318 72.9531 51.1099 72.9531 47.6412V29.0942C72.9531 25.063 69.6719 21.7817 65.6406 21.7817L65.6091 21.813Z" fill="black"/>
<path d="M51.906 38.407C51.906 37.5476 51.2029 36.8445 50.3435 36.8445C49.4841 36.8445 48.781 37.5476 48.781 38.407C48.781 39.2664 49.4841 39.9695 50.3435 39.9695C51.2029 39.9695 51.906 39.2664 51.906 38.407Z" fill="black"/>
<path d="M43.125 36.844C42.2656 36.844 41.5625 37.5471 41.5625 38.4065C41.5625 39.2659 42.2656 39.969 43.125 39.969C43.9844 39.969 44.6875 39.2659 44.6875 38.4065C44.6875 37.5471 43.9844 36.844 43.125 36.844Z" fill="black"/>
<path d="M59.094 38.407C59.094 37.5476 58.3909 36.8445 57.5315 36.8445C56.6721 36.8445 55.969 37.5476 55.969 38.407C55.969 39.2664 56.6721 39.9695 57.5315 39.9695C58.3909 39.9695 59.094 39.2664 59.094 38.407Z" fill="black"/>
<path d="M23.203 42.094C34.812 42.094 44.25 32.6565 44.25 21.047C44.25 9.4375 34.8125 0 23.203 0C11.5935 0 2.15601 9.4375 2.15601 21.047C2.15601 32.6565 11.5935 42.094 23.203 42.094ZM23.203 3.125C33.078 3.125 41.125 11.1719 41.125 21.047C41.125 30.9221 33.0938 38.969 23.203 38.969C13.3122 38.969 5.281 30.9378 5.281 21.047C5.281 11.1562 13.3122 3.125 23.203 3.125Z" fill="black"/>
<path d="M15.5782 23.063L14.8907 29.7349C14.8282 30.2818 15.0782 30.8287 15.5313 31.1568C15.9844 31.4849 16.5782 31.5474 17.0782 31.313L23.2032 28.5942L29.3282 31.313C29.5313 31.4068 29.7501 31.4536 29.9688 31.4536C30.2969 31.4536 30.6094 31.3599 30.8907 31.1568C31.3438 30.8286 31.5782 30.2818 31.5313 29.7349L30.8438 23.063L35.3282 18.0786C35.7032 17.6567 35.8282 17.0786 35.6563 16.5474C35.4844 16.0162 35.0469 15.6255 34.5001 15.5005L27.9532 14.0943L24.5938 8.29736C24.0313 7.32861 22.4532 7.32861 21.8907 8.29736L18.5313 14.0943L11.9844 15.5005C11.4375 15.6098 11 16.0161 10.8282 16.5474C10.6564 17.0786 10.7814 17.6568 11.1563 18.0786L15.6407 23.063L15.5782 23.063ZM19.8282 17.0161C20.2657 16.9223 20.625 16.6567 20.8594 16.2661L23.2188 12.2036L25.5782 16.2661C25.7969 16.6411 26.1719 16.9223 26.6094 17.0161L31.2032 18.0005L28.0626 21.5005C27.7657 21.8286 27.6251 22.2661 27.6719 22.7036L28.1563 27.3755L23.8594 25.4693C23.6563 25.3755 23.4375 25.3286 23.2188 25.3286C23.0001 25.3286 22.7813 25.3755 22.5782 25.4693L18.2813 27.3755L18.7657 22.7036C18.8125 22.2661 18.6719 21.8286 18.375 21.5005L15.2344 18.0005L19.8282 17.0161Z" fill="#FFBD4C"/>
</svg>
