<svg width="60" height="61" viewBox="0 0 60 61" fill="none" xmlns="http://www.w3.org/2000/svg">
<path fill-rule="evenodd" clip-rule="evenodd" d="M26.011 28.9893H19V26.9893H26.547L28.5 19.6993L30.432 20.2173L28.618 26.9893H33.794L35.262 21.5113L37.194 22.0293L35.865 26.9893H41V28.9893H35.329L33.989 33.9893H41V35.9893H33.453L31.5 43.2793L29.568 42.7613L31.382 35.9893H26.206L24.738 41.4673L22.806 40.9493L24.135 35.9893H19V33.9893H24.671L26.011 28.9893ZM33.258 28.9893H28.082L26.742 33.9893H31.918L33.258 28.9893ZM9.396 12.0373L8.719 12.7733L7.247 11.4183L7.925 10.6833C13.409 4.72426 21.272 0.989258 30 0.989258C46.557 0.989258 60 14.4323 60 30.9893C60 47.5463 46.557 60.9893 30 60.9893C13.443 60.9893 0 47.5463 0 30.9893C0 26.4933 0.991 22.2263 2.767 18.3963L3.188 17.4893L5.002 18.3303L4.582 19.2383C2.925 22.8123 2 26.7933 2 30.9893C2 46.4433 14.546 58.9893 30 58.9893C45.454 58.9893 58 46.4433 58 30.9893C58 15.5353 45.454 2.98926 30 2.98926C21.853 2.98926 14.515 6.47626 9.396 12.0373ZM6.393 15.9353L5.854 16.7773L4.169 15.7003L4.708 14.8573C4.913 14.5363 5.124 14.2193 5.342 13.9063L5.911 13.0853L7.555 14.2263L6.984 15.0473C6.782 15.3393 6.584 15.6353 6.393 15.9353ZM51.253 36.6893L51.512 35.7233L53.444 36.2403L53.185 37.2063C53.092 37.5563 52.99 37.9033 52.881 38.2473L52.578 39.2003L50.672 38.5953L50.975 37.6423C51.075 37.3273 51.168 37.0093 51.253 36.6893ZM49.509 41.1603L49.973 40.2743L51.745 41.2003L51.282 42.0873C47.273 49.7533 39.243 54.9893 30 54.9893C16.754 54.9893 6 44.2353 6 30.9893C6 17.7433 16.754 6.98926 30 6.98926C43.246 6.98926 54 17.7433 54 30.9893C54 31.6993 53.969 32.4023 53.909 33.0963L53.822 34.0923L51.829 33.9193L51.916 32.9223C51.972 32.2853 52 31.6403 52 30.9893C52 18.8473 42.142 8.98926 30 8.98926C17.858 8.98926 8 18.8473 8 30.9893C8 43.1313 17.858 52.9893 30 52.9893C38.474 52.9893 45.835 48.1883 49.509 41.1603Z" fill="#004E4E"/>
</svg>
