<svg width="38" height="38" viewBox="0 0 38 38" fill="none" xmlns="http://www.w3.org/2000/svg">
<path d="M0.561126 14.3588H0.581463C0.731492 14.3561 0.874391 14.2943 0.979063 14.1868C1.08374 14.0793 1.14171 13.9348 1.14037 13.7847C1.13903 13.6347 1.07848 13.4912 0.971905 13.3856C0.865328 13.28 0.721347 13.2207 0.571294 13.2207C0.421241 13.2207 0.27726 13.28 0.170684 13.3856C0.064107 13.4912 0.00356061 13.6347 0.00222001 13.7847C0.000879405 13.9348 0.0588531 14.0793 0.163525 14.1868C0.268197 14.2943 0.411097 14.3561 0.561126 14.3588Z" fill="white"/>
<path d="M1.36814 15.6345C1.33995 15.5305 1.28324 15.4365 1.20443 15.3631C1.12562 15.2896 1.02785 15.2397 0.922156 15.2189C0.816461 15.1981 0.707055 15.2072 0.606294 15.2453C0.505533 15.2834 0.417431 15.3489 0.351939 15.4345C0.286446 15.52 0.246172 15.6221 0.235665 15.7293C0.225158 15.8366 0.244836 15.9446 0.292478 16.0412C0.34012 16.1378 0.413826 16.2192 0.505274 16.2761C0.596721 16.333 0.702267 16.3633 0.809989 16.3634C0.859753 16.3624 0.909231 16.3556 0.957438 16.3432C1.03117 16.324 1.10035 16.2904 1.161 16.2443C1.22164 16.1982 1.27254 16.1405 1.31074 16.0746C1.34894 16.0087 1.37368 15.9358 1.38353 15.8603C1.39339 15.7847 1.38816 15.708 1.36814 15.6345Z" fill="white"/>
<path d="M3.22819 9.08315C3.34022 9.08347 3.44992 9.05124 3.54398 8.99038C3.63804 8.92953 3.7124 8.84266 3.75802 8.74035C3.80364 8.63803 3.81857 8.52467 3.80098 8.41403C3.78339 8.30339 3.73405 8.20024 3.65895 8.11712C3.60833 8.06061 3.54705 8.01466 3.47863 7.98188C3.41021 7.9491 3.336 7.93015 3.26024 7.92611C3.18448 7.92207 3.10867 7.93302 3.03715 7.95833C2.96564 7.98364 2.89982 8.02282 2.84347 8.07362V8.07079C2.75596 8.14896 2.69423 8.25184 2.66642 8.36583C2.63861 8.47983 2.64604 8.59957 2.68773 8.70926C2.72941 8.81894 2.80338 8.9134 2.89988 8.98016C2.99638 9.04691 3.11085 9.08282 3.22819 9.08315Z" fill="white"/>
<path d="M1.59095 18.2233C1.69249 18.2226 1.79213 18.1957 1.8802 18.1452C2.00113 18.0749 2.0924 17.9631 2.13701 17.8305C2.18162 17.6979 2.17654 17.5537 2.1227 17.4246C2.06887 17.2955 1.96995 17.1903 1.84437 17.1288C1.71879 17.0672 1.57511 17.0533 1.44007 17.0898C1.30503 17.1262 1.18785 17.2105 1.11033 17.3269C1.03282 17.4434 1.00026 17.584 1.01872 17.7227C1.03717 17.8613 1.10539 17.9885 1.21066 18.0806C1.31593 18.1727 1.45108 18.2234 1.59095 18.2233Z" fill="white"/>
<path d="M2.40367 18.8393C2.31905 18.9185 2.26017 19.0213 2.23465 19.1343C2.20914 19.2474 2.21817 19.3655 2.26057 19.4733C2.30298 19.5812 2.3768 19.6738 2.47247 19.7392C2.56815 19.8046 2.68126 19.8398 2.79715 19.8401C2.94315 19.8415 3.08407 19.7866 3.19062 19.6867C3.24653 19.6351 3.29171 19.573 3.32357 19.5039C3.35542 19.4348 3.37332 19.3601 3.37625 19.2841C3.37918 19.2081 3.36708 19.1322 3.34063 19.0609C3.31419 18.9895 3.27393 18.9241 3.22216 18.8683C3.17038 18.8126 3.10811 18.7676 3.03892 18.736C2.96973 18.7043 2.89497 18.6867 2.81894 18.684C2.7429 18.6813 2.66708 18.6936 2.59582 18.7203C2.52456 18.7469 2.45927 18.7874 2.40367 18.8393Z" fill="white"/>
<path d="M10.6067 6.0779C10.627 6.0779 10.6442 6.07507 10.6646 6.07507C10.8149 6.06016 10.9535 5.98709 11.0507 5.87145C11.1479 5.75581 11.1961 5.60676 11.185 5.45609C11.1738 5.30542 11.1042 5.16507 10.9911 5.06499C10.8779 4.9649 10.7301 4.913 10.5792 4.92037C10.4283 4.92773 10.2863 4.99377 10.1834 5.1044C10.0805 5.21503 10.0249 5.36149 10.0285 5.51253C10.0321 5.66356 10.0945 5.80722 10.2026 5.91284C10.3106 6.01847 10.4556 6.0777 10.6067 6.0779Z" fill="white"/>
<path d="M0.763636 12.3458C0.825726 12.3685 0.891292 12.3803 0.957407 12.3806C1.1034 12.3817 1.24451 12.328 1.35279 12.23C1.46107 12.1321 1.52864 11.9971 1.54214 11.8517C1.55563 11.7063 1.51406 11.5612 1.42566 11.445C1.33725 11.3288 1.20845 11.25 1.06474 11.2242C0.92103 11.1985 0.772883 11.2276 0.649614 11.3058C0.526345 11.3841 0.436937 11.5057 0.39908 11.6467C0.361224 11.7877 0.377679 11.9378 0.445188 12.0673C0.512698 12.1967 0.626343 12.2961 0.763636 12.3458Z" fill="white"/>
<path d="M1.55004 10.483C1.61231 10.5269 1.68265 10.558 1.757 10.5747C1.83135 10.5913 1.90825 10.5931 1.98329 10.5799C2.05834 10.5668 2.13004 10.5389 2.19429 10.498C2.25854 10.457 2.31406 10.4038 2.35768 10.3413C2.40129 10.2788 2.43214 10.2084 2.44845 10.1339C2.46476 10.0595 2.4662 9.9826 2.45271 9.90762C2.43921 9.83263 2.41103 9.76105 2.3698 9.69699C2.32856 9.63292 2.27508 9.57764 2.21241 9.5343C2.0866 9.44704 1.93132 9.41321 1.7806 9.44024C1.62989 9.46726 1.49604 9.55294 1.40838 9.67848C1.32072 9.80403 1.28641 9.9592 1.31297 10.11C1.33952 10.2608 1.42477 10.3949 1.55004 10.483Z" fill="white"/>
<path d="M8.611 6.40461C8.6559 6.40436 8.7006 6.39853 8.74406 6.38724C8.8851 6.35157 9.00719 6.26336 9.08535 6.14065C9.16351 6.01795 9.19184 5.87001 9.16454 5.72711C9.13724 5.58421 9.05637 5.45714 8.93848 5.37188C8.82059 5.28663 8.67459 5.24964 8.53032 5.26848C8.38606 5.28731 8.25445 5.36055 8.1624 5.47321C8.07035 5.58588 8.02482 5.72945 8.03513 5.87457C8.04543 6.0197 8.11079 6.1554 8.21784 6.25392C8.32488 6.35245 8.46553 6.40635 8.611 6.40461Z" fill="white"/>
<path d="M9.71289 23.586C9.75213 23.5925 9.79177 23.5964 9.83153 23.5975C9.97916 23.5966 10.1208 23.539 10.2272 23.4367C10.3336 23.3343 10.3967 23.1951 10.4034 23.0476C10.4101 22.9001 10.3599 22.7557 10.2632 22.6441C10.1665 22.5326 10.0307 22.4624 9.88375 22.448C9.73682 22.4337 9.58999 22.4763 9.47357 22.5671C9.35715 22.6579 9.28002 22.7899 9.2581 22.9359C9.23618 23.0819 9.27114 23.2307 9.35577 23.3517C9.44039 23.4727 9.56823 23.5565 9.71289 23.586Z" fill="white"/>
<path d="M11.2574 23.262C11.2454 23.4149 11.2943 23.5663 11.3935 23.6834C11.4926 23.8004 11.6339 23.8735 11.7867 23.8868V23.8837C11.803 23.8863 11.8194 23.8873 11.8359 23.8868C11.9132 23.8865 11.9896 23.8706 12.0606 23.8401C12.1316 23.8095 12.1956 23.7649 12.2489 23.7089C12.0002 23.4199 11.7615 23.1224 11.5354 22.8147C11.457 22.8619 11.3909 22.9271 11.3426 23.0049C11.2942 23.0826 11.265 23.1707 11.2574 23.262Z" fill="white"/>
<path d="M3.96293 21.0722C4.06291 21.145 4.18328 21.1845 4.30697 21.1851C4.44406 21.1849 4.57657 21.1358 4.68075 21.0467C4.78494 20.9576 4.85398 20.8343 4.8755 20.6989C4.89703 20.5635 4.86963 20.4249 4.79822 20.3078C4.72681 20.1908 4.61605 20.1031 4.48581 20.0603C4.35556 20.0175 4.21434 20.0225 4.08745 20.0744C3.96057 20.1263 3.85631 20.2217 3.79338 20.3435C3.73045 20.4653 3.71294 20.6055 3.74401 20.7391C3.77508 20.8726 3.85269 20.9907 3.96293 21.0722Z" fill="white"/>
<path d="M7.69117 23.0219C7.75243 23.0437 7.81708 23.0545 7.88211 23.0538C8.02633 23.0533 8.16511 22.9987 8.27097 22.9007C8.37683 22.8028 8.44206 22.6687 8.45375 22.5249C8.46544 22.3812 8.42273 22.2383 8.33407 22.1246C8.24542 22.0108 8.11729 21.9345 7.97504 21.9107C7.8328 21.8869 7.68681 21.9174 7.56599 21.9962C7.44516 22.0749 7.3583 22.1961 7.3226 22.3359C7.2869 22.4756 7.30497 22.6236 7.37322 22.7507C7.44148 22.8777 7.55495 22.9745 7.69117 23.0219Z" fill="white"/>
<path d="M4.86193 7.88859C4.9893 7.8881 5.11293 7.8455 5.21356 7.76742C5.31419 7.68934 5.38617 7.58017 5.41829 7.45692C5.4504 7.33366 5.44085 7.20324 5.39112 7.08598C5.34139 6.96872 5.25427 6.8712 5.14334 6.80862C5.0324 6.74604 4.90388 6.7219 4.7778 6.73997C4.65172 6.75804 4.53516 6.81731 4.44627 6.90854C4.35738 6.99976 4.30117 7.11783 4.28638 7.24434C4.27159 7.37085 4.29905 7.49869 4.3645 7.60796C4.41579 7.69401 4.48867 7.76517 4.57591 7.81439C4.66316 7.86361 4.76175 7.88919 4.86193 7.88859Z" fill="white"/>
<path d="M6.67881 7.00346C6.75103 7.00288 6.82253 6.98915 6.88982 6.96293C6.96047 6.9352 7.02497 6.89383 7.07964 6.84117C7.1343 6.78851 7.17806 6.72561 7.20841 6.65604C7.23877 6.58647 7.25512 6.51161 7.25654 6.43572C7.25796 6.35983 7.24442 6.28441 7.21669 6.21375C7.18896 6.1431 7.14759 6.0786 7.09494 6.02393C7.04228 5.96926 6.97937 5.92551 6.9098 5.89515C6.84024 5.8648 6.76537 5.84845 6.68948 5.84703C6.6136 5.8456 6.53817 5.85914 6.46752 5.88687C6.34219 5.93616 6.238 6.02764 6.1729 6.14552C6.1078 6.26341 6.08588 6.40032 6.11092 6.53264C6.13596 6.66496 6.20639 6.7844 6.31006 6.87035C6.41373 6.9563 6.54415 7.00338 6.67881 7.00346Z" fill="white"/>
<path d="M5.75894 22.189C5.82636 22.224 5.9 22.2453 5.97566 22.2518C6.05132 22.2583 6.12751 22.2498 6.19989 22.2268C6.27228 22.2039 6.33942 22.1669 6.39751 22.118C6.45559 22.069 6.50347 22.0092 6.53841 21.9417C6.57335 21.8743 6.59467 21.8007 6.60116 21.725C6.60764 21.6494 6.59916 21.5732 6.57619 21.5008C6.55323 21.4284 6.51623 21.3613 6.46732 21.3032C6.4184 21.2451 6.35853 21.1972 6.29111 21.1623C6.15495 21.0917 5.99633 21.0781 5.85015 21.1245C5.70397 21.1709 5.5822 21.2734 5.51164 21.4096C5.44107 21.5457 5.42748 21.7044 5.47385 21.8505C5.52023 21.9967 5.62278 22.1185 5.75894 22.189Z" fill="white"/>
<path d="M13.0408 22.8705C13.0714 22.9046 13.105 22.9358 13.1372 22.9686C13.6484 23.5626 14.2096 24.1117 14.8146 24.6099L16.0236 24.0873C15.8471 23.9561 15.6751 23.8192 15.506 23.6791C15.6335 23.6201 15.7506 23.5407 15.8527 23.4441C16.5939 22.7256 16.5524 21.7194 16.516 20.8316C16.4767 19.8752 16.4787 19.2707 16.9942 18.9106C17.6563 18.455 18.1312 17.7751 18.3308 16.9966C18.4088 16.5743 18.404 16.1408 18.3167 15.7204C18.2388 15.4202 18.2388 15.1052 18.3167 14.805C18.3662 14.7046 18.4246 14.6087 18.4912 14.5186C18.6222 14.3426 18.7294 14.15 18.8099 13.9458C19.0686 13.2293 18.781 12.4366 18.0591 11.8767C17.9246 11.7651 17.8269 11.6154 17.7788 11.4473C17.7307 11.2793 17.7345 11.1006 17.7896 10.9347L17.8006 10.8992C17.9462 10.546 17.9655 10.1533 17.8551 9.78745C17.4139 8.62539 16.5377 8.04732 15.4197 8.16087C15.244 7.99116 15.0959 7.79508 14.9807 7.57969C14.7136 7.15495 14.3495 6.57916 13.768 6.28017C15.0536 4.69285 16.7085 3.44471 18.5881 2.64493C18.8389 3.90441 20.0428 3.92244 20.7253 3.93051C21.0459 3.90613 21.368 3.94835 21.6715 4.05451C21.9684 4.21876 22.0274 4.43033 22.1226 4.85502C22.254 5.441 22.4511 6.32088 23.8646 6.49573C23.9054 6.59043 23.941 6.68732 23.9711 6.78596C24.0501 7.09445 24.1986 7.38078 24.4052 7.62304C24.973 8.20633 25.8289 8.17046 26.4413 7.94251C26.7251 7.82927 26.999 7.6926 27.2601 7.53392C27.4392 7.42658 27.6242 7.32949 27.8143 7.24312C27.9389 7.17877 28.0752 7.14039 28.2151 7.13032C28.3549 7.12024 28.4953 7.13868 28.6278 7.18451C28.6453 7.28253 28.6577 7.38138 28.6651 7.48067C28.665 7.87406 28.7888 8.2575 29.0188 8.57664C29.275 8.83055 29.5945 9.01132 29.9441 9.1002C30.1339 9.14971 30.313 9.23373 30.4723 9.34806C30.6131 9.58636 30.6985 9.8533 30.722 10.1291C30.7847 10.7982 31.0529 11.4315 31.4898 11.9422C31.8367 12.2967 32.3096 12.5 32.8055 12.5077C33.1619 12.5121 33.5069 12.3828 33.7727 12.1453C33.9026 12.0231 34.0173 11.8857 34.1145 11.736C34.1627 11.6562 34.2224 11.5839 34.2916 11.5214C34.473 11.5785 34.6432 11.6663 34.7949 11.7811C35.0733 11.9845 35.3887 12.1315 35.7235 12.2139C36.0797 14.5414 35.7677 16.9223 34.8237 19.0794C35.1858 19.2127 35.5409 19.3643 35.8876 19.5338C36.8578 17.3167 37.2187 14.8809 36.933 12.4778C36.6473 10.0747 35.7254 7.79135 34.2625 5.86355C32.7996 3.93575 30.8486 2.43333 28.6111 1.5114C26.3736 0.589463 23.9305 0.281428 21.5341 0.619093C19.1378 0.956757 16.875 1.92788 14.9793 3.43221C13.0836 4.93655 11.6238 6.91957 10.7505 9.17655C9.87729 11.4335 9.62224 13.8827 10.0117 16.2712C10.4012 18.6597 11.4211 20.9009 12.9662 22.7636C12.9869 22.8019 13.0119 22.8378 13.0408 22.8705ZM35.4206 10.808C35.0031 10.5374 34.4324 10.1685 33.7837 10.4815C33.5286 10.6206 33.3152 10.8252 33.1654 11.0741C33.1178 11.1488 33.0631 11.2186 33.0018 11.2825C32.8583 11.4115 32.5151 11.3382 32.3214 11.1381C32.0571 10.7928 31.8983 10.3785 31.8643 9.94507C31.8174 9.48483 31.6584 9.04309 31.4014 8.65844C31.1164 8.33837 30.7415 8.11171 30.3257 8.00806C30.1783 7.96509 30.0363 7.90529 29.9026 7.82982C29.8492 7.68379 29.8203 7.52994 29.817 7.37448C29.7845 7.01999 29.7436 6.57877 29.3834 6.3004C28.8691 5.90283 28.1123 5.85721 27.3596 6.17922C27.1282 6.28271 26.9032 6.39976 26.6856 6.52976C26.4786 6.65633 26.2618 6.76618 26.0373 6.85827C25.7679 6.95841 25.4018 6.98807 25.2346 6.81633C25.1617 6.69413 25.1064 6.56229 25.0702 6.42469C24.947 6.04972 24.7408 5.42222 24.0637 5.354C23.4053 5.28748 23.3694 5.12859 23.2516 4.60194C23.144 4.12231 22.9969 3.46557 22.2314 3.04216C21.7636 2.83092 21.2509 2.73869 20.7388 2.77367C19.8509 2.76306 19.7108 2.71001 19.697 2.23688C21.2916 1.73536 22.971 1.56048 24.6348 1.72269C26.2985 1.8849 27.9125 2.38086 29.3803 3.18095C30.848 3.98104 32.1394 5.06882 33.1772 6.37928C34.2151 7.68974 34.978 9.196 35.4206 10.808ZM13.0553 7.25086C13.4173 7.31253 13.6632 7.65772 14.0012 8.19561C14.3336 8.72396 14.7486 9.38395 15.5022 9.30839C15.9211 9.2687 16.4448 9.33239 16.7727 10.1966C16.7653 10.3205 16.739 10.4425 16.6948 10.5584L16.6835 10.596C16.5603 10.9865 16.5581 11.405 16.6771 11.7968C16.7961 12.1885 17.0308 12.5351 17.3504 12.7911C17.5831 12.9718 17.8204 13.2799 17.7218 13.5529C17.6724 13.6631 17.6107 13.7673 17.5376 13.8634C17.4266 14.0155 17.3312 14.1784 17.2529 14.3497C17.0793 14.8445 17.0512 15.3787 17.1721 15.8889C17.2325 16.1645 17.2438 16.4487 17.2054 16.7282C17.0702 17.2303 16.7604 17.6677 16.3318 17.962C15.2706 18.7034 15.3203 19.9099 15.3601 20.8791C15.3903 21.6177 15.4166 22.2555 15.0477 22.6131C15.0319 22.6287 14.9988 22.6671 14.8813 22.6603C14.5361 22.6049 14.2193 22.4356 13.9815 22.1793C12.2238 20.1307 11.1824 17.5646 11.0153 14.8704C10.8481 12.1762 11.5644 9.50107 13.0553 7.25086Z" fill="white"/>
<path d="M30.5264 13.9884C30.4913 13.6089 30.3261 13.2532 30.0589 12.9815C29.9211 12.8588 29.7571 12.7692 29.5793 12.7198C29.4016 12.6703 29.2149 12.6622 29.0335 12.696C29.0202 12.6815 29.007 12.6668 28.9934 12.6521C28.9304 12.583 28.8674 12.514 28.7999 12.4446C28.6097 12.2644 28.3765 12.136 28.1224 12.0718C27.8684 12.0076 27.6022 12.0096 27.3492 12.0777C27.0169 12.1765 26.6686 12.21 26.3235 12.1763C26.2566 12.1728 26.1933 12.1695 26.1332 12.1678C25.1307 12.1415 24.8437 11.8154 24.842 11.8154C24.7932 11.6899 24.7552 11.5604 24.7284 11.4285C24.616 10.9642 24.3494 9.87829 23.3065 10.049C23.0645 10.0929 22.833 10.1822 22.6241 10.312C22.6004 10.3256 22.5789 10.3387 22.5585 10.3493C22.5512 10.3503 22.5444 10.351 22.5382 10.3514C22.3079 10.2585 22.0531 10.2454 21.8145 10.3143C21.6884 10.3378 21.5687 10.388 21.4635 10.4615C21.3583 10.5349 21.27 10.63 21.2044 10.7402C20.9801 11.1276 21.1163 11.5673 21.2256 11.9205C21.2702 12.048 21.3032 12.1793 21.3242 12.3127C21.1493 12.6562 21.0529 13.0342 21.0418 13.4195C21.0308 13.8047 21.1054 14.1876 21.2603 14.5406C21.3711 14.816 21.5388 15.0648 21.7526 15.2708C21.9664 15.4768 22.2213 15.6352 22.5006 15.7356C22.5133 15.8161 22.5217 15.8971 22.5258 15.9784C22.5279 16.2306 22.5833 16.4794 22.6882 16.7087C22.8488 16.9941 23.0931 17.2233 23.3881 17.3655C23.5008 17.4105 23.6013 17.4813 23.6816 17.5721C23.762 17.663 23.8199 17.7714 23.8508 17.8887C23.909 18.089 24.009 18.2746 24.1441 18.4334C24.2792 18.5923 24.4464 18.7207 24.6347 18.8103C24.8865 18.9085 25.1611 18.9325 25.4261 18.8795C25.4866 18.8694 25.5477 18.8638 25.6089 18.863C25.8507 18.9268 26.0688 19.0593 26.2368 19.2446C26.338 19.3299 26.4489 19.4199 26.5668 19.5071C27.616 18.9977 28.742 18.6645 29.8994 18.5209C29.9056 18.5141 29.9124 18.5091 29.9185 18.502C30.0523 18.3333 30.1426 18.1343 30.1815 17.9225C30.3781 17.0985 30.5478 16.1679 30.1744 15.3567C30.3399 15.1744 30.4584 14.9546 30.5197 14.7161C30.5811 14.4777 30.5833 14.2279 30.5264 13.9884ZM29.3747 14.5152L29.3637 14.5212C29.241 14.5728 29.133 14.6541 29.0495 14.7578C28.9661 14.8615 28.9097 14.9843 28.8855 15.1152C28.8614 15.3235 28.9187 15.533 29.0454 15.7001C29.3691 16.1872 29.2281 16.9325 29.0558 17.6552C29.0519 17.6717 29.0459 17.6975 29.0394 17.7214C28.992 17.7289 28.9256 17.7345 28.8765 17.7388C28.5666 17.7395 28.2655 17.842 28.0195 18.0304C27.8452 18.1924 27.716 18.3968 27.6443 18.6237C27.6297 18.6614 27.6096 18.7133 27.5963 18.7438C27.5349 18.7382 27.4754 18.7197 27.4218 18.6894C27.2656 18.5937 27.1187 18.4836 26.9831 18.3605C26.6259 17.9901 26.149 17.7583 25.6371 17.7063C25.6247 17.706 25.6126 17.7058 25.6007 17.7058C25.493 17.7075 25.3855 17.7161 25.279 17.7318C25.2151 17.74 25.1182 17.7524 25.1033 17.7524C25.0289 17.7018 24.9757 17.6258 24.9536 17.5386C24.8796 17.2841 24.7532 17.0478 24.5825 16.845C24.4118 16.6423 24.2006 16.4774 23.9624 16.3612C23.8065 16.2719 23.7446 16.2326 23.7149 16.1757C23.6939 16.085 23.6821 15.9924 23.6799 15.8993C23.6565 15.557 23.6076 14.8447 22.8433 14.6303C22.7231 14.5773 22.6148 14.5008 22.5247 14.4052C22.4347 14.3096 22.3647 14.1969 22.319 14.0737C22.2314 13.871 22.1909 13.651 22.2004 13.4303C22.21 13.2096 22.2693 12.994 22.3741 12.7995C22.5817 12.3884 22.4424 11.9393 22.3309 11.5783C22.3221 11.5505 22.3125 11.5191 22.3026 11.4869C22.4627 11.5172 22.627 11.5164 22.7868 11.4847C22.9332 11.4542 23.0728 11.3972 23.1986 11.3163C23.2772 11.2661 23.3624 11.2271 23.4517 11.2004C23.5174 11.3624 23.5685 11.5299 23.6042 11.701C23.6513 12.0031 23.7669 12.2904 23.9421 12.541C24.1288 12.7644 24.7129 13.2879 26.1024 13.3245C26.1529 13.3258 26.206 13.3288 26.262 13.3317C26.7428 13.3738 27.2273 13.3235 27.6893 13.1836C27.7887 13.1706 27.8894 13.1951 27.9717 13.2524C28.0296 13.312 28.0839 13.3716 28.1381 13.4312C28.2454 13.5491 28.3567 13.6712 28.4982 13.8002C28.5969 13.891 28.7242 13.9444 28.8582 13.9512C28.9921 13.958 29.1242 13.9178 29.2315 13.8375C29.2474 13.8324 29.2645 13.8323 29.2804 13.8372C29.299 13.8541 29.3459 13.9194 29.3824 14.1613C29.4065 14.2784 29.4039 14.3994 29.3747 14.5152Z" fill="white"/>
<path d="M5.64629 32.8695C6.28127 33.3514 7.23545 33.5435 8.38197 33.5435C10.5719 33.5435 13.463 32.8427 16.1687 32.1227C16.2418 32.1032 16.3125 32.0845 16.3821 32.066L17.0106 30.7079C16.698 30.7848 16.3149 30.8866 15.871 31.0047C13.2831 31.6936 7.89755 33.126 6.34568 31.9478C6.2254 31.8571 6.12922 31.7382 6.06559 31.6017C6.00196 31.4651 5.97282 31.315 5.98073 31.1646C5.97971 31.0814 5.96076 30.9994 5.92517 30.9241C5.88959 30.8489 5.83821 30.7823 5.77453 30.7287L1.63046 27.2442L3.70433 26.2276L9.34349 29.2571C9.42035 29.2983 9.50555 29.3217 9.59271 29.3254C9.67987 29.3291 9.76675 29.3131 9.84684 29.2785L27.3157 21.7265C27.3394 21.7161 27.3624 21.7042 27.3846 21.6909C29.1869 20.7348 31.2832 20.4926 33.2561 21.0125L32.2911 21.4929C32.223 21.5267 32.1622 21.5736 32.1123 21.6309C32.0623 21.6882 32.0242 21.7548 32 21.8269C31.9758 21.899 31.966 21.9751 31.9713 22.0509C31.9765 22.1268 31.9967 22.2008 32.0306 22.2689C32.0644 22.3369 32.1114 22.3976 32.1688 22.4475C32.2262 22.4974 32.2928 22.5355 32.3649 22.5596C32.437 22.5837 32.5131 22.5934 32.589 22.588C32.6648 22.5827 32.7388 22.5624 32.8069 22.5284L34.6146 21.6285C34.6581 21.6061 34.6986 21.5783 34.735 21.5457C35.004 21.6707 35.2762 21.8126 35.551 21.974C35.576 21.9886 35.6021 22.0014 35.629 22.0121C35.7175 22.0516 35.798 22.1068 35.8668 22.1751C35.8662 22.1782 35.7908 22.5044 34.694 23.0561C32.6299 24.0945 29.5084 25.6277 27.4289 26.6456C27.3906 26.8563 27.3134 27.0581 27.2013 27.2406L26.482 28.3961C28.2063 27.5543 32.5719 25.4188 35.2138 24.0899C36.0092 23.6896 37.0619 23.0516 37.0224 22.131C36.9916 21.4101 36.3083 21.0494 36.1061 20.9582C34.7157 20.1112 33.1291 19.6401 31.5018 19.5912C29.8745 19.5422 28.2624 19.917 26.8236 20.6788L9.6446 28.1054L3.99019 25.0678C3.90928 25.0242 3.81915 25.0006 3.72728 24.9989C3.63541 24.9971 3.54445 25.0174 3.46197 25.0579L0.324054 26.5962C0.237575 26.6386 0.163036 26.7019 0.107196 26.7803C0.0513568 26.8588 0.0159839 26.9499 0.0042852 27.0455C-0.00741346 27.1411 0.00493225 27.2381 0.0402027 27.3277C0.0754732 27.4173 0.132553 27.4966 0.206265 27.5586L4.8421 31.4566C4.87197 31.7347 4.95879 32.0037 5.09714 32.2468C5.2355 32.4899 5.42243 32.7018 5.64629 32.8695Z" fill="white"/>
<path d="M26.1589 25.9374C26.0755 25.8441 25.964 25.7803 25.8412 25.7558C25.7184 25.7313 25.591 25.7474 25.4782 25.8016L19.343 28.7384C19.2215 28.7964 19.1241 28.895 19.0676 29.0172L15.5082 36.709C15.4584 36.8168 15.4429 36.9373 15.464 37.0542C15.485 37.1711 15.5415 37.2787 15.6258 37.3624C15.71 37.4461 15.818 37.5018 15.935 37.522C16.0521 37.5422 16.1725 37.5259 16.2799 37.4754L20.6356 35.4241C20.7363 35.3765 20.8212 35.3009 20.8802 35.2063L26.2191 26.6289C26.2852 26.5227 26.3151 26.3978 26.3042 26.2732C26.2934 26.1485 26.2424 26.0307 26.1589 25.9374ZM19.9881 34.4501L17.2267 35.7506L20.0302 29.692L24.1887 27.7014L19.9881 34.4501Z" fill="white"/>
</svg>
