<svg width="58" height="60" viewBox="0 0 58 60" fill="none" xmlns="http://www.w3.org/2000/svg">
<path d="M57.3344 16.133L55.8874 14.9779C55.9319 14.6098 55.9509 14.2354 55.9509 13.8673C55.9509 13.4928 55.9319 13.1247 55.8874 12.7566L57.3344 11.6016C58.0199 11.0558 58.1976 10.1038 57.7597 9.34219L56.1349 6.53068C55.697 5.7691 54.7831 5.45178 53.9644 5.7691L52.2382 6.44183C51.6416 5.99123 50.9943 5.61678 50.3152 5.32484L50.0359 3.49705C49.9027 2.62757 49.1728 1.99927 48.2907 1.99927H45.0476C44.1718 1.99927 43.4356 2.62757 43.3023 3.49705L43.023 5.32484C42.3376 5.61678 41.6903 5.99123 41.0937 6.44183L39.3738 5.7691C38.5551 5.45178 37.6412 5.7691 37.2033 6.53068L35.5976 9.34219C35.1597 10.1038 35.3374 11.0494 36.0228 11.6016L37.4698 12.7566C37.4254 13.1247 37.4064 13.4992 37.4064 13.8673C37.4064 14.2354 37.4318 14.6098 37.4698 14.9779L36.0228 16.133C35.3374 16.6788 35.1597 17.6307 35.5976 18.3923L37.216 21.2038C37.6539 21.9654 38.5678 22.2827 39.3865 21.9654L41.1064 21.2927C41.703 21.7369 42.3503 22.1114 43.0357 22.4033L43.315 24.2311C43.4483 25.1006 44.1781 25.7289 45.0603 25.7289H48.3033C49.1792 25.7289 49.9154 25.1006 50.0486 24.2311L50.3279 22.4033C51.0133 22.1114 51.6607 21.7369 52.2509 21.2927L53.9771 21.9654C54.7958 22.2827 55.7097 21.9654 56.1476 21.2038L57.7724 18.3923C58.2039 17.6307 58.0199 16.6851 57.3344 16.133ZM46.6786 18.6145C44.0639 18.6145 41.9314 16.4884 41.9314 13.8673C41.9314 11.2525 44.0575 9.12006 46.6786 9.12006C49.2934 9.12006 51.4258 11.2461 51.4258 13.8673C51.4258 16.482 49.2997 18.6145 46.6786 18.6145Z" fill="#004E4E"/>
<path d="M39.9133 35.1344L37.857 34.6965C37.4127 34.6013 37.0446 34.2776 36.905 33.8524C36.6448 33.0591 36.3211 32.2785 35.9467 31.5359C35.7436 31.1298 35.769 30.6411 36.0165 30.2603L37.1652 28.496C37.7618 27.5757 37.6349 26.3508 36.8606 25.5702L34.4362 23.1522C33.6619 22.3779 32.4307 22.2446 31.5105 22.8412L29.7461 23.9899C29.3653 24.2375 28.8767 24.2692 28.4705 24.0597C27.7279 23.6853 26.9473 23.3616 26.154 23.1014C25.7288 22.9618 25.4051 22.5937 25.3099 22.1494L24.872 20.0932C24.6435 19.0206 23.6852 18.2463 22.5873 18.2463H19.1728C18.0749 18.2463 17.1166 19.027 16.8881 20.0932L16.4502 22.1494C16.355 22.5937 16.0313 22.9618 15.6061 23.1014C14.8128 23.3616 14.0322 23.6853 13.2896 24.0597C12.8834 24.2628 12.3948 24.2375 12.014 23.9899L10.2496 22.8412C9.32938 22.2446 8.09816 22.3716 7.32388 23.1522L4.90586 25.5702C4.13158 26.3445 3.99831 27.5757 4.59488 28.496L5.7436 30.2603C5.99112 30.6411 6.02285 31.1298 5.81341 31.5359C5.43897 32.2785 5.1153 33.0591 4.85509 33.8524C4.71547 34.2776 4.34737 34.6013 3.90311 34.6965L1.84684 35.1344C0.774275 35.3629 0 36.3212 0 37.4192V40.8399C0 41.9379 0.780622 42.8962 1.84684 43.1247L3.90311 43.5626C4.34737 43.6578 4.71547 43.9815 4.85509 44.4067C5.1153 45.2 5.43897 45.9806 5.81341 46.7232C6.0165 47.123 5.99112 47.6117 5.7436 47.9988L4.59488 49.7632C3.99831 50.6834 4.12524 51.9146 4.90586 52.6889L7.32388 55.1069C8.09816 55.8812 9.32938 56.0145 10.2496 55.4116L12.014 54.2628C12.3948 54.0153 12.8834 53.9836 13.2896 54.1867C14.0322 54.5611 14.8128 54.8848 15.6061 55.145C16.0313 55.2846 16.355 55.6464 16.4502 56.097L16.8881 58.1533C17.1166 59.2258 18.0749 60.0001 19.1728 60.0001H22.5873C23.6852 60.0001 24.6435 59.2195 24.872 58.1533L25.3099 56.097C25.4051 55.6527 25.7288 55.2846 26.154 55.145C26.9473 54.8848 27.7279 54.5611 28.4705 54.1867C28.8767 53.9836 29.359 54.009 29.7461 54.2628L31.5105 55.4116C32.4307 56.0081 33.6619 55.8812 34.4362 55.1069L36.8542 52.6889C37.6285 51.9146 37.7554 50.6834 37.1589 49.7632L36.0102 47.9988C35.7626 47.618 35.7373 47.1294 35.9403 46.7232C36.3148 45.9806 36.6385 45.2 36.8987 44.4067C37.0383 43.9815 37.4 43.6578 37.8506 43.5626L39.9069 43.1247C40.9795 42.8962 41.7538 41.9379 41.7538 40.8399V37.4192C41.7601 36.3276 40.9858 35.3629 39.9133 35.1344ZM20.8801 47.9481C16.0186 47.9481 12.0584 43.9942 12.0584 39.1264C12.0584 34.2586 16.0186 30.3047 20.8801 30.3047C25.7415 30.3047 29.7017 34.2586 29.7017 39.1264C29.7017 43.9942 25.7415 47.9481 20.8801 47.9481Z" fill="#004E4E"/>
<path d="M34.6202 5.26126L29.3526 9.81807L27.6898 7.89507L29.4668 6.35921C24.2754 6.58769 19.5409 9.2088 16.5834 13.5689C15.6378 14.9651 14.9143 16.4883 14.4319 18.0876L12.0012 17.3577C12.5534 15.5109 13.3848 13.7593 14.4827 12.1472C16.3486 9.3992 18.8999 7.18426 21.8701 5.73725C24.4023 4.49968 27.2011 3.84599 30.0126 3.81426L28.1468 1.66279L30.0698 0L34.6202 5.26126Z" fill="#004E4E"/>
<path d="M51.4323 44.8953L51.4577 47.4339L44.4639 47.4974L44.4004 40.5035L46.939 40.4781L46.9644 43.2135C51.7179 39.2723 54.4977 33.4144 54.4977 27.1822C54.4977 26.8268 54.4914 26.4713 54.4723 26.1159L57.0109 25.989C57.03 26.3825 57.0427 26.7887 57.0427 27.1822C57.0427 34.0427 54.0408 40.4972 48.8937 44.9143L51.4323 44.8953Z" fill="#004E4E"/>
</svg>
