<svg width="82" height="91" viewBox="0 0 82 91" fill="none" xmlns="http://www.w3.org/2000/svg">
<path d="M60.1275 90.4357H9.90569C9.31977 90.268 8.71291 90.1422 8.12699 89.9534C3.66981 88.5484 0.802979 84.5429 0.802979 79.6567C0.802979 64.9771 0.802979 50.2975 0.802979 35.6179C0.802979 27.3554 0.802979 19.0719 0.802979 10.8093C0.802979 7.07651 2.26778 4.09864 5.30202 1.8967C6.68312 0.890099 8.2944 0.428745 9.92661 0.0512695C26.6672 0.0512695 43.4078 0.0512695 60.1484 0.0512695C61.1529 0.365833 62.2201 0.554569 63.1408 1.01593C67.2213 3.02913 69.2093 6.38447 69.2302 10.9352C69.2302 22.6788 69.2302 34.4016 69.2302 46.1453C69.2302 49.4377 69.2302 49.4796 72.4109 50.5491C74.357 51.2202 76.3659 51.5348 78.2073 50.4653C79.8814 49.5006 81.8484 50.3814 81.7856 52.7301C81.681 56.8194 81.7857 60.9088 81.7438 64.9981C81.7438 65.8159 81.7019 66.6548 81.5345 67.4517C80.0907 74.2043 76.1776 78.8598 69.7952 81.4602C69.4604 81.586 69.1046 81.9845 69 82.341C67.9746 86.1996 65.61 88.7581 61.8225 90.0163C61.2784 90.2051 60.7134 90.3099 60.1484 90.4777L60.1275 90.4357ZM64.7312 81.586C63.7267 81.1037 62.7014 80.6843 61.7806 80.1391C56.319 76.8676 52.9709 72.1072 52.5733 65.6691C52.3013 61.2233 52.5105 56.7356 52.5314 52.2478C52.5314 50.4443 54.0381 49.5425 55.7122 50.2975C56.2144 50.5282 56.7375 50.7589 57.2607 50.8847C59.8136 51.4719 62.0527 50.5491 64.2289 49.3748C64.773 49.0812 65.0032 48.7247 65.0032 48.0746C65.0032 35.7227 65.0032 23.3709 65.0032 10.9981C65.0032 6.76195 62.4712 4.26641 58.2651 4.26641C42.801 4.26641 27.3159 4.26641 11.8518 4.26641C7.58293 4.26641 5.07183 6.78292 5.07183 11.061C5.07183 33.8354 5.07183 56.6097 5.07183 79.3841C5.07183 83.6622 7.60385 86.1996 11.8518 86.1996C27.3159 86.1996 42.801 86.1996 58.2651 86.1996C58.579 86.1996 58.9138 86.1996 59.2277 86.1996C61.8225 86.0528 64.2289 84.0816 64.7521 81.607L64.7312 81.586ZM77.3494 55.2047C73.8129 55.708 70.6322 54.6594 67.598 52.9398C67.3469 52.793 66.9074 52.7721 66.6772 52.8979C63.643 54.6804 60.4204 55.687 56.7375 55.1837C56.7375 55.5612 56.7375 55.8757 56.7375 56.1903C56.7375 58.8746 56.7375 61.5379 56.7375 64.2221C56.7375 70.4505 60.6088 75.7561 66.5308 77.6226C66.8447 77.7274 67.2422 77.7484 67.5561 77.6435C72.6411 76.2175 76.889 71.4571 77.3494 66.1724C77.6633 62.5864 77.454 58.9375 77.4749 55.3305C77.4749 55.3095 77.454 55.2886 77.3703 55.1627L77.3494 55.2047Z" fill="#004E4E"/>
<path d="M35.1001 29.3267C42.3822 29.3267 49.6644 29.3267 56.9465 29.3267C58.4532 29.3267 59.2902 30.1026 59.2693 31.4657C59.2693 32.6191 58.5578 33.416 57.4069 33.5418C57.093 33.5838 56.7582 33.5628 56.4443 33.5628C42.152 33.5628 27.8388 33.5628 13.5465 33.5628C13.1071 33.5628 12.6676 33.5628 12.2282 33.458C11.1819 33.2063 10.6378 32.3255 10.7425 31.1721C10.8471 30.1446 11.5377 29.4316 12.5421 29.3267C12.856 29.3057 13.1908 29.3267 13.5047 29.3267C20.7031 29.3267 27.9016 29.3267 35.0791 29.3267H35.1001Z" fill="#004E4E"/>
<path d="M35.0373 43.1045C42.3195 43.1045 49.6017 43.1045 56.8838 43.1045C58.2649 43.1045 59.0392 43.6707 59.2484 44.7402C59.4995 46.1662 58.6834 47.2358 57.2186 47.3406C56.9466 47.3406 56.6955 47.3406 56.4235 47.3406C42.1521 47.3406 27.8807 47.3406 13.6094 47.3406C13.2536 47.3406 12.8979 47.3406 12.5631 47.3196C11.3912 47.1728 10.7007 46.313 10.7425 45.1177C10.7844 43.9433 11.5586 43.1255 12.7723 43.1255C15.8275 43.1045 18.8826 43.1255 21.9378 43.1255C26.3113 43.1255 30.6848 43.1255 35.0583 43.1255L35.0373 43.1045Z" fill="#004E4E"/>
<path d="M35.0371 15.5068C40.2895 15.5068 45.5418 15.5068 50.7942 15.5068C52.5101 15.5068 53.4308 16.6182 53.0751 18.1491C52.8868 18.9669 52.3846 19.5122 51.5475 19.638C51.1499 19.7009 50.7314 19.7219 50.3129 19.7219C40.1011 19.7219 29.8894 19.7219 19.6776 19.7219C19.2172 19.7219 18.7359 19.7219 18.2756 19.5961C17.3758 19.3864 16.7898 18.5056 16.8317 17.52C16.8735 16.4924 17.5222 15.6745 18.4848 15.5277C18.8615 15.4648 19.2382 15.4858 19.6357 15.4858C24.7626 15.4858 29.9103 15.4858 35.0371 15.4858V15.5068Z" fill="#004E4E"/>
<path d="M26.2275 74.9173C21.7913 74.9173 17.376 74.9173 12.9397 74.9173C11.4958 74.9173 10.6588 74.0365 10.7216 72.6734C10.7843 71.6458 11.4121 70.9118 12.4375 70.7231C12.6677 70.6812 12.8978 70.6812 13.1489 70.6812C21.8959 70.6812 30.622 70.6812 39.3689 70.6812C41.1685 70.6812 42.173 71.9814 41.6289 73.5542C41.315 74.4769 40.6663 74.9173 39.5154 74.9173C35.5186 74.9173 31.5427 74.9173 27.5459 74.9173C27.1064 74.9173 26.667 74.9173 26.2275 74.9173Z" fill="#004E4E"/>
<path d="M24.8047 61.1395C20.8497 61.1395 16.8738 61.1395 12.9188 61.1395C11.4959 61.1395 10.6589 60.2377 10.7426 58.8536C10.8053 57.847 11.4122 57.155 12.3957 56.9663C12.6259 56.9243 12.8561 56.9243 13.1072 56.9243C20.9125 56.9243 28.7387 56.9243 36.544 56.9243C37.4438 56.9243 38.239 57.134 38.6994 57.9938C39.4945 59.4828 38.532 61.1395 36.7951 61.1395C32.7983 61.1604 28.8015 61.1395 24.8047 61.1395Z" fill="#004E4E"/>
<path d="M64.9822 66.0261C67.1585 63.8452 69.1883 61.79 71.2599 59.7349C72.2225 58.7912 73.3106 58.7283 74.2314 59.5461C75.1312 60.343 75.2986 61.5803 74.4615 62.4401C71.8458 65.1454 69.2092 67.8087 66.5307 70.451C65.6727 71.3108 64.3963 71.2269 63.4964 70.3671C62.2618 69.1508 61.0481 67.9135 59.8554 66.6553C58.9974 65.7326 59.0602 64.6001 59.9181 63.7403C60.7761 62.9015 61.9061 62.8595 62.8268 63.7403C63.5592 64.4324 64.2079 65.1873 64.9822 66.0052V66.0261Z" fill="#004E4E"/>
</svg>
