<svg width="65" height="73" viewBox="0 0 65 73" fill="none" xmlns="http://www.w3.org/2000/svg">
<path d="M47.6154 72.3889H7.30603C6.83575 72.2545 6.34869 72.1539 5.8784 72.0026C2.30095 70.8774 0 67.6694 0 63.756C0 51.9991 0 40.2423 0 28.4853C0 21.8678 0 15.2336 0 8.61609C0 5.62649 1.17571 3.24152 3.611 1.47795C4.71947 0.671728 6.01275 0.302239 7.3228 0C20.7593 0 34.1958 0 47.6323 0C48.4384 0.251916 49.2951 0.403036 50.0341 0.772524C53.3091 2.38497 54.9048 5.07218 54.9216 8.71688C54.9216 18.1224 54.9216 27.5112 54.9216 36.9167C54.9216 39.5536 54.9216 39.5871 57.4744 40.4437C59.0364 40.9812 60.6488 41.2332 62.1268 40.3766C63.4706 39.6039 65.0493 40.3093 64.9988 42.1905C64.9149 45.4657 64.9988 48.7408 64.9653 52.0158C64.9653 52.6709 64.9317 53.3428 64.7974 53.981C63.6385 59.3891 60.4977 63.1178 55.3751 65.2004C55.1062 65.3012 54.8208 65.6204 54.7367 65.9058C53.9137 68.9962 52.0158 71.0453 48.9759 72.0531C48.5392 72.2042 48.0857 72.2882 47.6323 72.4226L47.6154 72.3889ZM51.3104 65.3012C50.5043 64.9149 49.6813 64.579 48.9424 64.1423C44.5587 61.5222 41.8713 57.7096 41.5523 52.5534C41.3339 48.9927 41.5018 45.3985 41.5186 41.8042C41.5186 40.3598 42.7279 39.6376 44.0716 40.2422C44.4747 40.4269 44.8946 40.6117 45.3144 40.7125C47.3635 41.1828 49.1606 40.4437 50.9074 39.5031C51.3441 39.268 51.5288 38.9825 51.5288 38.4619C51.5288 28.5693 51.5288 18.6767 51.5288 8.76721C51.5288 5.37457 49.4965 3.37586 46.1207 3.37586C33.7088 3.37586 21.2799 3.37586 8.86801 3.37586C5.44167 3.37586 3.42634 5.39134 3.42634 8.81768C3.42634 27.0577 3.42634 45.2977 3.42634 63.5376C3.42634 66.964 5.4586 68.9962 8.86801 68.9962C21.2799 68.9962 33.7088 68.9962 46.1207 68.9962C46.3726 68.9962 46.6413 68.9962 46.8932 68.9962C48.9759 68.8787 50.9074 67.2999 51.3273 65.318L51.3104 65.3012ZM61.4381 44.1724C58.5998 44.5755 56.0468 43.7357 53.6115 42.3584C53.4099 42.2408 53.0572 42.224 52.8725 42.3248C50.4371 43.7525 47.8505 44.5587 44.8946 44.1556C44.8946 44.4579 44.8946 44.7098 44.8946 44.9617C44.8946 47.1115 44.8946 49.2446 44.8946 51.3944C44.8946 56.3827 48.0018 60.6321 52.755 62.1268C53.0069 62.2108 53.3259 62.2276 53.5778 62.1436C57.6592 61.0016 61.0687 57.189 61.4381 52.9564C61.6902 50.0844 61.5222 47.162 61.5389 44.2731C61.5389 44.2563 61.5222 44.2395 61.4551 44.1387L61.4381 44.1724Z" fill="white"/>
<path d="M27.528 23.4464C33.3729 23.4464 39.2178 23.4464 45.0626 23.4464C46.2719 23.4464 46.9438 24.0678 46.927 25.1595C46.927 26.0833 46.3559 26.7215 45.4321 26.8223C45.1802 26.8558 44.9115 26.8391 44.6596 26.8391C33.1882 26.8391 21.7 26.8391 10.2286 26.8391C9.87591 26.8391 9.5232 26.8391 9.17049 26.7552C8.33072 26.5536 7.89398 25.8482 7.978 24.9244C8.06203 24.1014 8.61618 23.5304 9.4224 23.4464C9.67432 23.4296 9.94316 23.4464 10.1951 23.4464C15.9727 23.4464 21.7504 23.4464 27.5113 23.4464H27.528Z" fill="white"/>
<path d="M27.4776 34.4807C33.3224 34.4807 39.1673 34.4807 45.0121 34.4807C46.1208 34.4807 46.7422 34.9342 46.9101 35.7908C47.1117 36.9328 46.4567 37.7895 45.281 37.8733C45.0626 37.8733 44.861 37.8733 44.6427 37.8733C33.1881 37.8733 21.7335 37.8733 10.279 37.8733C9.99334 37.8733 9.70788 37.8733 9.43919 37.8566C8.49862 37.739 7.94432 37.0503 7.97802 36.093C8.01156 35.1524 8.63297 34.4975 9.60708 34.4975C12.0593 34.4807 14.5114 34.4975 16.9636 34.4975C20.4738 34.4975 23.9842 34.4975 27.4944 34.4975L27.4776 34.4807Z" fill="white"/>
<path d="M27.4782 12.3783C31.6938 12.3783 35.9094 12.3783 40.1252 12.3783C41.5024 12.3783 42.2413 13.2684 41.9559 14.4946C41.8047 15.1496 41.4016 15.5863 40.7298 15.6871C40.4107 15.7374 40.0747 15.7542 39.7388 15.7542C31.5427 15.7542 23.3464 15.7542 15.1501 15.7542C14.7806 15.7542 14.3944 15.7542 14.0249 15.6536C13.3027 15.4855 12.8324 14.7801 12.8659 13.9908C12.8995 13.1678 13.4202 12.5127 14.1928 12.3951C14.4952 12.3448 14.7974 12.3616 15.1166 12.3616C19.2314 12.3616 23.3632 12.3616 27.4782 12.3616V12.3783Z" fill="white"/>
<path d="M20.4072 59.9609C16.8466 59.9609 13.3026 59.9609 9.74197 59.9609C8.58318 59.9609 7.9113 59.2555 7.96162 58.1636C8.0121 57.3408 8.51593 56.7529 9.33893 56.6017C9.5236 56.5681 9.70842 56.5681 9.91001 56.5681C16.9306 56.5681 23.9342 56.5681 30.9548 56.5681C32.3992 56.5681 33.2054 57.6095 32.7688 58.8691C32.5168 59.6082 31.9961 59.9609 31.0724 59.9609C27.8644 59.9609 24.6733 59.9609 21.4654 59.9609C21.1127 59.9609 20.76 59.9609 20.4072 59.9609Z" fill="white"/>
<path d="M19.2649 48.9257C16.0905 48.9257 12.8993 48.9257 9.72504 48.9257C8.58288 48.9257 7.911 48.2035 7.97825 47.095C8.02857 46.2888 8.51563 45.7345 9.30508 45.5834C9.4899 45.5498 9.67457 45.5498 9.87616 45.5498C16.1408 45.5498 22.4224 45.5498 28.6872 45.5498C29.4094 45.5498 30.0476 45.7177 30.4171 46.4064C31.0554 47.5988 30.2828 48.9257 28.8887 48.9257C25.6809 48.9424 22.4729 48.9257 19.2649 48.9257Z" fill="white"/>
<path d="M51.5115 52.8391C53.2581 51.0923 54.8873 49.4464 56.5501 47.8004C57.3226 47.0447 58.1961 46.9942 58.9351 47.6493C59.6573 48.2875 59.7916 49.2784 59.1198 49.967C57.0204 52.1336 54.9041 54.2667 52.7543 56.383C52.0656 57.0716 51.0412 57.0044 50.319 56.3157C49.328 55.3416 48.3538 54.3507 47.3965 53.3429C46.7078 52.6039 46.7583 51.6971 47.4468 51.0084C48.1355 50.3365 49.0425 50.303 49.7815 51.0084C50.3693 51.5626 50.8899 52.1673 51.5115 52.8223V52.8391Z" fill="white"/>
</svg>
