<svg width="33" height="35" viewBox="0 0 33 35" fill="none" xmlns="http://www.w3.org/2000/svg">
<path d="M32.7775 32.0918L29.0269 25.5968L29.0256 25.5954C28.6977 25.0315 27.9962 24.8143 27.412 25.0774L26.7158 23.8712C29.8486 21.7463 30.8563 17.5168 28.9352 14.1883C27.6818 12.0189 25.4772 10.7372 23.15 10.5618L23.1513 2.28184C23.1513 1.24703 22.3095 0.403809 21.2733 0.403809H5.27506C4.24025 0.403809 3.39702 1.24569 3.39702 2.28184V3.80233H1.87788C0.843072 3.80233 -0.000152588 4.64421 -0.000152588 5.67902V28.6551C-0.000152588 29.6899 0.841724 30.5331 1.87788 30.5331H17.8761C18.9109 30.5331 19.7542 29.6913 19.7542 28.6551V27.1373H21.272C22.3068 27.1373 23.15 26.2954 23.15 25.2593V25.1122C24.0472 25.0475 24.943 24.8167 25.7916 24.4052L26.4878 25.6114C26.2517 25.78 26.083 26.0242 26.0075 26.3089C25.9198 26.6341 25.9657 26.9754 26.133 27.2668L29.8835 33.7642C30.1925 34.2985 30.7551 34.5966 31.3325 34.5966C31.6158 34.5966 31.9019 34.5251 32.165 34.374C32.5508 34.1514 32.8261 33.7912 32.9421 33.3595C33.0581 32.9277 32.9987 32.4771 32.7775 32.0912L32.7775 32.0918ZM28.0108 14.7213C29.7283 17.6948 28.7043 21.5116 25.7307 23.2305C24.7526 23.7945 23.684 24.063 22.6276 24.063C20.473 24.063 18.3739 22.9459 17.2217 20.9505C15.5055 17.9756 16.5282 14.1588 19.5031 12.4412C22.4767 10.7237 26.2932 11.7464 28.0108 14.7213ZM10.1033 25.3136L5.22056 20.4295H10.1033V25.3136ZM18.6854 28.6541C18.6854 29.1007 18.3225 29.465 17.8745 29.465H1.87767C1.43109 29.465 1.06681 29.102 1.06681 28.6541V5.67802C1.06681 5.23278 1.42974 4.86989 1.87767 4.86989H3.39547V19.2521C3.39547 19.8187 3.60729 20.3301 4.00798 20.7281L9.80665 26.5267C10.2074 26.9261 10.7173 27.1365 11.2813 27.1365H18.6856L18.6854 28.6541ZM21.2718 26.0691H11.2798C11.242 26.0691 11.2056 26.0677 11.1705 26.0637V19.8955C11.1705 19.6 10.9317 19.3612 10.6362 19.3612H4.46796C4.46391 19.3248 4.46256 19.2883 4.46256 19.2519L4.46391 2.28207C4.46391 1.83549 4.82684 1.47121 5.27477 1.47121H21.273C21.7196 1.47121 22.0839 1.83414 22.0839 2.28207V10.5592C21.0181 10.6361 19.9549 10.9478 18.97 11.5158C15.4865 13.5274 14.2883 17.9987 16.2987 21.4833C17.5507 23.6514 19.7567 24.9344 22.0839 25.1084V25.2582C22.0825 25.7048 21.7183 26.0691 21.2718 26.0691ZM31.9114 33.0835C31.8695 33.24 31.7697 33.3696 31.6321 33.4492C31.3447 33.6151 30.9751 33.5166 30.8091 33.2306L27.0599 26.7342C27.0249 26.6735 27.033 26.6142 27.041 26.5858C27.0491 26.5561 27.0707 26.5022 27.1314 26.4671L27.4728 26.2701C27.4768 26.2674 27.4795 26.2661 27.4836 26.2647C27.489 26.262 27.493 26.258 27.4971 26.2553L27.8344 26.0597C27.8654 26.0421 27.8991 26.034 27.9315 26.034C27.999 26.034 28.0664 26.0691 28.1028 26.1325L31.852 32.6275C31.9316 32.7638 31.9532 32.927 31.9114 33.0835ZM6.72792 9.2654H11.3381C11.6336 9.2654 11.8724 9.0266 11.8724 8.73112L11.8711 4.12368C11.8711 3.82821 11.6323 3.5894 11.3368 3.5894H6.72795C6.43249 3.5894 6.19368 3.82821 6.19368 4.12368V8.73112C6.19368 9.02659 6.43245 9.2654 6.72792 9.2654ZM7.2622 4.65796H10.8038V8.19816H7.2622V4.65796ZM13.4995 5.09104C13.4995 4.79557 13.7383 4.55676 14.0338 4.55676H19.819C20.1145 4.55676 20.3533 4.79556 20.3533 5.09104C20.3533 5.3865 20.1145 5.62531 19.819 5.62531H14.0338C13.7383 5.62531 13.4995 5.38651 13.4995 5.09104ZM13.4995 7.76239C13.4995 7.46692 13.7383 7.22811 14.0338 7.22811H19.819C20.1145 7.22811 20.3533 7.46691 20.3533 7.76239C20.3533 8.05785 20.1145 8.29666 19.819 8.29666H14.0338C13.7383 8.29666 13.4995 8.05786 13.4995 7.76239ZM6.19392 11.6411C6.19392 11.3456 6.43272 11.1068 6.7282 11.1068H15.6744C15.9698 11.1068 16.2086 11.3456 16.2086 11.6411C16.2086 11.9365 15.9698 12.1753 15.6744 12.1753H6.7282C6.43273 12.1753 6.19392 11.9365 6.19392 11.6411ZM14.5453 14.3124C14.5453 14.6079 14.3065 14.8467 14.0111 14.8467H6.72827C6.4328 14.8467 6.19399 14.6079 6.19399 14.3124C6.19399 14.0169 6.43279 13.7781 6.72827 13.7781H14.0111C14.3052 13.7781 14.5453 14.0169 14.5453 14.3124ZM13.8897 16.9851C13.8897 17.2806 13.6509 17.5194 13.3554 17.5194H6.72813C6.43266 17.5194 6.19385 17.2806 6.19385 16.9851C6.19385 16.6896 6.43265 16.4508 6.72813 16.4508H13.3554C13.6509 16.4522 13.8897 16.691 13.8897 16.9851Z" fill="#FFBD4C"/>
</svg>
