<svg width="25" height="26" viewBox="0 0 25 26" fill="none" xmlns="http://www.w3.org/2000/svg">
<path d="M12.4913 8.66699C10.1938 8.66699 8.31982 10.5392 8.31982 12.8475C8.31982 15.1558 10.188 17.028 12.4913 17.028C14.7946 17.028 16.6628 15.1558 16.6628 12.8475C16.6628 10.5392 14.7946 8.66699 12.4913 8.66699ZM12.4913 16.464C10.5013 16.464 8.8768 14.8418 8.8768 12.8417C8.8768 10.8415 10.4955 9.21935 12.4913 9.21935C14.4871 9.21935 16.1059 10.8415 16.1059 12.8417C16.1059 14.8418 14.4871 16.464 12.4913 16.464Z" fill="#004E4E"/>
<path d="M21.6524 21.3769C23.8106 19.0511 25 16.0335 25 12.8472C25 10.1087 24.1355 7.5097 22.4994 5.32933V3.0443C22.4994 2.93964 22.4356 2.8408 22.3428 2.79428C22.2499 2.74777 22.1339 2.7594 22.0527 2.82336L20.9793 3.64318C18.6586 1.49769 15.6649 0.317383 12.4971 0.317383C9.76445 0.317383 7.17104 1.18372 4.99536 2.82336H2.77326C2.66883 2.82336 2.5702 2.8815 2.52379 2.97453C2.47737 3.06756 2.48898 3.18384 2.5528 3.26524L3.34765 4.31182C1.18937 6.63755 0 9.65518 0 12.8414C0 15.58 0.864468 18.179 2.50058 20.3593V22.5862C2.50058 22.6909 2.5586 22.7897 2.65143 22.8363C2.69204 22.8537 2.73265 22.8653 2.77907 22.8653C2.83709 22.8653 2.9009 22.8479 2.94732 22.8072L3.99165 22.0106C6.31237 24.1735 9.32351 25.3655 12.5029 25.3655C15.2356 25.3655 17.829 24.4991 20.0046 22.8595H22.2267C22.3312 22.8595 22.4298 22.8014 22.4762 22.7083C22.5226 22.6153 22.511 22.499 22.4472 22.4176L21.6524 21.371V21.3769ZM12.4913 0.869744C15.5489 0.869744 18.4498 2.02098 20.6719 4.11995C20.7357 4.35252 21.1128 4.36997 21.2114 4.16065L21.9424 3.60829V8.67256H16.8833L17.5679 7.57366C17.5679 7.57366 17.5853 7.56784 17.5911 7.55621C17.6955 7.43993 17.6839 7.2655 17.5679 7.16084C16.1696 5.90495 14.3653 5.21886 12.4913 5.21886C11.2265 5.21886 9.98492 5.53283 8.87677 6.1317V3.10244C8.87677 2.95127 8.74913 2.82336 8.59828 2.82336H5.95266C7.89626 1.55002 10.1358 0.875559 12.4855 0.875559L12.4913 0.869744ZM17.8928 17.3882L16.5294 16.5277C16.4423 16.4754 16.3321 16.4696 16.2451 16.5219C16.158 16.5742 16.1 16.6614 16.1 16.7661V18.9174C15.0093 19.5686 13.7677 19.9175 12.4855 19.9175C10.8204 19.9175 9.22488 19.3244 7.95428 18.2546L8.81295 16.8882C8.86517 16.801 8.87097 16.6905 8.81875 16.6033C8.76654 16.5161 8.67951 16.4579 8.57508 16.4579H6.4284C5.7786 15.3648 5.4305 14.1206 5.4305 12.8356C5.4305 11.1669 6.02228 9.56797 7.08981 8.29463L8.45324 9.15515C8.49965 9.18422 8.55187 9.19585 8.59828 9.19585C8.6447 9.19585 8.69111 9.18422 8.73172 9.16097C8.81875 9.10864 8.87677 9.02142 8.87677 8.91676V6.76546C9.96751 6.11426 11.2091 5.7654 12.4913 5.7654C14.1506 5.7654 15.7403 6.35265 17.0051 7.41085L16.1464 8.79466C16.0942 8.88188 16.0884 8.99235 16.1406 9.07375C16.1929 9.16097 16.2799 9.2133 16.3843 9.2133H18.5542C19.204 10.3064 19.5521 11.5507 19.5521 12.8356C19.5521 14.5043 18.9603 16.1033 17.8928 17.3766V17.3882ZM0.539569 12.8472C0.539569 9.78891 1.68833 6.88757 3.77698 4.66068C3.82339 4.66068 3.864 4.64324 3.91042 4.60835C4.03226 4.51532 4.05546 4.34089 3.96264 4.21879L3.32444 3.37572H8.3256V8.42255L7.20585 7.71902C7.07821 7.65506 6.92156 7.64343 6.81713 7.75972C5.56394 9.16097 4.87932 10.9634 4.87932 12.8472C4.87932 14.1148 5.19262 15.359 5.79021 16.4696H2.76746C2.61662 16.4696 2.48898 16.5975 2.48898 16.7487V19.4C1.21838 17.4522 0.545369 15.2079 0.545369 12.8531L0.539569 12.8472ZM12.4913 24.8247C9.43954 24.8247 6.54444 23.6735 4.32235 21.5804C4.32235 21.5338 4.30494 21.4931 4.27013 21.4466C4.1773 21.3245 4.00325 21.3013 3.88141 21.3943L3.04015 22.0339V17.0219C3.04015 17.0219 6.24855 17.0452 6.28336 17.0452C6.31817 17.0452 8.07612 17.0219 8.07612 17.0219L7.3741 18.1441C7.31028 18.272 7.29868 18.429 7.41471 18.5337C8.81295 19.7895 10.6115 20.4756 12.4913 20.4756C13.7561 20.4756 14.9977 20.1617 16.1058 19.5628V22.5921C16.1058 22.7432 16.2335 22.8711 16.3843 22.8711H19.0299C17.0863 24.1445 14.8468 24.8189 12.4971 24.8189L12.4913 24.8247ZM16.6628 22.3188V17.2719L17.7826 17.9755C17.9102 18.0394 18.0668 18.0511 18.1713 17.9348C19.4245 16.5335 20.1091 14.7311 20.1091 12.8472C20.1091 11.5797 19.7958 10.3355 19.1982 9.22492H22.2209C22.3718 9.22492 22.4994 9.09701 22.4994 8.94584V6.29451C23.77 8.2423 24.443 10.4866 24.443 12.8414C24.443 15.8998 23.2943 18.8011 21.2056 21.028C21.1592 21.028 21.1128 21.0454 21.0722 21.0803C20.9503 21.1734 20.9271 21.3478 21.02 21.4699L21.6582 22.313H16.657L16.6628 22.3188Z" fill="#004E4E"/>
<path d="M12.416 12.6613C11.7894 12.6613 11.6559 12.3706 11.6559 12.1205C11.6559 12.0915 11.6617 11.4228 12.416 11.4228C13.1064 11.4228 13.1992 11.888 13.2108 11.981C13.2282 12.1322 13.3616 12.2426 13.5125 12.231C13.6633 12.2194 13.7794 12.0798 13.762 11.9287C13.733 11.6089 13.4835 11.0507 12.7641 10.9053V10.6263C12.7641 10.4751 12.6364 10.3472 12.4856 10.3472C12.3347 10.3472 12.2071 10.4751 12.2071 10.6263V10.8879C11.3948 10.9867 11.0931 11.6612 11.0931 12.1264C11.0931 12.6555 11.4354 13.2253 12.4102 13.2253C12.6828 13.2253 13.321 13.2718 13.321 13.6962C13.321 13.9404 13.0309 14.2777 12.4856 14.2777C12.0853 14.2777 11.6501 14.1614 11.6501 13.8358C11.6501 13.6846 11.5225 13.5567 11.3716 13.5567C11.2208 13.5567 11.0931 13.6846 11.0931 13.8358C11.0931 14.2486 11.3948 14.7254 12.2071 14.8184V15.0858C12.2071 15.237 12.3347 15.3649 12.4856 15.3649C12.6364 15.3649 12.7641 15.237 12.7641 15.0858V14.8184C13.4545 14.7079 13.878 14.1904 13.878 13.702C13.878 13.4578 13.7736 12.6729 12.416 12.6729V12.6613Z" fill="#004E4E"/>
</svg>
