<svg width="85" height="96" viewBox="0 0 85 96" fill="none" xmlns="http://www.w3.org/2000/svg">
<path d="M82.9153 70.3471L81.2874 69.0737C80.9698 67.7606 80.1161 66.6266 78.9051 65.9501L75.411 63.9805C74.6765 62.0904 72.9691 60.7176 70.8647 60.4391L68.7206 60.3197L68.3434 58.2108C68.2243 57.4945 67.9662 56.838 67.6486 56.2212V27.8303H78.4485C78.8654 27.8303 79.2029 27.492 79.2029 27.0742V19.2752C79.2029 18.8574 78.8654 18.5191 78.4485 18.5191H67.6486V15.9924H78.4485C78.8654 15.9924 79.2029 15.6542 79.2029 15.2364V7.43732C79.2029 7.01951 78.8654 6.68128 78.4485 6.68128H67.6486V1.19012C67.6486 0.772309 67.3111 0.434082 66.8942 0.434082H0.943364C0.526456 0.434082 0.188965 0.772309 0.188965 1.19012V89.7253C0.188965 90.1431 0.526456 90.4814 0.943364 90.4814H51.9451L52.6796 91.4562C52.9576 91.8343 53.1164 92.2918 53.1164 92.7494V94.5798C53.1164 94.9977 53.4539 95.3359 53.8708 95.3359C54.2877 95.3359 54.6252 94.9977 54.6252 94.5798V92.7494C54.6252 91.9536 54.3671 91.1777 53.8906 90.541L51.3098 87.1389C50.6943 86.3431 50.2576 85.4279 50.0194 84.453L46.3863 70.4267C46.1084 69.3921 46.0885 68.2779 46.3069 67.2235L48.3517 57.4348C48.5502 56.4799 49.4635 55.8233 50.4363 55.9427C51.3693 56.0621 52.084 56.8778 52.084 57.8328V66.3481C52.084 66.3481 52.084 66.3878 52.084 66.4276C52.084 66.4873 52.084 66.5271 52.1237 66.5868C52.1237 66.6266 52.1634 66.6863 52.1833 66.7261C52.1833 66.746 52.1833 66.7858 52.223 66.8057L59.1119 76.654C57.9009 77.589 57.6229 79.3398 58.5163 80.6132L62.1692 85.7462C62.7251 86.542 63.6185 86.9598 64.5119 86.9598C65.028 86.9598 65.5442 86.8206 66.0207 86.5221L67.6684 88.8698C68.4228 89.9442 69.6339 90.5212 70.8647 90.5212C71.639 90.5212 72.4133 90.2824 73.0882 89.8049C73.9419 89.208 74.4978 88.3127 74.6765 87.2981C74.8551 86.2834 74.6169 85.2488 74.0213 84.3933L62.9832 68.6559L62.5464 62.0904C62.5067 61.414 62.2486 60.8171 61.8516 60.3197C61.8317 60.2799 61.792 60.2401 61.7523 60.2003C61.1964 59.5637 60.4222 59.1459 59.5487 59.0862L53.573 58.6684V57.8924C53.573 56.7584 52.9973 55.7238 52.1039 55.1071C52.4215 54.8683 52.7789 54.7092 53.1958 54.6893L61.4744 54.2317C64.0949 54.0924 66.3979 55.9228 66.8743 58.5092L68.9787 70.3073C69.0383 70.6654 69.3559 70.924 69.7133 70.924C69.753 70.924 69.7927 70.924 69.8522 70.924C70.2691 70.8445 70.5272 70.4664 70.4677 70.0486L69.0184 61.8716L70.7456 61.9511C72.5125 62.1899 73.9419 63.5428 74.2596 65.2936L75.3316 71.0036C75.3912 71.3617 75.7088 71.6204 76.0662 71.6204C76.1059 71.6204 76.1654 71.6204 76.2051 71.6204C76.622 71.5408 76.8801 71.1429 76.8007 70.745L75.9073 66.0297L78.1705 67.303C79.2823 67.9198 79.9573 69.1135 79.9176 70.3868L79.8382 74.5251C79.8382 74.9429 80.1558 75.2812 80.5727 75.3011C80.9698 75.3011 81.3073 74.9827 81.3271 74.5649L81.4065 71.1429L81.9624 71.5806C82.8756 72.2968 83.372 73.411 83.2727 74.5649L81.744 94.56C81.7043 94.9778 82.022 95.3359 82.4389 95.3757C82.4587 95.3757 82.4786 95.3757 82.4984 95.3757C82.8955 95.3757 83.2131 95.0772 83.2528 94.6793L84.7815 74.6843C84.9006 73.033 84.2058 71.4214 82.8955 70.3868L82.9153 70.3471ZM77.7139 26.3182H56.0943V20.0312H77.7139V26.3182ZM77.7139 14.4803H56.0943V8.17345H77.7139V14.4803ZM47.4583 55.8432L45.8503 50.929L50.3568 54.4505C49.2054 54.3908 48.1333 54.928 47.4583 55.8233V55.8432ZM63.4001 84.8509L59.7472 79.7179C59.3303 79.1409 59.4494 78.3252 59.9854 77.8676L65.167 85.2488C64.5714 85.5672 63.817 85.408 63.4001 84.831V84.8509ZM73.2074 87.0195C73.0882 87.6562 72.7507 88.1934 72.2346 88.5714C71.7184 88.9494 71.0831 89.0688 70.4478 88.9693C69.8125 88.8499 69.2765 88.5117 68.8993 87.9944L66.8346 85.0499L66.1993 84.1347C66.9934 82.6027 68.2442 81.6477 70.0111 81.2697L72.7905 85.2488C73.1478 85.7661 73.2868 86.4028 73.1875 87.0394L73.2074 87.0195ZM61.0972 62.4684L61.3553 66.2685L60.0053 64.3585L61.0972 62.4883V62.4684ZM60.3031 60.837L59.0524 62.9857L57.2457 60.3993L59.4891 60.5584C59.7869 60.5783 60.0648 60.6778 60.3031 60.837ZM55.3002 60.26L58.4965 64.836L69.078 79.9367C67.4302 80.4341 66.1398 81.3692 65.2464 82.7619L60.7597 76.3754L53.573 66.1292V60.1406L55.2803 60.26H55.3002ZM61.4148 52.6997L53.1362 53.1573C52.6002 53.1772 52.1039 53.3364 51.6671 53.5751L44.8378 48.2232C44.679 48.1038 44.4804 48.064 44.3018 48.0839C44.3018 48.0839 44.2819 48.0839 44.2621 48.0839C44.1231 48.0839 44.0635 48.0839 44.0437 48.064C43.6466 47.8253 43.5672 46.9698 43.5077 46.1541C43.4084 44.841 43.2297 42.8514 41.1055 42.6723C39.8944 42.5928 37.9489 43.5875 34.9114 45.2588C33.0651 46.2734 29.1938 48.4023 28.5784 47.9049C28.0424 47.4672 28.0622 46.7111 28.1813 45.4776C28.3004 44.2441 28.4593 42.6922 27.0299 41.9561C24.4689 40.643 15.4359 45.8755 11.8822 50.0934C11.6241 50.4117 11.6638 50.8892 11.9815 51.1479C12.1205 51.2672 12.2991 51.3269 12.458 51.3269C12.6763 51.3269 12.8749 51.2274 13.0337 51.0683C16.8454 46.5321 25.0446 42.6326 26.3549 43.2891C26.8115 43.5279 26.8115 44.1048 26.6924 45.3185C26.5733 46.552 26.4343 48.0839 27.6453 49.0588C28.9754 50.1332 31.5563 48.8002 35.646 46.552C37.6511 45.4577 40.1327 44.0849 41.0062 44.1446C41.7408 44.2043 41.8996 44.6619 42.0385 46.2336C42.1378 47.3677 42.2371 48.6609 43.2893 49.3175C43.4679 49.4169 43.6466 49.4965 43.8451 49.5363L46.6841 58.171L44.8576 66.925C44.5996 68.1983 44.6194 69.5512 44.9569 70.8046L48.59 84.831C48.8877 86.0049 49.4238 87.0792 50.1385 88.0342L50.8333 88.9494H1.73748V1.90636H66.1993V6.64149H55.3994C54.9825 6.64149 54.645 6.97972 54.645 7.39753V15.1966C54.645 15.6144 54.9825 15.9526 55.3994 15.9526H66.1993V18.4793H55.3994C54.9825 18.4793 54.645 18.8176 54.645 19.2354V27.0344C54.645 27.4522 54.9825 27.7905 55.3994 27.7905H66.1993V54.3112C64.9288 53.1971 63.2413 52.5803 61.4545 52.6798L61.4148 52.6997Z" fill="#004E4E"/>
<path d="M62.9038 11.4958C62.9038 11.9136 63.2413 12.2518 63.6582 12.2518H74.9941C75.411 12.2518 75.7485 11.9136 75.7485 11.4958C75.7485 11.078 75.411 10.7397 74.9941 10.7397H63.6582C63.2413 10.7397 62.9038 11.078 62.9038 11.4958Z" fill="#004E4E"/>
<path d="M62.9038 23.3337C62.9038 23.7515 63.2413 24.0897 63.6582 24.0897H74.9941C75.411 24.0897 75.7485 23.7515 75.7485 23.3337C75.7485 22.9159 75.411 22.5776 74.9941 22.5776H63.6582C63.2413 22.5776 62.9038 22.9159 62.9038 23.3337Z" fill="#004E4E"/>
<path d="M26.9506 22.5578C28.8763 17.6635 29.3329 12.411 28.3204 6.97956C28.2608 6.62144 27.9432 6.36279 27.5859 6.36279H5.31108C5.0927 6.36279 4.87432 6.46227 4.73535 6.64133C4.59638 6.82039 4.53682 7.03924 4.57653 7.25809C5.52946 12.411 5.0927 17.3849 3.2861 22.0206C3.18683 22.2593 3.22654 22.518 3.36551 22.7169C3.50448 22.9159 3.74271 23.0552 3.98095 23.0552H26.2557C26.5734 23.0552 26.8513 22.8562 26.9506 22.5777V22.5578ZM5.05299 21.5232C6.5618 17.186 6.939 12.5901 6.20445 7.85496H26.9506C27.7248 12.61 27.3079 17.2059 25.7197 21.5232H5.03314H5.05299Z" fill="#004E4E"/>
<path d="M10.314 13.5648H22.3249C22.7418 13.5648 23.0793 13.2266 23.0793 12.8088C23.0793 12.391 22.7418 12.0527 22.3249 12.0527H10.314C9.89707 12.0527 9.55957 12.391 9.55957 12.8088C9.55957 13.2266 9.89707 13.5648 10.314 13.5648Z" fill="#004E4E"/>
<path d="M24.2107 15.9526H8.42775C8.01084 15.9526 7.67334 16.2909 7.67334 16.7087C7.67334 17.1265 8.01084 17.4647 8.42775 17.4647H24.2107C24.6276 17.4647 24.9651 17.1265 24.9651 16.7087C24.9651 16.2909 24.6276 15.9526 24.2107 15.9526Z" fill="#004E4E"/>
<path d="M30.7224 15.4349H43.2694C43.6863 15.4349 44.0238 15.0967 44.0238 14.6789C44.0238 14.2611 43.6863 13.9229 43.2694 13.9229H30.7224C30.3055 13.9229 29.968 14.2611 29.968 14.6789C29.968 15.0967 30.3055 15.4349 30.7224 15.4349Z" fill="#004E4E"/>
<path d="M29.5305 23.0355H47.5767C47.9936 23.0355 48.3311 22.6973 48.3311 22.2795C48.3311 21.8617 47.9936 21.5234 47.5767 21.5234H29.5305C29.1136 21.5234 28.7761 21.8617 28.7761 22.2795C28.7761 22.6973 29.1136 23.0355 29.5305 23.0355Z" fill="#004E4E"/>
<path d="M58.7148 34.7926C56.928 35.9267 54.5258 36.9413 53.9104 36.5633C53.5729 36.3445 53.4538 35.9864 53.3148 35.3895C53.1163 34.5937 52.7788 33.2607 50.9523 33.3403C49.7413 33.38 48.431 34.4146 47.0612 35.5288C46.1083 36.2848 44.5399 37.5382 44.0833 37.2597C43.6862 37.0209 43.6068 36.1654 43.5473 35.3497C43.4281 34.0366 43.2693 32.047 41.1451 31.868C39.9341 31.7884 37.9885 32.7832 34.951 34.4544C33.1047 35.4691 29.2334 37.5979 28.618 37.1005C28.082 36.6628 28.1018 35.8869 28.2209 34.6733C28.3401 33.4397 28.4989 31.8879 27.0695 31.1517C24.5085 29.8386 15.4755 35.0712 11.9218 39.289C11.6638 39.6074 11.7035 40.0848 12.0211 40.3435C12.1601 40.4629 12.3388 40.5226 12.4976 40.5226C12.716 40.5226 12.9145 40.4231 13.0733 40.2639C16.885 35.7277 25.0842 31.8282 26.3945 32.4847C26.8511 32.7235 26.8511 33.3005 26.732 34.5141C26.6129 35.7476 26.4739 37.2796 27.6849 38.2545C29.0151 39.3288 31.5959 37.9958 35.6856 35.7476C37.6907 34.6534 40.1723 33.2806 41.0458 33.3403C41.7804 33.3999 41.9392 33.8575 42.0782 35.4293C42.1774 36.5633 42.2767 37.8565 43.3289 38.5131C44.6789 39.3487 46.3068 38.0555 48.034 36.6827C49.106 35.8272 50.3369 34.8523 51.0516 34.8324C51.6273 34.8324 51.6869 34.912 51.9053 35.7476C52.0641 36.4042 52.3023 37.2995 53.1758 37.8366C54.903 38.8911 58.5162 36.7424 59.5883 36.0461C59.9456 35.8272 60.0449 35.3497 59.8067 35.0115C59.5883 34.6534 59.1118 34.5539 58.7743 34.7926H58.7148Z" fill="#004E4E"/>
</svg>
