<svg width="18" height="18" viewBox="0 0 18 18" fill="none" xmlns="http://www.w3.org/2000/svg">
<path d="M17.7678 11.4449V11.4432C17.5734 11.1954 17.2296 10.9935 16.7969 10.9844C16.5508 10.98 16.2773 11.0365 15.973 11.148C15.9166 11.0733 15.8307 10.9753 15.7131 10.8898C15.4852 10.7201 15.1228 10.5673 14.6309 10.5673C14.3784 10.5673 14.1722 10.6254 14.0069 10.694C13.7716 10.4692 13.3541 10.1832 12.7473 10.1832C12.255 10.1832 11.7933 10.3485 11.4724 10.5382C11.4126 10.5733 11.2689 10.6636 11.0245 10.8164C10.7797 10.9692 10.4603 11.1663 10.1452 11.3634C9.64252 11.6771 9.33049 11.8728 9.1503 11.9858C8.7666 11.9094 8.38257 11.8008 8.0205 11.6419C7.71152 11.4432 7.11687 10.1758 4.86505 10.1758C3.84377 10.1758 3.37286 10.4202 2.86543 10.6163V10.6176C1.89148 10.9969 0.225181 11.7826 0.225181 11.7826C0.0294443 11.8742 -0.0543946 12.1081 0.0372197 12.3039C0.130524 12.4993 0.364462 12.5834 0.560198 12.4918C0.560198 12.4918 2.23731 11.7014 3.14805 11.3468C3.71092 11.1281 3.95533 10.9587 4.86505 10.9587C6.87245 10.9587 6.79132 11.8299 7.63816 12.3282C7.65033 12.336 7.66419 12.3434 7.67805 12.3482C8.7284 12.8191 9.85651 12.9154 10.7659 12.9154C11.1682 12.9154 11.4217 13.0087 11.5597 13.1125C11.6956 13.218 11.7442 13.3265 11.7442 13.5023C11.7442 13.7085 11.6925 13.8065 11.5563 13.9059C11.4217 14.0036 11.1621 14.0895 10.7659 14.0895H8.7115C7.84911 14.0895 6.36469 13.7102 6.36469 13.7102C6.23014 13.6737 6.08477 13.7132 5.98572 13.8126C5.88633 13.912 5.84813 14.0574 5.88464 14.1919C5.92284 14.3278 6.03001 14.4333 6.16591 14.4685C6.16591 14.4685 7.63816 14.8721 8.7115 14.8721H10.7659C11.1648 14.8721 11.512 14.8062 11.8024 14.6625C11.8406 14.652 11.8774 14.6351 11.9095 14.6121L15.6214 12.1768C16.1792 11.8542 16.5599 11.764 16.7834 11.7674C17.0065 11.7718 17.0829 11.839 17.1502 11.9246C17.2495 12.053 17.2556 12.102 17.1914 12.2501C17.1255 12.4002 16.9345 12.6308 16.5907 12.8694H16.589C16.164 13.1659 11.4112 16.2632 10.8622 16.5753C10.4481 16.8105 10.1195 17.0583 9.74461 17.1638C9.37038 17.2676 8.92853 17.2676 8.19765 16.9191C7.71017 16.6851 5.6338 15.6213 4.9614 15.2801C4.58683 15.0905 4.26736 14.9837 3.94181 15.0023C3.61457 15.0205 3.3377 15.1595 3.0517 15.34C3.05035 15.34 3.049 15.3413 3.049 15.343L2.07944 15.962C1.9574 16.0354 1.88539 16.1699 1.89013 16.3122C1.89486 16.4542 1.97735 16.5827 2.10412 16.6469C2.23258 16.7112 2.38369 16.702 2.50168 16.6212L3.46616 16.0033C3.71531 15.8474 3.85594 15.791 3.98441 15.7832C4.11287 15.7757 4.28866 15.817 4.60813 15.9789C5.27478 16.317 7.31869 17.3656 7.86162 17.6239C8.71285 18.032 9.40215 18.0705 9.95421 17.9174C10.5059 17.7629 10.8991 17.4542 11.249 17.2554C12.0042 16.8258 16.4913 13.8907 17.0369 13.5114C17.4514 13.2224 17.7556 12.9215 17.9101 12.5608C18.0643 12.1997 18.0139 11.7596 17.7678 11.4449ZM11.4876 12.2244C11.272 12.1632 11.0306 12.1325 10.7659 12.1325C10.653 12.1325 10.5289 12.125 10.4113 12.1203C10.4602 12.0899 10.5096 12.0593 10.5597 12.0287C10.8747 11.8313 11.1925 11.6325 11.4386 11.4797C11.6753 11.3336 11.8703 11.2126 11.8703 11.2119C12.0559 11.1021 12.4572 10.9662 12.7473 10.9662C12.9947 10.9662 13.1722 11.0287 13.2976 11.1024L11.4876 12.2244ZM15.207 11.5135L12.5028 13.2869C12.466 13.0682 12.3757 12.8586 12.2321 12.6845L14.1232 11.5121L14.1249 11.5088C14.1401 11.5013 14.4673 11.3499 14.6309 11.3499C14.9487 11.3499 15.1198 11.4307 15.2239 11.5027C15.2178 11.5057 15.2131 11.5088 15.207 11.5135Z" fill="#004E4E"/>
<path d="M10.3852 3.72584C10.0062 3.34214 9.50321 3.1481 9.00017 3.14506C8.49714 3.14201 7.99275 3.32997 7.60906 3.71063C6.84166 4.4689 6.83557 5.71769 7.59384 6.48678C8.35211 7.25417 9.60259 7.2606 10.37 6.50199C11.1374 5.74372 11.1435 4.49324 10.3852 3.72584ZM9.81963 5.94419C9.35344 6.40564 8.61208 6.40294 8.15029 5.93642C7.6885 5.46888 7.69323 4.72718 8.15942 4.26708C8.39335 4.03618 8.69457 3.92158 8.99713 3.92327C9.29834 3.92462 9.5982 4.04227 9.82876 4.2762C10.2905 4.74239 10.2858 5.48375 9.81963 5.94419ZM10.3852 3.72584C10.0062 3.34214 9.50321 3.1481 9.00017 3.14506C8.49714 3.14201 7.99275 3.32997 7.60906 3.71063C6.84166 4.4689 6.83557 5.71769 7.59384 6.48678C8.35211 7.25417 9.60259 7.2606 10.37 6.50199C11.1374 5.74372 11.1435 4.49324 10.3852 3.72584ZM9.81963 5.94419C9.35344 6.40564 8.61208 6.40294 8.15029 5.93642C7.6885 5.46888 7.69323 4.72718 8.15942 4.26708C8.39335 4.03618 8.69457 3.92158 8.99713 3.92327C9.29834 3.92462 9.5982 4.04227 9.82876 4.2762C10.2905 4.74239 10.2858 5.48375 9.81963 5.94419ZM10.3852 3.72584C10.0062 3.34214 9.50321 3.1481 9.00017 3.14506C8.49714 3.14201 7.99275 3.32997 7.60906 3.71063C6.84166 4.4689 6.83557 5.71769 7.59384 6.48678C8.35211 7.25417 9.60259 7.2606 10.37 6.50199C11.1374 5.74372 11.1435 4.49324 10.3852 3.72584ZM9.81963 5.94419C9.35344 6.40564 8.61208 6.40294 8.15029 5.93642C7.6885 5.46888 7.69323 4.72718 8.15942 4.26708C8.39335 4.03618 8.69457 3.92158 8.99713 3.92327C9.29834 3.92462 9.5982 4.04227 9.82876 4.2762C10.2905 4.74239 10.2858 5.48375 9.81963 5.94419Z" fill="#FFBD4C"/>
<path d="M13.7668 4.13414L12.5867 3.93367C12.5285 3.75349 12.4569 3.57736 12.3727 3.40461L13.0667 2.42491C13.1783 2.27042 13.1617 2.05947 13.0272 1.92357L12.2016 1.08856C12.0671 0.954015 11.8531 0.934069 11.6969 1.04597L10.7277 1.73392C10.5566 1.6467 10.3822 1.57334 10.2033 1.51384L10.0137 0.33638C9.98327 0.147066 9.821 0.00778538 9.62865 0.00643314L8.45592 1.00023e-05C8.26626 -0.00134224 8.10298 0.134558 8.06918 0.321167L7.85518 1.49221C7.67196 1.55204 7.49447 1.62371 7.32037 1.70924L6.35859 1.0152C6.2041 0.903644 5.99011 0.918857 5.85556 1.05509L5.01954 1.87759C4.88499 2.01214 4.86504 2.22309 4.97356 2.37894L5.64934 3.35728C5.56043 3.53003 5.48572 3.70751 5.42589 3.88939L4.25349 4.07904C4.06553 4.10811 3.92625 4.27004 3.9249 4.46274L3.91712 5.63682C3.91577 5.82613 4.05167 5.98975 4.23828 6.02356L5.41372 6.23755C5.47186 6.41943 5.54556 6.59522 5.63109 6.76797L4.93232 7.73414C4.82076 7.88864 4.83597 8.10263 4.97052 8.23853L5.79606 9.07354C5.92892 9.20775 6.13987 9.22769 6.29605 9.11918L7.28657 8.43731C7.45763 8.52453 7.63375 8.59653 7.81394 8.65603L8.01576 9.84229C8.04788 10.0302 8.20846 10.1682 8.39946 10.1695L9.57185 10.1756C9.76455 10.1773 9.92817 10.038 9.96028 9.85006L10.1608 8.66516C10.3396 8.60702 10.5137 8.5367 10.6834 8.45117L11.6665 9.14994C11.8223 9.25981 12.0333 9.24155 12.1678 9.1087L13.0042 8.2845C13.1401 8.14996 13.1583 7.93597 13.0471 7.77843L12.3497 6.80008C12.4369 6.63038 12.5103 6.45763 12.5701 6.28049L13.7608 6.07866C13.9474 6.04655 14.085 5.88428 14.0866 5.69328L14.0924 4.52055C14.0941 4.32954 13.9565 4.16592 13.7668 4.13414ZM13.3054 5.36164L12.232 5.54183C12.0792 5.56786 11.9552 5.68246 11.917 5.83256C11.8453 6.11687 11.7307 6.39205 11.5732 6.64897C11.492 6.78352 11.4981 6.95289 11.5901 7.08L12.2151 7.962L11.8531 8.32135L10.9647 7.69155C10.8379 7.60129 10.6712 7.5952 10.5384 7.67465C10.2784 7.8288 10.0032 7.93901 9.71722 8.00933C9.56441 8.04584 9.44981 8.1699 9.42378 8.3244L9.2436 9.39131L8.73279 9.38692L8.55226 8.31662C8.52623 8.16382 8.41163 8.04009 8.25883 8.00324C7.97621 7.93292 7.69765 7.81663 7.43768 7.66078C7.30651 7.58134 7.13985 7.58607 7.01308 7.67465L6.12161 8.28924L5.7609 7.9238L6.38902 7.05532C6.48097 6.92855 6.48875 6.75884 6.40761 6.62429C6.25312 6.36297 6.13987 6.08475 6.06989 5.79706C6.03304 5.6473 5.91202 5.5327 5.75921 5.50362L4.70142 5.31262L4.70616 4.79911L5.75921 4.6294C5.91371 4.60472 6.03913 4.49012 6.07733 4.33867C6.15069 4.04997 6.26529 3.77174 6.42451 3.51178C6.50531 3.38027 6.50092 3.21226 6.41234 3.08548L5.80519 2.2045L6.16894 1.84379L7.03437 2.46751C7.15979 2.55946 7.32781 2.5669 7.46236 2.48881C7.72537 2.33161 8.00528 2.22005 8.29399 2.14973C8.44544 2.11457 8.56004 1.9922 8.58742 1.84075L8.78012 0.784309L9.29397 0.78769L9.46367 1.84548C9.48801 1.99997 9.60262 2.1237 9.75238 2.1619C10.0397 2.23526 10.3166 2.35291 10.5766 2.51044C10.7094 2.59293 10.8791 2.58684 11.0059 2.49658L11.8788 1.87759L12.2398 2.24135L11.6114 3.12199C11.5228 3.24877 11.515 3.41543 11.5945 3.54829C11.749 3.80994 11.8622 4.08817 11.9295 4.37383C11.966 4.52697 12.0897 4.64292 12.2459 4.67065L13.3084 4.84948L13.3054 5.36164Z" fill="#FFBD4C"/>
</svg>
