<svg width="25" height="30" viewBox="0 0 25 30" fill="none" xmlns="http://www.w3.org/2000/svg">
<path d="M9.28106 10.7194C9.28106 10.5167 9.4536 10.3438 9.65588 10.3438H13.4635C13.6658 10.3438 13.8383 10.5167 13.8383 10.7194C13.8383 10.9221 13.6658 11.095 13.4635 11.095H9.65588C9.4417 11.095 9.28106 10.934 9.28106 10.7194ZM9.65588 8.59698H15.1293C15.3316 8.59698 15.5041 8.42409 15.5041 8.22138C15.5041 8.01868 15.3316 7.84579 15.1293 7.84579H9.65588C9.4536 7.84579 9.28106 8.01868 9.28106 8.22138C9.28106 8.42409 9.4417 8.59698 9.65588 8.59698ZM9.65588 17.3788H13.4635C13.6658 17.3788 13.8383 17.2059 13.8383 17.0032C13.8383 16.8005 13.6658 16.6276 13.4635 16.6276H9.65588C9.4536 16.6276 9.28106 16.8005 9.28106 17.0032C9.28106 17.2059 9.4417 17.3788 9.65588 17.3788ZM9.65588 14.8748H15.1293C15.3316 14.8748 15.5041 14.7019 15.5041 14.4992C15.5041 14.2965 15.3316 14.1236 15.1293 14.1236H9.65588C9.4536 14.1236 9.28106 14.2965 9.28106 14.4992C9.28106 14.7019 9.4417 14.8748 9.65588 14.8748ZM9.65588 23.6566H11.9345C12.1368 23.6566 12.3093 23.4837 12.3093 23.281C12.3093 23.0783 12.1368 22.9054 11.9345 22.9054H9.65588C9.4536 22.9054 9.28106 23.0783 9.28106 23.281C9.28106 23.4837 9.4417 23.6566 9.65588 23.6566ZM9.65588 21.1526H11.643C11.8453 21.1526 12.0178 20.9797 12.0178 20.777C12.0178 20.5743 11.8453 20.4014 11.643 20.4014H9.65588C9.4536 20.4014 9.28106 20.5743 9.28106 20.777C9.28106 20.9797 9.4417 21.1526 9.65588 21.1526ZM4.5037 7.30326H6.87751C7.42485 7.30326 7.85916 7.74443 7.85916 8.28696V10.6657C7.85916 11.2142 7.4189 11.6494 6.87751 11.6494H4.5037C3.95635 11.6494 3.52205 11.2083 3.52205 10.6657V8.28696C3.52205 7.73847 3.96825 7.30326 4.5037 7.30326ZM4.26572 10.6538C4.26572 10.785 4.37281 10.8923 4.50965 10.8923H6.88346C7.01434 10.8923 7.12738 10.785 7.12738 10.6538V8.27504C7.12738 8.14388 7.02029 8.03657 6.88346 8.03657H4.49775C4.36686 8.03657 4.25382 8.14388 4.25382 8.27504V10.6538H4.26572ZM5.08079 10.3617C5.15813 10.4392 5.25332 10.469 5.34851 10.469C5.4437 10.469 5.53889 10.4392 5.61623 10.3617L6.86561 9.1097C7.01434 8.96065 7.01434 8.72218 6.86561 8.58505C6.71687 8.43601 6.4789 8.43601 6.34206 8.58505L5.34851 9.58068L5.06889 9.30048C4.92015 9.15143 4.68218 9.15143 4.54534 9.30048C4.39661 9.44952 4.39661 9.688 4.54534 9.82512L5.08079 10.3617ZM7.87106 14.5588V16.9376C7.87106 17.4861 7.4308 17.9213 6.88941 17.9213H4.5037C3.95635 17.9213 3.52205 17.4801 3.52205 16.9376V14.5588C3.52205 14.0103 3.9623 13.5751 4.5037 13.5751H6.87751C7.42485 13.5751 7.87106 14.0163 7.87106 14.5588ZM7.12143 14.5588C7.12143 14.4277 7.01434 14.3204 6.87751 14.3204H4.5037C4.37281 14.3204 4.25977 14.4277 4.25977 14.5588V16.9376C4.25977 17.0688 4.36686 17.1761 4.5037 17.1761H6.87751C7.00839 17.1761 7.12143 17.0688 7.12143 16.9376V14.5588ZM6.33016 14.8569L5.33661 15.8525L5.05699 15.5723C4.90826 15.4233 4.67028 15.4233 4.53344 15.5723C4.38471 15.7214 4.38471 15.9599 4.53344 16.097L5.08079 16.6455C5.15813 16.723 5.25332 16.7528 5.34851 16.7528C5.4437 16.7528 5.53889 16.723 5.61623 16.6455L6.86561 15.3935C7.01434 15.2444 7.01434 15.006 6.86561 14.8688C6.71687 14.7079 6.4789 14.7079 6.33016 14.8569ZM7.87106 20.8307V23.2095C7.87106 23.7579 7.4308 24.1932 6.88941 24.1932H4.5037C3.95635 24.1932 3.52205 23.752 3.52205 23.2095V20.8307C3.52205 20.2822 3.9623 19.847 4.5037 19.847H6.87751C7.42485 19.847 7.87106 20.2941 7.87106 20.8307ZM7.12143 20.8307C7.12143 20.6995 7.01434 20.5922 6.87751 20.5922H4.5037C4.37281 20.5922 4.25977 20.6995 4.25977 20.8307V23.2095C4.25977 23.3406 4.36686 23.4479 4.5037 23.4479H6.87751C7.00839 23.4479 7.12143 23.3406 7.12143 23.2095V20.8307ZM6.33016 21.1288L5.33661 22.1244L5.05699 21.8442C4.90826 21.6952 4.67028 21.6952 4.53344 21.8442C4.39661 21.9932 4.38471 22.2317 4.53344 22.3688L5.08079 22.9173C5.15813 22.9948 5.24142 23.0246 5.34851 23.0246C5.4437 23.0246 5.53889 22.9829 5.61623 22.9173L6.86561 21.6653C7.01434 21.5163 7.01434 21.2778 6.86561 21.1407C6.71687 20.9797 6.4789 20.9797 6.33016 21.1288ZM24.5294 20.3597C24.5591 22.5656 24.0356 24.527 22.9706 26.1844C22.0306 27.6391 20.6325 28.903 18.8239 29.9463C18.7704 29.9762 18.7049 30 18.6395 30C18.574 30 18.5086 29.9762 18.455 29.9463C17.1521 29.1951 16.0634 28.3307 15.1948 27.3529H1.62419C0.725827 27.3529 0 26.6256 0 25.7254V4.15541C0 3.25517 0.725827 2.52782 1.62419 2.52782H4.15863V2.02703C4.15863 1.82432 4.33116 1.65143 4.53344 1.65143H7.51409C7.69852 0.70946 8.53144 0 9.51309 0C10.4947 0 11.3277 0.715422 11.5121 1.65143H14.4927C14.695 1.65143 14.8676 1.82432 14.8676 2.02703V2.52782H17.402C18.3004 2.52782 19.0262 3.25517 19.0262 4.15541V16.9555L24.3568 20.0497C24.4639 20.1033 24.5294 20.2345 24.5294 20.3597ZM14.8557 3.27901V4.17925H16.9796C17.1819 4.17925 17.3544 4.35215 17.3544 4.55485V17.4801L18.2647 16.9555V4.15541C18.2647 3.6725 17.872 3.27901 17.3901 3.27901H14.8557ZM4.89636 5.20469C4.89636 5.52663 5.15218 5.78299 5.48535 5.78299H13.5349C13.8562 5.78299 14.1239 5.52663 14.1239 5.20469V2.39666H11.173C10.9707 2.39666 10.7982 2.23569 10.7982 2.02106C10.7982 1.31161 10.2092 0.733307 9.50714 0.733307C8.80511 0.733307 8.22207 1.31161 8.21612 2.02106C8.21612 2.22377 8.04359 2.39666 7.84131 2.39666H4.89041V5.20469H4.90231H4.89636ZM4.14673 5.20469V4.92448H2.39166V24.9503H13.636C13.4099 24.4555 13.2315 23.9428 13.0887 23.4062C13.0768 23.3764 13.0649 23.3406 13.0649 23.3108C12.8269 22.3927 12.7258 21.403 12.7317 20.3537C12.7317 20.2226 12.8091 20.1093 12.9161 20.0318L16.6048 17.9034V4.92448H14.8497V5.20469C14.8497 5.93203 14.2488 6.53418 13.523 6.53418H5.47345C4.73572 6.53418 4.13483 5.93203 4.13483 5.20469H4.14673ZM14.5998 26.6018C14.5046 26.4646 14.3975 26.3215 14.3083 26.1844C14.2012 26.0234 14.1179 25.8625 14.0168 25.7015H2.01685C1.81457 25.7015 1.64203 25.5286 1.64203 25.3259V4.54889C1.64203 4.34619 1.81457 4.17329 2.01685 4.17329H4.14078V3.27305H1.60634C1.12444 3.27305 0.731776 3.66653 0.731776 4.14944V25.7194C0.731776 26.2023 1.12444 26.5958 1.60634 26.5958H14.5939L14.5998 26.6018ZM23.7917 20.5803L18.6395 17.5934L13.4873 20.5803C13.4873 21.4686 13.5825 22.3152 13.7848 23.0962C13.8086 23.1498 13.8264 23.2035 13.8264 23.2572C14.4808 25.7015 16.0693 27.651 18.6335 29.1713C22.0842 27.1383 23.7738 24.3184 23.7857 20.5803H23.7917ZM15.9265 23.3406C15.7778 23.1916 15.5398 23.1916 15.403 23.3406C15.2543 23.4897 15.2543 23.7281 15.403 23.8653L17.2414 25.7075C17.3187 25.785 17.4139 25.8148 17.5091 25.8148C17.6043 25.8148 17.6995 25.785 17.7768 25.7075L21.8997 21.5819C22.0485 21.4328 22.0485 21.1944 21.8997 21.0572C21.751 20.9201 21.513 20.9082 21.3762 21.0572L17.521 24.9145L15.9265 23.3406Z" fill="#004E4E"/>
</svg>
