<svg width="26" height="31" viewBox="0 0 26 31" fill="none" xmlns="http://www.w3.org/2000/svg">
<path d="M23.0101 21.6401C23.0101 21.6857 23.0101 21.7378 22.9971 21.7834C22.9906 21.8289 22.9711 21.8745 22.9581 21.9201C22.9451 21.9657 22.9191 22.0047 22.8931 22.0438C22.8672 22.0828 22.8347 22.1219 22.8022 22.1545C22.7697 22.187 22.7307 22.2196 22.6917 22.2456C22.6528 22.2716 22.6073 22.2912 22.5683 22.3107C22.5228 22.3302 22.4774 22.3433 22.4319 22.3498C22.3864 22.3563 22.3409 22.3628 22.289 22.3628C22.237 22.3628 22.1915 22.3628 22.146 22.3498C22.1006 22.3433 22.0551 22.3237 22.0096 22.3107C21.9642 22.2977 21.9252 22.2716 21.8862 22.2456C21.8472 22.2196 21.8082 22.187 21.7758 22.1545C21.7433 22.1219 21.7108 22.0828 21.6848 22.0438C21.6588 22.0047 21.6328 21.9591 21.6198 21.9201C21.6069 21.881 21.5874 21.8289 21.5809 21.7834C21.5744 21.7378 21.5679 21.6922 21.5679 21.6401C21.5679 21.5881 21.5679 21.5425 21.5809 21.4969C21.5874 21.4513 21.6069 21.4058 21.6198 21.3602C21.6328 21.3146 21.6588 21.2756 21.6848 21.2365C21.7108 21.1974 21.7433 21.1584 21.7758 21.1258C21.8082 21.0933 21.8472 21.0607 21.8862 21.0347C21.9252 21.0086 21.9706 20.9826 22.0096 20.9696C22.0486 20.9565 22.1006 20.937 22.146 20.9305C22.1915 20.924 22.237 20.9175 22.289 20.9175C22.3409 20.9175 22.3864 20.9175 22.4319 20.9305C22.4774 20.937 22.5228 20.9565 22.5683 20.9696C22.6138 20.9891 22.6528 21.0086 22.6917 21.0347C22.7307 21.0607 22.7697 21.0933 22.8022 21.1258C22.8347 21.1584 22.8672 21.1974 22.8931 21.2365C22.9191 21.2756 22.9451 21.3211 22.9581 21.3602C22.9711 21.3993 22.9906 21.4513 22.9971 21.4969C23.0036 21.5425 23.0101 21.5881 23.0101 21.6401Z" fill="#004E4E"/>
<path d="M22.2826 18.7363C22.1917 18.7363 22.1072 18.7363 22.0163 18.7493C21.9253 18.7558 21.8409 18.7689 21.7499 18.7884C21.6655 18.8079 21.5745 18.8274 21.4901 18.847C21.4056 18.873 21.3212 18.8991 21.2367 18.9316C21.1523 18.9642 21.0743 18.9967 20.9898 19.0423C20.9119 19.0814 20.8339 19.1269 20.756 19.1725C20.678 19.2181 20.6066 19.2702 20.5351 19.3222C20.4636 19.3743 20.3922 19.4329 20.3272 19.4915C20.2623 19.5501 20.1973 19.6152 20.1388 19.6803C20.0804 19.7454 20.0219 19.817 19.9699 19.8886C19.9179 19.9603 19.866 20.0319 19.8205 20.11C19.775 20.1881 19.7295 20.2662 19.6906 20.3444C19.6516 20.4225 19.6126 20.5071 19.5801 20.5853C19.5476 20.6699 19.5217 20.7545 19.4957 20.8392C19.4697 20.9238 19.4502 21.0084 19.4307 21.0996C19.4112 21.1907 19.3982 21.2754 19.3917 21.3665C19.3852 21.4577 19.3787 21.5423 19.3787 21.6334C19.3787 21.7246 19.3787 21.8092 19.3917 21.9004C19.3982 21.9915 19.4112 22.0761 19.4242 22.1673C19.4372 22.2519 19.4567 22.3431 19.4827 22.4277C19.5087 22.5123 19.5347 22.597 19.5671 22.6816C19.5996 22.7662 19.6321 22.8444 19.6711 22.929C19.7101 23.0071 19.7555 23.0852 19.801 23.1634C19.8465 23.2415 19.8985 23.3131 19.9504 23.3847C20.0024 23.4563 20.0609 23.528 20.1193 23.5931C20.1778 23.6582 20.2428 23.7233 20.3077 23.7819C20.3727 23.8405 20.4442 23.899 20.5091 23.9576C20.5806 24.0097 20.652 24.0618 20.73 24.1139C20.8079 24.1595 20.8859 24.205 20.9639 24.2441C21.0418 24.2832 21.1263 24.3222 21.2042 24.3548C21.2822 24.3873 21.3731 24.4199 21.4576 24.4394C21.542 24.4655 21.6265 24.485 21.7174 24.5045C21.6915 24.6803 21.6525 24.8626 21.607 25.0384C21.5615 25.2142 21.5096 25.3834 21.4511 25.5592C21.3926 25.7285 21.3212 25.8977 21.2432 26.0605C21.1652 26.2233 21.0808 26.386 20.9898 26.5423C20.8989 26.6985 20.8015 26.8483 20.6975 26.998C20.5936 27.1477 20.4831 27.2845 20.3597 27.4212C20.2428 27.5579 20.1193 27.6881 19.9829 27.8118C19.8465 27.9355 19.7166 28.0527 19.5736 28.1699C19.4307 28.2806 19.2878 28.3847 19.1319 28.4824C18.976 28.58 18.8266 28.6712 18.6641 28.7558C18.5017 28.8404 18.3393 28.9121 18.1704 28.9837C18.0015 29.0553 17.8326 29.1139 17.6572 29.166C17.4818 29.218 17.3064 29.2636 17.131 29.2962C16.9556 29.3352 16.7737 29.3613 16.5983 29.3808C16.4229 29.4003 16.241 29.4134 16.0591 29.4134C15.8772 29.4134 15.6953 29.4134 15.5199 29.3938C15.338 29.3808 15.1626 29.3548 14.9807 29.3287C14.7988 29.3027 14.6299 29.2571 14.4545 29.2115C14.2791 29.166 14.1102 29.1074 13.9413 29.0423C13.7724 28.9772 13.6034 28.9056 13.441 28.8274C13.2786 28.7493 13.1227 28.6647 12.9668 28.567C12.8109 28.4759 12.6615 28.3717 12.5186 28.2675C12.3756 28.1569 12.2327 28.0462 12.1028 27.9225C11.9664 27.7988 11.8429 27.6751 11.7195 27.5449C11.5961 27.4147 11.4791 27.2714 11.3687 27.1282C11.2583 26.985 11.1543 26.8352 11.0634 26.6855C10.9724 26.5358 10.8815 26.373 10.797 26.2102C10.719 26.0475 10.6411 25.8847 10.5761 25.7155C10.5112 25.5462 10.4527 25.3769 10.4007 25.2011C10.3488 25.0254 10.3098 24.8496 10.2773 24.6738C10.2448 24.498 10.2188 24.3157 10.1993 24.1399C10.1798 23.9576 10.1734 23.7819 10.1734 23.5996V22.1217C10.3293 22.1152 10.4787 22.1022 10.6346 22.0892C10.7905 22.0761 10.9399 22.0566 11.0893 22.0306C11.2388 22.011 11.3947 21.985 11.5441 21.9524C11.6935 21.9199 11.8429 21.8873 11.9923 21.8548C12.1418 21.8157 12.2912 21.7767 12.4341 21.7376C12.577 21.6985 12.7264 21.6465 12.8694 21.5944C13.0123 21.5423 13.1552 21.4902 13.2981 21.4316C13.441 21.373 13.584 21.3144 13.7204 21.2493C13.8568 21.1842 13.9997 21.1191 14.1362 21.0475C14.2726 20.9759 14.409 20.9043 14.5389 20.8261C14.6689 20.748 14.8053 20.6699 14.9287 20.5853C15.0586 20.5006 15.1821 20.416 15.3055 20.3248C15.4289 20.2337 15.5524 20.1425 15.6758 20.0514C15.7992 19.9603 15.9162 19.8561 16.0266 19.7584C16.137 19.6608 16.254 19.5566 16.3644 19.4459C16.4749 19.3353 16.5853 19.2311 16.6892 19.1204C16.7932 19.0097 16.8971 18.8991 17.0011 18.7819C17.0985 18.6647 17.196 18.5475 17.2934 18.4303C17.3908 18.3066 17.4818 18.1894 17.5662 18.0592C17.6507 17.929 17.7417 17.8053 17.8261 17.6816C17.9106 17.5514 17.9885 17.4212 18.0665 17.291C18.1444 17.1608 18.2159 17.0241 18.2873 16.8873C18.3588 16.7506 18.4238 16.6139 18.4887 16.4707C18.5537 16.3275 18.6122 16.1907 18.6706 16.0475C18.7291 15.9043 18.7811 15.761 18.833 15.6178C18.885 15.4746 18.9305 15.3249 18.976 15.1816C19.0214 15.0319 19.0604 14.8887 19.0929 14.7389C19.1319 14.5892 19.1644 14.4394 19.1903 14.2897C19.2163 14.14 19.2423 13.9902 19.2683 13.834C19.2878 13.6842 19.3073 13.528 19.3203 13.3782C19.3333 13.2285 19.3463 13.0723 19.3528 12.9225C19.3593 12.7728 19.3657 12.6165 19.3657 12.4603V8.10481C19.3657 8.10481 19.3658 8.03971 19.3593 8.00716C19.3593 7.97461 19.3463 7.94856 19.3333 7.91601C19.3203 7.88346 19.3073 7.85742 19.2878 7.83138C19.2683 7.80534 19.2488 7.77929 19.2293 7.75976C19.2098 7.74023 19.1838 7.71419 19.1579 7.70117C19.1319 7.68164 19.1059 7.66862 19.0734 7.6556C19.0474 7.64258 19.0149 7.63607 18.9825 7.62956C18.95 7.62956 18.9175 7.62305 18.885 7.62305H17.7806C17.7806 7.62305 17.7416 7.56445 17.7222 7.5319C17.7027 7.49935 17.6767 7.47331 17.6572 7.44726C17.6312 7.42122 17.6052 7.39518 17.5792 7.37565C17.5533 7.34961 17.5273 7.33008 17.4948 7.31055C17.4688 7.29102 17.4363 7.27148 17.4038 7.25195C17.3714 7.23242 17.3389 7.2194 17.3064 7.20638C17.2739 7.19336 17.2414 7.18034 17.2089 7.17383C17.1765 7.16732 17.144 7.1543 17.105 7.14779C17.0725 7.14779 17.0335 7.13477 17.0011 7.13477C16.9686 7.13477 16.9296 7.13477 16.8971 7.13477C16.8646 7.13477 16.8257 7.13477 16.7932 7.14779C16.7607 7.14779 16.7217 7.16081 16.6892 7.16732C16.6568 7.17383 16.6243 7.18685 16.5918 7.19987C16.5593 7.21289 16.5268 7.22591 16.4943 7.24544C16.4619 7.26497 16.4359 7.27799 16.4034 7.29753C16.3774 7.31706 16.3449 7.33659 16.3189 7.36263C16.293 7.38867 16.267 7.4082 16.241 7.43424C16.215 7.46029 16.1955 7.48633 16.1695 7.51237C16.15 7.53841 16.1305 7.57096 16.1111 7.597C16.0916 7.62956 16.0786 7.6556 16.0591 7.68815C16.0461 7.7207 16.0331 7.75325 16.0201 7.78581C16.0071 7.81836 16.0006 7.85091 15.9941 7.88997C15.9876 7.92252 15.9811 7.96159 15.9746 7.99414C15.9746 8.02669 15.9746 8.06575 15.9746 8.0983C15.9746 8.13086 15.9746 8.16992 15.9746 8.20247C15.9746 8.23502 15.9811 8.27409 15.9941 8.30664C16.0006 8.33919 16.0136 8.37825 16.0201 8.4108C16.0331 8.44336 16.0461 8.47591 16.0591 8.50846C16.0721 8.54101 16.0916 8.57356 16.1111 8.59961C16.1305 8.63216 16.15 8.6582 16.1695 8.68424C16.189 8.71028 16.215 8.73632 16.241 8.76237C16.267 8.78841 16.293 8.81445 16.3189 8.83398C16.3449 8.85351 16.3774 8.87955 16.4034 8.89908C16.4294 8.91862 16.4619 8.93815 16.4943 8.95117C16.5268 8.96419 16.5593 8.98372 16.5918 8.99674C16.6243 9.00976 16.6568 9.02278 16.6892 9.02929C16.7217 9.0358 16.7607 9.04231 16.7932 9.04882C16.8257 9.04882 16.8646 9.05533 16.8971 9.06184C16.9296 9.06184 16.9686 9.06184 17.0011 9.06184C17.0335 9.06184 17.0725 9.05533 17.105 9.04882C17.1375 9.04231 17.1765 9.0358 17.2089 9.02278C17.2414 9.00976 17.2739 9.00325 17.3064 8.99023C17.3389 8.97721 17.3714 8.96419 17.4038 8.94466C17.4363 8.92513 17.4623 8.9121 17.4948 8.88606C17.5208 8.86653 17.5533 8.847 17.5792 8.82096C17.6052 8.79492 17.6312 8.77539 17.6572 8.74935C17.6832 8.7233 17.7027 8.69726 17.7222 8.66471C17.7416 8.63216 17.7611 8.60612 17.7806 8.57356H18.3978V12.4473C18.3978 12.5905 18.3978 12.7337 18.3848 12.8769C18.3783 13.0202 18.3653 13.1634 18.3523 13.3066C18.3393 13.4499 18.3198 13.5931 18.3003 13.7298C18.2809 13.873 18.2549 14.0097 18.2289 14.153C18.2029 14.2962 18.1704 14.4329 18.1379 14.5696C18.1054 14.7064 18.0665 14.8431 18.021 14.9798C17.9755 15.1165 17.9365 15.2532 17.8846 15.3834C17.8391 15.5202 17.7871 15.6504 17.7287 15.7806C17.6767 15.9108 17.6182 16.041 17.5533 16.1712C17.4948 16.3014 17.4298 16.4251 17.3584 16.5553C17.2869 16.6855 17.2219 16.8027 17.1505 16.9264C17.079 17.0501 17.0011 17.1673 16.9231 17.291C16.8451 17.4082 16.7607 17.5254 16.6762 17.6426C16.5918 17.7597 16.5008 17.8704 16.4099 17.9811C16.3189 18.0918 16.228 18.2024 16.1305 18.3066C16.0331 18.4108 15.9357 18.5149 15.8382 18.6191C15.7408 18.7233 15.6368 18.8209 15.5264 18.9121C15.4224 19.0097 15.312 19.1009 15.2016 19.192C15.0911 19.2832 14.9807 19.3678 14.8637 19.4524C14.7468 19.5371 14.6299 19.6217 14.5129 19.6998C14.396 19.778 14.2726 19.8561 14.1491 19.9277C14.0257 19.9993 13.9023 20.0709 13.7789 20.136C13.6554 20.2011 13.5255 20.2662 13.3956 20.3313C13.2656 20.3899 13.1357 20.4485 13.0058 20.5071C12.8759 20.5592 12.7394 20.6113 12.6095 20.6634C12.4796 20.7155 12.3431 20.7545 12.2067 20.8001C12.0703 20.8457 11.9339 20.8782 11.7975 20.9173C11.661 20.9498 11.5181 20.9824 11.3817 21.0084C11.2388 21.0345 11.1023 21.0605 10.9594 21.08C10.8165 21.0996 10.6801 21.1191 10.5372 21.1321C10.3942 21.1452 10.2513 21.1582 10.1084 21.1647C9.96547 21.1712 9.82255 21.1777 9.67963 21.1777C9.53671 21.1777 9.39378 21.1777 9.25086 21.1647C9.10794 21.1517 8.96502 21.1452 8.8221 21.1321C8.67918 21.1191 8.53626 21.0996 8.39984 21.08C8.25692 21.0605 8.12049 21.0345 7.97757 21.0084C7.83465 20.9824 7.69823 20.9498 7.5618 20.9173C7.42538 20.8847 7.28895 20.8457 7.15253 20.8001C7.0161 20.761 6.87968 20.7155 6.74975 20.6634C6.61982 20.6113 6.4834 20.5657 6.35347 20.5071C6.22354 20.455 6.09362 20.3965 5.96369 20.3313C5.83376 20.2728 5.71033 20.2077 5.5804 20.136C5.45047 20.0644 5.33354 19.9993 5.21011 19.9277C5.08668 19.8561 4.96974 19.778 4.84631 19.6998C4.72937 19.6217 4.61244 19.5371 4.4955 19.4524C4.37857 19.3678 4.26813 19.2767 4.15769 19.192C4.04725 19.1009 3.93682 19.0097 3.83287 18.9121C3.72893 18.8144 3.62499 18.7168 3.52104 18.6191C3.4236 18.5215 3.31966 18.4173 3.22871 18.3066C3.13126 18.2024 3.04031 18.0918 2.94936 17.9811C2.85841 17.8704 2.77396 17.7597 2.68951 17.6426C2.60505 17.5254 2.5206 17.4147 2.44264 17.291C2.36469 17.1738 2.28673 17.0501 2.21527 16.9264C2.14381 16.8027 2.07235 16.679 2.00739 16.5553C1.94242 16.4316 1.87746 16.3014 1.81249 16.1712C1.74753 16.041 1.69556 15.9108 1.63709 15.7806C1.58512 15.6504 1.53315 15.5137 1.48118 15.3834C1.4357 15.2467 1.39023 15.1165 1.34475 14.9798C1.29928 14.8431 1.2668 14.7064 1.22782 14.5696C1.19534 14.4329 1.16285 14.2897 1.13687 14.153C1.11088 14.0163 1.0849 13.873 1.06541 13.7298C1.04592 13.5866 1.02643 13.4499 1.01344 13.3066C1.00045 13.1634 0.987451 13.0202 0.980954 12.8769C0.974458 12.7337 0.967961 12.5905 0.967961 12.4473V9.05533H1.58512C1.58512 9.05533 1.6241 9.11393 1.64359 9.14648C1.66308 9.17903 1.68906 9.20507 1.70855 9.23111C1.73454 9.25715 1.76052 9.2832 1.78651 9.30273C1.81249 9.32877 1.83848 9.3483 1.87096 9.36783C1.90344 9.38736 1.92943 9.4069 1.96191 9.42643C1.99439 9.44596 2.02687 9.45898 2.05936 9.472C2.09184 9.48502 2.12432 9.49804 2.1568 9.50455C2.18928 9.51757 2.22177 9.52408 2.26074 9.53059C2.29972 9.5371 2.3322 9.54361 2.36469 9.54361C2.39717 9.54361 2.43615 9.54361 2.46863 9.54361C2.50111 9.54361 2.54009 9.54361 2.57257 9.53059C2.60505 9.53059 2.64403 9.51757 2.67651 9.51106C2.709 9.50455 2.74148 9.49153 2.77396 9.47851C2.80644 9.46549 2.83892 9.45247 2.8714 9.43294C2.90389 9.41341 2.92987 9.40038 2.96236 9.38085C2.98834 9.36132 3.02082 9.34179 3.04681 9.31575C3.07279 9.29622 3.09878 9.27018 3.12477 9.24413C3.15075 9.21809 3.17024 9.19205 3.19622 9.16601C3.21571 9.13997 3.2352 9.10742 3.25469 9.08137C3.27418 9.04882 3.28718 9.02278 3.30666 8.99023C3.32615 8.95768 3.33265 8.92512 3.34564 8.89257C3.35864 8.86002 3.36513 8.82747 3.37163 8.78841C3.37812 8.75585 3.38462 8.71679 3.39112 8.68424C3.39112 8.65169 3.39112 8.61263 3.39112 8.58007C3.39112 8.54752 3.39112 8.50846 3.39112 8.47591C3.39112 8.44335 3.38462 8.40429 3.37163 8.37174C3.36513 8.33919 3.35214 8.30013 3.34564 8.26757C3.33915 8.23502 3.31966 8.20247 3.30666 8.16992C3.29367 8.13737 3.27418 8.10481 3.25469 8.07877C3.2352 8.04622 3.21571 8.02018 3.19622 7.99414C3.17674 7.9681 3.15075 7.94205 3.12477 7.91601C3.09878 7.88997 3.07279 7.86393 3.04681 7.8444C3.02082 7.82487 2.99484 7.79883 2.96236 7.77929C2.92987 7.75976 2.90389 7.74023 2.8714 7.72721C2.83892 7.71419 2.80644 7.69466 2.77396 7.68164C2.74148 7.66862 2.709 7.6556 2.67651 7.64909C2.64403 7.64258 2.60505 7.63607 2.57257 7.62956C2.54009 7.62956 2.50111 7.62304 2.46863 7.61653C2.43615 7.61653 2.39717 7.61653 2.36469 7.61653C2.3322 7.61653 2.29323 7.61653 2.26074 7.62956C2.22826 7.64258 2.18928 7.64258 2.1568 7.6556C2.12432 7.66862 2.09184 7.67513 2.05936 7.68815C2.02687 7.70117 1.99439 7.71419 1.96191 7.73372C1.92943 7.75325 1.90344 7.76627 1.87096 7.79232C1.83848 7.81836 1.81249 7.83138 1.78651 7.85742C1.76052 7.88346 1.73454 7.90299 1.70855 7.92903C1.68257 7.95507 1.66308 7.98112 1.64359 8.01367C1.6241 8.04622 1.60461 8.07226 1.58512 8.10481H0.480732C0.480732 8.10481 0.415769 8.10482 0.383287 8.11133C0.350805 8.11133 0.32482 8.12434 0.292338 8.13737C0.266353 8.15039 0.23387 8.16341 0.207884 8.18294C0.181899 8.20247 0.155913 8.222 0.136424 8.24153C0.116934 8.26106 0.0909488 8.28711 0.077956 8.31315C0.0649632 8.33919 0.0454743 8.36523 0.0324815 8.39778C0.0194887 8.42382 0.0129917 8.45638 0.0064953 8.48893C0.0064953 8.52148 0 8.55403 0 8.58658V12.4603C0 12.6165 2.97672e-07 12.7663 0.0129931 12.9225C0.0259859 13.0788 0.0324818 13.2285 0.0454746 13.3782C0.0584673 13.528 0.0779566 13.6842 0.103942 13.834C0.123431 13.9837 0.149416 14.14 0.181898 14.2897C0.207884 14.4394 0.246863 14.5892 0.279345 14.7389C0.318323 14.8887 0.357302 15.0384 0.39628 15.1816C0.441755 15.3314 0.487228 15.4746 0.539199 15.6178C0.591171 15.761 0.643142 15.9043 0.701609 16.0475C0.760077 16.1907 0.818546 16.3275 0.88351 16.4707C0.948474 16.6074 1.01344 16.7506 1.0849 16.8873C1.15636 17.0241 1.22782 17.1608 1.30577 17.291C1.38373 17.4212 1.46169 17.5514 1.54614 17.6816C1.6306 17.8118 1.71505 17.9355 1.806 18.0592C1.89695 18.1829 1.9879 18.3066 2.07885 18.4303C2.1698 18.554 2.27374 18.6712 2.37118 18.7819C2.46863 18.8991 2.57257 19.0097 2.68301 19.1204C2.78695 19.2311 2.89739 19.3418 3.00783 19.4459C3.11827 19.5501 3.2352 19.6543 3.34564 19.7584C3.45608 19.8626 3.57951 19.9537 3.69645 20.0514C3.81988 20.1491 3.93681 20.2402 4.06674 20.3248C4.19667 20.4095 4.3201 20.5006 4.44353 20.5853C4.57346 20.6699 4.70339 20.748 4.83332 20.8261C4.96324 20.9043 5.09967 20.9759 5.23609 21.0475C5.37252 21.1191 5.50894 21.1842 5.65186 21.2493C5.78829 21.3144 5.93121 21.373 6.07413 21.4316C6.21705 21.4902 6.35997 21.5423 6.50289 21.5944C6.64581 21.6465 6.79523 21.692 6.93815 21.7376C7.08757 21.7832 7.23049 21.8222 7.3799 21.8548C7.52932 21.8938 7.67874 21.9264 7.82815 21.9524C7.97757 21.9785 8.12699 22.0045 8.2829 22.0306C8.43232 22.0501 8.58823 22.0696 8.73765 22.0892C8.88707 22.1087 9.04298 22.1152 9.19889 22.1217V23.5996C9.19889 23.7037 9.19889 23.8144 9.20539 23.9186C9.20539 24.0227 9.21838 24.1269 9.22488 24.2376C9.23787 24.3418 9.24437 24.4459 9.26386 24.5566C9.28335 24.6673 9.29634 24.7649 9.31583 24.8691C9.33532 24.9733 9.35481 25.0774 9.38079 25.1816C9.40678 25.2858 9.43276 25.3899 9.45875 25.4876C9.48474 25.5918 9.51722 25.6894 9.55619 25.7936C9.58868 25.8912 9.62766 25.9954 9.66663 26.0931C9.70561 26.1907 9.74459 26.2884 9.79006 26.386C9.83554 26.4837 9.88101 26.5813 9.92649 26.6725C9.97196 26.7701 10.0239 26.8613 10.0759 26.9524C10.1279 27.0436 10.1798 27.1347 10.2383 27.2259C10.2968 27.317 10.3553 27.4016 10.4137 27.4928C10.4722 27.5839 10.5372 27.6621 10.6021 27.7467C10.6671 27.8313 10.732 27.916 10.8035 27.9941C10.875 28.0722 10.9399 28.1569 11.0114 28.235C11.0828 28.3131 11.1608 28.3912 11.2323 28.4628C11.3102 28.5345 11.3882 28.6061 11.4661 28.6777C11.5441 28.7493 11.6285 28.8144 11.7065 28.886C11.791 28.9511 11.8754 29.0162 11.9599 29.0813C12.0443 29.1464 12.1353 29.205 12.2197 29.2636C12.3107 29.3222 12.3951 29.3808 12.4861 29.4329C12.577 29.485 12.668 29.5371 12.7654 29.5891C12.8629 29.6412 12.9538 29.6868 13.0513 29.7324C13.1487 29.7779 13.2461 29.8235 13.3436 29.8626C13.441 29.9016 13.5385 29.9407 13.6359 29.9798C13.7334 30.0188 13.8373 30.0514 13.9348 30.0839C14.0387 30.1165 14.1362 30.1425 14.2401 30.1751C14.344 30.2076 14.448 30.2272 14.5519 30.2467C14.6559 30.2662 14.7598 30.2858 14.8637 30.3053C14.9677 30.3248 15.0716 30.3378 15.1756 30.3509C15.2795 30.3639 15.3835 30.3704 15.4939 30.3769C15.5978 30.3834 15.7083 30.3899 15.8122 30.3899C15.9162 30.3899 16.0266 30.3899 16.1305 30.3899C16.2345 30.3899 16.3449 30.3834 16.4489 30.3769C16.5528 30.3704 16.6568 30.3574 16.7672 30.3443C16.8711 30.3313 16.9751 30.3183 17.079 30.2988C17.183 30.2792 17.2869 30.2597 17.3908 30.2402C17.4948 30.2206 17.5987 30.1946 17.7027 30.1686C17.8066 30.1425 17.9041 30.11 18.008 30.0774C18.1119 30.0449 18.2094 30.0123 18.3068 29.9733C18.4043 29.9342 18.5017 29.8951 18.5992 29.8561C18.6966 29.817 18.7941 29.7714 18.8915 29.7259C18.989 29.6803 19.0799 29.6347 19.1774 29.5826C19.2683 29.5305 19.3657 29.4785 19.4567 29.4264C19.5476 29.3743 19.6386 29.3157 19.7231 29.2571C19.8075 29.1985 19.8985 29.1399 19.9829 29.0748C20.0674 29.0097 20.1518 28.9446 20.2363 28.8795C20.3207 28.8144 20.3987 28.7428 20.4766 28.6712C20.5546 28.5996 20.6325 28.5279 20.7105 28.4563C20.7885 28.3847 20.8599 28.3066 20.9314 28.2285C21.0028 28.1503 21.0743 28.0722 21.1393 27.9876C21.2107 27.9095 21.2757 27.8248 21.3407 27.7402C21.4056 27.6556 21.4706 27.5709 21.529 27.4863C21.5875 27.4016 21.646 27.3105 21.7044 27.2194C21.7629 27.1282 21.8149 27.0371 21.8669 26.9459C21.9188 26.8548 21.9708 26.7571 22.0163 26.666C22.0618 26.5683 22.1072 26.4772 22.1527 26.3795C22.1982 26.2819 22.2372 26.1842 22.2761 26.0865C22.3151 25.9889 22.3541 25.8912 22.3866 25.7871C22.4191 25.6894 22.4515 25.5852 22.484 25.4811C22.51 25.3769 22.5425 25.2793 22.562 25.1751C22.5815 25.0709 22.6075 24.9668 22.6269 24.8626C22.6464 24.7584 22.6659 24.6543 22.6789 24.5501C22.7699 24.5371 22.8543 24.5175 22.9453 24.498C23.0362 24.4785 23.1207 24.4524 23.2051 24.4199C23.2896 24.3873 23.374 24.3548 23.4585 24.3157C23.5429 24.2767 23.6209 24.2376 23.6988 24.192C23.7768 24.1464 23.8548 24.1009 23.9262 24.0488C23.9977 23.9967 24.0691 23.9381 24.1406 23.8795C24.2121 23.8209 24.277 23.7558 24.3355 23.6907C24.4005 23.6256 24.4589 23.5605 24.5174 23.4889C24.5759 23.4173 24.6278 23.3457 24.6733 23.2675C24.7253 23.1894 24.7708 23.1113 24.8097 23.0332C24.8487 22.955 24.8877 22.8704 24.9267 22.7858C24.9656 22.7011 24.9916 22.6165 25.0176 22.5319C25.0436 22.4472 25.0696 22.3561 25.0891 22.2715C25.1086 22.1868 25.1216 22.0957 25.1345 22.0045C25.1475 21.9134 25.154 21.8222 25.154 21.7311C25.154 21.6399 25.154 21.5488 25.1475 21.4577C25.1475 21.3665 25.128 21.2754 25.1151 21.1907C25.1021 21.1061 25.0826 21.0149 25.0566 20.9238C25.0306 20.8327 25.0046 20.748 24.9721 20.6634C24.9397 20.5787 24.9072 20.4941 24.8682 20.416C24.8292 20.3314 24.7837 20.2532 24.7383 20.1751C24.6928 20.097 24.6408 20.0189 24.5889 19.9472C24.5369 19.8756 24.4784 19.804 24.4199 19.7389C24.3615 19.6738 24.2965 19.6087 24.2316 19.5436C24.1666 19.485 24.0951 19.4264 24.0237 19.3678C23.9522 19.3092 23.8807 19.2636 23.8028 19.2116C23.7248 19.166 23.6469 19.1204 23.5689 19.0748C23.491 19.0358 23.4065 18.9967 23.3221 18.9642C23.2376 18.9316 23.1531 18.8991 23.0687 18.873C22.9842 18.847 22.8933 18.8274 22.8088 18.8079C22.7179 18.7884 22.6334 18.7754 22.5425 18.7689C22.4515 18.7623 22.3606 18.7558 22.2696 18.7558L22.2826 18.7363ZM22.2826 23.58C22.2177 23.58 22.1592 23.58 22.0942 23.5735C22.0293 23.5735 21.9708 23.5605 21.9058 23.5475C21.8409 23.5345 21.7824 23.5214 21.7239 23.5019C21.6655 23.4824 21.6005 23.4629 21.542 23.4368C21.4836 23.4108 21.4251 23.3847 21.3731 23.3587C21.3212 23.3326 21.2627 23.2936 21.2107 23.261C21.1588 23.2285 21.1068 23.1894 21.0548 23.1504C21.0028 23.1113 20.9574 23.0657 20.9119 23.0201C20.8664 22.9746 20.8274 22.929 20.782 22.8769C20.743 22.8248 20.704 22.7793 20.6715 22.7272C20.639 22.6751 20.6066 22.623 20.5741 22.5644C20.5416 22.5058 20.5156 22.4537 20.4896 22.3951C20.4636 22.3366 20.4442 22.278 20.4247 22.2194C20.4052 22.1608 20.3922 22.0957 20.3792 22.0371C20.3662 21.972 20.3597 21.9134 20.3532 21.8483C20.3532 21.7832 20.3467 21.7246 20.3467 21.6595C20.3467 21.5944 20.3467 21.5358 20.3532 21.4707C20.3532 21.4056 20.3662 21.347 20.3792 21.2819C20.3922 21.2168 20.4052 21.1582 20.4247 21.0996C20.4442 21.041 20.4636 20.9759 20.4896 20.9173C20.5156 20.8587 20.5416 20.8001 20.5741 20.748C20.6066 20.6959 20.639 20.6373 20.6715 20.5853C20.704 20.5332 20.743 20.4811 20.782 20.4355C20.8209 20.3899 20.8664 20.3379 20.9119 20.2923C20.9574 20.2467 21.0028 20.2077 21.0548 20.1621C21.1068 20.123 21.1523 20.084 21.2107 20.0514C21.2627 20.0188 21.3147 19.9863 21.3731 19.9537C21.4316 19.9212 21.4836 19.8952 21.542 19.8691C21.6005 19.8431 21.659 19.8235 21.7239 19.804C21.7824 19.7845 21.8474 19.7715 21.9058 19.7584C21.9643 19.7454 22.0293 19.7389 22.0942 19.7324C22.1592 19.7324 22.2177 19.7259 22.2826 19.7259C22.3476 19.7259 22.4061 19.7259 22.471 19.7324C22.536 19.7324 22.5945 19.7454 22.6594 19.7584C22.7244 19.7715 22.7829 19.7845 22.8413 19.804C22.8998 19.8235 22.9648 19.8431 23.0232 19.8691C23.0817 19.8952 23.1402 19.9212 23.1921 19.9537C23.2506 19.9863 23.3026 20.0188 23.3545 20.0514C23.4065 20.084 23.4585 20.123 23.504 20.1621C23.5494 20.2011 23.6014 20.2467 23.6469 20.2923C23.6923 20.3379 23.7313 20.3834 23.7768 20.4355C23.8223 20.4876 23.8548 20.5332 23.8872 20.5853C23.9197 20.6373 23.9522 20.6894 23.9847 20.748C24.0172 20.8066 24.0432 20.8587 24.0691 20.9173C24.0951 20.9759 24.1146 21.0345 24.1341 21.0996C24.1536 21.1582 24.1666 21.2233 24.1796 21.2819C24.1926 21.3405 24.1991 21.4056 24.2056 21.4707C24.2056 21.5358 24.2121 21.5944 24.2121 21.6595C24.2121 21.7246 24.2121 21.7832 24.2056 21.8483C24.2056 21.9134 24.1926 21.972 24.1796 22.0371C24.1666 22.1022 24.1536 22.1608 24.1341 22.2194C24.1146 22.278 24.0951 22.3366 24.0691 22.3951C24.0432 22.4537 24.0172 22.5123 23.9847 22.5644C23.9522 22.623 23.9197 22.6751 23.8872 22.7272C23.8548 22.7793 23.8158 22.8313 23.7768 22.8769C23.7378 22.929 23.6923 22.9746 23.6469 23.0201C23.6014 23.0657 23.5559 23.1048 23.504 23.1504C23.452 23.1959 23.4065 23.2285 23.3545 23.261C23.3026 23.2936 23.2506 23.3261 23.1921 23.3587C23.1337 23.3912 23.0817 23.4173 23.0232 23.4368C22.9648 23.4629 22.9063 23.4824 22.8413 23.5019C22.7829 23.5214 22.7179 23.5345 22.6594 23.5475C22.5945 23.5605 22.536 23.567 22.471 23.5735C22.4061 23.5735 22.3476 23.58 22.2826 23.58Z" fill="#004E4E"/>
<path d="M13.5775 0.390137H5.83383C5.78835 0.390137 5.73638 0.390136 5.69091 0.396646C5.64543 0.396646 5.59346 0.409669 5.54799 0.416179C5.50251 0.422689 5.45704 0.43571 5.41156 0.44873C5.36609 0.461751 5.32061 0.481282 5.27514 0.494303C5.22966 0.507324 5.19068 0.533366 5.14521 0.552897C5.10623 0.572428 5.06076 0.59847 5.02178 0.624512C4.9828 0.650553 4.94382 0.676593 4.90484 0.709145C4.86586 0.741697 4.83338 0.77425 4.8009 0.806802C4.76842 0.839354 4.73594 0.878416 4.70345 0.910968C4.67097 0.94352 4.64499 0.989093 4.619 1.02816C4.59302 1.06722 4.56703 1.10628 4.54754 1.15185C4.52805 1.19091 4.50207 1.23649 4.48907 1.28206C4.47608 1.32763 4.45659 1.37321 4.4436 1.41878C4.43061 1.46435 4.41761 1.50993 4.41112 1.5555C4.40462 1.60107 4.39812 1.64664 4.39163 1.69873C4.39163 1.7443 4.38513 1.79638 4.38513 1.84196V16.2495C4.38513 16.295 4.38513 16.3471 4.39163 16.3927C4.39163 16.4383 4.40462 16.4838 4.41112 16.5359C4.41761 16.588 4.43061 16.6271 4.4436 16.6726C4.45659 16.7182 4.47608 16.7638 4.48907 16.8094C4.50856 16.8549 4.52805 16.894 4.54754 16.9396C4.56703 16.9786 4.59302 17.0242 4.619 17.0633C4.64499 17.1023 4.67097 17.1414 4.70345 17.1805C4.73594 17.2195 4.76842 17.2521 4.8009 17.2846C4.83338 17.3172 4.87236 17.3497 4.90484 17.3823C4.93732 17.4148 4.9828 17.4409 5.02178 17.4669C5.06076 17.493 5.09973 17.519 5.14521 17.5385C5.19068 17.5581 5.22966 17.5841 5.27514 17.5971C5.32061 17.6101 5.36609 17.6297 5.41156 17.6427C5.45704 17.6557 5.50251 17.6687 5.54799 17.6753C5.59346 17.6818 5.63893 17.6948 5.69091 17.6948C5.73638 17.6948 5.78835 17.7013 5.83383 17.7013H13.5775C13.623 17.7013 13.675 17.7013 13.7204 17.6948C13.7659 17.6948 13.8179 17.6818 13.8634 17.6753C13.9088 17.6687 13.9543 17.6557 13.9998 17.6427C14.0453 17.6297 14.0907 17.6101 14.1362 17.5971C14.1817 17.5776 14.2207 17.5581 14.2661 17.5385C14.3116 17.519 14.3506 17.493 14.3896 17.4669C14.4286 17.4409 14.4675 17.4148 14.5065 17.3823C14.5455 17.3497 14.578 17.3172 14.6105 17.2846C14.6429 17.2521 14.6754 17.213 14.7079 17.1805C14.7404 17.1414 14.7664 17.1088 14.7924 17.0633C14.8183 17.0242 14.8443 16.9851 14.8638 16.9396C14.8833 16.9005 14.9093 16.8549 14.9223 16.8094C14.9418 16.7638 14.9548 16.7182 14.9678 16.6726C14.9808 16.6271 14.9937 16.5815 15.0002 16.5359C15.0067 16.4904 15.0132 16.4448 15.0197 16.3927C15.0197 16.3471 15.0262 16.295 15.0262 16.2495V1.84196C15.0262 1.79638 15.0262 1.7443 15.0197 1.69873C15.0197 1.65315 15.0067 1.60107 15.0002 1.5555C14.9937 1.50993 14.9808 1.46435 14.9678 1.41878C14.9548 1.37321 14.9353 1.32763 14.9223 1.28206C14.9028 1.23649 14.8833 1.19743 14.8638 1.15185C14.8443 1.11279 14.8183 1.06722 14.7924 1.02816C14.7664 0.989093 14.7404 0.950031 14.7079 0.910968C14.6754 0.871906 14.6429 0.839354 14.6105 0.806802C14.578 0.77425 14.539 0.741697 14.5065 0.709145C14.4675 0.676593 14.4286 0.650553 14.3896 0.624512C14.3506 0.59847 14.3116 0.572428 14.2661 0.552897C14.2272 0.533366 14.1817 0.507324 14.1362 0.494303C14.0907 0.474772 14.0453 0.461751 13.9998 0.44873C13.9543 0.43571 13.9088 0.422689 13.8634 0.416179C13.8179 0.409669 13.7724 0.403156 13.7204 0.396646C13.675 0.396646 13.623 0.390137 13.5775 0.390137ZM14.0583 16.3081C14.0583 16.3081 14.0583 16.3732 14.0518 16.4057C14.0518 16.4383 14.0388 16.4643 14.0258 16.4969C14.0128 16.5229 13.9998 16.5555 13.9803 16.5815C13.9608 16.6075 13.9413 16.6336 13.9218 16.6531C13.9023 16.6726 13.8764 16.6987 13.8504 16.7117C13.8244 16.7312 13.7984 16.7443 13.7659 16.7573C13.7399 16.7703 13.7075 16.7768 13.675 16.7833C13.6425 16.7833 13.61 16.7898 13.5775 16.7898H5.83383C5.83383 16.7898 5.76886 16.7898 5.73638 16.7833C5.7039 16.7768 5.67791 16.7703 5.64543 16.7573C5.61945 16.7443 5.58697 16.7312 5.56098 16.7117C5.53499 16.6922 5.50901 16.6726 5.48952 16.6531C5.47003 16.6336 5.44404 16.6075 5.43105 16.5815C5.41156 16.5555 5.39857 16.5294 5.38558 16.4969C5.37258 16.4643 5.36609 16.4383 5.35959 16.4057C5.35959 16.3732 5.35309 16.3406 5.35309 16.3081V1.78336C5.35309 1.78336 5.35309 1.71826 5.35959 1.68571C5.35959 1.65315 5.37258 1.62711 5.38558 1.59456C5.39857 1.56201 5.41156 1.53597 5.43105 1.50993C5.45054 1.48388 5.47003 1.45784 5.48952 1.43831C5.50901 1.41878 5.53499 1.39274 5.56098 1.37972C5.58697 1.3667 5.61295 1.34717 5.64543 1.33415C5.67791 1.32112 5.7039 1.31461 5.73638 1.3081C5.76886 1.3081 5.80135 1.30159 5.83383 1.30159H7.09413L7.39946 1.98519C7.41895 2.03076 7.44493 2.06982 7.47092 2.10237C7.4969 2.13493 7.53588 2.16748 7.57486 2.19352C7.61384 2.21956 7.65931 2.23909 7.69829 2.25211C7.74377 2.26513 7.78924 2.27164 7.83472 2.27164H11.5636C11.6091 2.27164 11.6546 2.26513 11.7001 2.25211C11.7455 2.23909 11.7845 2.21956 11.8235 2.19352C11.8625 2.16748 11.895 2.13493 11.9274 2.10237C11.9599 2.06982 11.9794 2.03076 11.9989 1.98519L12.3042 1.30159H13.5645C13.5645 1.30159 13.6295 1.30159 13.662 1.3081C13.6945 1.3081 13.7204 1.32112 13.7529 1.33415C13.7854 1.34717 13.8114 1.36019 13.8374 1.37972C13.8634 1.39925 13.8894 1.41878 13.9088 1.43831C13.9283 1.45784 13.9543 1.48388 13.9673 1.50993C13.9803 1.53597 13.9998 1.56201 14.0128 1.59456C14.0258 1.62711 14.0323 1.65315 14.0388 1.68571C14.0388 1.71826 14.0453 1.75081 14.0453 1.78336V16.3081H14.0583Z" fill="#004E4E"/>
<path d="M11.1542 6.62711C11.1542 6.67269 11.1542 6.72477 11.1477 6.77034C11.1477 6.81591 11.1347 6.868 11.1282 6.91357C11.1217 6.95914 11.1088 7.00472 11.0958 7.05029C11.0828 7.09586 11.0633 7.14143 11.0503 7.18701C11.0373 7.23258 11.0113 7.27164 10.9918 7.31722C10.9723 7.35628 10.9463 7.40185 10.9204 7.44091C10.8944 7.47998 10.8684 7.51904 10.8359 7.5581C10.8034 7.59716 10.7709 7.62971 10.7385 7.66227C10.706 7.69482 10.667 7.72737 10.6345 7.75992C10.5955 7.79248 10.5566 7.81852 10.5176 7.84456C10.4786 7.8706 10.4396 7.89664 10.3942 7.91617C10.3552 7.9357 10.3097 7.96174 10.2642 7.97477C10.2187 7.98779 10.1733 8.00732 10.1278 8.02034C10.0823 8.03336 10.0368 8.04638 9.99137 8.05289C9.9459 8.0594 9.90042 8.06591 9.84845 8.07242C9.80298 8.07242 9.75101 8.07893 9.70553 8.07893C9.66006 8.07893 9.60809 8.07893 9.56261 8.07242C9.51714 8.07242 9.46517 8.0594 9.41969 8.05289C9.37422 8.04638 9.32874 8.03336 9.28327 8.02034C9.23779 8.00732 9.19232 7.98779 9.14684 7.97477C9.10137 7.96174 9.06239 7.9357 9.01692 7.91617C8.97794 7.89664 8.93246 7.8706 8.89348 7.84456C8.8545 7.81852 8.81553 7.79248 8.77655 7.75992C8.73757 7.72737 8.70509 7.69482 8.6726 7.66227C8.64012 7.62971 8.60764 7.59065 8.57516 7.5581C8.54268 7.52555 8.51669 7.47998 8.49071 7.44091C8.46472 7.40185 8.43873 7.36279 8.41925 7.31722C8.39976 7.27815 8.37377 7.23258 8.36078 7.18701C8.34779 7.14143 8.3283 7.09586 8.3153 7.05029C8.30231 7.00472 8.28932 6.95914 8.28282 6.91357C8.27633 6.868 8.26983 6.82243 8.26333 6.77034C8.26333 6.72477 8.25684 6.67269 8.25684 6.62711C8.25684 6.58154 8.25684 6.52946 8.26333 6.48389C8.26333 6.43831 8.27633 6.38623 8.28282 6.34066C8.28932 6.29508 8.30231 6.24951 8.3153 6.20394C8.3283 6.15836 8.34779 6.11279 8.36078 6.06722C8.38027 6.02165 8.39976 5.98258 8.41925 5.93701C8.43873 5.89795 8.46472 5.85237 8.49071 5.81331C8.51669 5.77425 8.54268 5.73519 8.57516 5.69612C8.60764 5.65706 8.64012 5.62451 8.6726 5.59196C8.70509 5.55941 8.74406 5.52686 8.77655 5.4943C8.81553 5.46175 8.84801 5.43571 8.89348 5.40967C8.93246 5.38363 8.97144 5.35758 9.01692 5.33805C9.05589 5.31852 9.10137 5.29248 9.14684 5.27946C9.19232 5.26644 9.23779 5.24691 9.28327 5.23389C9.32874 5.22087 9.37422 5.20785 9.41969 5.20134C9.46517 5.19482 9.51064 5.18832 9.56261 5.1818C9.60809 5.1818 9.66006 5.17529 9.70553 5.17529C9.75101 5.17529 9.80298 5.17529 9.84845 5.1818C9.89393 5.1818 9.9459 5.19482 9.99137 5.20134C10.0368 5.20785 10.0823 5.22087 10.1278 5.23389C10.1733 5.24691 10.2187 5.26644 10.2642 5.27946C10.3097 5.29248 10.3487 5.31852 10.3942 5.33805C10.4331 5.35758 10.4786 5.38363 10.5176 5.40967C10.5566 5.43571 10.5955 5.46175 10.6345 5.4943C10.6735 5.52686 10.706 5.55941 10.7385 5.59196C10.7709 5.62451 10.8034 5.66357 10.8359 5.69612C10.8684 5.73519 10.8944 5.77425 10.9204 5.81331C10.9463 5.85237 10.9723 5.89144 10.9918 5.93701C11.0113 5.97607 11.0373 6.02165 11.0503 6.06722C11.0698 6.11279 11.0828 6.15836 11.0958 6.20394C11.1088 6.24951 11.1217 6.29508 11.1282 6.34066C11.1347 6.38623 11.1412 6.4318 11.1477 6.48389C11.1477 6.52946 11.1542 6.58154 11.1542 6.62711Z" fill="#004E4E"/>
<path d="M10.6734 8.0791H8.73751C8.69204 8.0791 8.64007 8.0791 8.59459 8.08561C8.54912 8.08561 8.49715 8.09863 8.45167 8.10514C8.4062 8.11165 8.36072 8.12467 8.31525 8.1377C8.26977 8.15072 8.2243 8.17025 8.17882 8.18327C8.13335 8.19629 8.09437 8.22233 8.0489 8.24186C8.00342 8.26139 7.96444 8.28743 7.92546 8.31348C7.88649 8.33952 7.84751 8.36556 7.80853 8.39811C7.76955 8.43066 7.73707 8.46322 7.70459 8.49577C7.67211 8.52832 7.63962 8.56738 7.60714 8.59994C7.57466 8.63249 7.54867 8.67155 7.52269 8.71712C7.4967 8.75619 7.47072 8.79525 7.45123 8.84082C7.43174 8.87988 7.40575 8.92546 7.39276 8.97103C7.37327 9.0166 7.36028 9.06217 7.34729 9.10775C7.33429 9.15332 7.3213 9.19889 7.3148 9.24446C7.30831 9.29004 7.30181 9.33561 7.29531 9.38769C7.29531 9.43327 7.28882 9.48535 7.28882 9.53092V12.9228H12.1286V9.53092C12.1286 9.48535 12.1286 9.43327 12.1221 9.38769C12.1221 9.34212 12.1091 9.29655 12.1026 9.24446C12.0961 9.19238 12.0832 9.15332 12.0702 9.10775C12.0572 9.06217 12.0377 9.0166 12.0247 8.97103C12.0052 8.92546 11.9857 8.88639 11.9662 8.84082C11.9467 8.80176 11.9207 8.75619 11.8948 8.71712C11.8688 8.67806 11.8428 8.639 11.8103 8.59994C11.7778 8.56087 11.7453 8.52832 11.7129 8.49577C11.6804 8.46322 11.6414 8.43066 11.6089 8.39811C11.5764 8.36556 11.531 8.33952 11.492 8.31348C11.453 8.28743 11.414 8.26139 11.3686 8.24186C11.3231 8.22233 11.2841 8.19629 11.2386 8.18327C11.1931 8.16374 11.1477 8.15072 11.1022 8.1377C11.0567 8.12467 11.0113 8.11165 10.9658 8.10514C10.9203 8.09863 10.8748 8.08561 10.8229 8.08561C10.7774 8.08561 10.7254 8.0791 10.6799 8.0791H10.6734Z" fill="#004E4E"/>
</svg>
