<svg width="89" height="106" viewBox="0 0 89 106" fill="none" xmlns="http://www.w3.org/2000/svg">
<path d="M80.9333 74.7923C80.9333 74.9514 80.9333 75.1333 80.8879 75.2925C80.8653 75.4516 80.7972 75.6108 80.7518 75.7699C80.7064 75.9291 80.6157 76.0655 80.5249 76.2019C80.4342 76.3383 80.3208 76.4748 80.2073 76.5884C80.0939 76.7021 79.9578 76.8158 79.8216 76.9067C79.6855 76.9977 79.5267 77.0659 79.3906 77.1341C79.2318 77.2023 79.073 77.2478 78.9141 77.2705C78.7553 77.2932 78.5965 77.316 78.415 77.316C78.2335 77.316 78.0747 77.316 77.9159 77.2705C77.7571 77.2478 77.5983 77.1796 77.4395 77.1341C77.2807 77.0886 77.1445 76.9977 77.0084 76.9067C76.8723 76.8158 76.7362 76.7021 76.6227 76.5884C76.5093 76.4748 76.3958 76.3383 76.3051 76.2019C76.2144 76.0655 76.1236 75.9063 76.0782 75.7699C76.0329 75.6335 75.9648 75.4516 75.9421 75.2925C75.9194 75.1333 75.8967 74.9742 75.8967 74.7923C75.8967 74.6104 75.8967 74.4512 75.9421 74.2921C75.9648 74.1329 76.0329 73.9738 76.0782 73.8146C76.1236 73.6555 76.2144 73.519 76.3051 73.3826C76.3958 73.2462 76.5093 73.1098 76.6227 72.9961C76.7362 72.8824 76.8723 72.7688 77.0084 72.6778C77.1445 72.5869 77.3033 72.4959 77.4395 72.4504C77.5756 72.405 77.7571 72.3368 77.9159 72.314C78.0747 72.2913 78.2335 72.2686 78.415 72.2686C78.5965 72.2686 78.7553 72.2686 78.9141 72.314C79.073 72.3368 79.2318 72.405 79.3906 72.4504C79.5494 72.5187 79.6855 72.5869 79.8216 72.6778C79.9578 72.7688 80.0939 72.8824 80.2073 72.9961C80.3208 73.1098 80.4342 73.2462 80.5249 73.3826C80.6157 73.519 80.7064 73.6782 80.7518 73.8146C80.7972 73.951 80.8653 74.1329 80.8879 74.2921C80.9106 74.4512 80.9333 74.6104 80.9333 74.7923Z" fill="#004E4E"/>
<path d="M78.3926 64.6536C78.075 64.6536 77.78 64.6536 77.4624 64.6991C77.1448 64.7218 76.8499 64.7673 76.5322 64.8355C76.2373 64.9037 75.9197 64.9719 75.6247 65.0401C75.3298 65.1311 75.0349 65.222 74.7399 65.3357C74.445 65.4494 74.1728 65.5631 73.8778 65.7222C73.6056 65.8586 73.3333 66.0178 73.0611 66.1769C72.7888 66.3361 72.5393 66.518 72.2897 66.6999C72.0402 66.8818 71.7906 67.0864 71.5637 67.291C71.3368 67.4956 71.11 67.723 70.9058 67.9504C70.7016 68.1777 70.4974 68.4278 70.3159 68.6779C70.1344 68.928 69.9529 69.1781 69.7941 69.451C69.6353 69.7238 69.4765 69.9966 69.3404 70.2695C69.2042 70.5423 69.0681 70.8379 68.9547 71.1107C68.8412 71.4063 68.7505 71.7018 68.6598 71.9974C68.569 72.293 68.5009 72.5885 68.4329 72.9068C68.3648 73.2252 68.3194 73.5207 68.2967 73.839C68.2741 74.1573 68.2514 74.4529 68.2514 74.7712C68.2514 75.0895 68.2514 75.3851 68.2967 75.7034C68.3194 76.0217 68.3648 76.3173 68.4102 76.6356C68.4556 76.9312 68.5236 77.2495 68.6144 77.545C68.7051 77.8406 68.7959 78.1362 68.9093 78.4317C69.0228 78.7273 69.1362 79.0002 69.2723 79.2957C69.4084 79.5686 69.5672 79.8414 69.7261 80.1142C69.8849 80.3871 70.0664 80.6372 70.2479 80.8873C70.4294 81.1374 70.6335 81.3875 70.8377 81.6148C71.0419 81.8422 71.2688 82.0695 71.4957 82.2742C71.7225 82.4788 71.9721 82.6834 72.199 82.888C72.4485 83.0699 72.6981 83.2518 72.9703 83.4337C73.2426 83.5929 73.5148 83.752 73.7871 83.8884C74.0593 84.0249 74.3543 84.1613 74.6265 84.275C74.8988 84.3886 75.2164 84.5023 75.5113 84.5705C75.8062 84.6615 76.1012 84.7297 76.4188 84.7979C76.328 85.4118 76.1919 86.0484 76.0331 86.6623C75.8743 87.2761 75.6928 87.8673 75.4886 88.4811C75.2844 89.0723 75.0349 89.6634 74.7626 90.2318C74.4904 90.8002 74.1954 91.3687 73.8778 91.9143C73.5602 92.46 73.2199 92.9829 72.8569 93.5059C72.4939 94.0288 72.1082 94.5062 71.6771 94.9837C71.2688 95.4612 70.8377 95.9159 70.3613 96.3479C69.8849 96.7799 69.4311 97.1891 68.932 97.5984C68.4329 97.9849 67.9337 98.3487 67.3893 98.6897C66.8448 99.0308 66.323 99.3491 65.7558 99.6446C65.1886 99.9402 64.6214 100.19 64.0315 100.44C63.4417 100.69 62.8518 100.895 62.2392 101.077C61.6267 101.259 61.0141 101.418 60.4016 101.532C59.789 101.668 59.1538 101.759 58.5412 101.827C57.9287 101.896 57.2934 101.941 56.6582 101.941C56.0229 101.941 55.3877 101.941 54.7751 101.873C54.1399 101.827 53.5273 101.736 52.8921 101.645C52.2568 101.554 51.667 101.395 51.0544 101.236C50.4419 101.077 49.852 100.872 49.2621 100.645C48.6722 100.418 48.0824 100.168 47.5152 99.8947C46.948 99.6219 46.4035 99.3263 45.859 98.9853C45.3145 98.667 44.7927 98.3032 44.2936 97.9394C43.7945 97.5529 43.2954 97.1664 42.8416 96.7344C42.3652 96.3024 41.9341 95.8704 41.5031 95.4157C41.072 94.961 40.6636 94.4608 40.2779 93.9606C39.8923 93.4604 39.5293 92.9375 39.2116 92.4145C38.894 91.8916 38.5764 91.3232 38.2815 90.7548C38.0092 90.1864 37.737 89.618 37.5101 89.0268C37.2832 88.4357 37.079 87.8445 36.8975 87.2307C36.716 86.6168 36.5799 86.0029 36.4665 85.389C36.353 84.7752 36.2623 84.1385 36.1942 83.5247C36.1262 82.888 36.1035 82.2742 36.1035 81.6376V76.4764C36.648 76.4537 37.1698 76.4082 37.7143 76.3628C38.2588 76.3173 38.7806 76.2491 39.3024 76.1581C39.8242 76.0899 40.3687 75.999 40.8905 75.8853C41.4123 75.7716 41.9341 75.6579 42.4559 75.5443C42.9777 75.4078 43.4995 75.2714 43.9987 75.135C44.4978 74.9986 45.0196 74.8167 45.5187 74.6348C46.0178 74.4529 46.517 74.271 47.0161 74.0664C47.5152 73.8618 48.0143 73.6572 48.4907 73.4298C48.9672 73.2024 49.4663 72.9751 49.9427 72.725C50.4192 72.4749 50.8956 72.2248 51.3493 71.9519C51.8031 71.6791 52.2795 71.4063 52.7106 71.1107C53.1643 70.8151 53.5954 70.5196 54.0264 70.2013C54.4575 69.8829 54.8886 69.5646 55.3196 69.2463C55.7507 68.928 56.159 68.5642 56.5447 68.2232C56.9304 67.8822 57.3388 67.5184 57.7245 67.1319C58.1102 66.7453 58.4958 66.3816 58.8588 65.995C59.2218 65.6085 59.5848 65.222 59.9478 64.8128C60.2881 64.4035 60.6285 63.9943 60.9688 63.585C61.3091 63.153 61.6267 62.7438 61.9216 62.289C62.2166 61.8343 62.5342 61.4023 62.8291 60.9703C63.1241 60.5156 63.3963 60.0609 63.6685 59.6062C63.9408 59.1514 64.1904 58.674 64.4399 58.1965C64.6895 57.7191 64.9163 57.2416 65.1432 56.7414C65.3701 56.2412 65.5743 55.7638 65.7785 55.2636C65.9826 54.7634 66.1641 54.2632 66.3456 53.763C66.5271 53.2628 66.686 52.7398 66.8448 52.2396C67.0036 51.7167 67.1397 51.2165 67.2531 50.6936C67.3893 50.1707 67.5027 49.6477 67.5934 49.1248C67.6842 48.6018 67.7749 48.0789 67.8657 47.5332C67.9337 47.0103 68.0018 46.4646 68.0472 45.9417C68.0926 45.4188 68.1379 44.8731 68.1606 44.3502C68.1833 43.8272 68.206 43.2816 68.206 42.7359V27.5254C68.206 27.5254 68.206 27.298 68.1833 27.1843C68.1833 27.0707 68.1379 26.9797 68.0926 26.866C68.0472 26.7524 68.0018 26.6614 67.9338 26.5705C67.8657 26.4795 67.7976 26.3886 67.7296 26.3204C67.6615 26.2522 67.5707 26.1612 67.48 26.1157C67.3893 26.0475 67.2985 26.0021 67.1851 25.9566C67.0943 25.9111 66.9809 25.8884 66.8675 25.8656C66.754 25.8656 66.6406 25.8429 66.5271 25.8429H62.6703C62.6703 25.8429 62.5342 25.6383 62.4661 25.5246C62.3981 25.4109 62.3073 25.32 62.2392 25.229C62.1485 25.1381 62.0577 25.0471 61.967 24.9789C61.8762 24.888 61.7855 24.8198 61.6721 24.7516C61.5813 24.6834 61.4679 24.6152 61.3544 24.5469C61.241 24.4787 61.1276 24.4333 61.0141 24.3878C60.9007 24.3423 60.7873 24.2968 60.6738 24.2741C60.5604 24.2514 60.4469 24.2059 60.3108 24.1832C60.1974 24.1832 60.0613 24.1377 59.9478 24.1377C59.8344 24.1377 59.6983 24.1377 59.5848 24.1377C59.4714 24.1377 59.3353 24.1377 59.2218 24.1832C59.1084 24.1832 58.9723 24.2286 58.8588 24.2514C58.7454 24.2741 58.632 24.3196 58.5185 24.3651C58.4051 24.4105 58.2917 24.456 58.1782 24.5242C58.0648 24.5924 57.974 24.6379 57.8606 24.7061C57.7698 24.7743 57.6564 24.8425 57.5657 24.9335C57.4749 25.0244 57.3842 25.0926 57.2934 25.1836C57.2027 25.2745 57.1346 25.3654 57.0439 25.4564C56.9758 25.5473 56.9077 25.661 56.8397 25.752C56.7716 25.8656 56.7262 25.9566 56.6582 26.0703C56.6128 26.184 56.5674 26.2976 56.522 26.4113C56.4767 26.525 56.454 26.6387 56.4313 26.7751C56.4086 26.8888 56.3859 27.0252 56.3632 27.1389C56.3632 27.2526 56.3632 27.389 56.3632 27.5027C56.3632 27.6163 56.3632 27.7528 56.3632 27.8664C56.3632 27.9801 56.3859 28.1165 56.4313 28.2302C56.454 28.3439 56.4993 28.4803 56.522 28.594C56.5674 28.7077 56.6128 28.8214 56.6582 28.935C56.7035 29.0487 56.7716 29.1624 56.8397 29.2533C56.9077 29.367 56.9758 29.458 57.0439 29.5489C57.1119 29.6399 57.2027 29.7308 57.2934 29.8217C57.3842 29.9127 57.4749 30.0036 57.5657 30.0718C57.6564 30.1401 57.7698 30.231 57.8606 30.2992C57.9513 30.3674 58.0648 30.4356 58.1782 30.4811C58.2917 30.5266 58.4051 30.5948 58.5185 30.6403C58.632 30.6857 58.7454 30.7312 58.8588 30.7539C58.9723 30.7767 59.1084 30.7994 59.2218 30.8221C59.3353 30.8221 59.4714 30.8449 59.5848 30.8676C59.6983 30.8676 59.8344 30.8676 59.9478 30.8676C60.0613 30.8676 60.1974 30.8449 60.3108 30.8221C60.4243 30.7994 60.5604 30.7767 60.6738 30.7312C60.7873 30.6857 60.9007 30.663 61.0141 30.6175C61.1276 30.572 61.241 30.5266 61.3544 30.4584C61.4679 30.3901 61.5586 30.3447 61.6721 30.2537C61.7628 30.1855 61.8762 30.1173 61.967 30.0264C62.0577 29.9354 62.1485 29.8672 62.2392 29.7763C62.33 29.6853 62.3981 29.5944 62.4661 29.4807C62.5342 29.367 62.6022 29.2761 62.6703 29.1624H64.8256V42.6904C64.8256 43.1906 64.8256 43.6908 64.7802 44.191C64.7575 44.6912 64.7122 45.1914 64.6668 45.6916C64.6214 46.1918 64.5533 46.692 64.4853 47.1695C64.4172 47.6697 64.3265 48.1471 64.2357 48.6473C64.145 49.1475 64.0315 49.625 63.9181 50.1024C63.8047 50.5799 63.6685 51.0574 63.5097 51.5348C63.3509 52.0123 63.2148 52.4897 63.0333 52.9445C62.8745 53.4219 62.693 53.8766 62.4888 54.3314C62.3073 54.7861 62.1031 55.2408 61.8762 55.6955C61.6721 56.1503 61.4452 56.5823 61.1956 57.037C60.9461 57.4917 60.7192 57.901 60.4696 58.3329C60.2201 58.7649 59.9478 59.1742 59.6756 59.6062C59.4033 60.0154 59.1084 60.4247 58.8135 60.8339C58.5185 61.2432 58.2009 61.6297 57.8833 62.0162C57.5657 62.4027 57.248 62.7892 56.9077 63.153C56.5674 63.5168 56.2271 63.8806 55.8868 64.2444C55.5465 64.6081 55.1835 64.9492 54.7978 65.2675C54.4348 65.6085 54.0491 65.9268 53.6635 66.2451C53.2778 66.5634 52.8921 66.859 52.4837 67.1546C52.0753 67.4502 51.667 67.7457 51.2586 68.0186C50.8502 68.2914 50.4192 68.5642 49.9881 68.8143C49.557 69.0644 49.126 69.3145 48.6949 69.5419C48.2639 69.7693 47.8101 69.9966 47.3564 70.224C46.9026 70.4286 46.4489 70.6332 45.9951 70.8379C45.5414 71.0198 45.065 71.2016 44.6112 71.3835C44.1575 71.5654 43.681 71.7018 43.2046 71.861C42.7282 72.0201 42.2517 72.1338 41.7753 72.2702C41.2989 72.3839 40.7998 72.4976 40.3233 72.5885C39.8242 72.6795 39.3478 72.7704 38.8486 72.8386C38.3495 72.9069 37.8731 72.9751 37.374 73.0205C36.8749 73.066 36.3757 73.1115 35.8766 73.1342C35.3775 73.1569 34.8784 73.1797 34.3793 73.1797C33.8801 73.1797 33.381 73.1797 32.8819 73.1342C32.3828 73.0887 31.8836 73.066 31.3845 73.0205C30.8854 72.9751 30.3863 72.9069 29.9099 72.8386C29.4107 72.7704 28.9343 72.6795 28.4352 72.5885C27.9361 72.4976 27.4596 72.3839 26.9832 72.2702C26.5068 72.1566 26.0303 72.0201 25.5539 71.861C25.0775 71.7246 24.601 71.5654 24.1473 71.3835C23.6935 71.2016 23.2171 71.0425 22.7634 70.8379C22.3096 70.656 21.8559 70.4513 21.4021 70.224C20.9484 70.0194 20.5173 69.792 20.0636 69.5419C19.6098 69.2918 19.2015 69.0644 18.7704 68.8143C18.3393 68.5642 17.931 68.2914 17.4999 68.0186C17.0915 67.7457 16.6832 67.4502 16.2748 67.1546C15.8664 66.859 15.4807 66.5407 15.0951 66.2451C14.7094 65.9268 14.3237 65.6085 13.9607 65.2675C13.5977 64.9264 13.2347 64.5854 12.8717 64.2444C12.5314 63.9033 12.1684 63.5395 11.8508 63.153C11.5105 62.7892 11.1928 62.4027 10.8752 62.0162C10.5576 61.6297 10.2627 61.2432 9.96773 60.8339C9.6728 60.4247 9.37786 60.0382 9.10561 59.6062C8.83336 59.1969 8.56112 58.7649 8.31156 58.3329C8.062 57.901 7.81244 57.469 7.58557 57.037C7.35869 56.605 7.13182 56.1503 6.90495 55.6955C6.67808 55.2408 6.49658 54.7861 6.29239 54.3314C6.11089 53.8766 5.92939 53.3992 5.74789 52.9445C5.58908 52.467 5.43027 52.0123 5.27146 51.5348C5.11265 51.0574 4.99922 50.5799 4.86309 50.1024C4.74965 49.625 4.63622 49.1248 4.54547 48.6473C4.45472 48.1699 4.36397 47.6697 4.29591 47.1695C4.22785 46.6693 4.15979 46.1918 4.11442 45.6916C4.06904 45.1914 4.02366 44.6912 4.00097 44.191C3.97828 43.6908 3.9556 43.1906 3.9556 42.6904V30.8449H6.11089C6.11089 30.8449 6.24701 31.0495 6.31508 31.1632C6.38314 31.2769 6.47389 31.3678 6.54195 31.4587C6.6327 31.5497 6.72345 31.6406 6.8142 31.7088C6.90495 31.7998 6.9957 31.868 7.10914 31.9362C7.22257 32.0044 7.31332 32.0726 7.42676 32.1408C7.54019 32.209 7.65363 32.2545 7.76706 32.3C7.8805 32.3455 7.99394 32.3909 8.10737 32.4137C8.22081 32.4591 8.33425 32.4819 8.47037 32.5046C8.60649 32.5274 8.71993 32.5501 8.83337 32.5501C8.9468 32.5501 9.08293 32.5501 9.19636 32.5501C9.3098 32.5501 9.44592 32.5501 9.55936 32.5046C9.6728 32.5046 9.80892 32.4591 9.92236 32.4364C10.0358 32.4137 10.1492 32.3682 10.2627 32.3227C10.3761 32.2773 10.4895 32.2318 10.603 32.1636C10.7164 32.0954 10.8072 32.0499 10.9206 31.9817C11.0114 31.9135 11.1248 31.8453 11.2155 31.7543C11.3063 31.6861 11.397 31.5952 11.4878 31.5042C11.5785 31.4133 11.6466 31.3223 11.7373 31.2314C11.8054 31.1404 11.8735 31.0268 11.9415 30.9358C12.0096 30.8221 12.055 30.7312 12.123 30.6175C12.1911 30.5038 12.2138 30.3901 12.2592 30.2765C12.3045 30.1628 12.3272 30.0491 12.3499 29.9127C12.3726 29.799 12.3953 29.6626 12.418 29.5489C12.418 29.4352 12.418 29.2988 12.418 29.1851C12.418 29.0714 12.418 28.935 12.418 28.8213C12.418 28.7077 12.3953 28.5713 12.3499 28.4576C12.3272 28.3439 12.2818 28.2075 12.2592 28.0938C12.2365 27.9801 12.1684 27.8664 12.123 27.7528C12.0777 27.6391 12.0096 27.5254 11.9415 27.4344C11.8735 27.3208 11.8054 27.2298 11.7373 27.1389C11.6693 27.0479 11.5785 26.957 11.4878 26.866C11.397 26.7751 11.3063 26.6842 11.2155 26.6159C11.1248 26.5477 11.034 26.4568 10.9206 26.3886C10.8072 26.3204 10.7164 26.2522 10.603 26.2067C10.4895 26.1612 10.3761 26.093 10.2627 26.0475C10.1492 26.0021 10.0358 25.9566 9.92236 25.9338C9.80892 25.9111 9.6728 25.8884 9.55936 25.8656C9.44592 25.8656 9.3098 25.8429 9.19636 25.8202C9.08293 25.8202 8.9468 25.8202 8.83337 25.8202C8.71993 25.8202 8.58381 25.8202 8.47037 25.8656C8.35693 25.9111 8.22081 25.9111 8.10737 25.9566C7.99394 26.0021 7.8805 26.0248 7.76706 26.0703C7.65363 26.1157 7.54019 26.1612 7.42676 26.2294C7.31332 26.2976 7.22257 26.3431 7.10914 26.434C6.9957 26.525 6.90495 26.5705 6.8142 26.6614C6.72345 26.7524 6.6327 26.8206 6.54195 26.9115C6.45121 27.0025 6.38314 27.0934 6.31508 27.2071C6.24701 27.3208 6.17895 27.4117 6.11089 27.5254H2.25405C2.25405 27.5254 2.02718 27.5254 1.91375 27.5481C1.80031 27.5481 1.70956 27.5936 1.59613 27.6391C1.50538 27.6845 1.39194 27.73 1.30119 27.7982C1.21044 27.8664 1.11969 27.9346 1.05163 28.0028C0.983564 28.0711 0.892815 28.162 0.84744 28.2529C0.802066 28.3439 0.734005 28.4348 0.68863 28.5485C0.643255 28.6395 0.620566 28.7531 0.597879 28.8668C0.597879 28.9805 0.575195 29.0942 0.575195 29.2079V42.7359C0.575195 43.2816 0.575196 43.8045 0.620571 44.3502C0.665946 44.8958 0.688631 45.4188 0.734006 45.9417C0.77938 46.4646 0.847442 47.0103 0.938192 47.5332C1.00625 48.0562 1.097 48.6018 1.21044 49.1248C1.30119 49.6477 1.43731 50.1707 1.55075 50.6936C1.68687 51.2165 1.823 51.7395 1.95912 52.2396C2.11793 52.7626 2.27674 53.2628 2.45824 53.763C2.63973 54.2632 2.82123 54.7634 3.02542 55.2636C3.2296 55.7638 3.43379 56.2412 3.66067 56.7414C3.88754 57.2189 4.11441 57.7191 4.36397 58.1965C4.61353 58.674 4.86309 59.1514 5.13534 59.6062C5.40758 60.0609 5.67984 60.5156 5.97477 60.9703C6.26971 61.4251 6.56464 61.8571 6.88226 62.289C7.19988 62.721 7.51751 63.153 7.83513 63.585C8.15275 64.017 8.51575 64.4263 8.85606 64.8128C9.19637 65.222 9.55936 65.6085 9.94505 65.995C10.308 66.3816 10.6937 66.7681 11.0794 67.1319C11.4651 67.4956 11.8735 67.8594 12.2592 68.2232C12.6448 68.587 13.0759 68.9053 13.4843 69.2463C13.9153 69.5874 14.3237 69.9057 14.7774 70.2013C15.2312 70.4968 15.6622 70.8151 16.0933 71.1107C16.547 71.4063 17.0008 71.6791 17.4545 71.9519C17.9083 72.2248 18.3847 72.4749 18.8612 72.725C19.3376 72.9751 19.814 73.2024 20.3131 73.4298C20.7896 73.6572 21.2887 73.8618 21.7878 74.0664C22.2869 74.271 22.786 74.4529 23.2852 74.6348C23.7843 74.8167 24.3061 74.9759 24.8052 75.135C25.327 75.2942 25.8261 75.4306 26.348 75.5443C26.8698 75.6807 27.3916 75.7944 27.9134 75.8853C28.4352 75.9762 28.957 76.0672 29.5015 76.1581C30.0233 76.2263 30.5678 76.2946 31.0896 76.3628C31.6114 76.431 32.1559 76.4537 32.7004 76.4764V81.6376C32.7004 82.0013 32.7004 82.3879 32.7231 82.7516C32.7231 83.1154 32.7685 83.4792 32.7911 83.8657C32.8365 84.2295 32.8592 84.5933 32.9273 84.9798C32.9953 85.3663 33.0407 85.7073 33.1088 86.0711C33.1768 86.4349 33.2449 86.7987 33.3356 87.1625C33.4264 87.5262 33.5171 87.89 33.6079 88.2311C33.6986 88.5948 33.8121 88.9359 33.9482 89.2997C34.0616 89.6407 34.1978 90.0045 34.3339 90.3455C34.47 90.6866 34.6061 91.0276 34.7649 91.3687C34.9237 91.7097 35.0826 92.0508 35.2414 92.3691C35.4002 92.7101 35.5817 93.0284 35.7632 93.3467C35.9447 93.665 36.1262 93.9833 36.3304 94.3016C36.5345 94.6199 36.7387 94.9155 36.9429 95.2338C37.1471 95.5521 37.374 95.8249 37.6008 96.1205C37.8277 96.4161 38.0546 96.7117 38.3042 96.9845C38.5537 97.2573 38.7806 97.5529 39.0301 97.8257C39.2797 98.0986 39.552 98.3714 39.8015 98.6215C40.0738 98.8716 40.346 99.1217 40.6183 99.3718C40.8905 99.6219 41.1854 99.8493 41.4577 100.099C41.7526 100.327 42.0476 100.554 42.3425 100.781C42.6374 101.009 42.9551 101.213 43.25 101.418C43.5676 101.623 43.8625 101.827 44.1802 102.009C44.4978 102.191 44.8154 102.373 45.1557 102.555C45.496 102.737 45.8136 102.896 46.154 103.055C46.4943 103.214 46.8346 103.373 47.1749 103.51C47.5152 103.646 47.8555 103.783 48.1958 103.919C48.5361 104.055 48.8991 104.169 49.2394 104.283C49.6024 104.396 49.9427 104.487 50.3057 104.601C50.6687 104.715 51.0317 104.783 51.3947 104.851C51.7577 104.919 52.1207 104.988 52.4837 105.056C52.8467 105.124 53.2097 105.17 53.5727 105.215C53.9357 105.26 54.2987 105.283 54.6844 105.306C55.0474 105.329 55.433 105.351 55.796 105.351C56.159 105.351 56.5447 105.351 56.9077 105.351C57.2707 105.351 57.6564 105.329 58.0194 105.306C58.3824 105.283 58.7454 105.238 59.1311 105.192C59.4941 105.147 59.8571 105.101 60.2201 105.033C60.5831 104.965 60.9461 104.897 61.3091 104.828C61.6721 104.76 62.0351 104.669 62.3981 104.578C62.7611 104.487 63.1014 104.374 63.4644 104.26C63.8274 104.146 64.1677 104.033 64.508 103.896C64.8483 103.76 65.1886 103.623 65.5289 103.487C65.8692 103.351 66.2095 103.191 66.5498 103.032C66.8901 102.873 67.2077 102.714 67.5481 102.532C67.8657 102.35 68.206 102.168 68.5236 101.986C68.8412 101.805 69.1589 101.6 69.4538 101.395C69.7487 101.191 70.0664 100.986 70.3613 100.759C70.6562 100.531 70.9512 100.304 71.2461 100.077C71.541 99.8493 71.8133 99.5992 72.0855 99.3491C72.3578 99.099 72.63 98.8489 72.9023 98.5988C73.1745 98.3487 73.4241 98.0758 73.6736 97.803C73.9232 97.5302 74.1728 97.2573 74.3996 96.9618C74.6492 96.6889 74.8761 96.3934 75.1029 96.0978C75.3298 95.8022 75.5567 95.5067 75.7609 95.2111C75.965 94.9155 76.1692 94.5972 76.3734 94.2789C76.5776 93.9606 76.7591 93.6423 76.9406 93.324C77.1221 93.0057 77.3036 92.6646 77.4624 92.3463C77.6212 92.0053 77.78 91.687 77.9388 91.3459C78.0977 91.0049 78.2338 90.6638 78.3699 90.3228C78.506 89.9818 78.6422 89.6407 78.7556 89.2769C78.869 88.9359 78.9825 88.5721 79.0959 88.2083C79.1866 87.8445 79.3001 87.5035 79.3681 87.1397C79.4362 86.7759 79.527 86.4122 79.595 86.0484C79.6631 85.6846 79.7311 85.3208 79.7765 84.957C80.0941 84.9116 80.3891 84.8434 80.7067 84.7752C81.0243 84.7069 81.3193 84.616 81.6142 84.5023C81.9091 84.3886 82.2041 84.275 82.499 84.1385C82.7939 84.0021 83.0662 83.8657 83.3384 83.7065C83.6107 83.5474 83.8829 83.3882 84.1325 83.2063C84.382 83.0245 84.6316 82.8198 84.8811 82.6152C85.1307 82.4106 85.3576 82.1832 85.5618 81.9559C85.7886 81.7285 85.9928 81.5011 86.197 81.251C86.4012 81.0009 86.5827 80.7508 86.7415 80.478C86.923 80.2052 87.0818 79.9323 87.2179 79.6595C87.3541 79.3867 87.4902 79.0911 87.6263 78.7955C87.7624 78.5 87.8532 78.2044 87.9439 77.9088C88.0347 77.6133 88.1254 77.2949 88.1935 76.9994C88.2616 76.7038 88.3069 76.3855 88.3523 76.0672C88.3977 75.7489 88.4204 75.4306 88.4204 75.1123C88.4204 74.794 88.4204 74.4757 88.3977 74.1573C88.3977 73.839 88.3296 73.5207 88.2842 73.2252C88.2389 72.9296 88.1708 72.6113 88.0801 72.293C87.9893 71.9747 87.8986 71.6791 87.7851 71.3835C87.6717 71.088 87.5583 70.7924 87.4221 70.5196C87.286 70.224 87.1272 69.9511 86.9684 69.6783C86.8096 69.4055 86.6281 69.1326 86.4466 68.8825C86.2651 68.6325 86.0609 68.3824 85.8567 68.155C85.6525 67.9276 85.4257 67.7003 85.1988 67.4729C84.9719 67.2683 84.7224 67.0637 84.4728 66.859C84.2232 66.6544 83.9737 66.4952 83.7014 66.3133C83.4292 66.1542 83.1569 65.995 82.8847 65.8359C82.6124 65.6995 82.3175 65.5631 82.0226 65.4494C81.7276 65.3357 81.4327 65.222 81.1378 65.1311C80.8428 65.0401 80.5252 64.9719 80.2303 64.9037C79.9126 64.8355 79.6177 64.79 79.3001 64.7673C78.9825 64.7445 78.6648 64.7218 78.3472 64.7218L78.3926 64.6536ZM78.3926 81.5694C78.1657 81.5694 77.9615 81.5694 77.7347 81.5466C77.5078 81.5466 77.3036 81.5011 77.0767 81.4557C76.8499 81.4102 76.6457 81.3647 76.4415 81.2965C76.2373 81.2283 76.0104 81.1601 75.8062 81.0692C75.602 80.9782 75.3979 80.8873 75.2164 80.7963C75.0349 80.7054 74.8307 80.569 74.6492 80.4553C74.4677 80.3416 74.2862 80.2052 74.1047 80.0688C73.9232 79.9323 73.7644 79.7732 73.6056 79.614C73.4468 79.4549 73.3106 79.2957 73.1518 79.1138C73.0157 78.932 72.8796 78.7728 72.7661 78.5909C72.6527 78.409 72.5393 78.2271 72.4258 78.0225C72.3124 77.8179 72.2216 77.636 72.1309 77.4314C72.0402 77.2267 71.9721 77.0221 71.904 76.8175C71.836 76.6129 71.7906 76.3855 71.7452 76.1809C71.6998 75.9535 71.6772 75.7489 71.6545 75.5215C71.6545 75.2942 71.6318 75.0895 71.6318 74.8622C71.6318 74.6348 71.6318 74.4302 71.6545 74.2028C71.6545 73.9755 71.6998 73.7708 71.7452 73.5435C71.7906 73.3161 71.836 73.1115 71.904 72.9068C71.9721 72.7022 72.0402 72.4749 72.1309 72.2702C72.2216 72.0656 72.3124 71.861 72.4258 71.6791C72.5393 71.4972 72.6527 71.2926 72.7661 71.1107C72.8796 70.9288 73.0157 70.7469 73.1518 70.5878C73.2879 70.4286 73.4468 70.2467 73.6056 70.0876C73.7644 69.9284 73.9232 69.792 74.1047 69.6328C74.2862 69.4964 74.445 69.36 74.6492 69.2463C74.8307 69.1326 75.0122 69.019 75.2164 68.9053C75.4206 68.7916 75.602 68.7007 75.8062 68.6097C76.0104 68.5188 76.2146 68.4506 76.4415 68.3824C76.6457 68.3141 76.8725 68.2687 77.0767 68.2232C77.2809 68.1777 77.5078 68.155 77.7347 68.1323C77.9615 68.1323 78.1657 68.1095 78.3926 68.1095C78.6195 68.1095 78.8236 68.1095 79.0505 68.1323C79.2774 68.1323 79.4816 68.1777 79.7085 68.2232C79.9353 68.2687 80.1395 68.3141 80.3437 68.3824C80.5479 68.4506 80.7748 68.5188 80.979 68.6097C81.1831 68.7007 81.3873 68.7916 81.5688 68.9053C81.773 69.019 81.9545 69.1326 82.136 69.2463C82.3175 69.36 82.499 69.4964 82.6578 69.6328C82.8166 69.7693 82.9981 69.9284 83.1569 70.0876C83.3157 70.2467 83.4519 70.4059 83.6107 70.5878C83.7695 70.7697 83.8829 70.9288 83.9963 71.1107C84.1098 71.2926 84.2232 71.4745 84.3367 71.6791C84.4501 71.8837 84.5409 72.0656 84.6316 72.2702C84.7224 72.4749 84.7904 72.6795 84.8585 72.9068C84.9265 73.1115 84.9719 73.3388 85.0173 73.5435C85.0627 73.7481 85.0853 73.9755 85.108 74.2028C85.108 74.4302 85.1307 74.6348 85.1307 74.8622C85.1307 75.0895 85.1307 75.2942 85.108 75.5215C85.108 75.7489 85.0627 75.9535 85.0173 76.1809C84.9719 76.4082 84.9265 76.6129 84.8585 76.8175C84.7904 77.0221 84.7224 77.2267 84.6316 77.4314C84.5409 77.636 84.4501 77.8406 84.3367 78.0225C84.2232 78.2271 84.1098 78.409 83.9963 78.5909C83.8829 78.7728 83.7468 78.9547 83.6107 79.1138C83.4745 79.2957 83.3157 79.4549 83.1569 79.614C82.9981 79.7732 82.8393 79.9096 82.6578 80.0688C82.4763 80.2279 82.3175 80.3416 82.136 80.4553C81.9545 80.569 81.773 80.6826 81.5688 80.7963C81.3646 80.91 81.1831 81.0009 80.979 81.0692C80.7748 81.1601 80.5706 81.2283 80.3437 81.2965C80.1395 81.3647 79.9126 81.4102 79.7085 81.4557C79.4816 81.5011 79.2774 81.5239 79.0505 81.5466C78.8236 81.5466 78.6195 81.5694 78.3926 81.5694Z" fill="#004E4E"/>
<path d="M47.9917 0.582031H20.9484C20.7896 0.582031 20.6081 0.582027 20.4493 0.604764C20.2905 0.604764 20.109 0.650242 19.9502 0.672978C19.7914 0.695714 19.6326 0.741185 19.4737 0.786657C19.3149 0.83213 19.1561 0.900338 18.9973 0.94581C18.8385 0.991283 18.7024 1.08223 18.5436 1.15044C18.4074 1.21865 18.2486 1.30959 18.1125 1.40054C17.9764 1.49148 17.8403 1.58242 17.7041 1.6961C17.568 1.80978 17.4546 1.92347 17.3411 2.03715C17.2277 2.15083 17.1143 2.28724 17.0008 2.40093C16.8874 2.51461 16.7967 2.67376 16.7059 2.81018C16.6152 2.9466 16.5244 3.08301 16.4563 3.24216C16.3883 3.37858 16.2975 3.53774 16.2522 3.69689C16.2068 3.85604 16.1387 4.01519 16.0933 4.17435C16.048 4.3335 16.0026 4.49266 15.9799 4.65181C15.9572 4.81097 15.9345 4.97012 15.9118 5.152C15.9118 5.31116 15.8892 5.49305 15.8892 5.6522V55.9674C15.8892 56.1266 15.8892 56.3085 15.9118 56.4676C15.9118 56.6268 15.9572 56.7859 15.9799 56.9678C16.0026 57.1497 16.048 57.2861 16.0933 57.4453C16.1387 57.6044 16.2068 57.7636 16.2522 57.9227C16.3202 58.0819 16.3883 58.2183 16.4563 58.3775C16.5244 58.5139 16.6152 58.673 16.7059 58.8095C16.7967 58.9459 16.8874 59.0823 17.0008 59.2187C17.1143 59.3551 17.2277 59.4688 17.3411 59.5825C17.4546 59.6962 17.5907 59.8098 17.7041 59.9235C17.8176 60.0372 17.9764 60.1282 18.1125 60.2191C18.2486 60.31 18.3848 60.401 18.5436 60.4692C18.7024 60.5374 18.8385 60.6284 18.9973 60.6738C19.1561 60.7193 19.3149 60.7875 19.4737 60.833C19.6326 60.8784 19.7914 60.9239 19.9502 60.9467C20.109 60.9694 20.2678 61.0149 20.4493 61.0149C20.6081 61.0149 20.7896 61.0376 20.9484 61.0376H47.9917C48.1505 61.0376 48.332 61.0376 48.4908 61.0149C48.6496 61.0149 48.8311 60.9694 48.9899 60.9467C49.1487 60.9239 49.3075 60.8784 49.4663 60.833C49.6252 60.7875 49.784 60.7193 49.9428 60.6738C50.1016 60.6056 50.2377 60.5374 50.3965 60.4692C50.5553 60.401 50.6915 60.31 50.8276 60.2191C50.9637 60.1282 51.0998 60.0372 51.236 59.9235C51.3721 59.8098 51.4855 59.6962 51.5989 59.5825C51.7124 59.4688 51.8258 59.3324 51.9393 59.2187C52.0527 59.0823 52.1434 58.9686 52.2342 58.8095C52.3249 58.673 52.4157 58.5366 52.4838 58.3775C52.5518 58.241 52.6426 58.0819 52.6879 57.9227C52.756 57.7636 52.8014 57.6044 52.8468 57.4453C52.8921 57.2861 52.9375 57.127 52.9602 56.9678C52.9829 56.8087 53.0056 56.6495 53.0282 56.4676C53.0282 56.3085 53.0509 56.1266 53.0509 55.9674V5.6522C53.0509 5.49305 53.0509 5.31116 53.0282 5.152C53.0282 4.99285 52.9829 4.81097 52.9602 4.65181C52.9375 4.49266 52.8921 4.3335 52.8468 4.17435C52.8014 4.01519 52.7333 3.85604 52.6879 3.69689C52.6199 3.53774 52.5518 3.40132 52.4838 3.24216C52.4157 3.10575 52.3249 2.9466 52.2342 2.81018C52.1434 2.67376 52.0527 2.53734 51.9393 2.40093C51.8258 2.26451 51.7124 2.15083 51.5989 2.03715C51.4855 1.92347 51.3494 1.80978 51.236 1.6961C51.0998 1.58242 50.9637 1.49148 50.8276 1.40054C50.6915 1.30959 50.5553 1.21865 50.3965 1.15044C50.2604 1.08223 50.1016 0.991283 49.9428 0.94581C49.784 0.877602 49.6252 0.83213 49.4663 0.786657C49.3075 0.741185 49.1487 0.695714 48.9899 0.672978C48.8311 0.650242 48.6723 0.6275 48.4908 0.604764C48.332 0.604764 48.1505 0.582031 47.9917 0.582031ZM49.6705 56.1721C49.6705 56.1721 49.6705 56.3994 49.6478 56.5131C49.6478 56.6268 49.6025 56.7177 49.5571 56.8314C49.5117 56.9223 49.4663 57.036 49.3983 57.127C49.3302 57.2179 49.2622 57.3089 49.1941 57.3771C49.126 57.4453 49.0353 57.5362 48.9445 57.5817C48.8538 57.6499 48.763 57.6954 48.6496 57.7409C48.5588 57.7863 48.4454 57.8091 48.332 57.8318C48.2185 57.8318 48.1051 57.8545 47.9917 57.8545H20.9484C20.9484 57.8545 20.7215 57.8545 20.6081 57.8318C20.4947 57.8091 20.4039 57.7863 20.2905 57.7409C20.1997 57.6954 20.0863 57.6499 19.9956 57.5817C19.9048 57.5135 19.8141 57.4453 19.746 57.3771C19.6779 57.3089 19.5872 57.2179 19.5418 57.127C19.4738 57.036 19.4284 56.9451 19.383 56.8314C19.3376 56.7177 19.3149 56.6268 19.2923 56.5131C19.2923 56.3994 19.2696 56.2857 19.2696 56.1721V5.44758C19.2696 5.44758 19.2696 5.22021 19.2923 5.10653C19.2923 4.99285 19.3376 4.90191 19.383 4.78823C19.4284 4.67454 19.4738 4.58361 19.5418 4.49266C19.6099 4.40172 19.6779 4.31077 19.746 4.24256C19.8141 4.17435 19.9048 4.08341 19.9956 4.03794C20.0863 3.99246 20.1771 3.92426 20.2905 3.87878C20.4039 3.83331 20.4947 3.81057 20.6081 3.78784C20.7215 3.78784 20.835 3.76509 20.9484 3.76509H25.3498L26.4161 6.1524C26.4841 6.31156 26.5749 6.44797 26.6656 6.56166C26.7564 6.67534 26.8925 6.78902 27.0286 6.87996C27.1647 6.97091 27.3235 7.03911 27.4597 7.08459C27.6185 7.13006 27.7773 7.15279 27.9361 7.15279H40.9586C41.1174 7.15279 41.2762 7.13006 41.435 7.08459C41.5939 7.03911 41.73 6.97091 41.8661 6.87996C42.0022 6.78902 42.1157 6.67534 42.2291 6.56166C42.3425 6.44797 42.4106 6.31156 42.4787 6.1524L43.545 3.76509H47.9463C47.9463 3.76509 48.1732 3.7651 48.2866 3.78784C48.4 3.78784 48.4908 3.83331 48.6042 3.87878C48.7177 3.92426 48.8084 3.96973 48.8992 4.03794C48.9899 4.10614 49.0807 4.17435 49.1487 4.24256C49.2168 4.31077 49.3075 4.40172 49.3529 4.49266C49.3983 4.58361 49.4663 4.67454 49.5117 4.78823C49.5571 4.90191 49.5798 4.99285 49.6025 5.10653C49.6025 5.22021 49.6252 5.3339 49.6252 5.44758V56.1721H49.6705Z" fill="#004E4E"/>
<path d="M39.5292 22.3631C39.5292 22.5223 39.5292 22.7042 39.5065 22.8633C39.5065 23.0225 39.4611 23.2044 39.4384 23.3635C39.4157 23.5227 39.3704 23.6818 39.325 23.841C39.2796 24.0002 39.2116 24.1593 39.1662 24.3185C39.1208 24.4776 39.0301 24.614 38.962 24.7732C38.8939 24.9096 38.8032 25.0688 38.7124 25.2052C38.6217 25.3416 38.5309 25.478 38.4175 25.6144C38.3041 25.7508 38.1906 25.8645 38.0772 25.9782C37.9638 26.0919 37.8276 26.2056 37.7142 26.3192C37.5781 26.4329 37.4419 26.5239 37.3058 26.6148C37.1697 26.7058 37.0336 26.7967 36.8748 26.8649C36.7386 26.9331 36.5798 27.0241 36.421 27.0695C36.2622 27.115 36.1034 27.1832 35.9446 27.2287C35.7858 27.2742 35.627 27.3196 35.4682 27.3424C35.3093 27.3651 35.1505 27.3878 34.969 27.4106C34.8102 27.4106 34.6287 27.4333 34.4699 27.4333C34.3111 27.4333 34.1296 27.4333 33.9708 27.4106C33.812 27.4106 33.6305 27.3651 33.4717 27.3424C33.3129 27.3196 33.1541 27.2742 32.9952 27.2287C32.8364 27.1832 32.6776 27.115 32.5188 27.0695C32.36 27.0241 32.2239 26.9331 32.0651 26.8649C31.9289 26.7967 31.7701 26.7058 31.634 26.6148C31.4979 26.5239 31.3617 26.4329 31.2256 26.3192C31.0895 26.2056 30.9761 26.0919 30.8626 25.9782C30.7492 25.8645 30.6358 25.7281 30.5223 25.6144C30.4089 25.5007 30.3181 25.3416 30.2274 25.2052C30.1366 25.0688 30.0459 24.9323 29.9778 24.7732C29.9098 24.6368 29.819 24.4776 29.7736 24.3185C29.7283 24.1593 29.6602 24.0002 29.6148 23.841C29.5695 23.6818 29.5241 23.5227 29.5014 23.3635C29.4787 23.2044 29.456 23.0452 29.4333 22.8633C29.4333 22.7042 29.4106 22.5223 29.4106 22.3631C29.4106 22.204 29.4106 22.0221 29.4333 21.863C29.4333 21.7038 29.4787 21.5219 29.5014 21.3628C29.5241 21.2036 29.5695 21.0444 29.6148 20.8853C29.6602 20.7261 29.7283 20.567 29.7736 20.4078C29.8417 20.2487 29.9098 20.1123 29.9778 19.9531C30.0459 19.8167 30.1366 19.6575 30.2274 19.5211C30.3181 19.3847 30.4089 19.2483 30.5223 19.1119C30.6358 18.9754 30.7492 18.8618 30.8626 18.7481C30.9761 18.6344 31.1122 18.5207 31.2256 18.407C31.3617 18.2934 31.4752 18.2024 31.634 18.1115C31.7701 18.0205 31.9063 17.9296 32.0651 17.8614C32.2012 17.7932 32.36 17.7022 32.5188 17.6567C32.6776 17.6113 32.8364 17.5431 32.9952 17.4976C33.1541 17.4521 33.3129 17.4067 33.4717 17.3839C33.6305 17.3612 33.7893 17.3384 33.9708 17.3157C34.1296 17.3157 34.3111 17.293 34.4699 17.293C34.6287 17.293 34.8102 17.293 34.969 17.3157C35.1278 17.3157 35.3093 17.3612 35.4682 17.3839C35.627 17.4067 35.7858 17.4521 35.9446 17.4976C36.1034 17.5431 36.2622 17.6113 36.421 17.6567C36.5798 17.7022 36.716 17.7932 36.8748 17.8614C37.0109 17.9296 37.1697 18.0205 37.3058 18.1115C37.4419 18.2024 37.5781 18.2934 37.7142 18.407C37.8503 18.5207 37.9638 18.6344 38.0772 18.7481C38.1906 18.8618 38.3041 18.9982 38.4175 19.1119C38.5309 19.2483 38.6217 19.3847 38.7124 19.5211C38.8032 19.6575 38.8939 19.794 38.962 19.9531C39.0301 20.0895 39.1208 20.2487 39.1662 20.4078C39.2342 20.567 39.2796 20.7261 39.325 20.8853C39.3704 21.0444 39.4157 21.2036 39.4384 21.3628C39.4611 21.5219 39.4838 21.6811 39.5065 21.863C39.5065 22.0221 39.5292 22.204 39.5292 22.3631Z" fill="#004E4E"/>
<path d="M37.8499 27.4336H31.089C30.9302 27.4336 30.7487 27.4336 30.5899 27.4563C30.4311 27.4563 30.2496 27.5018 30.0908 27.5245C29.932 27.5473 29.7732 27.5927 29.6144 27.6382C29.4556 27.6837 29.2968 27.7519 29.1379 27.7974C28.9791 27.8429 28.843 27.9338 28.6842 28.002C28.5254 28.0702 28.3893 28.1612 28.2531 28.2521C28.117 28.343 27.9809 28.434 27.8448 28.5477C27.7086 28.6614 27.5952 28.775 27.4818 28.8887C27.3683 29.0024 27.2549 29.1388 27.1415 29.2525C27.028 29.3662 26.9373 29.5026 26.8465 29.6617C26.7558 29.7982 26.665 29.9346 26.597 30.0937C26.5289 30.2302 26.4382 30.3893 26.3928 30.5485C26.3247 30.7076 26.2793 30.8668 26.234 31.0259C26.1886 31.1851 26.1432 31.3442 26.1205 31.5034C26.0978 31.6625 26.0752 31.8217 26.0525 32.0036C26.0525 32.1627 26.0298 32.3446 26.0298 32.5038V44.3493H42.9318V32.5038C42.9318 32.3446 42.9318 32.1627 42.9091 32.0036C42.9091 31.8444 42.8638 31.6853 42.8411 31.5034C42.8184 31.3215 42.773 31.1851 42.7276 31.0259C42.6822 30.8668 42.6142 30.7076 42.5688 30.5485C42.5007 30.3893 42.4327 30.2529 42.3646 30.0937C42.2966 29.9573 42.2058 29.7982 42.1151 29.6617C42.0243 29.5253 41.9336 29.3889 41.8201 29.2525C41.7067 29.1161 41.5933 29.0024 41.4798 28.8887C41.3664 28.775 41.2303 28.6614 41.1168 28.5477C41.0034 28.434 40.8446 28.343 40.7085 28.2521C40.5723 28.1612 40.4362 28.0702 40.2774 28.002C40.1186 27.9338 39.9825 27.8429 39.8237 27.7974C39.6648 27.7292 39.506 27.6837 39.3472 27.6382C39.1884 27.5927 39.0296 27.5473 38.8708 27.5245C38.712 27.5018 38.5532 27.4563 38.3717 27.4563C38.2129 27.4563 38.0314 27.4336 37.8725 27.4336H37.8499Z" fill="#004E4E"/>
</svg>
