<svg width="80" height="98" viewBox="0 0 80 98" fill="none" xmlns="http://www.w3.org/2000/svg">
<path d="M59.3085 30.5198L78.8085 30.5316C79.4453 30.5355 79.9569 31.055 79.9569 31.6878L79.9335 70.1837L79.9257 81.1567L79.9296 81.1607C79.9296 81.7974 79.414 82.313 78.7773 82.3169L53.1993 82.3012V89.0004L67.9843 89.0082C68.621 89.0082 69.1405 89.5239 69.1445 90.1605V96.6175C69.1406 97.2543 68.6211 97.7698 67.9843 97.7698L11.9453 97.7386H11.9492C11.6445 97.7347 11.3515 97.6136 11.1328 97.3988C10.918 97.1839 10.7969 96.8909 10.7969 96.5863V90.1292C10.7969 89.8207 10.9219 89.5316 11.1367 89.3128C11.3515 89.098 11.6445 88.9769 11.9492 88.9769L26.7342 88.9847V82.2855L1.1562 82.2699V82.2738C0.51948 82.2738 0 81.7543 0 81.1176L0.0078125 70.1406L0.03125 31.6446H0.0273438C0.0273438 31.004 0.546874 30.4844 1.18754 30.4844L20.6875 30.4961H20.6836C20.7227 30.3125 20.7422 30.1289 20.7383 29.9414C20.7305 29.4844 20.6133 29.0391 20.4024 28.6367L20.1836 28.207C19.5235 26.9218 19.7696 25.3554 20.7969 24.3398L23.4219 21.707C23.9219 21.2109 24.5664 20.8828 25.2617 20.7695C25.957 20.6602 26.6719 20.7734 27.2969 21.1016L27.7266 21.3203V21.3164C28.1289 21.5312 28.5743 21.6445 29.0313 21.6562C29.4883 21.6523 29.9376 21.5469 30.3438 21.3398C30.7813 21.1211 31.211 20.9258 31.6485 20.7461C32.086 20.5664 32.5313 20.3984 32.9923 20.2383V20.2422C33.422 20.1016 33.8165 19.8633 34.1368 19.543C34.4532 19.2148 34.6915 18.8203 34.8243 18.3868L34.9766 17.9297V17.9258C35.4141 16.5469 36.6993 15.6133 38.1485 15.6211H41.8633C43.3047 15.6172 44.586 16.5547 45.0195 17.9297L45.1719 18.3868V18.3907C45.4375 19.2774 46.1289 19.9766 47.0157 20.2501C47.4688 20.4063 47.9141 20.5782 48.3516 20.7579C48.789 20.9376 49.2227 21.1329 49.6563 21.3555C50.0625 21.5587 50.5118 21.668 50.9688 21.6719C51.4258 21.6602 51.8711 21.5469 52.2735 21.3321L52.711 21.1134V21.1173C53.336 20.7891 54.0469 20.6758 54.7422 20.7891C55.4375 20.9024 56.0781 21.2306 56.5781 21.7266L59.2109 24.3594H59.207C59.707 24.8555 60.0351 25.5 60.1445 26.1914C60.2499 26.8907 60.1367 27.6016 59.8164 28.2266L59.5937 28.6563C59.3828 29.0587 59.2695 29.5079 59.2578 29.961C59.2578 30.1485 59.2734 30.336 59.3124 30.5157L59.3085 30.5198ZM46.4296 45.0748C46.2186 45.3248 45.9178 45.4772 45.5936 45.4889C45.2655 45.5045 44.953 45.3795 44.7225 45.153C44.4921 44.9225 44.371 44.6061 44.3827 44.2819C44.3983 43.9576 44.5506 43.653 44.7967 43.4459L47.7537 40.4928L44.8006 37.528C44.5545 37.3171 44.4022 37.0163 44.3905 36.6882C44.3749 36.364 44.4959 36.0476 44.7264 35.821C44.9569 35.5905 45.2733 35.4655 45.5975 35.4812C45.9217 35.4968 46.2264 35.6452 46.4334 35.8952L50.2068 39.6725C50.4217 39.8874 50.5467 40.1803 50.5467 40.4889C50.5467 40.7936 50.4217 41.0866 50.2068 41.3053L46.4296 45.0748ZM43.0936 33.2658C43.4101 32.715 44.1092 32.5275 44.66 32.844C45.2108 33.1604 45.3983 33.8635 45.0819 34.4104L36.8905 48.5824C36.5741 49.1371 35.871 49.3284 35.3202 49.0081C34.7655 48.6917 34.5741 47.9886 34.8905 47.4378L43.0936 33.2658ZM35.1796 43.4378H35.1756C35.4256 43.6488 35.578 43.9496 35.5936 44.2777C35.6092 44.6019 35.4842 44.9183 35.2538 45.1488C35.0233 45.3792 34.7069 45.5003 34.3827 45.4847C34.0585 45.4691 33.7538 45.3206 33.5467 45.0667L29.7694 41.2933C29.3241 40.8402 29.3241 40.1136 29.7694 39.6605L33.5467 35.8871C34.0077 35.5043 34.6834 35.5356 35.1092 35.9613C35.5311 36.3832 35.5624 37.063 35.1756 37.52L32.2186 40.477L35.1796 43.4378ZM41.0623 4.10583C41.0623 2.55113 41.9413 1.12923 43.3318 0.433932C44.7224 -0.261378 46.3865 -0.112949 47.6326 0.820651C48.8748 1.75424 49.4842 3.30895 49.2068 4.84015C48.9295 6.36745 47.8123 7.60965 46.3201 8.04715V13.7074C46.3201 14.348 45.8006 14.8676 45.16 14.8676C44.5232 14.8676 44.0037 14.348 44.0037 13.7074V8.04715C43.3436 7.85184 42.7459 7.49637 42.2576 7.00805C41.4881 6.23852 41.0584 5.19555 41.0584 4.10575L41.0623 4.10583ZM43.8943 2.84022C43.5584 3.17616 43.3709 3.62928 43.367 4.10582C43.367 4.58238 43.5545 5.03941 43.8904 5.37532C44.2264 5.71126 44.6834 5.90266 45.16 5.90266C46.1482 5.89876 46.9491 5.10188 46.9529 4.10966C46.949 3.12529 46.1522 2.32446 45.1638 2.31666C44.6873 2.31666 44.2303 2.50428 43.8943 2.84022ZM30.7613 4.10583C30.7613 2.55503 31.6363 1.13313 33.0269 0.441732C34.4136 -0.253578 36.0777 -0.105149 37.316 0.828451C38.5582 1.75814 39.1676 3.31285 38.8902 4.84015C38.6168 6.36745 37.4996 7.60575 36.0113 8.03935V13.7035C36.0387 14.0277 35.9293 14.348 35.7106 14.5863C35.4879 14.8245 35.1793 14.9613 34.8551 14.9613C34.5309 14.9613 34.2223 14.8245 34.0035 14.5863C33.7848 14.348 33.6754 14.0277 33.7028 13.7035V8.03935C31.9528 7.52763 30.7536 5.92215 30.7536 4.10185L30.7613 4.10583ZM33.5933 2.84413V2.84022C33.2535 3.17616 33.066 3.62928 33.066 4.10582C33.0621 4.83238 33.4957 5.48862 34.1676 5.76992C34.8395 6.05122 35.6129 5.89492 36.1246 5.3793C36.4605 5.04336 36.6519 4.58633 36.6519 4.1059C36.648 3.12152 35.8473 2.3207 34.8628 2.3168C34.3863 2.3168 33.9253 2.50821 33.5894 2.84414L33.5933 2.84413ZM61.5814 11.8753C61.5892 11.1449 61.1517 10.4886 60.4798 10.2112C59.808 9.92998 59.0345 10.0862 58.5228 10.6019C58.1049 11.0237 57.9213 11.6292 58.0385 12.2113C58.1557 12.7972 58.5541 13.2855 59.1049 13.516C59.6556 13.7425 60.2846 13.6839 60.7807 13.3558C61.2807 13.0238 61.5775 12.4691 61.5814 11.8753ZM62.6947 8.97303H62.6908C63.4994 9.73475 63.9681 10.7894 63.9838 11.8988C63.9995 13.0082 63.5659 14.0785 62.7807 14.8636C61.9956 15.6488 60.9252 16.0784 59.8159 16.0589C58.7026 16.0394 57.6479 15.5746 56.8901 14.762C56.4019 14.2777 56.0464 13.6761 55.8549 13.0159H53.5658V18.2971C53.5932 18.6174 53.4838 18.9378 53.2651 19.176C53.0424 19.4182 52.7338 19.551 52.4096 19.551C52.0854 19.551 51.7768 19.4182 51.558 19.176C51.3393 18.9378 51.2299 18.6175 51.2572 18.2971V11.8635C51.2533 11.5588 51.3744 11.2659 51.5932 11.0471C51.808 10.8284 52.101 10.7073 52.4096 10.7073H55.8588H55.8549C56.0463 10.0471 56.4057 9.44558 56.894 8.96118C58.4956 7.36348 61.0893 7.36348 62.6909 8.96118L62.6947 8.97303ZM16.1207 11.8402C16.1325 9.80503 17.6285 8.08633 19.6441 7.79723C21.6597 7.50817 23.5816 8.73864 24.1597 10.6878H27.605C28.2418 10.6878 28.7612 11.2074 28.7612 11.848V18.2777C28.7886 18.602 28.6831 18.9223 28.4644 19.1645C28.2417 19.4027 27.9331 19.5395 27.6089 19.5395C27.2808 19.5395 26.9722 19.4027 26.7534 19.1645C26.5347 18.9223 26.4253 18.602 26.4565 18.2777V12.9965H24.1596C23.5776 14.9496 21.6557 16.1762 19.6401 15.8871C17.6284 15.5981 16.1285 13.8754 16.1207 11.8402ZM18.9645 10.5785C18.6247 10.9145 18.4333 11.3715 18.4333 11.8441C18.4333 12.3207 18.6247 12.7777 18.9645 13.1136C19.2966 13.4535 19.7536 13.641 20.2262 13.641C20.7028 13.641 21.1598 13.4535 21.4957 13.1175C21.8317 12.7816 22.0231 12.3246 22.0231 11.8519C22.0231 11.3754 21.8356 10.9183 21.4996 10.5824C21.1637 10.2426 20.7067 10.0551 20.234 10.0551C19.7575 10.0551 19.3044 10.2465 18.9684 10.5824L18.9645 10.5785ZM40.0035 24.9765C44.9644 24.9804 49.6441 27.2929 52.6635 31.2304C55.6791 35.1718 56.6947 40.289 55.4057 45.0824C54.1166 49.8754 50.6713 53.7972 46.0854 55.6914C41.4995 57.5859 36.2924 57.2383 31.9994 54.7539C27.7025 52.2695 24.808 47.9258 24.1635 43.0079C23.5229 38.086 25.2026 33.1446 28.7182 29.6409C31.7026 26.6448 35.7612 24.9651 39.9952 24.9729L40.0035 24.9765ZM49.648 31.2929C45.0503 26.6835 37.836 25.9687 32.418 29.582C27 33.1914 24.8907 40.129 27.3789 46.148C29.8672 52.1636 36.2578 55.5855 42.6449 54.3199C49.0316 53.0504 53.6329 47.4488 53.6369 40.9369C53.6448 37.3197 52.2066 33.8515 49.648 31.2929ZM19.726 32.8085L2.34305 32.8007L2.31961 68.9887L77.6286 69.0317L77.6481 32.8477L60.2611 32.8399C60.4018 33.1953 60.5385 33.5586 60.6635 33.9297C60.8041 34.3594 61.0424 34.7539 61.3627 35.0742C61.6908 35.3906 62.0854 35.6289 62.5189 35.7695L62.9837 35.9179V35.914C64.3626 36.3515 65.2962 37.6367 65.2845 39.0859V42.8007C65.2806 43.5038 65.0619 44.1874 64.6517 44.7577C64.2338 45.328 63.6478 45.7499 62.9759 45.9608L62.5111 46.1132C61.6244 46.3788 60.9252 47.0663 60.6517 47.953C60.4993 48.4061 60.3314 48.8514 60.1478 49.2889C59.9681 49.7264 59.765 50.16 59.5501 50.5936L59.554 50.5897C59.1243 51.4139 59.1321 52.3905 59.5696 53.2108L59.7923 53.6483V53.6443C60.1087 54.2733 60.2259 54.9841 60.1165 55.6795C60.0072 56.3749 59.679 57.0154 59.179 57.5115L56.5462 60.1443C55.5306 61.1677 53.9642 61.4138 52.679 60.7537L52.2415 60.5311V60.5272C51.4251 60.0897 50.4485 60.0858 49.6243 60.5115C49.1946 60.7225 48.7571 60.9256 48.3196 61.1053C47.8821 61.285 47.4368 61.4529 46.9837 61.6053C46.5501 61.7459 46.1556 61.9881 45.8353 62.3084C45.515 62.6326 45.2806 63.0311 45.1439 63.4646L44.9916 63.9294C44.558 65.3083 43.2728 66.2419 41.8275 66.2302H38.1127C36.6674 66.242 35.3783 65.3045 34.9447 63.9255L34.7923 63.4607C34.6595 63.0271 34.4252 62.6287 34.1048 62.3045C33.7845 61.9803 33.3939 61.742 32.9603 61.6014C32.5033 61.449 32.0541 61.2811 31.6165 61.0975C31.179 60.9178 30.7494 60.7147 30.3118 60.5037L30.3157 60.4998C29.4954 60.074 28.5149 60.0779 27.6985 60.5154L27.2689 60.7381C25.9798 61.4022 24.4134 61.1522 23.3939 60.1287L20.7728 57.4959C20.2728 56.9998 19.9485 56.3553 19.8353 55.66C19.7259 54.9608 19.8431 54.2459 20.1712 53.6209L20.3899 53.1834C20.6048 52.7811 20.7181 52.3358 20.7298 51.8787C20.7259 51.4217 20.6165 50.9725 20.4134 50.5662C20.1946 50.1365 19.9993 49.699 19.8196 49.2693C19.6399 48.8396 19.472 48.3787 19.3118 47.9255C19.1712 47.4919 18.9329 47.1013 18.6126 46.7771C18.2845 46.4607 17.8899 46.2224 17.4524 46.0896L16.9876 45.9373H16.9915C15.6165 45.4959 14.6829 44.2146 14.6907 42.7693V39.0545V39.0584C14.6868 38.3514 14.9094 37.6639 15.3235 37.0936C15.7375 36.5272 16.3235 36.1053 16.9915 35.8905L17.4563 35.746V35.7421C17.8899 35.6053 18.2844 35.3671 18.6125 35.0506C18.9328 34.7303 19.175 34.3358 19.3117 33.9061C19.4367 33.5351 19.5735 33.1679 19.7141 32.8163L19.726 32.8085ZM53.757 23.1757L53.3195 23.3945C51.8547 24.1601 50.1047 24.1718 48.632 23.4179C48.261 23.2343 47.8664 23.0585 47.4641 22.8906C47.0617 22.7226 46.675 22.5742 46.2687 22.4414H46.2727C44.7024 21.9296 43.4757 20.6875 42.9836 19.1094L42.8351 18.6445H42.839C42.7726 18.4375 42.6437 18.2539 42.4679 18.125C42.2882 18 42.0773 17.9375 41.8625 17.9414H38.1477C37.9289 17.9375 37.7141 18 37.5383 18.125C37.3664 18.2578 37.2375 18.4375 37.1711 18.6445L37.0188 19.1094V19.1055C36.7766 19.8828 36.3508 20.5899 35.7804 21.168C35.2023 21.7461 34.4992 22.1797 33.7257 22.4375C33.3234 22.5742 32.925 22.7187 32.5304 22.8867C32.1359 23.0507 31.7375 23.2304 31.3625 23.414L31.3664 23.4101C29.8937 24.1601 28.1476 24.1484 26.6867 23.3789L26.2492 23.1601V23.164C26.0538 23.0585 25.8312 23.0234 25.6163 23.0585C25.4015 23.0937 25.2062 23.1953 25.0538 23.3515L22.421 25.9843H22.425C22.1007 26.2929 22.0226 26.7773 22.2375 27.1718L22.4562 27.6093C23.2218 29.0702 23.2335 30.8163 22.4796 32.289C22.296 32.664 22.1203 33.0507 21.9523 33.457C21.7843 33.8594 21.6359 34.2461 21.5031 34.6562C21.2453 35.4257 20.8117 36.125 20.2336 36.6992C19.6555 37.2695 18.9484 37.6953 18.1711 37.9375L17.7062 38.0899C17.2766 38.2149 16.9875 38.6172 17.0031 39.0664V42.7812C16.9914 43.2265 17.2766 43.625 17.7062 43.7578L18.1711 43.9062V43.9023C19.7453 44.3984 20.9875 45.625 21.4992 47.1953C21.6359 47.5976 21.7843 47.9961 21.9484 48.3906C22.1125 48.7851 22.2922 49.1875 22.4757 49.5625H22.4718C23.2218 51.0352 23.214 52.7773 22.4445 54.2422L22.2257 54.6719C22.1242 54.8672 22.0851 55.086 22.1203 55.3047C22.1593 55.5195 22.2609 55.7149 22.4172 55.8672L25.05 58.4922H25.046C25.1984 58.6485 25.3937 58.7539 25.6085 58.793C25.8273 58.8242 26.046 58.7891 26.2414 58.6875L26.6789 58.4649V58.4609C28.1437 57.7031 29.882 57.6914 31.3547 58.4375C31.7297 58.6211 32.1203 58.8047 32.5227 58.9649C32.925 59.125 33.3117 59.2813 33.718 59.418C34.4914 59.6758 35.1946 60.1094 35.7688 60.6914C36.3391 61.2695 36.7648 61.9766 37.0032 62.7539L37.1555 63.2109H37.1594C37.2844 63.6406 37.6867 63.9296 38.1321 63.9218H41.8469C42.2961 63.9297 42.6945 63.6406 42.8234 63.2109L42.9719 62.7539C43.468 61.1797 44.6946 59.9375 46.261 59.4219C46.6633 59.2852 47.0617 59.1328 47.4563 58.9688C47.8508 58.8047 48.2531 58.625 48.6243 58.4414V58.4453C50.1009 57.7031 51.8431 57.7109 53.3118 58.4766L53.7493 58.6992H53.7454C54.1399 58.9141 54.6282 58.8359 54.9368 58.5078L57.5618 55.8867C57.8899 55.582 57.968 55.0898 57.7532 54.6992L57.5149 54.25C56.7571 52.7852 56.7454 51.0469 57.4914 49.5742C57.675 49.1992 57.8586 48.8047 58.0188 48.4023C58.1789 48 58.3352 47.6132 58.4719 47.207V47.2031C58.9836 45.6328 60.2258 44.4101 61.8 43.9179L62.2649 43.7695C62.6906 43.6405 62.9797 43.2421 62.9758 42.7968V39.082C62.9875 38.6328 62.6945 38.2304 62.2649 38.1054L61.8 37.9531H61.8039C61.0266 37.707 60.3195 37.2851 59.7414 36.7109C59.1672 36.1367 58.7336 35.4375 58.4797 34.664C58.343 34.2538 58.1907 33.8554 58.0266 33.4648C57.8625 33.0703 57.6829 32.6718 57.4993 32.2968C56.7571 30.8241 56.7688 29.082 57.5305 27.6171L57.7532 27.1796V27.1835C57.8547 26.9882 57.8899 26.7655 57.8586 26.5507C57.8235 26.3358 57.718 26.1366 57.5579 25.9882L54.9368 23.3554C54.7844 23.203 54.5891 23.1015 54.3743 23.0624C54.1594 23.0273 53.9368 23.0624 53.7454 23.1679L53.757 23.1757ZM2.31905 71.2967L2.31514 79.9569L27.8931 79.9725L77.6231 80.0038L77.627 71.3436L2.31905 71.2967ZM52.034 91.3047L27.882 91.2891L13.093 91.2813V95.4258L66.823 95.457V91.3125L52.034 91.3047ZM50.8895 82.3008L29.0455 82.2891V88.9883L50.8895 89V82.3008Z" fill="#004E4E"/>
</svg>
