<svg width="73" height="63" viewBox="0 0 73 63" fill="none" xmlns="http://www.w3.org/2000/svg">
<path d="M12.9167 62.9893H46.5C53.63 62.9893 59.4167 57.2027 59.4167 50.0727V26.8227C59.4167 19.6927 53.63 13.906 46.5 13.906H12.9167C5.78667 13.906 0 19.6927 0 26.8227V50.0727C0 57.2027 5.78667 62.9893 12.9167 62.9893ZM5.16667 26.8227C5.16667 22.5602 8.65417 19.0727 12.9167 19.0727H46.5C50.7625 19.0727 54.25 22.5602 54.25 26.8227V50.0727C54.25 54.3352 50.7625 57.8227 46.5 57.8227H12.9167C8.65417 57.8227 5.16667 54.3352 5.16667 50.0727V26.8227Z" fill="#004E4E"/>
<path d="M59.4167 0.989258H25.8334C22.6817 0.989258 19.6592 2.12592 17.2825 4.21842C16.2234 5.17426 16.12 6.80176 17.05 7.86092C17.98 8.92009 19.6334 9.02342 20.6925 8.09342C22.1134 6.85342 23.9475 6.15592 25.8334 6.15592H59.4167C63.6792 6.15592 67.1667 9.64342 67.1667 13.9059V37.1559C67.1667 39.0418 66.4692 40.8759 65.2292 42.2709C64.2734 43.3301 64.3767 44.9834 65.4617 45.9134C65.9525 46.3526 66.5725 46.5593 67.1667 46.5593C67.89 46.5593 68.5875 46.2751 69.1042 45.6809C71.1967 43.3301 72.3334 40.3076 72.3334 37.1559V13.9059C72.3334 6.77592 66.5467 0.989258 59.4167 0.989258Z" fill="#004E4E"/>
<path d="M25.9626 50.0725C26.8926 50.0725 27.8226 49.8142 28.6492 49.3233L38.5692 43.3558C40.2742 42.3483 41.3334 40.4625 41.3334 38.4475C41.3334 36.4325 40.2742 34.5467 38.5951 33.5392L28.6751 27.5717C27.8484 27.0808 26.9184 26.8225 25.9626 26.8225C23.0434 26.8225 20.6667 29.2767 20.6667 32.2733V44.6475C20.6667 47.6442 23.0434 50.0725 25.9626 50.0725ZM25.8334 32.2733C25.8334 32.0925 25.9367 32.015 25.9884 32.015L35.9342 37.9825C36.0634 38.06 36.1667 38.2408 36.1667 38.4475C36.1667 38.6542 36.0634 38.8608 35.9342 38.9383L25.9626 44.9058C25.9367 44.9058 25.8334 44.8283 25.8334 44.6475V32.2733Z" fill="#004E4E"/>
</svg>
